/* XPM */
static char *desktop[] = {
/* columns rows colors chars-per-pixel */
"16 16 120 2",
"   c #39464F",
".  c #2A4357",
"X  c #344858",
"o  c #264862",
"O  c #2A506D",
"+  c #385268",
"@  c #2C5677",
"#  c #2B597E",
"$  c #3C617E",
"%  c #434648",
"&  c #4D4E4F",
"*  c #4F4F4F",
"=  c #585859",
"-  c #45596A",
";  c #596269",
":  c #606060",
">  c #606466",
",  c #6A6A6A",
"<  c #65737F",
"1  c #707477",
"2  c #747474",
"3  c #797979",
"4  c #7B7B7B",
"5  c #7D7D7D",
"6  c #D1A85F",
"7  c #D9B97D",
"8  c #295B83",
"9  c #2D5C80",
"0  c #29608B",
"q  c #2B608A",
"w  c #2D6189",
"e  c #29618D",
"r  c #2A618D",
"t  c #2A628E",
"y  c #33658D",
"u  c #2B6592",
"i  c #2C6694",
"p  c #2D6896",
"a  c #2E6896",
"s  c #2F6A99",
"d  c #2F6B9A",
"f  c #306691",
"g  c #306894",
"h  c #316D9D",
"j  c #316E9E",
"k  c #326E9E",
"l  c #3370A0",
"z  c #3574A5",
"x  c #3E77A3",
"c  c #3B77A6",
"v  c #3777A9",
"b  c #3878AA",
"n  c #3979AC",
"m  c #397AAD",
"M  c #3A7CB0",
"N  c #437BA7",
"B  c #4A7EA6",
"V  c #3D80B3",
"C  c #3D80B4",
"Z  c #3E80B4",
"A  c #3D81B6",
"S  c #3E82B6",
"D  c #3F83B9",
"F  c #6991B5",
"G  c #6D99BE",
"H  c #779BB9",
"J  c #448BC3",
"K  c #4A95CF",
"L  c #509EDB",
"P  c #709DC3",
"I  c #719EC5",
"U  c #73A1CA",
"Y  c #75A4CD",
"T  c #76A6D0",
"R  c #78A9D3",
"E  c #79AAD4",
"W  c #7AADD7",
"Q  c #7BAFDA",
"!  c #818181",
"~  c #868686",
"^  c #898989",
"/  c #8A8A8A",
"(  c #8D8D8D",
")  c #8F8F8F",
"_  c #919191",
"`  c #939393",
"'  c #949494",
"]  c #979797",
"[  c #989898",
"{  c #9C9C9C",
"}  c #82A2BE",
"|  c #A1A1A1",
" . c #A5A5A5",
".. c #A9A9A9",
"X. c #AEAEAE",
"o. c #B2B2B2",
"O. c #B3B3B3",
"+. c #B6B6B6",
"@. c #B7B7B7",
"#. c #BDBDBD",
"$. c #8AACCD",
"%. c #89B0D3",
"&. c #8CB4D9",
"*. c #8EB8DD",
"=. c #90BCE2",
"-. c #92BEE6",
";. c #C1C1C1",
":. c #C4C4C4",
">. c #C8C8C8",
",. c #CBCBCB",
"<. c #CFCFCF",
"1. c #D2D2D2",
"2. c #D6D6D6",
"3. c #D9D9D9",
"4. c #DFDFDF",
"5. c #E1E1E1",
"6. c #EFEFEF",
"7. c #FDFDFD",
"8. c #FFFFFF",
"9. c None",
/* pixels */
"9.@.@.@.@.@.@.@.@.@.@.@.@.@.@.9.",
"o.5.8.8.8.8.8.8.8.8.8.8.8.8.5.o.",
"X.6.} $.$.F F F F F F F F } 6.X.",
"..4.F $.$.F F F F F F F F F 4...",
" .3.e e e e e e e e e e e 0 ( _ ",
"| 2.e 7 7 e u i i i e e @ ; ; * ",
"{ 1.e 6 6 d k l l k y - , % 3 ] ",
"] <.e i k z b m m $ 1 * . # <.[ ",
"' >.i X.X.M V N < = X 9 0 e ,.` ",
") >.s ^ / Z B ;   o # w g a >.) ",
"/ :.k v Z N + O y c Z Z b k :./ ",
"~ ;.l b Z J K L L K J Z b k ;.~ ",
"! #.G %.&.*.Q -.-.=.R Y P G #.! ",
"5 @.H P U Y E W W E Y U P H @.5 ",
"3 ` O.@.O.@.@.@.@.@.@.@.@.O.` 3 ",
"9.2 2 1 2 2 2 2 2 2 2 2 2 2 2 9."
};
