/* XPM */
static char *desktop[] = {
/* columns rows colors chars-per-pixel */
"48 48 208 2",
"   c #000000",
".  c #0A0A0A",
"X  c #131414",
"o  c #13191D",
"O  c #1C1C1C",
"+  c #1A2229",
"@  c #182833",
"#  c #172D3D",
"$  c #192E3F",
"%  c #1F313F",
"&  c #242424",
"*  c #21272D",
"=  c #26292C",
"-  c #2B2B2B",
";  c #222C34",
":  c #333333",
">  c #30373D",
",  c #3C3C3C",
"<  c #1C3143",
"1  c #1D3C54",
"2  c #323F4A",
"3  c #263D50",
"4  c #384046",
"5  c #3C4348",
"6  c #2F4351",
"7  c #24435A",
"8  c #3C4851",
"9  c #3A4B59",
"0  c #1E4666",
"q  c #1F4867",
"w  c #1F4768",
"e  c #1F496B",
"r  c #214460",
"t  c #234864",
"y  c #224B6B",
"u  c #27506F",
"i  c #2B516E",
"p  c #355063",
"a  c #3B576E",
"s  c #234F72",
"d  c #255275",
"f  c #285373",
"g  c #25557A",
"h  c #29577B",
"j  c #27587F",
"k  c #2C5A7D",
"l  c #335672",
"z  c #3F5D75",
"x  c #3D5F7A",
"c  c #434444",
"v  c #4C4C4D",
"b  c #404A52",
"n  c #535353",
"m  c #545759",
"M  c #5D5D5D",
"N  c #42596B",
"B  c #5E5F60",
"V  c #55636E",
"C  c #646464",
"Z  c #6D6D6D",
"A  c #747474",
"S  c #777E73",
"D  c #7A7A7A",
"F  c #A38344",
"G  c #B38E4C",
"H  c #8D896D",
"J  c #AA9A74",
"K  c #C19B54",
"L  c #CDA96B",
"P  c #C3A670",
"I  c #D6B477",
"U  c #D2B279",
"Y  c #275C85",
"T  c #2B5D84",
"R  c #285F89",
"E  c #2E6087",
"W  c #2A618D",
"Q  c #346386",
"!  c #32658D",
"~  c #2C6593",
"^  c #2E6996",
"/  c #2F6A99",
"(  c #306691",
")  c #306893",
"_  c #326D9C",
"`  c #396F99",
"'  c #35709E",
"]  c #3A729D",
"[  c #3573A3",
"{  c #3976A6",
"}  c #3E78A6",
"|  c #3776A8",
" . c #3778AA",
".. c #397AAD",
"X. c #3B7EB1",
"o. c #4C6A85",
"O. c #406B8F",
"+. c #54738C",
"@. c #417197",
"#. c #4B7495",
"$. c #44769C",
"%. c #4A769A",
"&. c #4E799C",
"*. c #537594",
"=. c #567997",
"-. c #547B9B",
";. c #597E9D",
":. c #607E9A",
">. c #4E7EA3",
",. c #437DA9",
"<. c #3E81B5",
"1. c #3F84BA",
"2. c #4C81AB",
"3. c #5580A2",
"4. c #5B82A4",
"5. c #5082AC",
"6. c #5D87A9",
"7. c #5C89AC",
"8. c #4282B4",
"9. c #4A85B5",
"0. c #4D88B6",
"q. c #4286BB",
"w. c #4488BE",
"e. c #4D8BBC",
"r. c #5287B1",
"t. c #528AB5",
"y. c #5C8DB3",
"u. c #528DBB",
"i. c #5490BE",
"p. c #5892BF",
"a. c #648BAF",
"s. c #7393AE",
"d. c #648DB1",
"f. c #698EB1",
"g. c #6590B2",
"h. c #6991B6",
"j. c #6195BE",
"k. c #6D96B9",
"l. c #7095B6",
"z. c #7499B7",
"x. c #7197B8",
"c. c #7499B9",
"v. c #458CC4",
"b. c #4C8EC2",
"n. c #4790C9",
"m. c #4993CD",
"M. c #5391C2",
"N. c #5994C4",
"B. c #4B96D1",
"V. c #4D99D4",
"C. c #4E9CD8",
"Z. c #509EDB",
"A. c #6D9AC2",
"S. c #709FC8",
"D. c #51A0DD",
"F. c #7BA4C4",
"G. c #73A3CD",
"H. c #7AA6CA",
"J. c #7CA8CF",
"K. c #75A6D1",
"L. c #77A9D4",
"P. c #79ABD6",
"I. c #79AEDA",
"U. c #7BB1DE",
"Y. c #7EB5E3",
"T. c #828282",
"R. c #81888E",
"E. c #8C8C8C",
"W. c #848F98",
"Q. c #939393",
"!. c #92989D",
"~. c #9E9E9E",
"^. c #8199AD",
"/. c #8B9DAC",
"(. c #9DA1A4",
"). c #96A2AE",
"_. c #9DA6AE",
"`. c #80A1BF",
"'. c #A4A4A5",
"]. c #ACACAC",
"[. c #A7ADB3",
"{. c #AFB0B2",
"}. c #B3B3B3",
"|. c #B6B8BB",
" X c #BABABA",
".X c #82A4C3",
"XX c #8AA9C7",
"oX c #8CADCA",
"OX c #9BB5CD",
"+X c #80AFD6",
"@X c #83B3DB",
"#X c #90B6D6",
"$X c #9EB9D0",
"%X c #95BBDC",
"&X c #A0B9D2",
"*X c #80B8E7",
"=X c #94BEE0",
"-X c #B9C3CC",
";X c #99C2E5",
":X c #9AC5EA",
">X c #9DC8EC",
",X c #C4C4C4",
"<X c #CBCBCB",
"1X c #D3D3D3",
"2X c #DBDBDB",
"3X c #E3E3E3",
"4X c #ECECEC",
"5X c None",
/* pixels */
"5X5X5X5X5X5X5X5X5X5X5X5X5X5X5X5X5X5X5X5X5X5X5X5X5X5X5X5X5X5X5X5X5X5X5X5X5X5X5X5X5X5X5X5X5X5X5X5X",
"5X5X5X5X5X5X5X5X5X5X5X5X5X5X5X5X5X5X5X5X5X5X5X5X5X5X5X5X5X5X5X5X5X5X5X5X5X5X5X5X5X5X5X5X5X5X5X5X",
"5X5X5X5X5X5X5X5X5X5X5X5X5X5X5X5X5X5X5X5X5X5X5X5X5X5X5X5X5X5X5X5X5X5X5X5X5X5X5X5X5X5X5X5X5X5X5X5X",
"5X5X5X5X,X2X4X4X4X4X4X4X4X4X4X4X4X4X4X4X4X4X4X4X4X4X4X4X4X4X4X4X4X4X4X4X4X4X4X4X4X4X2X<X5X5X5X5X",
"5X5X5X X3X3X3X3X3X3X3X3X3X3X3X3X3X3X3X3X3X3X3X4X4X4X4X4X4X4X4X4X4X4X4X4X4X4X4X4X4X4X4X4X X5X5X5X",
"5X5X5X1X3X3X3X3X3X3X3X3X3X3X3X3X3X3X3X3X3X3X3X4X4X4X4X4X4X4X4X4X4X4X4X4X4X4X4X4X4X4X4X4X2X5X5X5X",
"5X5X5X4X2X3X2X,X].].].].].].].].].].].].].].].].}.].].].].].}.].].].].].}.].].{.<X3X4X4X3X5X5X5X",
"5X5X5X3X3X3X,X_.+.o.o.o.o.o.o.o.o.o.o.o.o.o.o.o.o.o.o.o.o.o.o.o.o.o.o.o.o.o.o.+.[.<X4X4X3X5X5X5X",
"5X5X5X3X2X3X].+.a.a.OXOXd.f.d.f.l.f.f.f.d.d.d.f.&XXXXXXXXXXXXXXXXXXXXXXXXXXXXX`.+.{.4X4X3X5X5X5X",
"5X5X5X3X3X2X}.o.a.a.$X$Xh.XXXXXX.X.X.XF..X.Xf.h.$XoXoXoXoXoXoXoXoXoXoXoXoXoXoXXXo.].4X3X3X5X5X5X",
"5X5X5X3X2X2X}.o.d.g.h.h.d.h.j.g.h.h.h.h.h.h.j.f.XXOXoXoXoXoXoXoXoXoXoXoXoXoXoXXXo.}.3X<X1X5X5X5X",
"5X5X5X3X2X2X}.0 R W E E ~ R R W W W W W W W R ~ W XXc.c.c.c.c.c.c.c.c.c.c.c.c.l.t ]. X1X X4X, : ",
"5X5X5X3X2X2X}.0 Y W R W W W W W W W W W W ~ R R W z.c.x.c.x.c.c.z.z.x.z.x.z.z.s.W.,X2X<X1X X'.5X",
"5X5X5X3X1X2X|.0 R R Y g Y R W W W W W W W R W W W $..Xx.x.x.x.x.x.x.x.x.x.l./.,X].].2X|.Q.Z E.5X",
"5X5X5X2X2X1X X0 R Y H P J S Y R W W W ~ ~ ~ ~ ~ ~ ~ .Xx.x.x.x.x.l.l.l.k.^.|. X'.1X X~.A v & 5X5X",
"5X5X5X3X1X2X X0 Y g U U U U g W ~ ~ ~ ~ ^ ~ ~ ~ ~ ~ d.c.k.x.k.k.k.l.s.[.,X~. X<X].T.M n }.5X5X5X",
"5X5X5X2X2X1X X0 R h L G K L j ~ ~ ~ / / / / / / / / ] .Xk.k.A.h.s.).,X'.}.1X{.E.C v Q.2X2X5X5X5X",
"5X5X5X2X1X2X Xt R k F G G F Y ^ / / / / / / _ _ _ _ _ A.k.k.k.f.|.}.'.2X XQ.Z v % ].1X2X2X5X5X5X",
"5X5X5X2X1X1X Xt R R j j Y Y ~ _ / / [ _ / [ [ [ [ _ [ 0.c.k.l.(.'.1X X~.D n 8 +.r  X2X2X2X5X5X5X",
"5X5X5X2X1X1X-Xq W E j j k Y ~ _ [ [ [ [ [ [ [ [ [ [ [ | F.=.M 2X1X].T.M 5 o.6.4.0  X2X2X2X5X5X5X",
"5X5X5X2X<X1X,Xe W j ].Q.Q.'.W [ [ [ [ | | | | | | | | { 2 X c R.E.C c N 4.6.7.6.q ,X2X2X2X5X5X5X",
"5X5X5X1X1X1X,Xe ~ R -X,X X}.W | [ | | |  . . . .....i = - X . : v 9 3.6.7.y.d.7.e  X<X1X1X5X5X5X",
"5X5X5X1X1X<X,Xe ~ R ,X,X X{.! |  . . .X.X.X.X.X.` 2 : O - . o N 3.4.7.y.7.4.3.-.0  X<X1X1X5X5X5X",
"5X5X5X1X<X<X<Xu ^ E !.'.'.R.~  . .X.X.X.X.X...p c , : O o a 3.y.y.y.7.&.-.-.-.&.q  X<X1X1X5X5X5X",
"5X5X5X1X<X<X<Xs / / ~ W ( ) { ..X.X.<.<.8.Q > , , - = 7 _ ,.k.j.y.%.%.=.%.-.-.&.y  X<X<X1X5X5X5X",
"5X5X5X1X<X<X<Xs / [ | | ....X.X.X.<.<.{ 6 c , & = 3 ` { ..[ >.#.#.#.%.%.&.&.-.%.y ,X<X<X1X5X5X5X",
"5X5X5X1X<X<X<Xd _ | | ....X.X.X.1.<.a c , - - < ( ` ` ! T T O.#.#.#.%.%.&.>.>.>.s <X1X1X1X5X5X5X",
"5X5X5X1X<X<X<Xd _ | | ..X.X.X.1.] 8 c - & @ i T k k T T E Q ! #.%.>.>.5.r.t.t.5.h <X<X<X1X5X5X5X",
"5X5X5X<X,X<X1Xd ` | ....X.<.<.x m , & + 1 y f k k T E E ! ` ..M.N.p.p.u.u.t.r.2.g 1X<X<X1X5X5X5X",
"5X5X5X1X,X,X1Xg [  .X.X.<.} V v : + # t s f f k E ` ..w.n.v.v.b.N.M.u.u.t.t.0.2.g 1X<X<X<X5X5X5X",
"5X5X5X<X,X,X1Xg [ ....X.@.m , * # r t f Q ` ..b.m.m.m.m.n.v.v.w.N.M.b.e.e.0.9.2.h 1X<X,X<X5X5X5X",
"5X5X5X<X,X,X1Xg { ..X.] 4 ; < y E ] 8.n.m.B.B.B.B.B.B.m.m.n.v.v.n.M.u.e.e.9.9.,.h 1X,X<X<X5X5X5X",
"5X5X5X<X,X,X1Xh { ..X.<. .<.q.v.v.n.n.m.V.V.V.V.V.V.V.m.m.m.n.v.v.n.b.e.q.9.8.,.g 1X,X,X<X5X5X5X",
"5X5X5X<X,X,X1Xh | X.<.<.1.w.w.v.n.n.m.B.V.V.V.Z.Z.Z.V.V.B.m.n.v.v.v.w.q.q.8.8.} h 2X,X,X<X5X5X5X",
"5X5X5X<X,X,X2Xh | X.<.<.1.1.v.v.v.m.m.B.V.V.Z.D.Z.Z.Z.V.B.m.m.v.v.v.w.q.8.<.X.| h 2X,X,X<X5X5X5X",
"5X5X5X,X X,X2X*.k.G.G.G.K.L.L.L.I.I.U.U.*XU.*X*X*X*X*XU.I.Y.I.I.P.P.K.K.G.G.G.A.*.2X X,X,X5X5X5X",
"5X5X5X,X X,X2X+.k.G.#X%X%X%X%XI.=X;X;X;X;XY.:X>X>X>X:XY.U.I.I.I.L.L.K.K.G.G.G.A.*.3X,X X,X5X5X5X",
"5X5X5X,X X X2X;.j.A.H.H.J.J.L.G.P.I.+X@X@XI.@X@X@X@X@XP.P.L.K.K.G.G.G.S.S.S.k.h.;.2X X,X,X5X5X5X",
"5X5X5X,X X X1X-X:.*.*.*.=.=.=.;.;.;.;.;.;.4.4.;.4.4.4.;.;.;.;.;.;.-.-.*.*.*.*.:.-X1X X X,X5X5X5X",
"5X5X5X,X X,X,X1X3X3X3X3X3X3X3X3X3X3X3X3X3X3X3X3X3X3X3X3X3X3X3X3X3X3X3X3X3X3X3X3X1X X X X,X5X5X5X",
"5X5X5X]. X X X X X X X X X X X X X X X X X X X X X X X X|. X X X X X X X X X|. X X X X X].5X5X5X",
"5X5X5XD  X}.|. X}. X X X}. X X}. X X|. X X}. X X X X}. X}. X|. X X X}. X}. X}. X X X X XA 5X5X5X",
"5X5X5Xv H [.,X,X,X,X,X,X,X,X,X,X,X,X,X,X,X,X,X,X,X,X,X<X,X,X,X,X,X,X,X,X,X,X,X,X,X,X].T.n 5X5X5X",
"5X5X5X, n B C Z Z Z Z A A A A A A D D D D D D T.D D D D D D D A A A A A Z A A Z Z C M n , 5X5X5X",
"5X5X5X. , v m m M M M M M M C C C C C C Z C C C C Z C C C C C C M C M M M M M M m m v , . 5X5X5X",
"5X5X5X5X5X                                                                            5X5X5X5X5X",
"5X5X5X5X5X5X5X5X5X5X5X5X5X5X5X5X5X5X5X5X5X5X5X5X5X5X5X5X5X5X5X5X5X5X5X5X5X5X5X5X5X5X5X5X5X5X5X5X",
"5X5X5X5X5X5X5X5X5X5X5X5X5X5X5X5X5X5X5X5X5X5X5X5X5X5X5X5X5X5X5X5X5X5X5X5X5X5X5X5X5X5X5X5X5X5X5X5X"
};
