<?xml version="1.0" encoding="UTF-8" standalone="no"?>
<!-- Created with Inkscape (http://www.inkscape.org/) -->

<svg
   xmlns:dc="http://purl.org/dc/elements/1.1/"
   xmlns:cc="http://creativecommons.org/ns#"
   xmlns:rdf="http://www.w3.org/1999/02/22-rdf-syntax-ns#"
   xmlns:svg="http://www.w3.org/2000/svg"
   xmlns="http://www.w3.org/2000/svg"
   xmlns:xlink="http://www.w3.org/1999/xlink"
   xmlns:inkscape="http://www.inkscape.org/namespaces/inkscape"
   version="1.0"
   width="96"
   height="96"
   id="svg2408">
  <defs
     id="defs2410">
    <linearGradient
       id="linearGradient4384">
      <stop
         id="stop4386"
         style="stop-color:#ffffff;stop-opacity:1"
         offset="0" />
      <stop
         id="stop4388"
         style="stop-color:#ffffff;stop-opacity:0"
         offset="1" />
    </linearGradient>
    <linearGradient
       id="linearGradient4367">
      <stop
         id="stop4369"
         style="stop-color:#ffffff;stop-opacity:0.71755725"
         offset="0" />
      <stop
         id="stop4371"
         style="stop-color:#ffffff;stop-opacity:1"
         offset="1" />
    </linearGradient>
    <linearGradient
       x1="45.447727"
       y1="92.539597"
       x2="45.447727"
       y2="7.0165396"
       id="ButtonShadow"
       gradientUnits="userSpaceOnUse"
       gradientTransform="scale(1.0058652,0.994169)">
      <stop
         id="stop3750"
         style="stop-color:#000000;stop-opacity:1"
         offset="0" />
      <stop
         id="stop3752"
         style="stop-color:#000000;stop-opacity:0.58823532"
         offset="1" />
    </linearGradient>
    <linearGradient
       id="linearGradient3737">
      <stop
         id="stop3739"
         style="stop-color:#ffffff;stop-opacity:1"
         offset="0" />
      <stop
         id="stop3741"
         style="stop-color:#ffffff;stop-opacity:0"
         offset="1" />
    </linearGradient>
    <filter
       color-interpolation-filters="sRGB"
       id="filter3174">
      <feGaussianBlur
         id="feGaussianBlur3176"
         stdDeviation="1.71" />
    </filter>
    <filter
       x="-0.192"
       y="-0.192"
       width="1.3839999"
       height="1.3839999"
       color-interpolation-filters="sRGB"
       id="filter3794">
      <feGaussianBlur
         id="feGaussianBlur3796"
         stdDeviation="5.28" />
    </filter>
    <linearGradient
       x1="48"
       y1="20.220806"
       x2="48"
       y2="138.66119"
       id="linearGradient3613"
       xlink:href="#linearGradient3737"
       gradientUnits="userSpaceOnUse" />
    <linearGradient
       x1="48"
       y1="90"
       x2="48"
       y2="5.9877172"
       id="linearGradient3617"
       xlink:href="#linearGradient3752"
       gradientUnits="userSpaceOnUse" />
    <linearGradient
       x1="45.447727"
       y1="92.539597"
       x2="45.447727"
       y2="7.0165396"
       id="ButtonShadow-0"
       gradientUnits="userSpaceOnUse"
       gradientTransform="matrix(1.0058652,0,0,0.994169,100,0)">
      <stop
         id="stop3750-8"
         style="stop-color:#000000;stop-opacity:1"
         offset="0" />
      <stop
         id="stop3752-5"
         style="stop-color:#000000;stop-opacity:0.58823532"
         offset="1" />
    </linearGradient>
    <linearGradient
       x1="32.251034"
       y1="6.1317081"
       x2="32.251034"
       y2="90.238609"
       id="linearGradient3780"
       xlink:href="#ButtonShadow-0"
       gradientUnits="userSpaceOnUse"
       gradientTransform="matrix(1.0238095,0,0,1.0119048,-1.1428571,-98.071429)" />
    <linearGradient
       x1="32.251034"
       y1="6.1317081"
       x2="32.251034"
       y2="90.238609"
       id="linearGradient3772"
       xlink:href="#ButtonShadow-0"
       gradientUnits="userSpaceOnUse"
       gradientTransform="matrix(1.0238095,0,0,1.0119048,-1.1428571,-98.071429)" />
    <linearGradient
       x1="32.251034"
       y1="6.1317081"
       x2="32.251034"
       y2="90.238609"
       id="linearGradient3725"
       xlink:href="#ButtonShadow-0"
       gradientUnits="userSpaceOnUse"
       gradientTransform="matrix(1.0238095,0,0,1.0119048,-1.1428571,-98.071429)" />
    <linearGradient
       x1="32.251034"
       y1="6.1317081"
       x2="32.251034"
       y2="90.238609"
       id="linearGradient3721"
       xlink:href="#ButtonShadow-0"
       gradientUnits="userSpaceOnUse"
       gradientTransform="translate(0,-97)" />
    <linearGradient
       x1="32.251034"
       y1="6.1317081"
       x2="32.251034"
       y2="90.238609"
       id="linearGradient3026"
       xlink:href="#ButtonShadow-0"
       gradientUnits="userSpaceOnUse"
       gradientTransform="matrix(1.0238095,0,0,1.0119048,-1.1428571,-98.071429)" />
    <clipPath
       id="clipPath4355">
      <rect
         width="84"
         height="80"
         rx="6"
         ry="6"
         x="6"
         y="6"
         id="rect4357"
         style="fill:#ffffff;fill-opacity:1;fill-rule:nonzero;stroke:none" />
    </clipPath>
    <radialGradient
       cx="48"
       cy="87.792389"
       r="42"
       fx="48"
       fy="87.792389"
       id="radialGradient4375"
       xlink:href="#linearGradient4367"
       gradientUnits="userSpaceOnUse"
       gradientTransform="matrix(1,-6.7114942e-8,8.4282233e-8,1.2557894,109.99999,-24.505592)" />
    <linearGradient
       x1="48"
       y1="88"
       x2="48"
       y2="-40"
       id="linearGradient4390"
       xlink:href="#linearGradient4384"
       gradientUnits="userSpaceOnUse"
       gradientTransform="matrix(1,0,0,-1,0,92)" />
    <linearGradient
       x1="48"
       y1="82"
       x2="112.12357"
       y2="82.454597"
       id="linearGradient4429"
       xlink:href="#linearGradient4384"
       gradientUnits="userSpaceOnUse"
       spreadMethod="reflect" />
    <linearGradient
       id="linearGradient3843">
      <stop
         id="stop3845"
         style="stop-color:#523823;stop-opacity:1"
         offset="0" />
      <stop
         id="stop3847"
         style="stop-color:#79563a;stop-opacity:1"
         offset="0.11780351" />
      <stop
         id="stop3849"
         style="stop-color:#875c38;stop-opacity:1"
         offset="0.23809524" />
      <stop
         id="stop3851"
         style="stop-color:#a66e40;stop-opacity:1"
         offset="1" />
    </linearGradient>
    <linearGradient
       x1="8"
       y1="1033.3622"
       x2="50"
       y2="1033.3622"
       id="linearGradient3870"
       xlink:href="#linearGradient3843"
       gradientUnits="userSpaceOnUse"
       gradientTransform="translate(-2,-956.3622)"
       spreadMethod="reflect" />
    <linearGradient
       id="linearGradient3752">
      <stop
         id="stop3754"
         style="stop-color:#6bd0f5;stop-opacity:1"
         offset="0" />
      <stop
         id="stop3756"
         style="stop-color:#c6eefd;stop-opacity:1"
         offset="1" />
    </linearGradient>
    <linearGradient
       x1="80"
       y1="80"
       x2="48"
       y2="48"
       id="linearGradient3773"
       xlink:href="#linearGradient3737-3"
       gradientUnits="userSpaceOnUse"
       gradientTransform="translate(0,-2)" />
    <linearGradient
       id="linearGradient3737-3">
      <stop
         id="stop3739-4"
         style="stop-color:#ffffff;stop-opacity:1"
         offset="0" />
      <stop
         id="stop3741-6"
         style="stop-color:#ffffff;stop-opacity:0"
         offset="1" />
    </linearGradient>
    <linearGradient
       x1="16"
       y1="16"
       x2="48"
       y2="48"
       id="linearGradient3781"
       xlink:href="#linearGradient3737-3"
       gradientUnits="userSpaceOnUse"
       gradientTransform="translate(0,-2)" />
    <linearGradient
       x1="32"
       y1="24"
       x2="64"
       y2="64"
       id="linearGradient3738"
       xlink:href="#linearGradient3737-3"
       gradientUnits="userSpaceOnUse"
       gradientTransform="translate(0,-2)" />
    <linearGradient
       x1="56"
       y1="80"
       x2="51.524998"
       y2="53.767857"
       id="linearGradient3746"
       xlink:href="#linearGradient3740"
       gradientUnits="userSpaceOnUse"
       gradientTransform="translate(0,-2)" />
    <linearGradient
       id="linearGradient3740">
      <stop
         id="stop3742"
         style="stop-color:#9ee1f9;stop-opacity:1"
         offset="0" />
      <stop
         id="stop3744"
         style="stop-color:#00aff0;stop-opacity:1"
         offset="1" />
    </linearGradient>
  </defs>
  <metadata
     id="metadata2413">
    <rdf:RDF>
      <cc:Work
         rdf:about="">
        <dc:format>image/svg+xml</dc:format>
        <dc:type
           rdf:resource="http://purl.org/dc/dcmitype/StillImage" />
        <dc:title />
      </cc:Work>
    </rdf:RDF>
  </metadata>
  <g
     id="layer2"
     style="display:none">
    <rect
       width="86"
       height="85"
       rx="6"
       ry="6"
       x="5"
       y="7"
       id="rect3745"
       style="opacity:0.9;fill:url(#ButtonShadow);fill-opacity:1;fill-rule:nonzero;stroke:none;filter:url(#filter3174)" />
  </g>
  <g
     id="layer3"
     style="display:inline">
    <path
       d="m 12,-95.03125 c -5.5110903,0 -10.03125,4.52016 -10.03125,10.03125 l 0,71 c 0,5.5110902 4.5201598,10.03125 10.03125,10.03125 l 72,0 c 5.51109,0 10.03125,-4.5201597 10.03125,-10.03125 l 0,-71 c 0,-5.51109 -4.52016,-10.03125 -10.03125,-10.03125 l -72,0 z"
       transform="scale(1,-1)"
       id="path3786"
       style="opacity:0.07999998;fill:url(#linearGradient3026);fill-opacity:1;fill-rule:nonzero;stroke:none;display:inline" />
    <path
       d="m 12,-94.03125 c -4.971633,0 -9.03125,4.059617 -9.03125,9.03125 l 0,71 c 0,4.9716329 4.0596171,9.03125 9.03125,9.03125 l 72,0 c 4.971633,0 9.03125,-4.059617 9.03125,-9.03125 l 0,-71 c 0,-4.971633 -4.059617,-9.03125 -9.03125,-9.03125 l -72,0 z"
       transform="scale(1,-1)"
       id="path3778"
       style="opacity:0.1;fill:url(#linearGradient3780);fill-opacity:1;fill-rule:nonzero;stroke:none;display:inline" />
    <path
       d="m 12,-93 c -4.4091333,0 -8,3.590867 -8,8 l 0,71 c 0,4.4091333 3.5908667,8 8,8 l 72,0 c 4.409133,0 8,-3.5908667 8,-8 l 0,-71 c 0,-4.409133 -3.590867,-8 -8,-8 l -72,0 z"
       transform="scale(1,-1)"
       id="path3770"
       style="opacity:0.2;fill:url(#linearGradient3772);fill-opacity:1;fill-rule:nonzero;stroke:none;display:inline" />
    <rect
       width="86"
       height="85"
       rx="7"
       ry="7"
       x="5"
       y="-92"
       transform="scale(1,-1)"
       id="rect3723"
       style="opacity:0.3;fill:url(#linearGradient3725);fill-opacity:1;fill-rule:nonzero;stroke:none;display:inline" />
    <rect
       width="84"
       height="84"
       rx="6"
       ry="6"
       x="6"
       y="-91"
       transform="scale(1,-1)"
       id="rect3716"
       style="opacity:0.45;fill:url(#linearGradient3721);fill-opacity:1;fill-rule:nonzero;stroke:none;display:inline" />
  </g>
  <g
     id="layer4">
    <rect
       width="84"
       height="26.000017"
       rx="6"
       ry="6"
       x="6"
       y="64"
       id="rect2841"
       style="color:#000000;fill:url(#linearGradient3870);fill-opacity:1;fill-rule:nonzero;stroke:none;stroke-width:1.5;marker:none;visibility:visible;display:inline;overflow:visible;enable-background:accumulate" />
    <path
       d="m 6,82 0,2 c 0,3.324 2.676,6 6,6 l 72,0 c 3.324,0 6,-2.676 6,-6 l 0,-2 c 0,3.324 -2.676,6 -6,6 L 12,88 C 8.676,88 6,85.324 6,82 z"
       inkscape:connector-curvature="0"
       id="rect4345"
       style="opacity:0.1;color:#000000;fill:#000000;fill-opacity:1;fill-rule:nonzero;stroke:none;stroke-width:1.5;marker:none;visibility:visible;display:inline;overflow:visible;enable-background:accumulate" />
    <path
       d="m 6,83 0,1 c 0,3.324 2.676,6 6,6 l 72,0 c 3.324,0 6,-2.676 6,-6 l 0,-1 c 0,3.324 -2.676,6 -6,6 L 12,89 C 8.676,89 6,86.324 6,83 z"
       inkscape:connector-curvature="0"
       id="rect4336"
       style="opacity:0.1;color:#000000;fill:#000000;fill-opacity:1;fill-rule:nonzero;stroke:none;stroke-width:1.5;marker:none;visibility:visible;display:inline;overflow:visible;enable-background:accumulate" />
    <path
       d="m 6,80 0,1 c 0,3.324 2.676,6 6,6 l 72,0 c 3.324,0 6,-2.676 6,-6 l 0,-1 c 0,3.324 -2.676,6 -6,6 L 12,86 C 8.676,86 6,83.324 6,80 z"
       inkscape:connector-curvature="0"
       id="path4412"
       style="opacity:0.2;fill:#000000;fill-opacity:1;fill-rule:nonzero;stroke:none" />
  </g>
  <g
     id="layer1">
    <rect
       width="84"
       height="80"
       rx="6"
       ry="6"
       x="6"
       y="6"
       id="rect2419"
       style="fill:url(#linearGradient3617);fill-opacity:1;fill-rule:nonzero;stroke:none" />
    <path
       d="M 120.78125,6.125 C 118.04223,6.6826484 116,9.0915 116,12 l 0,68 c 0,3.324 2.676,6 6,6 l 72,0 c 3.324,0 6,-2.676 6,-6 l 0,-68 c 0,-2.9085 -2.04223,-5.3173516 -4.78125,-5.875 2.20512,0.5362071 3.8125,2.4908437 3.8125,4.875 l 0,68 c 0,2.80489 -2.22636,5.03125 -5.03125,5.03125 l -72,0 c -2.80489,0 -5.03125,-2.22636 -5.03125,-5.03125 l 0,-68 c 0,-2.3841563 1.60738,-4.3387929 3.8125,-4.875 z"
       inkscape:connector-curvature="0"
       id="rect4359"
       style="opacity:0.2;fill:url(#radialGradient4375);fill-opacity:1;fill-rule:nonzero;stroke:none" />
    <path
       d="M 12,86 C 8.676,86 6,83.324 6,80 L 6,12 C 6,8.676 8.676,6 12,6 l 72,0 c 3.324,0 6,2.676 6,6 l 0,68 c 0,3.324 -2.676,6 -6,6 z m 0,-0.96875 72,0 c 2.80489,0 5.03125,-2.22636 5.03125,-5.03125 l 0,-68 C 89.03125,9.19511 86.80489,6.96875 84,6.96875 l -72,0 C 9.1951102,6.96875 6.96875,9.19511 6.96875,12 l 0,68 c 0,2.80489 2.2263602,5.03125 5.03125,5.03125 z"
       inkscape:connector-curvature="0"
       id="rect4377"
       style="opacity:0.6;fill:url(#linearGradient4390);fill-opacity:1;fill-rule:nonzero;stroke:none" />
    <path
       d="m 6,78 0,2 c 0,3.324 2.676,6 6,6 l 72,0 c 3.324,0 6,-2.676 6,-6 l 0,-2 c 0,3.324 -2.676,6 -6,6 L 12,84 C 8.676,84 6,81.324 6,78 z"
       inkscape:connector-curvature="0"
       id="rect4414"
       style="opacity:0.1;fill:url(#linearGradient4429);fill-opacity:1;fill-rule:nonzero;stroke:none" />
  </g>
  <g
     id="layer5"
     style="display:inline">
    <rect
       width="66"
       height="62"
       rx="12"
       ry="12"
       x="15"
       y="15"
       clip-path="url(#clipPath4355)"
       id="rect3171"
       style="opacity:0.1;fill:url(#linearGradient3613);fill-opacity:1;fill-rule:nonzero;stroke:#ffffff;stroke-width:0.5;stroke-linecap:round;stroke-linejoin:miter;stroke-miterlimit:4;stroke-opacity:1;stroke-dasharray:none;stroke-dashoffset:0;filter:url(#filter3794)" />
  </g>
  <g
     id="layer6">
    <path
       d="m 33.40625,13.03125 c -11.200953,0 -20.375,9.174048 -20.375,20.375 0,3.078135 0.813591,5.943007 2.03125,8.53125 -0.362158,1.969945 -0.625,3.984267 -0.625,6.0625 0,18.49092 15.071583,33.5625 33.5625,33.5625 2.078235,0 4.092557,-0.262842 6.0625,-0.625 2.593167,1.225196 5.44867,2.03125 8.53125,2.03125 11.200953,0 20.375,-9.174047 20.375,-20.375 0,-3.082576 -0.806044,-5.938076 -2.03125,-8.53125 0.362155,-1.969938 0.625,-3.984261 0.625,-6.0625 0,-18.490917 -15.071583,-33.5625 -33.5625,-33.5625 -2.118491,0 -4.135566,0.320689 -6.0625,0.6875 -2.562228,-1.218532 -5.417866,-2.09375 -8.53125,-2.09375 z"
       transform="translate(0,-2)"
       id="path3789"
       style="opacity:0.1;fill:#028dc0;fill-opacity:1;fill-rule:nonzero;stroke:none;display:inline" />
    <path
       d="m 33.40625,14.03125 c -10.662764,0 -19.375,8.712237 -19.375,19.375 0,3.038917 0.778653,5.880584 2.03125,8.4375 -0.382959,2.0108 -0.625,4.057488 -0.625,6.15625 0,17.955045 14.607458,32.5625 32.5625,32.5625 2.098764,0 4.145452,-0.242041 6.15625,-0.625 2.562141,1.261021 5.39175,2.03125 8.4375,2.03125 10.662764,0 19.375,-8.712236 19.375,-19.375 0,-3.045748 -0.770219,-5.875353 -2.03125,-8.4375 C 80.320455,52.145456 80.5625,50.098767 80.5625,48 80.5625,30.044958 65.955042,15.4375 48,15.4375 c -2.122884,0 -4.181384,0.302511 -6.15625,0.6875 -2.538282,-1.252748 -5.373315,-2.09375 -8.4375,-2.09375 z"
       transform="translate(0,-2)"
       id="path3785"
       style="opacity:0.15;fill:#0088ba;fill-opacity:1;fill-rule:nonzero;stroke:none;display:inline" />
    <path
       d="M 33.40625,14 C 23.80625,14 16,21.806251 16,31.40625 c 0,2.965159 0.720934,5.743732 2.03125,8.1875 -0.437454,2.059271 -0.625,4.217215 -0.625,6.40625 0,16.896003 13.69775,30.59375 30.59375,30.59375 2.189037,0 4.346981,-0.187546 6.40625,-0.625 C 56.85838,77.290809 59.614358,78 62.59375,78 72.19375,78 80,70.19375 80,60.59375 80,57.614355 79.29082,54.858383 77.96875,52.40625 78.4062,50.346981 78.59375,48.189038 78.59375,46 78.59375,29.104 64.896,15.40625 48,15.40625 c -2.189557,0 -4.346527,0.249843 -6.40625,0.6875 C 39.149766,14.78314 36.371771,14 33.40625,14 z"
       inkscape:connector-curvature="0"
       id="path3818"
       style="fill:url(#linearGradient3746);fill-opacity:1;fill-rule:nonzero;stroke:none;display:inline" />
    <path
       d="M 33.40625,14 C 23.80625,14 16,21.806251 16,31.40625 c 0,2.965159 0.720934,5.743732 2.03125,8.1875 -0.437454,2.059271 -0.625,4.217215 -0.625,6.40625 0,4.381688 0.93294,8.542633 2.59375,12.3125 C 36.555467,44.60081 63.222085,40.163385 77.75,38.71875 74.481487,25.332234 62.388599,15.40625 48,15.40625 c -2.189557,0 -4.346527,0.249843 -6.40625,0.6875 C 39.149766,14.78314 36.371771,14 33.40625,14 z"
       inkscape:connector-curvature="0"
       id="path3727"
       style="opacity:0.6;fill:url(#linearGradient3738);fill-opacity:1;stroke:none" />
    <path
       d="m 33.40625,13.0625 c -10.10362,0 -18.34375,8.24013 -18.34375,18.34375 0,2.997182 0.747733,5.807557 2.03125,8.3125 -0.408641,2.041944 -0.625,4.145418 -0.625,6.28125 0,17.398112 14.13314,31.53125 31.53125,31.53125 2.13583,0 4.23931,-0.216359 6.28125,-0.625 2.51099,1.293054 5.30546,2.03125 8.3125,2.03125 10.10362,0 18.34375,-8.240129 18.34375,-18.34375 0,-3.007041 -0.73818,-5.801509 -2.03125,-8.3125 0.40864,-2.04194 0.625,-4.145414 0.625,-6.28125 0,-17.398109 -14.13314,-31.53125 -31.53125,-31.53125 -2.15321,0 -4.25406,0.27619 -6.28125,0.6875 -2.49503,-1.283033 -5.30298,-2.09375 -8.3125,-2.09375 z m 0,0.9375 c -0.6,0 -1.19673,0.03423 -1.78125,0.09375 -0.49975,0.05089 -0.98231,0.126348 -1.46875,0.21875 0.48778,-0.0922 0.96772,-0.168039 1.46875,-0.21875 C 32.2099,14.03455 32.80607,14 33.40625,14 z m 3.40625,0.34375 c 0.64612,0.131388 1.28592,0.297862 1.90625,0.5 -0.61832,-0.203276 -1.25989,-0.366551 -1.90625,-0.5 z m -7.15625,0.0625 c -0.47838,0.105653 -0.94344,0.230785 -1.40625,0.375 0.45955,-0.142013 0.93146,-0.27078 1.40625,-0.375 z m -1.625,0.4375 c -0.47068,0.153408 -0.95405,0.339706 -1.40625,0.53125 0.46235,-0.195463 0.92461,-0.375509 1.40625,-0.53125 z M 46.375,15.4375 c -0.54231,0.03026 -1.0898,0.09767 -1.625,0.15625 0.54057,-0.0614 1.08014,-0.124998 1.625,-0.15625 z m -12.96875,0.5 c 2.62285,0 5.09404,0.702088 7.28125,1.875 A 1.9466111,1.9466111 0 0 0 42,18 c 1.9368,-0.411538 3.95851,-0.65625 6,-0.65625 15.84401,0 28.65625,12.812236 28.65625,28.65625 0,2.077863 -0.19023,4.100475 -0.59375,6 a 1.9466111,1.9466111 0 0 0 0.1875,1.34375 c 1.17095,2.171831 1.8125,4.579473 1.8125,7.25 0,8.544846 -6.9239,15.46875 -15.46875,15.46875 -2.67052,0 -5.07817,-0.641563 -7.25,-1.8125 A 1.9466111,1.9466111 0 0 0 54,74.0625 c -1.89952,0.403518 -3.92214,0.59375 -6,0.59375 -15.84401,0 -28.65625,-12.812233 -28.65625,-28.65625 0,-2.077862 0.190232,-4.100478 0.59375,-6 A 1.9466111,1.9466111 0 0 0 19.75,38.6875 c -1.160468,-2.164298 -1.8125,-4.631586 -1.8125,-7.28125 0,-8.544845 6.9239,-15.46875 15.46875,-15.46875 z M 25.125,16.09375 c -0.49323,0.268234 -0.97443,0.561926 -1.4375,0.875 -0.40779,0.275697 -0.80524,0.566672 -1.1875,0.875 0.38072,-0.305624 0.78143,-0.601722 1.1875,-0.875 0.46302,-0.311604 0.94431,-0.608132 1.4375,-0.875 z m 34.78125,1.71875 c 0.91539,0.387391 1.82011,0.809864 2.6875,1.28125 -0.86698,-0.470984 -1.77246,-0.894209 -2.6875,-1.28125 z m -37.5625,0.15625 c -0.42998,0.354977 -0.85605,0.731055 -1.25,1.125 C 20.80373,19.383768 20.51911,19.690244 20.25,20 c 0.27183,-0.313223 0.55037,-0.613325 0.84375,-0.90625 0.39793,-0.397305 0.8151,-0.767605 1.25,-1.125 z m 43.96875,3.5 c 0.78574,0.587738 1.52512,1.216121 2.25,1.875 -0.72441,-0.658414 -1.46471,-1.287713 -2.25,-1.875 z m 4.34375,3.96875 c 0.65888,0.724879 1.28726,1.464262 1.875,2.25 -0.58729,-0.785287 -1.21659,-1.525586 -1.875,-2.25 z m -53.875,0.8125 c -0.166754,0.53514 -0.322492,1.069228 -0.4375,1.625 0.113853,-0.555916 0.271929,-1.089743 0.4375,-1.625 z m 58.125,5.15625 c 0.47139,0.867386 0.89386,1.772109 1.28125,2.6875 -0.38704,-0.915041 -0.81027,-1.820516 -1.28125,-2.6875 z m -55.09375,26.5 c 0.38704,0.915041 0.81027,1.820515 1.28125,2.6875 -0.47139,-0.867386 -0.89386,-1.772109 -1.28125,-2.6875 z M 79.90625,62.375 c -0.0595,0.584518 -0.1339,1.152649 -0.25,1.71875 0.1161,-0.566101 0.19048,-1.134232 0.25,-1.71875 z m -0.25,1.75 c -0.11501,0.555772 -0.27075,1.08986 -0.4375,1.625 0.16675,-0.53514 0.32249,-1.069228 0.4375,-1.625 z m -56.1875,0.1875 c 0.58729,0.785287 1.21659,1.525586 1.875,2.25 -0.65888,-0.724879 -1.28726,-1.464262 -1.875,-2.25 z m 3.96875,4.34375 c 0.72441,0.658414 1.46471,1.287713 2.25,1.875 -0.78574,-0.587738 -1.52512,-1.216121 -2.25,-1.875 z m 5.96875,4.25 c 0.86698,0.470984 1.77246,0.894209 2.6875,1.28125 -0.91539,-0.387391 -1.82011,-0.809864 -2.6875,-1.28125 z"
       inkscape:connector-curvature="0"
       id="path3781"
       style="fill:#00aff0;fill-opacity:1;fill-rule:nonzero;stroke:none;display:inline" />
    <path
       d="m 47.4375,26.9375 c -5.042154,0 -9.227654,1.091781 -12.25,3.40625 -3.033115,2.322716 -4.71875,5.874894 -4.71875,10.03125 0,4.799292 3.260389,7.954399 7.03125,9.75 3.727753,1.775074 8.084507,2.549529 11.375,3 0.0181,0.0025 0.04446,-0.0025 0.0625,0 2.774047,0.759661 4.157818,1.512098 4.40625,1.75 0.215671,0.206529 0.18926,0.174535 0.25,0.4375 0.0508,0.219931 0.09375,0.655742 0.09375,1.28125 0,0.475961 -0.113976,0.769085 -0.34375,1.0625 -0.229774,0.293415 -0.60698,0.5885 -1.15625,0.875 -1.04064,0.5428 -2.6187,0.875 -3.75,0.875 -3.874935,0 -5.102929,-1.126268 -6.46875,-2.5625 -0.664108,-0.698345 -1.305848,-1.536252 -2.21875,-2.28125 -0.934942,-0.762985 -2.205394,-1.375 -3.78125,-1.375 -1.375711,0 -2.81215,0.211983 -3.875,1.25 -1.064667,1.039792 -1.375,2.550758 -1.375,4.25 0,1.29925 0.572946,2.51968 1.4375,3.65625 0.86256,1.133948 2.054824,2.259075 3.5625,3.25 3.01272,1.980121 7.27743,3.46875 12.40625,3.46875 5.007381,0 9.267372,-0.935923 12.40625,-3.0625 3.156046,-2.138209 5,-5.559518 5,-9.75 0,-4.306685 -1.930659,-7.45434 -4.90625,-9.5 -2.845671,-1.956343 -6.55929,-3.043686 -10.5625,-4.125 -0.02301,-0.0062 -0.03947,-0.02504 -0.0625,-0.03125 -0.02303,-0.0062 -0.03945,-0.02504 -0.0625,-0.03125 a 0.63708602,0.63708602 0 0 0 -0.03125,0 0.63708602,0.63708602 0 0 0 -0.03125,-0.03125 c -1.29e-4,-6.2e-5 -0.0179,0.0061 -0.03125,0 -0.01335,-0.0061 1.31e-4,-0.03119 0,-0.03125 -2.63e-4,-1.13e-4 -0.06223,1e-4 -0.0625,0 -2.67e-4,-1e-4 -0.06223,-0.03116 -0.0625,-0.03125 -2.72e-4,-8.8e-5 -0.06222,7.6e-5 -0.0625,0 -1.65e-4,-4.5e-5 -0.01485,-0.02715 -0.03125,-0.03125 -0.01109,-0.0027 -0.02018,0.0027 -0.03125,0 -2.727848,-0.662928 -4.887892,-1.263589 -6.03125,-1.84375 -0.558738,-0.283513 -0.848612,-0.577265 -1.03125,-0.8125 -0.203286,-0.261828 -0.21875,-0.231399 -0.21875,-0.59375 0,-1.076504 0.35101,-1.468634 1.25,-2 0.832918,-0.492313 2.194017,-0.8125 3.34375,-0.8125 1.961551,0 3.16156,0.281412 3.96875,0.65625 0.807085,0.374789 1.259232,0.856645 1.78125,1.46875 0.485326,0.569082 1.008553,1.345504 1.84375,2.0625 0.878011,0.75375 2.106493,1.28125 3.625,1.28125 1.265963,0 2.638474,-0.06937 3.8125,-0.9375 1.224135,-0.905183 1.71875,-2.438869 1.71875,-4.21875 0,-2.380354 -1.672445,-4.721812 -4.40625,-6.5625 -2.747279,-1.84976 -6.719837,-3.1875 -11.8125,-3.1875 z"
       transform="matrix(1.0261018,0,0,1.0261018,-1.252884,-3.252884)"
       id="path3750"
       style="opacity:0.1;fill:#00aff0;fill-opacity:1;fill-rule:evenodd;stroke:none;display:inline" />
    <path
       d="m 47.4375,27.5625 c -4.949368,0 -9.002272,1.081356 -11.875,3.28125 -2.876283,2.202617 -4.46875,5.54453 -4.46875,9.53125 0,4.512785 3.0445,7.452784 6.6875,9.1875 3.635953,1.731361 7.97452,2.490847 11.25,2.9375 2.862279,0.777298 4.272106,1.448611 4.75,1.90625 0.258359,0.247408 0.359761,0.413442 0.4375,0.75 0.07593,0.328745 0.09375,0.800121 0.09375,1.4375 0,1.187159 -0.657585,1.881294 -1.84375,2.5 -1.171275,0.610939 -2.788367,0.9375 -4.03125,0.9375 -4.010426,0 -5.539084,-1.279493 -6.9375,-2.75 -0.694143,-0.729928 -1.31255,-1.530226 -2.15625,-2.21875 -0.852844,-0.695986 -1.966144,-1.25 -3.375,-1.25 -1.302334,0 -2.547987,0.22502 -3.4375,1.09375 -0.889886,0.869095 -1.1875,2.159965 -1.1875,3.78125 0,1.107556 0.499932,2.213022 1.3125,3.28125 0.812814,1.068551 1.953267,2.138772 3.40625,3.09375 2.904887,1.909247 7.058065,3.375 12.0625,3.375 4.925985,0 9.074111,-0.944128 12.0625,-2.96875 2.993932,-2.028377 4.71875,-5.21104 4.71875,-9.21875 0,-4.119177 -1.81872,-7.018004 -4.65625,-8.96875 -2.762608,-1.899239 -6.442043,-3.000494 -10.5,-4.09375 a 0.65580733,0.65580733 0 0 0 -0.03125,-0.03125 c -0.01009,-0.0027 -0.02116,0.0027 -0.03125,0 A 0.65580733,0.65580733 0 0 0 49.46875,43.0625 c -2.753354,-0.668452 -4.919607,-1.262898 -6.1875,-1.90625 -0.628026,-0.318671 -1.006592,-0.655245 -1.25,-0.96875 -0.244215,-0.314544 -0.34375,-0.544789 -0.34375,-1 0,-1.265235 0.562278,-1.971299 1.5625,-2.5625 0.983726,-0.581451 2.406746,-0.875 3.65625,-0.875 2.023113,0 3.333755,0.29327 4.25,0.71875 0.916245,0.42548 1.462595,0.994852 2,1.625 0.526048,0.616831 0.996667,1.353282 1.75,2 0.767182,0.658606 1.844357,1.125 3.21875,1.125 1.239242,0 2.444153,-0.07797 3.4375,-0.8125 1.012905,-0.74899 1.46875,-2.055243 1.46875,-3.71875 0,-2.073011 -1.500243,-4.263985 -4.125,-6.03125 C 56.276517,28.885634 52.417326,27.5625 47.4375,27.5625 z"
       transform="matrix(1.0261018,0,0,1.0261018,-1.252884,-3.252884)"
       id="path3746"
       style="opacity:0.3;fill:#00aff0;fill-opacity:1;fill-rule:evenodd;stroke:none;display:inline" />
    <path
       d="m 47.4375,28.21875 c -4.852608,0 -8.749731,1.074064 -11.46875,3.15625 -2.719019,2.082186 -4.21875,5.185141 -4.21875,9 0,4.223564 2.794267,6.918445 6.3125,8.59375 3.518233,1.675305 7.809365,2.431394 11.0625,2.875 2.953378,0.79605 4.451201,1.44851 5.125,2.09375 0.340122,0.325705 0.497339,0.645104 0.59375,1.0625 0.09641,0.417396 0.125,0.937331 0.125,1.59375 0,1.45324 -0.884525,2.414116 -2.1875,3.09375 -1.302975,0.679634 -2.996884,1 -4.34375,1 -4.162922,0 -5.964012,-1.452162 -7.40625,-2.96875 -0.721119,-0.758294 -1.323354,-1.527548 -2.09375,-2.15625 -0.770396,-0.628702 -1.723103,-1.09375 -2.96875,-1.09375 -1.226584,0 -2.258443,0.212539 -2.96875,0.90625 -0.710307,0.693711 -1,1.773504 -1,3.3125 0,0.89967 0.427825,1.876307 1.1875,2.875 0.759675,0.998693 1.852139,2.018751 3.25,2.9375 2.795722,1.837498 6.812533,3.28125 11.6875,3.28125 4.842424,0 8.856273,-0.925605 11.6875,-2.84375 2.831227,-1.918145 4.4375,-4.863416 4.4375,-8.6875 0,-3.933235 -1.672957,-6.579898 -4.375,-8.4375 -2.702043,-1.857602 -6.396348,-2.977433 -10.5625,-4.09375 a 0.46759098,0.46759098 0 0 0 0,-0.03125 C 46.553654,43.017715 44.387536,42.454061 43,41.75 42.306232,41.39797 41.817728,41.002977 41.5,40.59375 41.182272,40.184523 41.03125,39.758362 41.03125,39.1875 c 0,-1.484229 0.743518,-2.456215 1.875,-3.125 1.131482,-0.668785 2.653134,-0.96875 4,-0.96875 4.176589,0 5.626802,1.245466 6.75,2.5625 0.561599,0.658517 1.0241,1.367988 1.6875,1.9375 0.6634,0.569512 1.548427,0.96875 2.78125,0.96875 1.203766,0 2.26486,-0.09769 3.0625,-0.6875 0.79764,-0.589813 1.1875,-1.633679 1.1875,-3.1875 0,-1.736742 -1.335921,-3.811463 -3.84375,-5.5 -2.507829,-1.688537 -6.228967,-2.96875 -11.09375,-2.96875 z"
       transform="matrix(1.0261018,0,0,1.0261018,-1.252884,-3.252884)"
       id="path3742"
       style="opacity:0.6;fill:#00aff0;fill-opacity:1;fill-rule:evenodd;stroke:none;display:inline" />
    <path
       d="m 47.42003,26.169468 c -9.814887,0 -15.614592,4.416698 -15.614592,12.000929 0,8.25023 10.754042,10.380973 17.399117,11.287113 6.219894,1.666619 6.42429,2.636615 6.424289,5.353575 0,3.386229 -4.276132,4.684378 -7.182712,4.684378 -8.775722,0 -8.127761,-6.379676 -12.803966,-6.379676 -2.409108,0 -3.569049,0.803036 -3.569049,3.836728 0,3.033692 6.245835,8.878011 16.060723,8.878011 9.814886,0 16.060722,-3.792115 16.060722,-11.376346 0,-7.807799 -6.460125,-10.116866 -14.990007,-12.402441 -5.673761,-1.37746 -8.8334,-2.368932 -8.833399,-5.085896 0,-3.386224 3.606935,-4.684378 6.513515,-4.684378 8.775722,0 6.833979,5.621253 11.510186,5.621253 2.409109,0 3.881341,-0.490744 3.881341,-3.524435 0,-3.033693 -5.041282,-8.208815 -14.856168,-8.208815 z"
       inkscape:connector-curvature="0"
       id="path3757"
       style="fill:#ffffff;fill-opacity:1;fill-rule:evenodd;stroke:none;display:inline" />
    <path
       d="M 33.40625,14 C 23.804515,14 16,21.804515 16,31.40625 c 0,2.843656 0.684161,5.521192 1.90625,7.90625 0.09573,0.180245 0.129285,0.392779 0.09375,0.59375 -0.397007,1.983812 -0.59375,4.020256 -0.59375,6.09375 0,8.425348 3.428761,16.030071 8.9375,21.5625 C 21.405934,62.12962 18.40625,54.921036 18.40625,47 c 0,-0.165813 -0.0025,-0.334669 0,-0.5 -0.0027,-0.166028 0,-0.333318 0,-0.5 0,-1.924137 0.191267,-3.796874 0.53125,-5.59375 1.76e-4,-0.01042 1.76e-4,-0.02083 0,-0.03125 C 18.9279,40.35378 18.91745,40.33293 18.90625,40.3125 17.684161,37.927442 17,35.249906 17,32.40625 c 0,-0.126542 0.02855,-0.249096 0.03125,-0.375 C 17.023205,31.821033 17,31.618581 17,31.40625 17,22.362757 24.362752,15 33.40625,15 c 0.211306,0 0.415641,0.02261 0.625,0.03125 C 34.157154,15.02855 34.279708,15 34.40625,15 c 2.843745,0 5.489817,0.742204 7.875,1.96875 0.02043,0.0112 0.04128,0.02163 0.0625,0.03125 0.01042,1.76e-4 0.02083,1.76e-4 0.03125,0 1.643065,-0.321279 3.336931,-0.524983 5.0625,-0.5625 0.18618,-0.004 0.37574,-0.03125 0.5625,-0.03125 0.166682,0 0.333972,-0.0027 0.5,0 0.165369,-0.0032 0.334124,0 0.5,0 7.921035,0 15.12962,2.999684 20.5625,7.9375 C 64.03007,18.835011 56.425347,15.40625 48,15.40625 c -2.074275,0 -4.10944,0.25364 -6.09375,0.65625 -0.210705,0.04282 -0.43613,0.009 -0.625,-0.09375 C 38.896067,14.742204 36.249995,14 33.40625,14 z"
       inkscape:connector-curvature="0"
       id="path3760"
       style="fill:url(#linearGradient3781);fill-opacity:1;fill-rule:nonzero;stroke:none;display:inline" />
    <path
       d="M 62.59375,78 C 72.195485,78 80,70.195485 80,60.59375 80,57.750094 79.315839,55.072558 78.09375,52.6875 77.99802,52.507255 77.964465,52.294721 78,52.09375 78.397007,50.109938 78.59375,48.073494 78.59375,46 c 0,-8.425348 -3.428761,-16.030071 -8.9375,-21.5625 4.937816,5.43288 7.9375,12.641464 7.9375,20.5625 0,0.165813 0.0025,0.334669 0,0.5 0.0027,0.166028 0,0.333318 0,0.5 0,1.924137 -0.191267,3.796874 -0.53125,5.59375 -1.76e-4,0.01042 -1.76e-4,0.02083 0,0.03125 0.0096,0.02122 0.02005,0.04207 0.03125,0.0625 C 78.315839,54.072558 79,56.750094 79,59.59375 c 0,0.126542 -0.02855,0.249096 -0.03125,0.375 C 78.97675,60.178967 79,60.381419 79,60.59375 79,69.637243 71.637248,77 62.59375,77 62.382444,77 62.178109,76.97739 61.96875,76.96875 61.842846,76.97145 61.720292,77 61.59375,77 58.750005,77 56.103933,76.257796 53.71875,75.03125 53.69832,75.02005 53.67747,75.00962 53.65625,75 c -0.01042,-1.76e-4 -0.02083,-1.76e-4 -0.03125,0 -1.643065,0.321279 -3.336931,0.524983 -5.0625,0.5625 -0.18618,0.004 -0.37574,0.03125 -0.5625,0.03125 -0.166682,0 -0.333972,0.0027 -0.5,0 -0.165369,0.0032 -0.334124,0 -0.5,0 -7.921035,0 -15.12962,-2.999684 -20.5625,-7.9375 5.53243,5.508739 13.137153,8.9375 21.5625,8.9375 2.074275,0 4.10944,-0.25364 6.09375,-0.65625 0.210705,-0.04282 0.43613,-0.009 0.625,0.09375 C 57.103933,77.257796 59.750005,78 62.59375,78 z"
       inkscape:connector-curvature="0"
       id="path3765"
       style="fill:url(#linearGradient3773);fill-opacity:1;fill-rule:nonzero;stroke:none;display:inline" />
    <path
       d="m 33.40625,14.9375 c -8.54485,0 -15.46875,6.923905 -15.46875,15.46875 0,0.217466 0.02255,0.441307 0.03125,0.65625 0.183545,-8.385294 7.008055,-15.125 15.4375,-15.125 2.62285,0 5.09404,0.702088 7.28125,1.875 A 1.9466111,1.9466111 0 0 0 42,18 c 1.9368,-0.411538 3.95851,-0.65625 6,-0.65625 15.675533,0 28.387764,12.545598 28.65625,28.15625 0.0024,-0.165421 0,-0.333837 0,-0.5 0,-15.844014 -12.81224,-28.65625 -28.65625,-28.65625 -2.04149,0 -4.0632,0.244712 -6,0.65625 a 1.9466111,1.9466111 0 0 1 -1.3125,-0.1875 c -2.18721,-1.172912 -4.6584,-1.875 -7.28125,-1.875 z m -18.3125,16.125 c -0.0022,0.115506 -0.03125,0.227743 -0.03125,0.34375 0,2.890095 0.705772,5.594907 1.90625,8.03125 0.04255,-0.240842 0.07713,-0.47955 0.125,-0.71875 -1.189876,-2.32219 -1.899901,-4.903587 -2,-7.65625 z m 4.8125,8.03125 c -0.389746,1.871752 -0.5625,3.863178 -0.5625,5.90625 0,0.168477 -0.0029,0.33222 0,0.5 0.02813,-1.903171 0.222501,-3.752379 0.59375,-5.5 A 1.9466111,1.9466111 0 0 0 19.90625,39.09375 z M 16.46875,45.5 c -0.0026,0.16704 0,0.332548 0,0.5 0,17.398112 14.13314,31.53125 31.53125,31.53125 2.13583,0 4.23931,-0.216359 6.28125,-0.625 2.51099,1.293054 5.30546,2.03125 8.3125,2.03125 10.10362,0 18.34375,-8.240129 18.34375,-18.34375 0,-0.219384 -0.02346,-0.439156 -0.03125,-0.65625 -0.186218,9.944482 -8.324887,18 -18.3125,18 -3.00704,0 -5.80151,-0.738196 -8.3125,-2.03125 -2.04194,0.408641 -4.14542,0.625 -6.28125,0.625 -17.230882,0 -31.263165,-13.863522 -31.53125,-31.03125 z m 63.0625,0 c -0.03113,1.963542 -0.248398,3.899401 -0.625,5.78125 0.0462,0.08972 0.08022,0.190813 0.125,0.28125 0.320707,-1.815115 0.5,-3.676863 0.5,-5.5625 0,-0.167228 0.0026,-0.333385 0,-0.5 z m -3.4375,6.40625 C 76.08715,51.93812 76.06926,51.9682 76.0625,52 a 1.9466111,1.9466111 0 0 0 0.1875,1.34375 c 1.074846,1.993582 1.685278,4.181844 1.78125,6.59375 0.0025,-0.1148 0.03125,-0.228345 0.03125,-0.34375 0,-2.670527 -0.64155,-5.078169 -1.8125,-7.25 a 1.9466111,1.9466111 0 0 1 -0.15625,-0.4375 z"
       inkscape:connector-curvature="0"
       id="path3783"
       style="fill:#0088ba;fill-opacity:1;fill-rule:nonzero;stroke:none;display:inline" />
  </g>
</svg>
