/* XPM */
static char *desktop[] = {
/* columns rows colors chars-per-pixel */
"22 22 243 2",
"   c #000000",
".  c #222222",
"X  c #153146",
"o  c #374046",
"O  c #374047",
"+  c #384148",
"@  c #1C4667",
"#  c #1C4768",
"$  c #1C4769",
"%  c #1D496A",
"&  c #1E496A",
"*  c #1E4A6C",
"=  c #1F4B6D",
"-  c #1F4B6E",
";  c #1F4C6E",
":  c #2C4960",
">  c #2C4E69",
",  c #364F62",
"<  c #394F62",
"1  c #2A516E",
"2  c #245379",
"3  c #24567D",
"4  c #25577E",
"5  c #25577F",
"6  c #395972",
"7  c #315978",
"8  c #365A78",
"9  c #385D7B",
"0  c #385D7C",
"q  c #385E7D",
"w  c #3F607B",
"e  c #39607F",
"r  c #464646",
"t  c #474747",
"y  c #464A4E",
"u  c #454B50",
"i  c #4F5559",
"p  c #5A5A5A",
"a  c #5E5E5E",
"s  c #495B68",
"d  c #46657D",
"f  c #626364",
"g  c #676A6C",
"h  c #6A7379",
"j  c #747474",
"k  c #767A7E",
"l  c #D1A85F",
"z  c #D9B97D",
"x  c #255880",
"c  c #275982",
"v  c #275C86",
"b  c #285C84",
"n  c #285E88",
"m  c #29618D",
"M  c #2B628D",
"N  c #346083",
"B  c #3A6281",
"V  c #3B6383",
"C  c #3A6384",
"Z  c #3C6484",
"A  c #3D6686",
"S  c #3E6687",
"D  c #2E6691",
"F  c #2F6592",
"G  c #2D6692",
"H  c #2C6693",
"J  c #2F6792",
"K  c #2D6896",
"L  c #2E6997",
"P  c #326A97",
"I  c #326B98",
"U  c #316C99",
"Y  c #316D9B",
"T  c #366E98",
"R  c #316D9D",
"E  c #326F9F",
"W  c #336F9F",
"Q  c #33709F",
"!  c #3370A1",
"~  c #3371A1",
"^  c #3471A1",
"/  c #3574A5",
"(  c #3A74A1",
")  c #3776A8",
"_  c #3777A8",
"`  c #3877A8",
"'  c #3879AB",
"]  c #397AAD",
"[  c #3B7CAE",
"{  c #3C7CAD",
"}  c #3E7EAF",
"|  c #466783",
" . c #476984",
".. c #476985",
"X. c #5B7181",
"o. c #52728D",
"O. c #4D7594",
"+. c #4C7595",
"@. c #4378A3",
"#. c #4A7BA3",
"$. c #407DAC",
"%. c #517EA3",
"&. c #3C80B4",
"*. c #3D81B5",
"=. c #3E82B6",
"-. c #3F84B9",
";. c #4981AC",
":. c #5484A8",
">. c #5083AC",
",. c #5B86A9",
"<. c #4483B4",
"1. c #4C86B3",
"2. c #4288BF",
"3. c #4689BE",
"4. c #4F8AB9",
"5. c #4D8BBD",
"6. c #5388B1",
"7. c #5489B4",
"8. c #668AAA",
"9. c #628AAC",
"0. c #698CAA",
"q. c #728FA7",
"w. c #608FB2",
"e. c #668EB0",
"r. c #6A92B3",
"t. c #6D92B3",
"y. c #6991B4",
"u. c #6994B8",
"i. c #6D98BE",
"p. c #7096B7",
"a. c #759ABA",
"s. c #7A9FBD",
"d. c #7E9FBE",
"f. c #4289C0",
"g. c #448AC2",
"h. c #448CC3",
"j. c #458DC4",
"k. c #458DC5",
"l. c #468EC7",
"z. c #4A8DC0",
"x. c #4790C8",
"c. c #4790C9",
"v. c #4892CB",
"b. c #5993C0",
"n. c #4A95D0",
"m. c #4A96D0",
"M. c #4B96D1",
"N. c #4B97D1",
"B. c #4F9CD8",
"V. c #4F9CD9",
"C. c #6F9CC3",
"Z. c #73A0C7",
"A. c #73A1C8",
"S. c #76A5CD",
"D. c #76A8D1",
"F. c #78A9D3",
"G. c #79A9D3",
"H. c #79ACD7",
"J. c #7BAED8",
"K. c #7BAED9",
"L. c #7EB2DE",
"P. c #898989",
"I. c #8D8D8D",
"U. c #8A9095",
"Y. c #87939D",
"T. c #939393",
"R. c #959595",
"E. c #959596",
"W. c #969696",
"Q. c #9A9A9B",
"!. c #9F9F9F",
"~. c #969EA4",
"^. c #82A1BC",
"/. c #A3A3A3",
"(. c #A5A5A5",
"). c #A4A6A6",
"_. c #A6A6A6",
"`. c #A4A7A8",
"'. c #AAAAAA",
"]. c #AEAEAE",
"[. c #AFAFAF",
"{. c #B1B1B1",
"}. c #B2B2B2",
"|. c #B4B4B4",
" X c #B9B9B9",
".X c #BABABA",
"XX c #BDBDBD",
"oX c #BEBEBE",
"OX c #BFBFBF",
"+X c #81A2C0",
"@X c #85A5C3",
"#X c #86A5C3",
"$X c #86A6C3",
"%X c #87A6C4",
"&X c #8AAAC3",
"*X c #8FACC5",
"=X c #84ABCC",
"-X c #86AFCF",
";X c #8EADCA",
":X c #8FADCA",
">X c #8DB3D2",
",X c #88B2D5",
"<X c #8BB5D9",
"1X c #8DB8DC",
"2X c #90B7D7",
"3X c #A5BDD4",
"4X c #A9BFD4",
"5X c #80B7E3",
"6X c #80B7E4",
"7X c #8FBAE0",
"8X c #95BEE1",
"9X c #C2C2C2",
"0X c #C3C3C3",
"qX c #C2C3C4",
"wX c #C3C3C4",
"eX c #C4C4C4",
"rX c #C5C5C5",
"tX c #C7C7C7",
"yX c #C9C9C9",
"uX c #CACACA",
"iX c #CACBCB",
"pX c #CCCCCC",
"aX c #CECECE",
"sX c #CFCFCF",
"dX c #D3D3D3",
"fX c #D4D4D4",
"gX c #D7D7D7",
"hX c #D9D9D9",
"jX c #DBDBDB",
"kX c #DCDCDC",
"lX c #DEDEDE",
"zX c #E2E2E2",
"xX c #E3E3E3",
"cX c #E3E3E4",
"vX c #E4E4E4",
"bX c #E6E6E6",
"nX c #E7E7E7",
"mX c #E8E8E8",
"MX c #EAEAEA",
"NX c #ECECEC",
"BX c #EDEDED",
"VX c #F2F2F2",
"CX c None",
/* pixels */
"CXCXCXCXCXCXCXCXCXCXCXCXCXCXCXCXCXCXCXCXCXCX",
"CXCXNXVXVXVXVXVXVXVXVXVXVXVXVXVXVXVXVXNXCXCX",
"CXmXwXE.E.R.E.E.E.E.E.R.R.E.E.E.E.E.E.eXnXCX",
"CXNXQ.w 8 | | 8 8 8 8 8 8 8 8 8 8 8 w Q.NXCX",
"CXmX!.8 9.*X*Xe.e.e.e.4X$X$X$X$X$Xd.8 E.mXCX",
"CXmX(.8 e.a.a.y.y.y.y.3X:X:X:X:X:X^.X.rX}.. ",
"CXvX'.# v 5 5 n m m m ,.+Xp.t.t.q.~.(.T.p CX",
"CXxX{.@ 3 z z 5 m m m J &Xy.0.Y.`.(.f t _.CX",
"CXlX|.# 5 l l x H L L L s.8.U.{.j + X (.kXCX",
"CXjX X# 5 2 5 M E E ^ W o.k I.y < +.@  XkXCX",
"CXgXoX# 5 ].].G / ' T s a O , +.:.%.# oXgXCX",
"CXfX0X@ b P.P.P / 6 g + 1 w.7.6.;.#.# wXfXCX",
"CXsXyX% G P P N h u > { -.b.4.1.;.@.% tXpXCX",
"CXpXpX* U ^ d i : } k.k.g.z.5.<.{ ( 1 iXpXCX",
"CXtXfX1 U C 7 { g.v.m.m.v.k.3.&.' E * dXyXCX",
"CXqXgX* E ) &.2.v.N.V.V.N.c.g.&.{ ~ ; hXrXCX",
"CX4XlX9 a.Z.S.G.J.L.5XL.L.K.F.S.A.i.0 lXoXCX",
"CXoXxX9 t.=X>X,XD.1X8X8XK.<X2X-XC.u.9 cXoXCX",
"CX.XvX .0 B B C S S S S A C C V e q ..vX XCX",
"CX/.pXxXbXbXbXbXvXmXvXmXbXbXvXnXvXnXvXiX!.CX",
"CXt /.9XwXrXtXyXyXpXsXpXpXyXyXtXrXrX9X/.t CX",
"CXCXCX                                CXCXCX"
};
