<?xml version="1.0" encoding="UTF-8" standalone="no"?>
<!-- Created with Inkscape (http://www.inkscape.org/) -->

<svg
   xmlns:dc="http://purl.org/dc/elements/1.1/"
   xmlns:cc="http://creativecommons.org/ns#"
   xmlns:rdf="http://www.w3.org/1999/02/22-rdf-syntax-ns#"
   xmlns:svg="http://www.w3.org/2000/svg"
   xmlns="http://www.w3.org/2000/svg"
   xmlns:xlink="http://www.w3.org/1999/xlink"
   xmlns:inkscape="http://www.inkscape.org/namespaces/inkscape"
   version="1.0"
   width="22"
   height="22"
   id="svg2"
   style="display:inline">
  <defs
     id="defs4">
    <linearGradient
       x1="11.998966"
       y1="0.92195445"
       x2="11.998966"
       y2="19.387045"
       id="StandardGradient"
       gradientUnits="userSpaceOnUse"
       gradientTransform="scale(0.9219544,1.0846523)">
      <stop
         id="stop3283"
         style="stop-color:#000000;stop-opacity:0.23529412"
         offset="0" />
      <stop
         id="stop3850"
         style="stop-color:#000000;stop-opacity:0.39215687"
         offset="0.69999999" />
      <stop
         id="stop2651"
         style="stop-color:#000000;stop-opacity:0.55000001"
         offset="1" />
    </linearGradient>
    <radialGradient
       cx="36"
       cy="2"
       r="4"
       fx="36"
       fy="2"
       id="radialGradient3855"
       xlink:href="#SpecificGradient"
       gradientUnits="userSpaceOnUse"
       gradientTransform="translate(0,10)" />
    <linearGradient
       x1="10.406627"
       y1="2"
       x2="10.406627"
       y2="18.000771"
       id="SpecificGradient"
       gradientUnits="userSpaceOnUse">
      <stop
         id="stop3292"
         style="stop-color:#e64b36;stop-opacity:1"
         offset="0" />
      <stop
         id="stop3294"
         style="stop-color:#a31414;stop-opacity:1"
         offset="1" />
    </linearGradient>
    <radialGradient
       cx="36"
       cy="2"
       r="4"
       fx="36"
       fy="2"
       id="radialGradient3038"
       xlink:href="#StandardGradient"
       gradientUnits="userSpaceOnUse" />
    <radialGradient
       cx="12"
       cy="13"
       r="8"
       fx="12"
       fy="13"
       id="radialGradient3842"
       xlink:href="#StandardGradient"
       gradientUnits="userSpaceOnUse"
       gradientTransform="matrix(2,0,0,1.25,-12,26.75)" />
    <clipPath
       id="clipPath3862">
      <path
         d="m 11,3 c -4.418278,0 -8,3.581722 -8,8 0,4.418278 3.581722,8 8,8 4.418278,0 8,-3.581722 8,-8 0,-4.418278 -3.581722,-8 -8,-8 z m 0,3.28125 c 1.249125,-0.054213 2.178014,0.2831767 2.84375,0.875 0.665736,0.5918233 1.079773,1.4473539 1.15625,2.53125 0.08379,1.187522 -0.0602,1.894358 -0.1875,2.40625 -0.06365,0.255946 -0.125748,0.472248 -0.15625,0.6875 -0.0305,0.215252 -0.01731,0.474866 0.125,0.6875 0.145592,0.217538 0.157952,0.365029 0.15625,0.4375 -0.0017,0.07247 0.01528,0.134542 -0.0625,0.21875 -0.155559,0.168416 -0.565402,0.367285 -0.9375,0.65625 -0.08682,0.06743 -0.286282,0.100608 -0.5,0.0625 -0.213718,-0.03811 -0.407133,-0.169244 -0.53125,-0.3125 a 0.38043645,0.38043645 0 0 0 -0.125,-0.0625 c -0.329726,-0.178803 -0.602951,-0.26141 -0.875,-0.21875 -0.272049,0.04266 -0.461398,0.171285 -0.625,0.28125 C 10.956826,14.74931 10.595186,14.993338 9.46875,15 9.46175,14.999731 9.44449,15.000327 9.4375,15 8.3458902,14.948934 7.3362622,14.183208 7.0625,13.21875 6.8320871,12.407011 6.9032945,11.769662 7.21875,11.25 7.5342055,10.730338 8.1292453,10.289793 9.09375,10 9.3027147,9.9372147 9.7415271,9.9155 10.1875,9.875 10.633473,9.8345 11.084411,9.826023 11.46875,9.5625 11.802819,9.3334451 11.99888,8.9177809 11.875,8.5625 11.75112,8.2072191 11.429063,8.0103714 11.03125,7.96875 10.528301,7.916131 9.948053,7.97017 9.40625,8.03125 8.864447,8.092332 8.3339094,8.1500628 8.03125,8.09375 7.9201118,8.0730717 7.8037245,7.9199664 7.75,7.65625 7.6962755,7.3925336 7.7779816,7.1145038 7.875,7 8.1100535,6.7225827 8.6134631,6.500967 9.21875,6.40625 9.8240369,6.311533 10.495499,6.3031468 11,6.28125 z m 0.15625,4.5 c -0.728125,0 -1.375,0.535291 -1.375,1.25 0,0.714709 0.646875,1.25 1.375,1.25 0.728126,0 1.34375,-0.546558 1.34375,-1.25 0,-0.703442 -0.615624,-1.25 -1.34375,-1.25 z"
         inkscape:connector-curvature="0"
         id="path3864"
         style="color:#000000;fill:#ff00ff;fill-opacity:1;fill-rule:nonzero;stroke:none;stroke-width:8;marker:none;visibility:visible;display:inline;overflow:visible;enable-background:accumulate" />
    </clipPath>
    <filter
       color-interpolation-filters="sRGB"
       id="filter3866">
      <feGaussianBlur
         id="feGaussianBlur3868"
         stdDeviation="0.4" />
    </filter>
    <clipPath
       id="clipPath3874">
      <path
         d="m -30,-30 0,22 22,0 0,-22 -22,0 z m 11,3 c 4.418278,0 8,3.581722 8,8 0,4.418278 -3.581722,8 -8,8 -4.418278,0 -8,-3.581722 -8,-8 0,-4.418278 3.581722,-8 8,-8 z m 0,3.28125 c -0.504501,0.0219 -1.175963,0.03028 -1.78125,0.125 -0.605287,0.09472 -1.108697,0.316333 -1.34375,0.59375 -0.09702,0.114504 -0.17873,0.392534 -0.125,0.65625 0.05372,0.263716 0.170112,0.416822 0.28125,0.4375 0.302659,0.05631 0.833197,-0.0014 1.375,-0.0625 0.541803,-0.06108 1.122051,-0.115119 1.625,-0.0625 0.397813,0.04162 0.71987,0.238469 0.84375,0.59375 0.12388,0.355281 -0.07218,0.770945 -0.40625,1 -0.384339,0.263523 -0.835277,0.272 -1.28125,0.3125 -0.445973,0.0405 -0.884785,0.06222 -1.09375,0.125 -0.964505,0.289793 -1.559544,0.730338 -1.875,1.25 -0.315456,0.519662 -0.386663,1.157011 -0.15625,1.96875 0.273762,0.964458 1.28339,1.73018 2.375,1.78125 0.007,3.27e-4 0.02425,-2.69e-4 0.03125,0 1.126436,-0.0067 1.488076,-0.25069 1.8125,-0.46875 0.163602,-0.109965 0.352951,-0.23859 0.625,-0.28125 0.272049,-0.04266 0.545274,0.03995 0.875,0.21875 a 0.38043645,0.38043645 0 0 1 0.125,0.0625 c 0.124117,0.143256 0.317532,0.27439 0.53125,0.3125 0.213718,0.03811 0.41318,0.0049 0.5,-0.0625 0.372098,-0.288965 0.781941,-0.487834 0.9375,-0.65625 0.07778,-0.08421 0.0608,-0.14628 0.0625,-0.21875 0.0017,-0.07247 -0.01066,-0.219962 -0.15625,-0.4375 -0.14231,-0.212634 -0.1555,-0.472248 -0.125,-0.6875 0.0305,-0.215252 0.0926,-0.431554 0.15625,-0.6875 0.1273,-0.511892 0.27129,-1.218728 0.1875,-2.40625 -0.07648,-1.083896 -0.490514,-1.939427 -1.15625,-2.53125 -0.665736,-0.591823 -1.594625,-0.929213 -2.84375,-0.875 z m 0.15625,4.5 c 0.728126,0 1.34375,0.546558 1.34375,1.25 0,0.703442 -0.615624,1.25 -1.34375,1.25 -0.728125,0 -1.375,-0.535291 -1.375,-1.25 0,-0.714709 0.646875,-1.25 1.375,-1.25 z"
         inkscape:connector-curvature="0"
         id="path3876"
         style="opacity:0.5;color:#000000;fill:#ff00ff;fill-opacity:1;fill-rule:nonzero;stroke:none;stroke-width:2;marker:none;visibility:visible;display:inline;overflow:visible;enable-background:accumulate" />
    </clipPath>
    <filter
       color-interpolation-filters="sRGB"
       id="filter3878">
      <feGaussianBlur
         id="feGaussianBlur3880"
         stdDeviation="0.56" />
    </filter>
    <clipPath
       id="clipPath3886">
      <path
         d="m -30,30 0,22 22,0 0,-22 -22,0 z m 11,3 c 4.418278,0 8,3.581722 8,8 0,4.418278 -3.581722,8 -8,8 -4.418278,0 -8,-3.581722 -8,-8 0,-4.418278 3.581722,-8 8,-8 z m 0,3.28125 c -0.504501,0.0219 -1.175963,0.03028 -1.78125,0.125 -0.605287,0.09472 -1.108697,0.316333 -1.34375,0.59375 -0.09702,0.114504 -0.17873,0.392534 -0.125,0.65625 0.05372,0.263716 0.170112,0.416822 0.28125,0.4375 0.302659,0.05631 0.833197,-0.0014 1.375,-0.0625 0.541803,-0.06108 1.122051,-0.115119 1.625,-0.0625 0.397813,0.04162 0.71987,0.238469 0.84375,0.59375 0.12388,0.355281 -0.07218,0.770945 -0.40625,1 -0.384339,0.263523 -0.835277,0.272 -1.28125,0.3125 -0.445973,0.0405 -0.884785,0.06221 -1.09375,0.125 -0.964505,0.289793 -1.559544,0.730338 -1.875,1.25 -0.315456,0.519662 -0.386663,1.157011 -0.15625,1.96875 0.273762,0.964458 1.28339,1.73018 2.375,1.78125 0.007,3.27e-4 0.02425,-2.69e-4 0.03125,0 1.126436,-0.0067 1.488076,-0.25069 1.8125,-0.46875 0.163602,-0.109965 0.352951,-0.23859 0.625,-0.28125 0.272049,-0.04266 0.545274,0.03995 0.875,0.21875 a 0.38043645,0.38043645 0 0 1 0.125,0.0625 c 0.124117,0.143256 0.317532,0.27439 0.53125,0.3125 0.213718,0.03811 0.41318,0.0049 0.5,-0.0625 0.372098,-0.288965 0.781941,-0.487834 0.9375,-0.65625 0.07778,-0.08421 0.0608,-0.14628 0.0625,-0.21875 0.0017,-0.07247 -0.01066,-0.219962 -0.15625,-0.4375 -0.14231,-0.212634 -0.1555,-0.472248 -0.125,-0.6875 0.0305,-0.215252 0.0926,-0.431554 0.15625,-0.6875 0.1273,-0.511892 0.27129,-1.218728 0.1875,-2.40625 -0.07648,-1.083896 -0.490514,-1.939427 -1.15625,-2.53125 -0.665736,-0.591823 -1.594625,-0.929213 -2.84375,-0.875 z m 0.15625,4.5 c 0.728126,0 1.34375,0.546558 1.34375,1.25 0,0.703442 -0.615624,1.25 -1.34375,1.25 -0.728125,0 -1.375,-0.535291 -1.375,-1.25 0,-0.714709 0.646875,-1.25 1.375,-1.25 z"
         inkscape:connector-curvature="0"
         id="path3888"
         style="opacity:0.5;color:#000000;fill:#ff00ff;fill-opacity:1;fill-rule:nonzero;stroke:none;stroke-width:2;marker:none;visibility:visible;display:inline;overflow:visible;enable-background:accumulate" />
    </clipPath>
    <filter
       color-interpolation-filters="sRGB"
       id="filter5498">
      <feGaussianBlur
         id="feGaussianBlur5500"
         stdDeviation="0.4" />
    </filter>
    <radialGradient
       cx="12"
       cy="13"
       r="8"
       fx="12"
       fy="13"
       id="radialGradient3028"
       xlink:href="#StandardGradient"
       gradientUnits="userSpaceOnUse"
       gradientTransform="matrix(2,0,0,1.25,-12,-3.25)" />
  </defs>
  <metadata
     id="metadata7">
    <rdf:RDF>
      <cc:Work
         rdf:about="">
        <dc:format>image/svg+xml</dc:format>
        <dc:type
           rdf:resource="http://purl.org/dc/dcmitype/StillImage" />
        <dc:title />
      </cc:Work>
    </rdf:RDF>
  </metadata>
  <g
     id="layer1"
     style="display:inline">
    <path
       d="m 11,1.96875 c -4.9812344,0 -9.03125,4.0500156 -9.03125,9.03125 0,4.981234 4.0500156,9.03125 9.03125,9.03125 4.981234,0 9.03125,-4.050016 9.03125,-9.03125 C 20.03125,6.0187656 15.981234,1.96875 11,1.96875 z M 11,3 c 4.418278,0 8,3.581722 8,8 0,4.418278 -3.581722,8 -8,8 C 6.581722,19 3,15.418278 3,11 3,6.581722 6.581722,3 11,3 z m 0,3.28125 C 10.495499,6.303147 9.8240369,6.311533 9.21875,6.40625 8.6134631,6.500967 8.1100535,6.722583 7.875,7 7.7779816,7.114504 7.6962755,7.392534 7.75,7.65625 c 0.053725,0.263716 0.1701118,0.416822 0.28125,0.4375 0.3026594,0.056313 0.833197,-0.00142 1.375,-0.0625 0.541803,-0.0611 1.122051,-0.11512 1.625,-0.0625 0.397813,0.041621 0.71987,0.238469 0.84375,0.59375 0.12388,0.355281 -0.07218,0.770945 -0.40625,1 C 11.084411,9.82602 10.633473,9.8345 10.1875,9.875 9.7415271,9.9155 9.3027147,9.93721 9.09375,10 8.1292453,10.289793 7.5342055,10.730338 7.21875,11.25 6.9032945,11.769662 6.8320871,12.407011 7.0625,13.21875 7.3362622,14.183208 8.3458902,14.948934 9.4375,15 c 0.00699,3.27e-4 0.02425,-2.69e-4 0.03125,0 1.126436,-0.0067 1.488076,-0.25069 1.8125,-0.46875 0.163602,-0.109965 0.352951,-0.23859 0.625,-0.28125 0.272049,-0.04266 0.545274,0.03995 0.875,0.21875 a 0.38043645,0.38043645 0 0 1 0.125,0.0625 c 0.124117,0.143256 0.317532,0.27439 0.53125,0.3125 0.213718,0.03811 0.41318,0.0049 0.5,-0.0625 0.372098,-0.288965 0.781941,-0.487834 0.9375,-0.65625 0.07778,-0.08421 0.0608,-0.14628 0.0625,-0.21875 0.0017,-0.07247 -0.01066,-0.219962 -0.15625,-0.4375 -0.14231,-0.212634 -0.1555,-0.472248 -0.125,-0.6875 0.0305,-0.215252 0.0926,-0.431554 0.15625,-0.6875 C 14.9398,11.581858 15.08379,10.875022 15,9.6875 14.923523,8.603604 14.509486,7.748073 13.84375,7.15625 13.178014,6.564427 12.249125,6.22704 11,6.28125 z m 1.28125,1.1875 c 0.351827,0.1083433 0.643022,0.2625276 0.875,0.46875 0.453463,0.4031177 0.751892,0.9535172 0.8125,1.8125 0.07585,1.074995 -0.03875,1.621272 -0.15625,2.09375 -0.05853,0.235348 -0.143044,0.467524 -0.1875,0.78125 -0.03659,0.258209 0.07584,0.648308 0.1875,1 -0.06591,0.04184 -0.141733,0.10439 -0.21875,0.15625 a 1.041767,1.041767 0 0 0 -0.0625,-0.09375 c 0.01623,0.01229 -0.111041,-0.07325 -0.09375,-0.0625 0.01729,0.01075 -0.143208,-0.0716 -0.125,-0.0625 0.0036,0.0018 -0.02367,0.0032 -0.03125,0 -0.03031,-0.01295 -0.108926,-0.06841 -0.09375,-0.0625 0.01897,0.0074 -0.144571,-0.03685 -0.125,-0.03125 l 0,0.03125 c -0.04597,-0.02172 -0.108333,-0.01127 -0.15625,-0.03125 0.354267,-0.393898 0.625,-0.859165 0.625,-1.4375 0,-0.87769 -0.569932,-1.457317 -1.28125,-1.84375 0.52964,-0.4756826 0.874163,-1.1645412 0.59375,-1.96875 -0.110967,-0.3182473 -0.322629,-0.5464685 -0.5625,-0.75 z m -1.125,3.3125 c 0.728126,0 1.34375,0.546558 1.34375,1.25 0,0.703442 -0.615624,1.25 -1.34375,1.25 -0.728125,0 -1.375,-0.535291 -1.375,-1.25 0,-0.714709 0.646875,-1.25 1.375,-1.25 z m -2.03125,0.375 c -0.1432731,0.289095 -0.375,0.52088 -0.375,0.875 0,0.844994 0.5020613,1.417805 1.15625,1.8125 -0.138629,0.02088 -0.093107,0.122038 -0.40625,0.125 -0.00936,-4.38e-4 -0.02188,6.57e-4 -0.03125,0 C 8.8416249,13.924794 8.1901962,13.387371 8.0625,12.9375 7.8865921,12.317781 7.9382596,12.037395 8.09375,11.78125 8.2117327,11.586893 8.6385213,11.363461 9.125,11.15625 z"
       inkscape:connector-curvature="0"
       id="path3813"
       style="opacity:0.05;color:#000000;fill:#ffffff;fill-opacity:1;fill-rule:nonzero;stroke:none;stroke-width:8;marker:none;visibility:visible;display:inline;overflow:visible;enable-background:accumulate" />
    <path
       d="m -19,-27 c -4.418278,0 -8,3.581722 -8,8 0,4.418278 3.581722,8 8,8 4.418278,0 8,-3.581722 8,-8 0,-4.418278 -3.581722,-8 -8,-8 z m 0,3.28125 c 1.249125,-0.05421 2.178014,0.283177 2.84375,0.875 0.665736,0.591823 1.079773,1.447354 1.15625,2.53125 0.08379,1.187522 -0.0602,1.894358 -0.1875,2.40625 -0.06365,0.255946 -0.125748,0.472248 -0.15625,0.6875 -0.0305,0.215252 -0.01731,0.474866 0.125,0.6875 0.145592,0.217538 0.157952,0.365029 0.15625,0.4375 -0.0017,0.07247 0.01528,0.134542 -0.0625,0.21875 -0.155559,0.168416 -0.565402,0.367285 -0.9375,0.65625 -0.08682,0.06743 -0.286282,0.100608 -0.5,0.0625 -0.213718,-0.03811 -0.407133,-0.169244 -0.53125,-0.3125 a 0.38043645,0.38043645 0 0 0 -0.125,-0.0625 c -0.329726,-0.178803 -0.602951,-0.26141 -0.875,-0.21875 -0.272049,0.04266 -0.461398,0.171285 -0.625,0.28125 -0.324424,0.21806 -0.686064,0.462088 -1.8125,0.46875 -0.007,-2.69e-4 -0.02426,3.27e-4 -0.03125,0 -1.09161,-0.05107 -2.101238,-0.816792 -2.375,-1.78125 -0.230413,-0.811739 -0.159206,-1.449088 0.15625,-1.96875 0.315456,-0.519662 0.910495,-0.960207 1.875,-1.25 0.208965,-0.06278 0.647777,-0.0845 1.09375,-0.125 0.445973,-0.0405 0.896911,-0.04898 1.28125,-0.3125 0.334069,-0.229055 0.53013,-0.644719 0.40625,-1 -0.12388,-0.355281 -0.445937,-0.552129 -0.84375,-0.59375 -0.502949,-0.05262 -1.083197,0.0014 -1.625,0.0625 -0.541803,0.06108 -1.072341,0.118813 -1.375,0.0625 -0.111138,-0.02068 -0.227526,-0.173784 -0.28125,-0.4375 -0.05373,-0.263716 0.02798,-0.541746 0.125,-0.65625 0.235053,-0.277417 0.738463,-0.499033 1.34375,-0.59375 0.605287,-0.09472 1.276749,-0.103103 1.78125,-0.125 z m 0.15625,4.5 c -0.728125,0 -1.375,0.535291 -1.375,1.25 0,0.714709 0.646875,1.25 1.375,1.25 0.728126,0 1.34375,-0.546558 1.34375,-1.25 0,-0.703442 -0.615624,-1.25 -1.34375,-1.25 z"
       inkscape:connector-curvature="0"
       transform="translate(30,60)"
       clip-path="url(#clipPath3874)"
       id="path3870"
       style="opacity:0.2;color:#000000;fill:none;stroke:#ffffff;stroke-width:1;stroke-miterlimit:4;stroke-dasharray:none;marker:none;visibility:visible;display:inline;overflow:visible;filter:url(#filter3878);enable-background:accumulate" />
    <path
       d="m -19,33.5 c -4.418278,0 -8,3.581722 -8,8 0,4.418278 3.581722,8 8,8 4.418278,0 8,-3.581722 8,-8 0,-4.418278 -3.581722,-8 -8,-8 z m 0,3.28125 c 1.249125,-0.05421 2.178014,0.283177 2.84375,0.875 0.665736,0.591823 1.079773,1.447354 1.15625,2.53125 0.08379,1.187522 -0.0602,1.894358 -0.1875,2.40625 -0.06365,0.255946 -0.125748,0.472248 -0.15625,0.6875 -0.0305,0.215252 -0.01731,0.474866 0.125,0.6875 0.145592,0.217538 0.157952,0.365029 0.15625,0.4375 -0.0017,0.07247 0.01528,0.134542 -0.0625,0.21875 -0.155559,0.168416 -0.565402,0.367285 -0.9375,0.65625 -0.08682,0.06743 -0.286282,0.100608 -0.5,0.0625 -0.213718,-0.03811 -0.407133,-0.169244 -0.53125,-0.3125 a 0.38043645,0.38043645 0 0 0 -0.125,-0.0625 c -0.329726,-0.178803 -0.602951,-0.26141 -0.875,-0.21875 -0.272049,0.04266 -0.461398,0.171285 -0.625,0.28125 -0.324424,0.21806 -0.686064,0.462088 -1.8125,0.46875 -0.007,-2.69e-4 -0.02426,3.27e-4 -0.03125,0 -1.09161,-0.05107 -2.101238,-0.816792 -2.375,-1.78125 -0.230413,-0.811739 -0.159206,-1.449088 0.15625,-1.96875 0.315456,-0.519662 0.910495,-0.960207 1.875,-1.25 0.208965,-0.06279 0.647777,-0.0845 1.09375,-0.125 0.445973,-0.0405 0.896911,-0.04898 1.28125,-0.3125 0.334069,-0.229055 0.53013,-0.644719 0.40625,-1 -0.12388,-0.355281 -0.445937,-0.552129 -0.84375,-0.59375 -0.502949,-0.05262 -1.083197,0.0014 -1.625,0.0625 -0.541803,0.06108 -1.072341,0.118813 -1.375,0.0625 -0.111138,-0.02068 -0.227526,-0.173784 -0.28125,-0.4375 -0.05373,-0.263716 0.02798,-0.541746 0.125,-0.65625 0.235053,-0.277417 0.738463,-0.499033 1.34375,-0.59375 0.605287,-0.09472 1.276749,-0.103103 1.78125,-0.125 z m 0.15625,4.5 c -0.728125,0 -1.375,0.535291 -1.375,1.25 0,0.714709 0.646875,1.25 1.375,1.25 0.728126,0 1.34375,-0.546558 1.34375,-1.25 0,-0.703442 -0.615624,-1.25 -1.34375,-1.25 z"
       inkscape:connector-curvature="0"
       transform="translate(30,0)"
       clip-path="url(#clipPath3886)"
       id="path3882"
       style="opacity:0.4;color:#000000;fill:#ffffff;fill-opacity:1;fill-rule:nonzero;stroke:none;stroke-width:8;marker:none;visibility:visible;display:inline;overflow:visible;filter:url(#filter5498);enable-background:accumulate" />
    <rect
       width="22"
       height="22"
       x="-30"
       y="0"
       id="rect3047"
       style="opacity:0.5;color:#000000;fill:#ff00ff;fill-opacity:1;fill-rule:nonzero;stroke:none;stroke-width:2;marker:none;visibility:visible;display:inline;overflow:visible;enable-background:accumulate" />
    <rect
       width="8"
       height="8"
       x="32"
       y="-2"
       id="rect3841"
       style="color:#000000;fill:url(#radialGradient3038);fill-opacity:1;fill-rule:nonzero;stroke:none;stroke-width:2;marker:none;visibility:visible;display:inline;overflow:visible;enable-background:accumulate" />
    <rect
       width="8"
       height="8"
       x="32"
       y="8"
       id="rect3853"
       style="color:#000000;fill:url(#radialGradient3855);fill-opacity:1;fill-rule:nonzero;stroke:none;stroke-width:2;marker:none;visibility:visible;display:inline;overflow:visible;enable-background:accumulate" />
    <text
       x="34"
       y="19"
       id="text3977"
       xml:space="preserve"
       style="font-size:1px;font-style:normal;font-variant:normal;font-weight:normal;font-stretch:normal;text-align:start;line-height:125%;letter-spacing:0px;word-spacing:0px;writing-mode:lr-tb;text-anchor:start;fill:#000000;fill-opacity:1;stroke:none;font-family:Trebuchet MS;-inkscape-font-specification:Trebuchet MS"><tspan
         x="34"
         y="19"
         id="tspan3805">-0.875px /blur 5 / opacity 40</tspan></text>
    <rect
       width="1"
       height="1"
       x="32"
       y="18"
       id="rect3981"
       style="color:#000000;fill:#000000;fill-opacity:1;fill-rule:nonzero;stroke:none;stroke-width:2;marker:none;visibility:visible;display:inline;overflow:visible;enable-background:accumulate" />
    <text
       x="34"
       y="21"
       id="text3983"
       xml:space="preserve"
       style="font-size:1px;font-style:normal;font-variant:normal;font-weight:normal;font-stretch:normal;text-align:start;line-height:125%;letter-spacing:0px;word-spacing:0px;writing-mode:lr-tb;text-anchor:start;fill:#000000;fill-opacity:1;stroke:none;font-family:Trebuchet MS;-inkscape-font-specification:Trebuchet MS"><tspan
         x="34"
         y="21"
         id="tspan3985">0px /blur 7 / opacity 15</tspan></text>
    <rect
       width="1"
       height="1"
       x="32"
       y="20"
       id="rect3987"
       style="color:#000000;fill:#ffffff;fill-opacity:1;fill-rule:nonzero;stroke:none;stroke-width:2;marker:none;visibility:visible;display:inline;overflow:visible;enable-background:accumulate" />
    <text
       x="34"
       y="23"
       id="text3989"
       xml:space="preserve"
       style="font-size:1px;font-style:normal;font-variant:normal;font-weight:normal;font-stretch:normal;text-align:start;line-height:125%;letter-spacing:0px;word-spacing:0px;writing-mode:lr-tb;text-anchor:start;fill:#000000;fill-opacity:1;stroke:none;font-family:Trebuchet MS;-inkscape-font-specification:Trebuchet MS"><tspan
         x="34"
         y="23"
         id="tspan3995">-0.5px /blur 3 / opacity 30</tspan></text>
    <rect
       width="1"
       height="1"
       x="32"
       y="22"
       id="rect3993"
       style="color:#000000;fill:#ffffff;fill-opacity:1;fill-rule:nonzero;stroke:none;stroke-width:2;marker:none;visibility:visible;display:inline;overflow:visible;enable-background:accumulate" />
    <path
       d="m 11,33 c -4.418278,0 -8,3.581722 -8,8 0,4.418278 3.581722,8 8,8 4.418278,0 8,-3.581722 8,-8 0,-4.418278 -3.581722,-8 -8,-8 z m 0,3.28125 c 1.249125,-0.05421 2.178014,0.283177 2.84375,0.875 0.665736,0.591823 1.079773,1.447354 1.15625,2.53125 0.08379,1.187522 -0.0602,1.894358 -0.1875,2.40625 -0.06365,0.255946 -0.125748,0.472248 -0.15625,0.6875 -0.0305,0.215252 -0.01731,0.474866 0.125,0.6875 0.145592,0.217538 0.157952,0.365029 0.15625,0.4375 -0.0017,0.07247 0.01528,0.134542 -0.0625,0.21875 -0.155559,0.168416 -0.565402,0.367285 -0.9375,0.65625 -0.08682,0.06743 -0.286282,0.100608 -0.5,0.0625 -0.213718,-0.03811 -0.407133,-0.169244 -0.53125,-0.3125 a 0.38043645,0.38043645 0 0 0 -0.125,-0.0625 c -0.329726,-0.178803 -0.602951,-0.26141 -0.875,-0.21875 -0.272049,0.04266 -0.461398,0.171285 -0.625,0.28125 C 10.956826,44.74931 10.595186,44.993338 9.46875,45 9.46175,44.999731 9.44449,45.000327 9.4375,45 8.3458902,44.948934 7.3362622,44.183208 7.0625,43.21875 6.8320871,42.407011 6.9032945,41.769662 7.21875,41.25 7.5342055,40.730338 8.1292453,40.289793 9.09375,40 c 0.2089647,-0.06279 0.6477771,-0.0845 1.09375,-0.125 0.445973,-0.0405 0.896911,-0.04898 1.28125,-0.3125 0.334069,-0.229055 0.53013,-0.644719 0.40625,-1 -0.12388,-0.355281 -0.445937,-0.552129 -0.84375,-0.59375 -0.502949,-0.05262 -1.083197,0.0014 -1.625,0.0625 -0.541803,0.06108 -1.0723406,0.118813 -1.375,0.0625 C 7.9201118,38.073072 7.8037245,37.919966 7.75,37.65625 7.6962755,37.392534 7.7779816,37.114504 7.875,37 8.1100535,36.722583 8.6134631,36.500967 9.21875,36.40625 9.8240369,36.311533 10.495499,36.303147 11,36.28125 z m 0.15625,4.5 c -0.728125,0 -1.375,0.535291 -1.375,1.25 0,0.714709 0.646875,1.25 1.375,1.25 0.728126,0 1.34375,-0.546558 1.34375,-1.25 0,-0.703442 -0.615624,-1.25 -1.34375,-1.25 z"
       inkscape:connector-curvature="0"
       id="path3001"
       style="color:#000000;fill:url(#radialGradient3842);fill-opacity:1;fill-rule:nonzero;stroke:none;stroke-width:8;marker:none;visibility:visible;display:inline;overflow:visible;enable-background:accumulate" />
    <path
       d="m 11,3.375 c -4.418278,0 -8,3.581722 -8,8 0,4.418278 3.581722,8 8,8 4.418278,0 8,-3.581722 8,-8 0,-4.418278 -3.581722,-8 -8,-8 z m 0,3.28125 c 1.249125,-0.05421 2.178014,0.283177 2.84375,0.875 0.665736,0.591823 1.079773,1.447354 1.15625,2.53125 0.08379,1.187522 -0.0602,1.894358 -0.1875,2.40625 -0.06365,0.255946 -0.125748,0.472248 -0.15625,0.6875 -0.0305,0.215252 -0.01731,0.474866 0.125,0.6875 0.145592,0.217538 0.157952,0.365029 0.15625,0.4375 -0.0017,0.07247 0.01528,0.134542 -0.0625,0.21875 -0.155559,0.168416 -0.565402,0.367285 -0.9375,0.65625 -0.08682,0.06743 -0.286282,0.100608 -0.5,0.0625 -0.213718,-0.03811 -0.407133,-0.169244 -0.53125,-0.3125 a 0.38043645,0.38043645 0 0 0 -0.125,-0.0625 c -0.329726,-0.178803 -0.602951,-0.26141 -0.875,-0.21875 -0.272049,0.04266 -0.461398,0.171285 -0.625,0.28125 -0.324424,0.21806 -0.686064,0.462088 -1.8125,0.46875 -0.007,-2.69e-4 -0.02426,3.27e-4 -0.03125,0 C 8.3458902,15.323934 7.3362622,14.558208 7.0625,13.59375 6.8320871,12.782011 6.9032945,12.144662 7.21875,11.625 c 0.3154555,-0.519662 0.9104953,-0.960207 1.875,-1.25 0.2089647,-0.06279 0.6477771,-0.0845 1.09375,-0.125 0.445973,-0.0405 0.896911,-0.04898 1.28125,-0.3125 0.334069,-0.229055 0.53013,-0.644719 0.40625,-1 C 11.75112,8.582219 11.429063,8.385371 11.03125,8.34375 10.528301,8.29113 9.948053,8.34515 9.40625,8.40625 8.864447,8.46733 8.3339094,8.525063 8.03125,8.46875 7.9201118,8.448072 7.8037245,8.294966 7.75,8.03125 7.6962755,7.767534 7.7779816,7.489504 7.875,7.375 8.1100535,7.097583 8.6134631,6.875967 9.21875,6.78125 9.8240369,6.686533 10.495499,6.678147 11,6.65625 z m 0.15625,4.5 c -0.728125,0 -1.375,0.535291 -1.375,1.25 0,0.714709 0.646875,1.25 1.375,1.25 0.728126,0 1.34375,-0.546558 1.34375,-1.25 0,-0.703442 -0.615624,-1.25 -1.34375,-1.25 z"
       inkscape:connector-curvature="0"
       transform="translate(0,30)"
       clip-path="url(#clipPath3862)"
       id="path3858"
       style="opacity:0.4;color:#000000;fill:none;stroke:#000000;stroke-width:1;stroke-miterlimit:4;stroke-dasharray:none;marker:none;visibility:visible;display:inline;overflow:visible;filter:url(#filter3866);enable-background:accumulate" />
    <path
       d="m 11,3 c -4.418278,0 -8,3.581722 -8,8 0,4.418278 3.581722,8 8,8 4.418278,0 8,-3.581722 8,-8 0,-4.418278 -3.581722,-8 -8,-8 z m 0,3.28125 c 1.249125,-0.05421 2.178014,0.283177 2.84375,0.875 0.665736,0.591823 1.079773,1.447354 1.15625,2.53125 0.08379,1.187522 -0.0602,1.894358 -0.1875,2.40625 -0.06365,0.255946 -0.125748,0.472248 -0.15625,0.6875 -0.0305,0.215252 -0.01731,0.474866 0.125,0.6875 0.145592,0.217538 0.157952,0.365029 0.15625,0.4375 -0.0017,0.07247 0.01528,0.134542 -0.0625,0.21875 -0.155559,0.168416 -0.565402,0.367285 -0.9375,0.65625 -0.08682,0.06743 -0.286282,0.100608 -0.5,0.0625 -0.213718,-0.03811 -0.407133,-0.169244 -0.53125,-0.3125 a 0.38043645,0.38043645 0 0 0 -0.125,-0.0625 c -0.329726,-0.178803 -0.602951,-0.26141 -0.875,-0.21875 -0.272049,0.04266 -0.461398,0.171285 -0.625,0.28125 C 10.956826,14.74931 10.595186,14.993338 9.46875,15 9.46175,14.999731 9.44449,15.000327 9.4375,15 8.3458902,14.948934 7.3362622,14.183208 7.0625,13.21875 6.8320871,12.407011 6.9032945,11.769662 7.21875,11.25 7.5342055,10.730338 8.1292453,10.289793 9.09375,10 9.3027147,9.93721 9.7415271,9.9155 10.1875,9.875 10.633473,9.8345 11.084411,9.82602 11.46875,9.5625 11.802819,9.333445 11.99888,8.917781 11.875,8.5625 11.75112,8.207219 11.429063,8.010371 11.03125,7.96875 10.528301,7.91613 9.948053,7.97015 9.40625,8.03125 8.864447,8.09233 8.3339094,8.150063 8.03125,8.09375 7.9201118,8.073072 7.8037245,7.919966 7.75,7.65625 7.6962755,7.392534 7.7779816,7.114504 7.875,7 8.1100535,6.722583 8.6134631,6.500967 9.21875,6.40625 9.8240369,6.311533 10.495499,6.303147 11,6.28125 z m 0.15625,4.5 c -0.728125,0 -1.375,0.535291 -1.375,1.25 0,0.714709 0.646875,1.25 1.375,1.25 0.728126,0 1.34375,-0.546558 1.34375,-1.25 0,-0.703442 -0.615624,-1.25 -1.34375,-1.25 z"
       inkscape:connector-curvature="0"
       id="path3026"
       style="color:#000000;fill:url(#radialGradient3028);fill-opacity:1;fill-rule:nonzero;stroke:none;stroke-width:8;marker:none;visibility:visible;display:inline;overflow:visible;enable-background:accumulate" />
    <path
       d="M 11,6.28125 C 10.495499,6.303147 9.8240369,6.311533 9.21875,6.40625 8.6134631,6.500967 8.1100535,6.722583 7.875,7 7.7779816,7.114504 7.6962755,7.392534 7.75,7.65625 7.7801381,7.8041882 7.8486616,7.8942799 7.90625,7.96875 8.1518188,7.7061441 8.6366064,7.4973455 9.21875,7.40625 9.8240369,7.311533 10.495499,7.303147 11,7.28125 c 1.249125,-0.05421 2.178014,0.283177 2.84375,0.875 0.665736,0.591823 1.079773,1.447354 1.15625,2.53125 0.0064,0.09121 -0.0039,0.164329 0,0.25 0.02652,-0.348667 0.03493,-0.754975 0,-1.25 C 14.923523,8.603604 14.509486,7.748073 13.84375,7.15625 13.178014,6.564427 12.249125,6.22704 11,6.28125 z M 11.75,9.3125 C 11.67702,9.4171123 11.576666,9.4885075 11.46875,9.5625 11.084411,9.82602 10.633473,9.8345 10.1875,9.875 9.7415271,9.9155 9.3027147,9.93721 9.09375,10 8.1292453,10.289793 7.5342055,10.730338 7.21875,11.25 6.9510767,11.690948 6.8809038,12.229939 7,12.875 7.0472468,12.650934 7.1034874,12.439877 7.21875,12.25 7.5342055,11.730338 8.1292453,11.289793 9.09375,11 c 0.2089647,-0.06279 0.6477771,-0.0845 1.09375,-0.125 0.445973,-0.0405 0.896911,-0.04898 1.28125,-0.3125 0.334069,-0.229055 0.53013,-0.644719 0.40625,-1 -0.03097,-0.08882 -0.07117,-0.1809338 -0.125,-0.25 z M 3.03125,11.5 C 3.0207902,11.667454 3,11.829909 3,12 c 0,4.418278 3.581722,8 8,8 4.418278,0 8,-3.581722 8,-8 0,-0.170091 -0.02079,-0.332546 -0.03125,-0.5 C 18.707507,15.682345 15.248187,19 11,19 6.7518127,19 3.2924933,15.682345 3.03125,11.5 z m 6.875,1.03125 c -0.072021,0.150689 -0.125,0.321323 -0.125,0.5 0,0.714709 0.646875,1.25 1.375,1.25 0.728126,0 1.34375,-0.546558 1.34375,-1.25 0,-0.175861 -0.02466,-0.349839 -0.09375,-0.5 -0.207275,0.450484 -0.703906,0.75 -1.25,0.75 -0.546094,0 -1.033936,-0.297932 -1.25,-0.75 z M 14.75,13.375 c -0.03392,0.136006 -0.07571,0.27896 -0.09375,0.40625 -0.02059,0.145334 -0.01429,0.311084 0.03125,0.46875 0.06259,-0.04475 0.150166,-0.08458 0.1875,-0.125 0.07778,-0.08421 0.0608,-0.14628 0.0625,-0.21875 0.0017,-0.07247 -0.01066,-0.219962 -0.15625,-0.4375 -0.01922,-0.02871 -0.01653,-0.06355 -0.03125,-0.09375 z"
       inkscape:connector-curvature="0"
       id="path3798"
       style="opacity:0.2;color:#000000;fill:#ffffff;fill-opacity:1;fill-rule:nonzero;stroke:none;stroke-width:8;marker:none;visibility:visible;display:inline;overflow:visible;enable-background:accumulate" />
    <path
       d="m 11,3 c -4.418278,0 -8,3.581722 -8,8 0,4.418278 3.581722,8 8,8 4.418278,0 8,-3.581722 8,-8 0,-4.418278 -3.581722,-8 -8,-8 z m 0,0.5625 c 4.110336,0 7.4375,3.3271639 7.4375,7.4375 0,4.110336 -3.327164,7.4375 -7.4375,7.4375 C 6.8896639,18.4375 3.5625,15.110336 3.5625,11 3.5625,6.8896639 6.8896639,3.5625 11,3.5625 z M 10.96875,5.71875 C 10.479834,5.7399705 9.7888028,5.7398763 9.125,5.84375 8.4332637,5.9519949 7.83519,6.1556346 7.4375,6.625 7.2929493,6.795603 7.2287247,6.9699208 7.1875,7.15625 c -0.041225,0.1863292 -0.04596,0.3993983 0,0.625 0.038623,0.189587 0.1144104,0.3450256 0.21875,0.5 0.1043396,0.1549744 0.2622131,0.3249439 0.53125,0.375 0.4892405,0.091028 0.9880181,-0.00126 1.53125,-0.0625 0.53395,-0.060214 1.082298,-0.1062012 1.5,-0.0625 0.244544,0.025585 0.330659,0.091584 0.375,0.21875 0.01685,0.048335 -0.03284,0.2377042 -0.1875,0.34375 C 10.938647,9.2429483 10.598292,9.2695191 10.125,9.3125 9.6942888,9.351614 9.3223418,9.3531122 8.9375,9.46875 7.8824375,9.7857518 7.1250125,10.299498 6.71875,10.96875 6.3157922,11.632558 6.2397724,12.458225 6.5,13.375 c 0.3526179,1.242265 1.565432,2.124776 2.90625,2.1875 0.083009,0.0039 0.092436,0.0024 0.03125,0 a 0.56985545,0.56985545 0 0 0 0.03125,0 c 1.208003,-0.0071 1.801214,-0.344869 2.125,-0.5625 0.165399,-0.111173 0.2674,-0.165727 0.40625,-0.1875 0.103147,-0.01618 0.221579,0.0053 0.5,0.15625 A 0.56985545,0.56985545 0 0 0 12.59375,15 0.56985545,0.56985545 0 0 0 12.625,15 c 0.190047,0.178933 0.409395,0.351086 0.71875,0.40625 0.330301,0.0589 0.588289,0.08372 0.9375,-0.1875 0.15602,-0.121162 0.328717,-0.235042 0.5,-0.34375 0.171283,-0.108708 0.328837,-0.18969 0.5,-0.375 0.100261,-0.108547 0.197416,-0.274637 0.21875,-0.40625 0.02133,-0.131613 2.83e-4,-0.199543 0,-0.1875 0.0036,-0.155345 -0.04649,-0.445916 -0.25,-0.75 -0.03212,-0.048 -0.04962,-0.151602 -0.03125,-0.28125 0.02287,-0.161386 0.0898,-0.389036 0.15625,-0.65625 0.132662,-0.533452 0.275633,-1.313425 0.1875,-2.5625 -0.08516,-1.2069254 -0.561899,-2.2424536 -1.34375,-2.9375 -0.782068,-0.6952392 -1.886338,-1.0591807 -3.25,-1 z M 11,6.28125 c 1.249125,-0.05421 2.178014,0.283177 2.84375,0.875 0.665736,0.591823 1.079773,1.447354 1.15625,2.53125 0.08379,1.187522 -0.0602,1.894358 -0.1875,2.40625 -0.06365,0.255946 -0.125748,0.472248 -0.15625,0.6875 -0.0305,0.215252 -0.01731,0.474866 0.125,0.6875 0.145592,0.217538 0.157952,0.365029 0.15625,0.4375 -0.0017,0.07247 0.01528,0.134542 -0.0625,0.21875 -0.155559,0.168416 -0.565402,0.367285 -0.9375,0.65625 -0.08682,0.06743 -0.286282,0.100608 -0.5,0.0625 -0.213718,-0.03811 -0.407133,-0.169244 -0.53125,-0.3125 a 0.38043645,0.38043645 0 0 0 -0.125,-0.0625 c -0.329726,-0.178803 -0.602951,-0.26141 -0.875,-0.21875 -0.272049,0.04266 -0.461398,0.171285 -0.625,0.28125 C 10.956826,14.74931 10.595186,14.993338 9.46875,15 9.46175,14.999731 9.44449,15.000327 9.4375,15 8.3458902,14.948934 7.3362622,14.183208 7.0625,13.21875 6.8320871,12.407011 6.9032945,11.769662 7.21875,11.25 7.5342055,10.730338 8.1292453,10.289793 9.09375,10 9.3027147,9.93721 9.7415271,9.9155 10.1875,9.875 10.633473,9.8345 11.084411,9.82602 11.46875,9.5625 11.802819,9.333445 11.99888,8.917781 11.875,8.5625 11.75112,8.207219 11.429063,8.010371 11.03125,7.96875 10.528301,7.91613 9.948053,7.97015 9.40625,8.03125 8.864447,8.09233 8.3339094,8.150063 8.03125,8.09375 7.9201118,8.073072 7.8037245,7.919966 7.75,7.65625 7.6962755,7.392534 7.7779816,7.114504 7.875,7 8.1100535,6.722583 8.6134631,6.500967 9.21875,6.40625 9.8240369,6.311533 10.495499,6.303147 11,6.28125 z m 0.15625,4.5 c -0.728125,0 -1.375,0.535291 -1.375,1.25 0,0.714709 0.646875,1.25 1.375,1.25 0.728126,0 1.34375,-0.546558 1.34375,-1.25 0,-0.703442 -0.615624,-1.25 -1.34375,-1.25 z m 0,0.5625 c 0.442985,0 0.78125,0.316501 0.78125,0.6875 0,0.370999 -0.338265,0.6875 -0.78125,0.6875 -0.448862,0 -0.8125,-0.316603 -0.8125,-0.6875 0,-0.370897 0.363638,-0.6875 0.8125,-0.6875 z"
       inkscape:connector-curvature="0"
       id="path3818"
       style="opacity:0.3;color:#000000;fill:#000000;fill-opacity:1;fill-rule:nonzero;stroke:none;stroke-width:8;marker:none;visibility:visible;display:inline;overflow:visible;enable-background:accumulate" />
    <path
       d="m 11,3 c -4.418278,0 -8,3.581722 -8,8 0,0.170091 0.02079,0.332546 0.03125,0.5 C 3.2924933,7.3176547 6.7518127,4 11,4 15.248187,4 18.707507,7.3176547 18.96875,11.5 18.97921,11.332546 19,11.170091 19,11 19,6.581722 15.418278,3 11,3 z M 7.90625,7.96875 C 7.8964873,7.97919 7.8839873,7.9893929 7.875,8 7.7779816,8.114504 7.6962755,8.392534 7.75,8.65625 c 0.053725,0.263716 0.1701118,0.416822 0.28125,0.4375 0.3026594,0.056313 0.833197,-0.00142 1.375,-0.0625 0.541803,-0.0611 1.122051,-0.11512 1.625,-0.0625 0.29836,0.031216 0.557262,0.1365513 0.71875,0.34375 0.152941,-0.2192309 0.208863,-0.5094867 0.125,-0.75 -0.12388,-0.355281 -0.445937,-0.552129 -0.84375,-0.59375 -0.502949,-0.05262 -1.083197,0.0014 -1.625,0.0625 -0.541803,0.06108 -1.0723406,0.118813 -1.375,0.0625 -0.048792,-0.00908 -0.079931,-0.066719 -0.125,-0.125 z m 3.25,2.8125 c -0.728125,0 -1.375,0.535291 -1.375,1.25 0,0.178677 0.052979,0.349311 0.125,0.5 0.216064,-0.452068 0.703906,-0.75 1.25,-0.75 0.546094,0 1.042725,0.299516 1.25,0.75 0.06909,-0.150161 0.09375,-0.324139 0.09375,-0.5 0,-0.703442 -0.615624,-1.25 -1.34375,-1.25 z M 15,10.9375 c -0.03711,0.487755 -0.113266,0.857743 -0.1875,1.15625 -0.06365,0.255946 -0.125748,0.472248 -0.15625,0.6875 -0.02638,0.186185 -5.28e-4,0.400295 0.09375,0.59375 0.02344,-0.09398 0.03649,-0.176659 0.0625,-0.28125 C 14.930022,12.621176 15.046382,11.967195 15,10.9375 z M 7,12.875 c -0.08206,0.389168 -0.083724,0.828608 0.0625,1.34375 0.2737622,0.964458 1.2833902,1.730184 2.375,1.78125 0.00699,3.27e-4 0.02425,-2.69e-4 0.03125,0 1.126436,-0.0067 1.488076,-0.25069 1.8125,-0.46875 0.163602,-0.109965 0.352951,-0.23859 0.625,-0.28125 0.272049,-0.04266 0.545274,0.03995 0.875,0.21875 a 0.38043645,0.38043645 0 0 1 0.125,0.0625 c 0.124117,0.143256 0.317532,0.27439 0.53125,0.3125 0.213718,0.03811 0.41318,0.0049 0.5,-0.0625 0.372098,-0.288965 0.781941,-0.487834 0.9375,-0.65625 0.07778,-0.08421 0.0608,-0.14628 0.0625,-0.21875 0.0017,-0.07247 -0.01066,-0.219962 -0.15625,-0.4375 -0.04622,-0.06907 -0.07184,-0.1429 -0.09375,-0.21875 -0.198204,0.141716 -0.467206,0.311637 -0.75,0.53125 -0.08682,0.06743 -0.286282,0.100608 -0.5,0.0625 -0.213718,-0.03811 -0.407133,-0.169244 -0.53125,-0.3125 a 0.38043645,0.38043645 0 0 0 -0.125,-0.0625 c -0.329726,-0.178803 -0.602951,-0.26141 -0.875,-0.21875 -0.272049,0.04266 -0.461398,0.171285 -0.625,0.28125 C 10.956826,14.74931 10.595186,14.993338 9.46875,15 9.46175,14.999731 9.44449,15.000327 9.4375,15 8.3458902,14.948934 7.3362622,14.183208 7.0625,13.21875 7.0275992,13.095795 7.0212598,12.990149 7,12.875 z"
       inkscape:connector-curvature="0"
       id="path3831"
       style="opacity:0.3;color:#000000;fill:#000000;fill-opacity:1;fill-rule:nonzero;stroke:none;stroke-width:8;marker:none;visibility:visible;display:inline;overflow:visible;enable-background:accumulate" />
  </g>
</svg>
