<?xml version="1.0" encoding="UTF-8" standalone="no"?>
<!-- Created with Inkscape (http://www.inkscape.org/) -->

<svg
   xmlns:dc="http://purl.org/dc/elements/1.1/"
   xmlns:cc="http://creativecommons.org/ns#"
   xmlns:rdf="http://www.w3.org/1999/02/22-rdf-syntax-ns#"
   xmlns:svg="http://www.w3.org/2000/svg"
   xmlns="http://www.w3.org/2000/svg"
   xmlns:xlink="http://www.w3.org/1999/xlink"
   xmlns:inkscape="http://www.inkscape.org/namespaces/inkscape"
   version="1.0"
   width="22"
   height="22"
   id="svg2"
   style="display:inline">
  <defs
     id="defs4">
    <linearGradient
       x1="11.998966"
       y1="0.92195445"
       x2="11.998966"
       y2="19.387045"
       id="StandardGradient"
       gradientUnits="userSpaceOnUse"
       gradientTransform="scale(0.9219544,1.0846523)">
      <stop
         id="stop3283"
         style="stop-color:#000000;stop-opacity:0.23529412"
         offset="0" />
      <stop
         id="stop3850"
         style="stop-color:#000000;stop-opacity:0.39215687"
         offset="0.69999999" />
      <stop
         id="stop2651"
         style="stop-color:#000000;stop-opacity:0.55000001"
         offset="1" />
    </linearGradient>
    <radialGradient
       cx="36"
       cy="2"
       r="4"
       fx="36"
       fy="2"
       id="radialGradient3855"
       xlink:href="#SpecificGradient"
       gradientUnits="userSpaceOnUse"
       gradientTransform="translate(0,10)" />
    <linearGradient
       x1="10.406627"
       y1="2"
       x2="10.406627"
       y2="18.000771"
       id="SpecificGradient"
       gradientUnits="userSpaceOnUse">
      <stop
         id="stop3292"
         style="stop-color:#e64b36;stop-opacity:1"
         offset="0" />
      <stop
         id="stop3294"
         style="stop-color:#a31414;stop-opacity:1"
         offset="1" />
    </linearGradient>
    <radialGradient
       cx="36"
       cy="2"
       r="4"
       fx="36"
       fy="2"
       id="radialGradient3038"
       xlink:href="#StandardGradient"
       gradientUnits="userSpaceOnUse" />
    <radialGradient
       cx="12"
       cy="10.729534"
       r="7.015625"
       fx="12"
       fy="10.729534"
       id="radialGradient3932"
       xlink:href="#StandardGradient"
       gradientUnits="userSpaceOnUse"
       gradientTransform="matrix(2.2806236,2.4618775e-8,-1.6925407e-8,1.5679287,-15.367483,26.176855)" />
    <clipPath
       id="clipPath3069">
      <path
         d="M 10.6875,0.90625 C 9.2243989,3.3574745 8.7846937,4.5647756 9.3125,6.125 c 0.4784462,1.4143157 1.715529,2.1354793 1.09375,5.40625 1.021121,-1.5936075 1.83313,-3.6173722 1.03125,-5.25 -0.815573,-1.6605052 -1.262845,-2.669155 -0.75,-5.375 z m 3.65625,3.25 C 13.164506,5.9004089 12.879848,6.904022 13.40625,8.125 13.942249,9.3682429 14.516613,9.5323465 13.8125,11.34375 15.111609,9.8787277 15.191398,8.8855503 14.65625,7.75 14.110327,6.5915932 13.565779,6.2028216 14.34375,4.15625 z M 7.0625,4.46875 C 6.0982794,6.1246532 5.7906445,6.92536 6.15625,7.96875 6.4876647,8.9145657 7.3310632,9.4251298 6.9375,11.625 8.1453592,10.101175 8.0973081,8.9955888 7.5625,8.03125 7.0411039,7.091098 6.7379456,6.2886482 7.0625,4.46875 z M 4.96875,12 l 0,2.90625 c 0,2.789104 1.1054483,5.0625 2.5,5.0625 l 7.03125,0 c 1.208815,0 2.194807,-1.697223 2.4375,-3.96875 L 18.5,16 c 0.277,0 0.5,-0.223 0.5,-0.5 l 0,-3 C 19,12.223 18.777,12 18.5,12 L 17,12 15.5,12 4.96875,12 z M 17,13 l 0.5,0 c 0.277,0 0.5,0.223 0.5,0.5 l 0,1 C 18,14.777 17.777,15 17.5,15 L 17,15 c 2.82e-4,-0.03144 0,-0.06217 0,-0.09375 L 17,13 z"
         inkscape:connector-curvature="0"
         id="path3071"
         style="color:#000000;fill:#ff00ff;fill-opacity:1;fill-rule:nonzero;stroke:none;stroke-width:1;marker:none;visibility:visible;display:inline;overflow:visible;enable-background:accumulate" />
    </clipPath>
    <filter
       color-interpolation-filters="sRGB"
       id="filter3841">
      <feGaussianBlur
         id="feGaussianBlur3843"
         stdDeviation="0.41367188" />
    </filter>
    <clipPath
       id="clipPath3849">
      <path
         d="m -30,-30 0,22 22,0 0,-22 -22,0 z m 10.6875,0.90625 c -0.512845,2.705845 -0.06557,3.714495 0.75,5.375 0.80188,1.632628 -0.01013,3.656392 -1.03125,5.25 0.621779,-3.270771 -0.615304,-3.991934 -1.09375,-5.40625 -0.527806,-1.560224 -0.0881,-2.767525 1.375,-5.21875 z m 3.65625,3.25 c -0.777971,2.046572 -0.233423,2.435343 0.3125,3.59375 0.535148,1.13555 0.455359,2.128728 -0.84375,3.59375 0.704113,-1.811404 0.129749,-1.975507 -0.40625,-3.21875 -0.526402,-1.220978 -0.241744,-2.224591 0.9375,-3.96875 z m -7.28125,0.3125 c -0.324554,1.819898 -0.0214,2.622348 0.5,3.5625 0.534808,0.964339 0.582859,2.069925 -0.625,3.59375 0.393563,-2.19987 -0.449835,-2.710434 -0.78125,-3.65625 -0.365606,-1.04339 -0.05797,-1.844097 0.90625,-3.5 z M -25.03125,-18 -14.5,-18 l 1.5,0 1.5,0 c 0.277,0 0.5,0.223 0.5,0.5 l 0,3 c 0,0.277 -0.223,0.5 -0.5,0.5 l -1.5625,0 c -0.242693,2.271527 -1.228685,3.96875 -2.4375,3.96875 l -7.03125,0 c -1.394552,0 -2.5,-2.273396 -2.5,-5.0625 l 0,-2.90625 z M -13,-17 l 0,1.90625 c 0,0.03158 2.82e-4,0.06231 0,0.09375 l 0.5,0 c 0.277,0 0.5,-0.223 0.5,-0.5 l 0,-1 c 0,-0.277 -0.223,-0.5 -0.5,-0.5 l -0.5,0 z"
         inkscape:connector-curvature="0"
         id="path3851"
         style="opacity:0.5;color:#000000;fill:#ff00ff;fill-opacity:1;fill-rule:nonzero;stroke:none;stroke-width:2;marker:none;visibility:visible;display:inline;overflow:visible;enable-background:accumulate" />
    </clipPath>
    <filter
       color-interpolation-filters="sRGB"
       id="filter3853">
      <feGaussianBlur
         id="feGaussianBlur3855"
         stdDeviation="0.57914062" />
    </filter>
    <clipPath
       id="clipPath3881">
      <path
         d="m -30,30 0,22 22,0 0,-22 -22,0 z m 10.6875,0.90625 c -0.512845,2.705845 -0.06557,3.714495 0.75,5.375 0.80188,1.632628 -0.01013,3.656393 -1.03125,5.25 0.621779,-3.270771 -0.615304,-3.991934 -1.09375,-5.40625 -0.527806,-1.560224 -0.0881,-2.767525 1.375,-5.21875 z m 3.65625,3.25 c -0.777971,2.046572 -0.233423,2.435343 0.3125,3.59375 0.535148,1.13555 0.455359,2.128728 -0.84375,3.59375 0.704113,-1.811404 0.129749,-1.975507 -0.40625,-3.21875 -0.526402,-1.220978 -0.241744,-2.224591 0.9375,-3.96875 z m -7.28125,0.3125 c -0.324554,1.819898 -0.0214,2.622348 0.5,3.5625 0.534808,0.964339 0.582859,2.069925 -0.625,3.59375 0.393563,-2.19987 -0.449835,-2.710434 -0.78125,-3.65625 -0.365606,-1.04339 -0.05797,-1.844097 0.90625,-3.5 z M -25.03125,42 -14.5,42 l 1.5,0 1.5,0 c 0.277,0 0.5,0.223 0.5,0.5 l 0,3 c 0,0.277 -0.223,0.5 -0.5,0.5 l -1.5625,0 c -0.242693,2.271527 -1.228685,3.96875 -2.4375,3.96875 l -7.03125,0 c -1.394552,0 -2.5,-2.273396 -2.5,-5.0625 l 0,-2.90625 z M -13,43 l 0,1.90625 c 0,0.03158 2.82e-4,0.06231 0,0.09375 l 0.5,0 c 0.277,0 0.5,-0.223 0.5,-0.5 l 0,-1 c 0,-0.277 -0.223,-0.5 -0.5,-0.5 l -0.5,0 z"
         inkscape:connector-curvature="0"
         id="path3883"
         style="opacity:0.5;color:#000000;fill:#ff00ff;fill-opacity:1;fill-rule:nonzero;stroke:none;stroke-width:2;marker:none;visibility:visible;display:inline;overflow:visible;enable-background:accumulate" />
    </clipPath>
    <filter
       color-interpolation-filters="sRGB"
       id="filter3885">
      <feGaussianBlur
         id="feGaussianBlur3887"
         stdDeviation="0.41367188" />
    </filter>
    <radialGradient
       cx="12"
       cy="10.729534"
       r="7.015625"
       fx="12"
       fy="10.729534"
       id="radialGradient3042"
       xlink:href="#StandardGradient"
       gradientUnits="userSpaceOnUse"
       gradientTransform="matrix(2.2806236,2.4618775e-8,-1.6925407e-8,1.5679287,-15.367483,-3.823145)" />
  </defs>
  <metadata
     id="metadata7">
    <rdf:RDF>
      <cc:Work
         rdf:about="">
        <dc:format>image/svg+xml</dc:format>
        <dc:type
           rdf:resource="http://purl.org/dc/dcmitype/StillImage" />
        <dc:title />
      </cc:Work>
    </rdf:RDF>
  </metadata>
  <g
     id="layer1"
     style="display:inline">
    <path
       d="m -19.3125,31.4375 c -1.463101,2.451225 -1.902806,3.658526 -1.375,5.21875 0.478446,1.414316 1.715529,2.135479 1.09375,5.40625 1.021121,-1.593608 1.83313,-3.617372 1.03125,-5.25 -0.815573,-1.660505 -1.262845,-2.669155 -0.75,-5.375 z m 3.65625,3.25 c -1.179244,1.744159 -1.463902,2.747772 -0.9375,3.96875 0.535999,1.243243 1.110363,1.407346 0.40625,3.21875 1.299109,-1.465022 1.378898,-2.4582 0.84375,-3.59375 -0.545923,-1.158407 -1.090471,-1.547178 -0.3125,-3.59375 z M -22.9375,35 c -0.964221,1.655903 -1.271856,2.45661 -0.90625,3.5 0.331415,0.945816 1.174813,1.45638 0.78125,3.65625 1.207859,-1.523825 1.159808,-2.629411 0.625,-3.59375 -0.521396,-0.940152 -0.824554,-1.742602 -0.5,-3.5625 z m -2.09375,7.53125 0,2.90625 c 0,2.789104 1.105448,5.0625 2.5,5.0625 l 7.03125,0 c 1.208815,0 2.194807,-1.697223 2.4375,-3.96875 l 1.5625,0 c 0.277,0 0.5,-0.223 0.5,-0.5 l 0,-3 c 0,-0.277 -0.223,-0.5 -0.5,-0.5 l -1.5,0 -1.5,0 -10.53125,0 z m 12.03125,1 0.5,0 c 0.277,0 0.5,0.223 0.5,0.5 l 0,1 c 0,0.277 -0.223,0.5 -0.5,0.5 l -0.5,0 c 2.82e-4,-0.03144 0,-0.06217 0,-0.09375 l 0,-1.90625 z"
       inkscape:connector-curvature="0"
       transform="translate(30,0)"
       clip-path="url(#clipPath3881)"
       id="path3857"
       style="opacity:0.4;color:#000000;fill:#ffffff;fill-opacity:1;fill-rule:nonzero;stroke:none;stroke-width:1;marker:none;visibility:visible;display:inline;overflow:visible;filter:url(#filter3885);enable-background:accumulate" />
    <path
       d="m -19.3125,-29.09375 c -1.463101,2.451225 -1.902806,3.658526 -1.375,5.21875 0.478446,1.414316 1.715529,2.135479 1.09375,5.40625 1.021121,-1.593608 1.83313,-3.617372 1.03125,-5.25 -0.815573,-1.660505 -1.262845,-2.669155 -0.75,-5.375 z m 3.65625,3.25 c -1.179244,1.744159 -1.463902,2.747772 -0.9375,3.96875 0.535999,1.243243 1.110363,1.407346 0.40625,3.21875 1.299109,-1.465022 1.378898,-2.4582 0.84375,-3.59375 -0.545923,-1.158407 -1.090471,-1.547178 -0.3125,-3.59375 z m -7.28125,0.3125 c -0.964221,1.655903 -1.271856,2.45661 -0.90625,3.5 0.331415,0.945816 1.174813,1.45638 0.78125,3.65625 1.207859,-1.523825 1.159808,-2.629411 0.625,-3.59375 -0.521396,-0.940152 -0.824554,-1.742602 -0.5,-3.5625 z M -25.03125,-18 l 0,2.90625 c 0,2.789104 1.105448,5.0625 2.5,5.0625 l 7.03125,0 c 1.208815,0 2.194807,-1.697223 2.4375,-3.96875 l 1.5625,0 c 0.277,0 0.5,-0.223 0.5,-0.5 l 0,-3 c 0,-0.277 -0.223,-0.5 -0.5,-0.5 l -1.5,0 -1.5,0 -10.53125,0 z M -13,-17 l 0.5,0 c 0.277,0 0.5,0.223 0.5,0.5 l 0,1 c 0,0.277 -0.223,0.5 -0.5,0.5 l -0.5,0 c 2.82e-4,-0.03144 0,-0.06217 0,-0.09375 L -13,-17 z"
       inkscape:connector-curvature="0"
       transform="translate(30,60)"
       clip-path="url(#clipPath3849)"
       id="path3845"
       style="opacity:0.2;color:#000000;fill:none;stroke:#ffffff;stroke-width:1;marker:none;visibility:visible;display:inline;overflow:visible;filter:url(#filter3853);enable-background:accumulate" />
    <rect
       width="22"
       height="22"
       x="-30"
       y="0"
       id="rect3047"
       style="opacity:0.5;color:#000000;fill:#ff00ff;fill-opacity:1;fill-rule:nonzero;stroke:none;stroke-width:2;marker:none;visibility:visible;display:inline;overflow:visible;enable-background:accumulate" />
    <rect
       width="8"
       height="8"
       x="32"
       y="-2"
       id="rect3841"
       style="color:#000000;fill:url(#radialGradient3038);fill-opacity:1;fill-rule:nonzero;stroke:none;stroke-width:2;marker:none;visibility:visible;display:inline;overflow:visible;enable-background:accumulate" />
    <rect
       width="8"
       height="8"
       x="32"
       y="8"
       id="rect3853"
       style="color:#000000;fill:url(#radialGradient3855);fill-opacity:1;fill-rule:nonzero;stroke:none;stroke-width:2;marker:none;visibility:visible;display:inline;overflow:visible;enable-background:accumulate" />
    <text
       x="34"
       y="19"
       id="text3977"
       xml:space="preserve"
       style="font-size:1px;font-style:normal;font-variant:normal;font-weight:normal;font-stretch:normal;text-align:start;line-height:125%;letter-spacing:0px;word-spacing:0px;writing-mode:lr-tb;text-anchor:start;fill:#000000;fill-opacity:1;stroke:none;font-family:Trebuchet MS;-inkscape-font-specification:Trebuchet MS"><tspan
         x="34"
         y="19"
         id="tspan3805">-0.875px /blur 5 / opacity 40</tspan></text>
    <rect
       width="1"
       height="1"
       x="32"
       y="18"
       id="rect3981"
       style="color:#000000;fill:#000000;fill-opacity:1;fill-rule:nonzero;stroke:none;stroke-width:2;marker:none;visibility:visible;display:inline;overflow:visible;enable-background:accumulate" />
    <text
       x="34"
       y="21"
       id="text3983"
       xml:space="preserve"
       style="font-size:1px;font-style:normal;font-variant:normal;font-weight:normal;font-stretch:normal;text-align:start;line-height:125%;letter-spacing:0px;word-spacing:0px;writing-mode:lr-tb;text-anchor:start;fill:#000000;fill-opacity:1;stroke:none;font-family:Trebuchet MS;-inkscape-font-specification:Trebuchet MS"><tspan
         x="34"
         y="21"
         id="tspan3985">0px /blur 7 / opacity 20</tspan></text>
    <rect
       width="1"
       height="1"
       x="32"
       y="20"
       id="rect3987"
       style="color:#000000;fill:#ffffff;fill-opacity:1;fill-rule:nonzero;stroke:none;stroke-width:2;marker:none;visibility:visible;display:inline;overflow:visible;enable-background:accumulate" />
    <text
       x="34"
       y="23"
       id="text3989"
       xml:space="preserve"
       style="font-size:1px;font-style:normal;font-variant:normal;font-weight:normal;font-stretch:normal;text-align:start;line-height:125%;letter-spacing:0px;word-spacing:0px;writing-mode:lr-tb;text-anchor:start;fill:#000000;fill-opacity:1;stroke:none;font-family:Trebuchet MS;-inkscape-font-specification:Trebuchet MS"><tspan
         x="34"
         y="23"
         id="tspan3995">-0.5px /blur 5 / opacity 40</tspan></text>
    <rect
       width="1"
       height="1"
       x="32"
       y="22"
       id="rect3993"
       style="color:#000000;fill:#ffffff;fill-opacity:1;fill-rule:nonzero;stroke:none;stroke-width:2;marker:none;visibility:visible;display:inline;overflow:visible;enable-background:accumulate" />
    <path
       d="m 10.6875,30.90625 c -1.4631011,2.451225 -1.9028063,3.658526 -1.375,5.21875 0.4784462,1.414316 1.715529,2.135479 1.09375,5.40625 1.021121,-1.593607 1.83313,-3.617372 1.03125,-5.25 -0.815573,-1.660505 -1.262845,-2.669155 -0.75,-5.375 z m 3.65625,3.25 c -1.179244,1.744159 -1.463902,2.747772 -0.9375,3.96875 0.535999,1.243243 1.110363,1.407346 0.40625,3.21875 1.299109,-1.465022 1.378898,-2.4582 0.84375,-3.59375 -0.545923,-1.158407 -1.090471,-1.547178 -0.3125,-3.59375 z m -7.28125,0.3125 c -0.9642206,1.655903 -1.2718555,2.45661 -0.90625,3.5 0.3314147,0.945816 1.1748132,1.45638 0.78125,3.65625 1.2078592,-1.523825 1.1598081,-2.629411 0.625,-3.59375 -0.5213961,-0.940152 -0.8245544,-1.742602 -0.5,-3.5625 z M 4.96875,42 l 0,2.90625 c 0,2.789104 1.1054483,5.0625 2.5,5.0625 l 7.03125,0 c 1.208815,0 2.194807,-1.697223 2.4375,-3.96875 L 18.5,46 c 0.277,0 0.5,-0.223 0.5,-0.5 l 0,-3 C 19,42.223 18.777,42 18.5,42 L 17,42 15.5,42 4.96875,42 z M 17,43 l 0.5,0 c 0.277,0 0.5,0.223 0.5,0.5 l 0,1 C 18,44.777 17.777,45 17.5,45 L 17,45 c 2.82e-4,-0.03144 0,-0.06217 0,-0.09375 L 17,43 z"
       inkscape:connector-curvature="0"
       id="path3776"
       style="color:#000000;fill:url(#radialGradient3932);fill-opacity:1;fill-rule:nonzero;stroke:none;stroke-width:1;marker:none;visibility:visible;display:inline;overflow:visible;enable-background:accumulate" />
    <path
       d="m 10.6875,1.3125 c -1.4631011,2.4512245 -1.9028063,3.6585256 -1.375,5.21875 0.4784462,1.4143157 1.715529,2.1354793 1.09375,5.40625 1.021121,-1.593607 1.83313,-3.6173722 1.03125,-5.25 -0.815573,-1.6605052 -1.262845,-2.669155 -0.75,-5.375 z m 3.65625,3.25 C 13.164506,6.3066589 12.879848,7.310272 13.40625,8.53125 13.942249,9.7744929 14.516613,9.9385965 13.8125,11.75 15.111609,10.284978 15.191398,9.2918003 14.65625,8.15625 14.110327,6.9978432 13.565779,6.6090716 14.34375,4.5625 z M 7.0625,4.875 C 6.0982794,6.5309032 5.7906445,7.33161 6.15625,8.375 6.4876647,9.3208157 7.3310632,9.8313798 6.9375,12.03125 8.1453592,10.507425 8.0973081,9.4018388 7.5625,8.4375 7.0411039,7.497348 6.7379456,6.6948982 7.0625,4.875 z m -2.09375,7.53125 0,2.90625 c 0,2.789104 1.1054483,5.0625 2.5,5.0625 l 7.03125,0 c 1.208815,0 2.194807,-1.697223 2.4375,-3.96875 l 1.5625,0 c 0.277,0 0.5,-0.223 0.5,-0.5 l 0,-3 c 0,-0.277 -0.223,-0.5 -0.5,-0.5 l -1.5,0 -1.5,0 -10.53125,0 z m 12.03125,1 0.5,0 c 0.277,0 0.5,0.223 0.5,0.5 l 0,1 c 0,0.277 -0.223,0.5 -0.5,0.5 l -0.5,0 c 2.82e-4,-0.03144 0,-0.06217 0,-0.09375 l 0,-1.90625 z"
       inkscape:connector-curvature="0"
       transform="translate(0,30)"
       clip-path="url(#clipPath3069)"
       id="path3065"
       style="opacity:0.4;color:#000000;fill:none;stroke:#000000;stroke-width:1;marker:none;visibility:visible;display:inline;overflow:visible;filter:url(#filter3841);enable-background:accumulate" />
    <path
       d="M 10.6875,0.90625 C 9.2243989,3.357475 8.7846937,4.564776 9.3125,6.125 c 0.4784462,1.414316 1.715529,2.135479 1.09375,5.40625 1.021121,-1.593607 1.83313,-3.617372 1.03125,-5.25 -0.815573,-1.660505 -1.262845,-2.669155 -0.75,-5.375 z m 3.65625,3.25 C 13.164506,5.900409 12.879848,6.904022 13.40625,8.125 13.942249,9.368243 14.516613,9.532346 13.8125,11.34375 15.111609,9.878728 15.191398,8.88555 14.65625,7.75 14.110327,6.591593 13.565779,6.202822 14.34375,4.15625 z M 7.0625,4.46875 C 6.0982794,6.124653 5.7906445,6.92536 6.15625,7.96875 6.4876647,8.914566 7.3310632,9.42513 6.9375,11.625 8.1453592,10.101175 8.0973081,8.995589 7.5625,8.03125 7.0411039,7.091098 6.7379456,6.288648 7.0625,4.46875 z M 4.96875,12 l 0,2.90625 c 0,2.789104 1.1054483,5.0625 2.5,5.0625 l 7.03125,0 c 1.208815,0 2.194807,-1.697223 2.4375,-3.96875 L 18.5,16 c 0.277,0 0.5,-0.223 0.5,-0.5 l 0,-3 C 19,12.223 18.777,12 18.5,12 L 17,12 15.5,12 4.96875,12 z M 17,13 l 0.5,0 c 0.277,0 0.5,0.223 0.5,0.5 l 0,1 C 18,14.777 17.777,15 17.5,15 L 17,15 c 2.82e-4,-0.03144 0,-0.06217 0,-0.09375 L 17,13 z"
       inkscape:connector-curvature="0"
       id="path3040"
       style="color:#000000;fill:url(#radialGradient3042);fill-opacity:1;fill-rule:nonzero;stroke:none;stroke-width:1;marker:none;visibility:visible;display:inline;overflow:visible;enable-background:accumulate" />
    <path
       d="M 10.6875,1.90625 C 10.610527,2.0352073 10.571316,2.1276959 10.5,2.25 c -0.03058,0.3790925 -0.01888,0.7173156 0,1.03125 0.03182,-0.411482 0.08889,-0.8547217 0.1875,-1.375 z m 3.65625,3.25 c -0.149124,0.2205614 -0.254319,0.3949362 -0.375,0.59375 -0.0051,0.2155088 0.01882,0.4177652 0.0625,0.59375 0.05382,-0.329605 0.129448,-0.7059536 0.3125,-1.1875 z M 9.125,5.4375 c -0.077132,0.5700331 -0.010427,1.102416 0.1875,1.6875 0.3514739,1.0389783 1.117402,1.7048374 1.25,3.28125 C 10.735717,8.0577175 9.7311404,7.3625265 9.3125,6.125 9.2316394,5.8859718 9.1602434,5.6657034 9.125,5.4375 z M 7.0625,5.46875 c -0.043469,0.074651 -0.084201,0.1162242 -0.125,0.1875 -2.835e-4,0.010808 2.196e-4,0.020531 0,0.03125 -0.00505,0.2465413 0.00496,0.4807275 0.03125,0.6875 C 6.987821,6.0938739 7.0005901,5.8159018 7.0625,5.46875 z M 13.21875,7.5 c -0.104663,0.5564698 -0.05227,1.0688594 0.1875,1.625 0.268,0.6216215 0.533673,0.983393 0.65625,1.40625 C 14.298959,9.4573256 13.846174,9.1453976 13.40625,8.125 13.312525,7.9076064 13.26058,7.7090189 13.21875,7.5 z M 6.0625,7.65625 C 5.9705917,8.1047801 5.9983516,8.5181286 6.15625,8.96875 6.3918358,9.6410824 6.875212,10.098155 7,11.09375 7.171736,9.3457671 6.4583472,8.8308977 6.15625,7.96875 6.117718,7.8587849 6.0860954,7.7621091 6.0625,7.65625 z m 5.65625,0.625 c -0.125899,1.0206933 -0.596477,2.045187 -1.15625,2.96875 -0.01168,0.227403 -0.05762,0.488505 -0.09375,0.75 l 0.25,0 c 0.668888,-1.167405 1.154212,-2.4966377 1,-3.71875 z M 14.90625,9.5 c -0.104189,0.4527919 -0.354157,0.924431 -0.78125,1.46875 0.0019,0.267305 -0.04843,0.61168 -0.1875,1.03125 l 0.15625,0 c 0.770497,-0.970083 0.973391,-1.732093 0.8125,-2.5 z M 7.875,9.78125 C 7.7795608,10.294185 7.5174714,10.85877 7.03125,11.5 7.0342561,11.654724 7.0149535,11.820007 7,12 l 0.375,0 c 0.5310088,-0.86102 0.6483975,-1.577081 0.5,-2.21875 z M 17,13 l 0,1 0.5,0 c 0.277,0 0.5,0.223 0.5,0.5 l 0,-1 C 18,13.223 17.777,13 17.5,13 L 17,13 z m -12.03125,1.90625 0,1 c 0,2.789104 1.1054483,5.0625 2.5,5.0625 l 7.03125,0 c 1.208815,0 2.194807,-1.697223 2.4375,-3.96875 L 18.5,17 c 0.277,0 0.5,-0.223 0.5,-0.5 l 0,-1 c 0,0.277 -0.223,0.5 -0.5,0.5 l -1,0 -0.5,0 -0.0625,0 c -0.242693,2.271527 -1.228685,3.96875 -2.4375,3.96875 l -7.03125,0 c -1.3945517,0 -2.5,-2.273396 -2.5,-5.0625 z"
       inkscape:connector-curvature="0"
       id="path3044"
       style="opacity:0.2;color:#000000;fill:#ffffff;fill-opacity:1;fill-rule:nonzero;stroke:none;stroke-width:1;marker:none;visibility:visible;display:inline;overflow:visible;enable-background:accumulate" />
    <path
       d="m 10.53125,-0.09375 a 1.0020135,1.0020135 0 0 0 -0.71875,0.5 C 9.066486,1.656094 8.5535916,2.5981113 8.28125,3.5625 8.0089084,4.5268887 8.0588953,5.5030775 8.375,6.4375 8.9520773,8.1433754 9.8049837,8.4826357 9.4375,11 l -1.125,0 C 8.5085817,10.583197 8.8559091,10.160034 8.90625,9.75 9.0069318,8.9299314 8.777493,8.1443083 8.4375,7.53125 7.9534896,6.6585098 7.7658151,6.3198734 8.0625,4.65625 A 1.0020135,1.0020135 0 0 0 6.1875,3.96875 C 5.6933685,4.817346 5.3531935,5.4897433 5.15625,6.1875 4.9593065,6.8852567 4.9804957,7.6325537 5.21875,8.3125 5.6307747,9.4883668 6.0480511,9.7023453 5.9375,11 l -0.96875,0 a 1.0020135,1.0020135 0 0 0 -1,1 l 0,2.90625 c 0,1.52692 0.2723664,2.932257 0.8125,4.03125 0.5401336,1.098993 1.445785,2.03125 2.6875,2.03125 l 7.03125,0 c 1.073316,0 1.90512,-0.743896 2.4375,-1.625 C 17.321317,18.708522 17.480793,17.842006 17.65625,17 L 18.5,17 c 0.81473,0 1.5,-0.68527 1.5,-1.5 l 0,-3 C 20,11.68527 19.31473,11 18.5,11 l -1.5,0 -1.5,0 -0.375,0 C 15.411569,10.543576 15.811045,10.097854 15.90625,9.625 16.070527,8.8090889 15.886278,7.9995368 15.5625,7.3125 15.2532,6.6561891 15.024789,6.3228991 14.96875,6.0625 14.912711,5.8021009 14.92734,5.4310135 15.28125,4.5 A 1.0020135,1.0020135 0 0 0 13.5,3.59375 c -0.558957,0.8267233 -0.936063,1.5194546 -1.15625,2.25 -0.808696,-1.6465031 -1.140765,-2.1936297 -0.65625,-4.75 a 1.0020135,1.0020135 0 0 0 -1.15625,-1.1875 z m 0.15625,1 c -0.512845,2.705845 -0.06557,3.714495 0.75,5.375 0.80188,1.632628 -0.01013,3.656393 -1.03125,5.25 C 11.028029,8.260479 9.7909462,7.539316 9.3125,6.125 8.7846937,4.564776 9.2243989,3.357475 10.6875,0.90625 z m 3.65625,3.25 C 13.565779,6.202822 14.110327,6.591593 14.65625,7.75 15.191398,8.88555 15.111609,9.878728 13.8125,11.34375 14.516613,9.532346 13.942249,9.368243 13.40625,8.125 12.879848,6.904022 13.164506,5.900409 14.34375,4.15625 z M 7.0625,4.46875 c -0.3245544,1.819898 -0.021396,2.622348 0.5,3.5625 C 8.0973081,8.995589 8.1453592,10.101175 6.9375,11.625 7.3310632,9.42513 6.4876647,8.914566 6.15625,7.96875 5.7906445,6.92536 6.0982794,6.124653 7.0625,4.46875 z M 12.59375,8.75 c 0.242897,0.5112009 0.488474,0.9149339 0.53125,1.0625 0.05134,0.1770963 0.06502,0.345817 -0.25,1.15625 a 1.0020135,1.0020135 0 0 0 0,0.03125 l -1.15625,0 C 12.032331,10.400005 12.391295,9.8318492 12.5625,9.15625 12.595388,9.0264682 12.568773,8.882935 12.59375,8.75 z M 4.96875,12 15.5,12 l 1.5,0 1.5,0 c 0.277,0 0.5,0.223 0.5,0.5 l 0,3 c 0,0.277 -0.223,0.5 -0.5,0.5 l -1.5625,0 c -0.242693,2.271527 -1.228685,3.96875 -2.4375,3.96875 l -7.03125,0 c -1.3945517,0 -2.5,-2.273396 -2.5,-5.0625 L 4.96875,12 z M 17,13 l 0,1.90625 c 0,0.03158 2.82e-4,0.06231 0,0.09375 l 0.5,0 c 0.277,0 0.5,-0.223 0.5,-0.5 l 0,-1 C 18,13.223 17.777,13 17.5,13 L 17,13 z"
       inkscape:connector-curvature="0"
       id="path3827"
       style="opacity:0.05;color:#000000;fill:#ffffff;fill-opacity:1;fill-rule:nonzero;stroke:none;stroke-width:1;marker:none;visibility:visible;display:inline;overflow:visible;enable-background:accumulate" />
    <path
       d="M 10.6875,0.90625 C 9.2243989,3.357475 8.7846937,4.564776 9.3125,6.125 c 0.4784462,1.414316 1.715529,2.135479 1.09375,5.40625 1.021121,-1.593607 1.83313,-3.617372 1.03125,-5.25 -0.815573,-1.660505 -1.262845,-2.669155 -0.75,-5.375 z m -0.65625,2.5 C 10.129722,4.5643644 10.49695,5.4757913 11,6.5 11.335234,7.182536 11.335953,7.9800505 11.125,8.8125 11.100941,8.9074392 11.029598,8.9981805 11,9.09375 10.785212,7.595979 10.063966,6.8044743 9.78125,5.96875 9.5434872,5.2659101 9.5459481,4.7225681 9.75,4 9.7924401,3.8497154 9.9670221,3.5721955 10.03125,3.40625 z m 4.3125,0.75 C 13.164506,5.900409 12.879848,6.904022 13.40625,8.125 13.942249,9.368243 14.516613,9.532346 13.8125,11.34375 15.111609,9.878728 15.191398,8.88555 14.65625,7.75 14.110327,6.591593 13.565779,6.202822 14.34375,4.15625 z M 7.0625,4.46875 C 6.0982794,6.124653 5.7906445,6.92536 6.15625,7.96875 6.4876647,8.914566 7.3310632,9.42513 6.9375,11.625 8.1453592,10.101175 8.0973081,8.995589 7.5625,8.03125 7.0411039,7.091098 6.7379456,6.288648 7.0625,4.46875 z m 6.625,2.375 c 0.151615,0.3819425 0.316269,0.7351365 0.5,1.125 C 14.371108,8.3583553 14.384246,8.6652199 14.375,9 14.217524,8.6553002 14.055828,8.3569289 13.875,7.9375 13.704687,7.5424623 13.659237,7.1995739 13.6875,6.84375 z M 6.59375,6.875 C 6.7159425,7.3956236 6.8863054,7.8508493 7.125,8.28125 7.3560546,8.697876 7.4640654,9.0915851 7.40625,9.5625 7.4038166,9.5823208 7.3780834,9.6048175 7.375,9.625 7.1674776,8.7869626 6.7847938,8.2685315 6.625,7.8125 6.5057188,7.4720872 6.5440998,7.1883118 6.59375,6.875 z m -1.625,5.125 0,2.90625 c 0,2.789104 1.1054483,5.0625 2.5,5.0625 l 7.03125,0 c 1.208815,0 2.194807,-1.697223 2.4375,-3.96875 L 18.5,16 c 0.277,0 0.5,-0.223 0.5,-0.5 l 0,-3 C 19,12.223 18.777,12 18.5,12 L 17,12 15.5,12 4.96875,12 z m 0.5,0.5 10.03125,0 1.375,0 A 0.50176589,0.50176589 0 0 0 16.5,13 l 0,1.90625 c 0,0.03457 2.29e-4,0.06824 0,0.09375 a 0.50176589,0.50176589 0 0 0 0.3125,0.5 0.50176589,0.50176589 0 0 0 -0.375,0.4375 c -0.115124,1.077522 -0.405614,2.003313 -0.78125,2.625 -0.375636,0.621687 -0.786652,0.90625 -1.15625,0.90625 l -7.03125,0 c -0.4246438,0 -0.906613,-0.392904 -1.3125,-1.21875 -0.405887,-0.825846 -0.6875,-2.015482 -0.6875,-3.34375 l 0,-2.40625 z m 12.03125,0 1,0 0,1 c 0,-0.546272 -0.453728,-1 -1,-1 z M 17,13 l 0.5,0 c 0.277,0 0.5,0.223 0.5,0.5 l 0,1 C 18,14.777 17.777,15 17.5,15 L 17,15 c 2.82e-4,-0.03144 0,-0.06217 0,-0.09375 L 17,13 z m 1.5,1.5 0,1 -1,0 c 0.546272,0 1,-0.453728 1,-1 z"
       inkscape:connector-curvature="0"
       id="path3832"
       style="opacity:0.3;color:#000000;fill:#000000;fill-opacity:1;fill-rule:nonzero;stroke:none;stroke-width:1;marker:none;visibility:visible;display:inline;overflow:visible;enable-background:accumulate" />
    <path
       d="M 10.6875,0.90625 C 9.4686208,2.9483147 8.9556735,4.1362979 9.125,5.375 9.2540897,4.5204574 9.7411608,3.5513806 10.5,2.25 10.532551,1.8465036 10.591342,1.4135959 10.6875,0.90625 z M 10.5,3.34375 c -0.119228,1.6892491 0.286541,2.6121484 0.9375,3.9375 C 11.590525,7.5928098 11.673509,7.9156595 11.71875,8.25 11.797871,7.5710677 11.738205,6.8934855 11.4375,6.28125 10.927767,5.2434344 10.577512,4.4458024 10.5,3.34375 z m 3.84375,0.8125 c -0.969281,1.4336136 -1.318107,2.378827 -1.125,3.34375 0.09606,-0.5107381 0.351039,-1.0927411 0.75,-1.75 0.0096,-0.4091059 0.109078,-0.8942027 0.375,-1.59375 z M 7.0625,4.46875 c -0.8625993,1.4813838 -1.2002866,2.2889282 -1,3.1875 0.1101326,-0.5374682 0.4104062,-1.1551223 0.875,-1.96875 2.196e-4,-0.010719 -2.835e-4,-0.020442 0,-0.03125 0.00907,-0.3458427 0.043861,-0.7325255 0.125,-1.1875 z m 6.96875,1.875 c -0.174928,1.0712163 0.207529,1.5204094 0.625,2.40625 0.119272,0.2530884 0.198512,0.5042559 0.25,0.75 0.137618,-0.5980705 0.02756,-1.1610298 -0.25,-1.75 -0.261019,-0.5538633 -0.509012,-0.9389482 -0.625,-1.40625 z M 6.96875,6.375 C 6.8878438,7.5676408 7.140562,8.2704352 7.5625,9.03125 7.696202,9.2723348 7.8141606,9.5181814 7.875,9.78125 7.9966065,9.1276792 7.8537095,8.5563443 7.5625,8.03125 7.2692147,7.5024145 7.051054,7.0222878 6.96875,6.375 z M 10.5625,10.5 c -0.02635,0.313144 -0.08488,0.655829 -0.15625,1.03125 0.05696,-0.08889 0.100839,-0.189829 0.15625,-0.28125 0.01378,-0.268254 0.0149,-0.522555 0,-0.75 z m 3.5,0.0625 c -0.05218,0.227689 -0.129105,0.470235 -0.25,0.78125 0.115179,-0.129889 0.216069,-0.252101 0.3125,-0.375 -0.0011,-0.153174 -0.02766,-0.277079 -0.0625,-0.40625 z M 7,11.09375 C 6.9833336,11.263385 6.9723152,11.430396 6.9375,11.625 6.971494,11.582113 6.9992284,11.54223 7.03125,11.5 7.0284628,11.356545 7.0156503,11.218612 7,11.09375 z M 4.96875,12 l 0,1 10.53125,0 1.5,0 0.5,0 1,0 c 0.277,0 0.5,0.223 0.5,0.5 l 0,-1 C 19,12.223 18.777,12 18.5,12 l -1.5,0 -1.5,0 -1.40625,0 c -0.08925,0.112365 -0.176451,0.225567 -0.28125,0.34375 0.05088,-0.130885 0.08698,-0.229037 0.125,-0.34375 l -3.21875,0 c -0.102625,0.179111 -0.203385,0.360961 -0.3125,0.53125 0.0366,-0.192508 0.03825,-0.355746 0.0625,-0.53125 L 7.375,12 C 7.2529067,12.197972 7.1068512,12.411348 6.9375,12.625 6.97837,12.396552 6.9838502,12.194392 7,12 L 4.96875,12 z M 18,14.5 c 0,0.277 -0.223,0.5 -0.5,0.5 l -0.5,0 0,0.90625 c 0,0.03158 2.82e-4,0.06231 0,0.09375 l 0.5,0 c 0.277,0 0.5,-0.223 0.5,-0.5 l 0,-1 z"
       inkscape:connector-curvature="0"
       id="path3846"
       style="opacity:0.3;color:#000000;fill:#000000;fill-opacity:1;fill-rule:nonzero;stroke:none;stroke-width:1;marker:none;visibility:visible;display:inline;overflow:visible;enable-background:accumulate" />
  </g>
</svg>
