<?xml version="1.0" encoding="UTF-8" standalone="no"?>
<!-- Created with Inkscape (http://www.inkscape.org/) -->

<svg
   xmlns:dc="http://purl.org/dc/elements/1.1/"
   xmlns:cc="http://creativecommons.org/ns#"
   xmlns:rdf="http://www.w3.org/1999/02/22-rdf-syntax-ns#"
   xmlns:svg="http://www.w3.org/2000/svg"
   xmlns="http://www.w3.org/2000/svg"
   xmlns:xlink="http://www.w3.org/1999/xlink"
   xmlns:inkscape="http://www.inkscape.org/namespaces/inkscape"
   version="1.0"
   width="22"
   height="22"
   id="svg2"
   style="display:inline">
  <defs
     id="defs4">
    <linearGradient
       x1="11.998966"
       y1="0.92195445"
       x2="11.998966"
       y2="19.387045"
       id="StandardGradient"
       gradientUnits="userSpaceOnUse"
       gradientTransform="scale(0.9219544,1.0846523)">
      <stop
         id="stop3283"
         style="stop-color:#000000;stop-opacity:0.23529412"
         offset="0" />
      <stop
         id="stop3850"
         style="stop-color:#000000;stop-opacity:0.39215687"
         offset="0.69999999" />
      <stop
         id="stop2651"
         style="stop-color:#000000;stop-opacity:0.55000001"
         offset="1" />
    </linearGradient>
    <radialGradient
       cx="36"
       cy="2"
       r="4"
       fx="36"
       fy="2"
       id="radialGradient3855"
       xlink:href="#SpecificGradient"
       gradientUnits="userSpaceOnUse"
       gradientTransform="translate(0,10)" />
    <linearGradient
       x1="10.406627"
       y1="2"
       x2="10.406627"
       y2="18.000771"
       id="SpecificGradient"
       gradientUnits="userSpaceOnUse">
      <stop
         id="stop3292"
         style="stop-color:#e64b36;stop-opacity:1"
         offset="0" />
      <stop
         id="stop3294"
         style="stop-color:#a31414;stop-opacity:1"
         offset="1" />
    </linearGradient>
    <radialGradient
       cx="36"
       cy="2"
       r="4"
       fx="36"
       fy="2"
       id="radialGradient3038"
       xlink:href="#StandardGradient"
       gradientUnits="userSpaceOnUse" />
    <radialGradient
       cx="12"
       cy="12.555555"
       r="7"
       fx="12"
       fy="12.555555"
       id="radialGradient3925"
       xlink:href="#StandardGradient"
       gradientUnits="userSpaceOnUse"
       gradientTransform="matrix(2.2857143,0,0,1.5714285,-15.428571,23.269842)" />
    <clipPath
       id="clipPath3943">
      <path
         d="m 5,2 0,9 3.085714,-3 4.553917,3 -4.553917,3 0,-4.028571 L 5,13.057143 5,20 19,11 5,2 z"
         inkscape:connector-curvature="0"
         id="path3945"
         style="fill:#ff00ff;fill-opacity:1;stroke:none;display:inline" />
    </clipPath>
    <filter
       color-interpolation-filters="sRGB"
       id="filter3947">
      <feGaussianBlur
         id="feGaussianBlur3949"
         stdDeviation="0.4" />
    </filter>
    <clipPath
       id="clipPath3955">
      <path
         d="m -30,30 0,22 22,0 0,-22 -22,0 z m 5,2 14,9 -14,9 0,-6.9375 3.09375,-3.09375 0,4.03125 4.53125,-3 -4.53125,-3 -3.09375,3 0,-9 z"
         inkscape:connector-curvature="0"
         id="path3957"
         style="opacity:0.5;color:#000000;fill:#ff00ff;fill-opacity:1;fill-rule:nonzero;stroke:none;stroke-width:2;marker:none;visibility:visible;display:inline;overflow:visible;enable-background:accumulate" />
    </clipPath>
    <filter
       color-interpolation-filters="sRGB"
       id="filter3959">
      <feGaussianBlur
         id="feGaussianBlur3961"
         stdDeviation="0.4" />
    </filter>
    <clipPath
       id="clipPath3967">
      <path
         d="m -30,-30 0,22 22,0 0,-22 -22,0 z m 5,2 14,9 -14,9 0,-6.9375 3.09375,-3.09375 0,4.03125 4.53125,-3 -4.53125,-3 -3.09375,3 0,-9 z"
         inkscape:connector-curvature="0"
         id="path3969"
         style="opacity:0.5;color:#000000;fill:#ff00ff;fill-opacity:1;fill-rule:nonzero;stroke:none;stroke-width:2;marker:none;visibility:visible;display:inline;overflow:visible;enable-background:accumulate" />
    </clipPath>
    <filter
       color-interpolation-filters="sRGB"
       id="filter3971">
      <feGaussianBlur
         id="feGaussianBlur3973"
         stdDeviation="0.56" />
    </filter>
    <radialGradient
       cx="12"
       cy="12.555555"
       r="7"
       fx="12"
       fy="12.555555"
       id="radialGradient3039"
       xlink:href="#StandardGradient"
       gradientUnits="userSpaceOnUse"
       gradientTransform="matrix(2.2857143,0,0,1.5714285,-15.428571,-6.730158)" />
  </defs>
  <metadata
     id="metadata7">
    <rdf:RDF>
      <cc:Work
         rdf:about="">
        <dc:format>image/svg+xml</dc:format>
        <dc:type
           rdf:resource="http://purl.org/dc/dcmitype/StillImage" />
        <dc:title />
      </cc:Work>
    </rdf:RDF>
  </metadata>
  <g
     id="layer1"
     style="display:inline">
    <path
       d="M 4.875,0.9375 A 1.0565009,1.0565009 0 0 0 3.9375,2 l 0,9 a 1.0565009,1.0565009 0 0 0 0.65625,0.96875 L 4.25,12.3125 a 1.0565009,1.0565009 0 0 0 -0.3125,0.75 l 0,6.9375 a 1.0565009,1.0565009 0 0 0 1.625,0.875 l 14,-9 a 1.0565009,1.0565009 0 0 0 0,-1.75 l -14,-9 A 1.0565009,1.0565009 0 0 0 4.875,0.9375 z M 5,2 19,11 5,20 5,13.0625 8.09375,9.96875 8.09375,14 12.625,11 8.09375,8 5,11 5,2 z M 9.15625,9.96875 10.71875,11 l -1.5625,1.03125 0,-2.0625 z"
       inkscape:connector-curvature="0"
       id="path3824"
       style="opacity:0.05;fill:#ffffff;fill-opacity:1;stroke:none;display:inline" />
    <path
       d="m -25,-28 0,9 3.085714,-3 4.553917,3 -4.553917,3 0,-4.028571 L -25,-16.942857 -25,-10 l 14,-9 -14,-9 z"
       inkscape:connector-curvature="0"
       transform="translate(30,60)"
       clip-path="url(#clipPath3967)"
       id="path3963"
       style="opacity:0.2;fill:none;stroke:#ffffff;display:inline;filter:url(#filter3971)" />
    <path
       d="m -25,32.5 0,9 3.085714,-3 4.553917,3 -4.553917,3 0,-4.028571 L -25,43.557143 -25,50.5 l 14,-9 -14,-9 z"
       inkscape:connector-curvature="0"
       transform="translate(30,0)"
       clip-path="url(#clipPath3955)"
       id="path3951"
       style="opacity:0.4;fill:#ffffff;fill-opacity:1;stroke:none;display:inline;filter:url(#filter3959)" />
    <rect
       width="22"
       height="22"
       x="-30"
       y="0"
       id="rect3047"
       style="opacity:0.5;color:#000000;fill:#ff00ff;fill-opacity:1;fill-rule:nonzero;stroke:none;stroke-width:2;marker:none;visibility:visible;display:inline;overflow:visible;enable-background:accumulate" />
    <rect
       width="8"
       height="8"
       x="32"
       y="-2"
       id="rect3841"
       style="color:#000000;fill:url(#radialGradient3038);fill-opacity:1;fill-rule:nonzero;stroke:none;stroke-width:2;marker:none;visibility:visible;display:inline;overflow:visible;enable-background:accumulate" />
    <rect
       width="8"
       height="8"
       x="32"
       y="8"
       id="rect3853"
       style="color:#000000;fill:url(#radialGradient3855);fill-opacity:1;fill-rule:nonzero;stroke:none;stroke-width:2;marker:none;visibility:visible;display:inline;overflow:visible;enable-background:accumulate" />
    <text
       x="34"
       y="19"
       id="text3977"
       xml:space="preserve"
       style="font-size:1px;font-style:normal;font-variant:normal;font-weight:normal;font-stretch:normal;text-align:start;line-height:125%;letter-spacing:0px;word-spacing:0px;writing-mode:lr-tb;text-anchor:start;fill:#000000;fill-opacity:1;stroke:none;font-family:Trebuchet MS;-inkscape-font-specification:Trebuchet MS"><tspan
         x="34"
         y="19"
         id="tspan3805">-0.875px /blur 5 / opacity 40</tspan></text>
    <rect
       width="1"
       height="1"
       x="32"
       y="18"
       id="rect3981"
       style="color:#000000;fill:#000000;fill-opacity:1;fill-rule:nonzero;stroke:none;stroke-width:2;marker:none;visibility:visible;display:inline;overflow:visible;enable-background:accumulate" />
    <text
       x="34"
       y="21"
       id="text3983"
       xml:space="preserve"
       style="font-size:1px;font-style:normal;font-variant:normal;font-weight:normal;font-stretch:normal;text-align:start;line-height:125%;letter-spacing:0px;word-spacing:0px;writing-mode:lr-tb;text-anchor:start;fill:#000000;fill-opacity:1;stroke:none;font-family:Trebuchet MS;-inkscape-font-specification:Trebuchet MS"><tspan
         x="34"
         y="21"
         id="tspan3985">0px /blur 7 / opacity 20</tspan></text>
    <rect
       width="1"
       height="1"
       x="32"
       y="20"
       id="rect3987"
       style="color:#000000;fill:#ffffff;fill-opacity:1;fill-rule:nonzero;stroke:none;stroke-width:2;marker:none;visibility:visible;display:inline;overflow:visible;enable-background:accumulate" />
    <text
       x="34"
       y="23"
       id="text3989"
       xml:space="preserve"
       style="font-size:1px;font-style:normal;font-variant:normal;font-weight:normal;font-stretch:normal;text-align:start;line-height:125%;letter-spacing:0px;word-spacing:0px;writing-mode:lr-tb;text-anchor:start;fill:#000000;fill-opacity:1;stroke:none;font-family:Trebuchet MS;-inkscape-font-specification:Trebuchet MS"><tspan
         x="34"
         y="23"
         id="tspan3995">-0.5px /blur 5 / opacity 40</tspan></text>
    <rect
       width="1"
       height="1"
       x="32"
       y="22"
       id="rect3993"
       style="color:#000000;fill:#ffffff;fill-opacity:1;fill-rule:nonzero;stroke:none;stroke-width:2;marker:none;visibility:visible;display:inline;overflow:visible;enable-background:accumulate" />
    <path
       d="m 5,32 0,9 3.085714,-3 4.553917,3 -4.553917,3 0,-4.028571 L 5,43.057143 5,50 19,41 5,32 z"
       inkscape:connector-curvature="0"
       id="path3661"
       style="fill:url(#radialGradient3925);fill-opacity:1;stroke:none;display:inline" />
    <path
       d="m 5,2.375 0,9 3.085714,-3 4.553917,3 -4.553917,3 0,-4.028571 L 5,13.432143 5,20.375 l 14,-9 -14,-9 z"
       inkscape:connector-curvature="0"
       transform="translate(0,30)"
       clip-path="url(#clipPath3943)"
       id="path3939"
       style="opacity:0.4;fill:none;stroke:#000000;display:inline;filter:url(#filter3947)" />
    <path
       d="m 5,2 0,9 3.085714,-3 4.553917,3 -4.553917,3 0,-4.028571 L 5,13.057143 5,20 19,11 5,2 z"
       inkscape:connector-curvature="0"
       id="path3036"
       style="fill:url(#radialGradient3039);fill-opacity:1;stroke:none;display:inline" />
    <path
       d="M 8.09375,8 5,11 5,12 8.09375,9 11.875,11.5 12.625,11 8.09375,8 z m 10.125,3.5 L 5,20 5,21 19,12 18.21875,11.5 z"
       inkscape:connector-curvature="0"
       id="path3041"
       style="opacity:0.2;fill:#ffffff;fill-opacity:1;stroke:none;display:inline" />
    <path
       d="m 5,2 0,9 3.09375,-3 4.53125,3 -4.53125,3 0,-4.03125 L 5,13.0625 5,20 19,11 5,2 z M 5.46875,2.84375 18.15625,11 l -12.6875,8.15625 0,-5.9375 L 7.625,11.0625 7.625,14 a 0.4567338,0.4567338 0 0 0 0.71875,0.375 l 4.53125,-3 a 0.4567338,0.4567338 0 0 0 0,-0.75 l -4.53125,-3 a 0.4567338,0.4567338 0 0 0 -0.5625,0.0625 l -2.3125,2.25 0,-7.09375 z"
       inkscape:connector-curvature="0"
       id="path3829"
       style="opacity:0.3;fill:#000000;fill-opacity:1;stroke:none;display:inline" />
    <path
       d="M 5,2 5,3 18.21875,11.5 19,11 5,2 z M 8.09375,9.96875 5,13.0625 l 0,1 3.09375,-3.09375 0,-1 z M 11.875,11.5 8.09375,14 l 0,1 4.53125,-3 -0.75,-0.5 z"
       inkscape:connector-curvature="0"
       id="path3842"
       style="opacity:0.3;fill:#000000;fill-opacity:1;stroke:none;display:inline" />
  </g>
</svg>
