<?xml version="1.0" encoding="UTF-8" standalone="no"?>
<!-- Created with Inkscape (http://www.inkscape.org/) -->

<svg
   xmlns:dc="http://purl.org/dc/elements/1.1/"
   xmlns:cc="http://creativecommons.org/ns#"
   xmlns:rdf="http://www.w3.org/1999/02/22-rdf-syntax-ns#"
   xmlns:svg="http://www.w3.org/2000/svg"
   xmlns="http://www.w3.org/2000/svg"
   xmlns:xlink="http://www.w3.org/1999/xlink"
   xmlns:inkscape="http://www.inkscape.org/namespaces/inkscape"
   version="1.0"
   width="22"
   height="22"
   id="svg2"
   style="display:inline">
  <defs
     id="defs4">
    <linearGradient
       x1="11.998966"
       y1="0.92195445"
       x2="11.998966"
       y2="19.387045"
       id="StandardGradient"
       gradientUnits="userSpaceOnUse"
       gradientTransform="scale(0.9219544,1.0846523)">
      <stop
         id="stop3283"
         style="stop-color:#000000;stop-opacity:0.23529412"
         offset="0" />
      <stop
         id="stop3850"
         style="stop-color:#000000;stop-opacity:0.39215687"
         offset="0.69999999" />
      <stop
         id="stop2651"
         style="stop-color:#000000;stop-opacity:0.55000001"
         offset="1" />
    </linearGradient>
    <radialGradient
       cx="36"
       cy="2"
       r="4"
       fx="36"
       fy="2"
       id="radialGradient3855"
       xlink:href="#SpecificGradient"
       gradientUnits="userSpaceOnUse"
       gradientTransform="translate(0,10)" />
    <linearGradient
       x1="10.406627"
       y1="2"
       x2="10.406627"
       y2="18.000771"
       id="SpecificGradient"
       gradientUnits="userSpaceOnUse">
      <stop
         id="stop3292"
         style="stop-color:#e64b36;stop-opacity:1"
         offset="0" />
      <stop
         id="stop3294"
         style="stop-color:#a31414;stop-opacity:1"
         offset="1" />
    </linearGradient>
    <radialGradient
       cx="36"
       cy="2"
       r="4"
       fx="36"
       fy="2"
       id="radialGradient3038"
       xlink:href="#StandardGradient"
       gradientUnits="userSpaceOnUse" />
    <radialGradient
       cx="11"
       cy="13.1"
       r="9"
       fx="11"
       fy="13.1"
       id="radialGradient3828"
       xlink:href="#SpecificGradient"
       gradientUnits="userSpaceOnUse"
       gradientTransform="matrix(1.8888889,-5.8247489e-8,3.4263231e-8,1.1111112,-9.7777782,-1.5555556)" />
  </defs>
  <metadata
     id="metadata7">
    <rdf:RDF>
      <cc:Work
         rdf:about="">
        <dc:format>image/svg+xml</dc:format>
        <dc:type
           rdf:resource="http://purl.org/dc/dcmitype/StillImage" />
        <dc:title />
      </cc:Work>
    </rdf:RDF>
  </metadata>
  <g
     id="layer1"
     style="display:inline">
    <rect
       width="22"
       height="22"
       x="-30"
       y="0"
       id="rect3047"
       style="opacity:0.5;color:#000000;fill:#ff00ff;fill-opacity:1;fill-rule:nonzero;stroke:none;stroke-width:2;marker:none;visibility:visible;display:inline;overflow:visible;enable-background:accumulate" />
    <rect
       width="8"
       height="8"
       x="32"
       y="-2"
       id="rect3841"
       style="color:#000000;fill:url(#radialGradient3038);fill-opacity:1;fill-rule:nonzero;stroke:none;stroke-width:2;marker:none;visibility:visible;display:inline;overflow:visible;enable-background:accumulate" />
    <rect
       width="8"
       height="8"
       x="32"
       y="8"
       id="rect3853"
       style="color:#000000;fill:url(#radialGradient3855);fill-opacity:1;fill-rule:nonzero;stroke:none;stroke-width:2;marker:none;visibility:visible;display:inline;overflow:visible;enable-background:accumulate" />
    <text
       x="34"
       y="19"
       id="text3977"
       xml:space="preserve"
       style="font-size:1px;font-style:normal;font-variant:normal;font-weight:normal;font-stretch:normal;text-align:start;line-height:125%;letter-spacing:0px;word-spacing:0px;writing-mode:lr-tb;text-anchor:start;fill:#000000;fill-opacity:1;stroke:none;font-family:Trebuchet MS;-inkscape-font-specification:Trebuchet MS"><tspan
         x="34"
         y="19"
         id="tspan3805">-0.875px /blur 5 / opacity 40</tspan></text>
    <rect
       width="1"
       height="1"
       x="32"
       y="18"
       id="rect3981"
       style="color:#000000;fill:#000000;fill-opacity:1;fill-rule:nonzero;stroke:none;stroke-width:2;marker:none;visibility:visible;display:inline;overflow:visible;enable-background:accumulate" />
    <text
       x="34"
       y="21"
       id="text3983"
       xml:space="preserve"
       style="font-size:1px;font-style:normal;font-variant:normal;font-weight:normal;font-stretch:normal;text-align:start;line-height:125%;letter-spacing:0px;word-spacing:0px;writing-mode:lr-tb;text-anchor:start;fill:#000000;fill-opacity:1;stroke:none;font-family:Trebuchet MS;-inkscape-font-specification:Trebuchet MS"><tspan
         x="34"
         y="21"
         id="tspan3985">0px /blur 7 / opacity 20</tspan></text>
    <rect
       width="1"
       height="1"
       x="32"
       y="20"
       id="rect3987"
       style="color:#000000;fill:#ffffff;fill-opacity:1;fill-rule:nonzero;stroke:none;stroke-width:2;marker:none;visibility:visible;display:inline;overflow:visible;enable-background:accumulate" />
    <text
       x="34"
       y="23"
       id="text3989"
       xml:space="preserve"
       style="font-size:1px;font-style:normal;font-variant:normal;font-weight:normal;font-stretch:normal;text-align:start;line-height:125%;letter-spacing:0px;word-spacing:0px;writing-mode:lr-tb;text-anchor:start;fill:#000000;fill-opacity:1;stroke:none;font-family:Trebuchet MS;-inkscape-font-specification:Trebuchet MS"><tspan
         x="34"
         y="23"
         id="tspan3995">-0.5px /blur 5 / opacity 40</tspan></text>
    <rect
       width="1"
       height="1"
       x="32"
       y="22"
       id="rect3993"
       style="color:#000000;fill:#ffffff;fill-opacity:1;fill-rule:nonzero;stroke:none;stroke-width:2;marker:none;visibility:visible;display:inline;overflow:visible;enable-background:accumulate" />
    <path
       d="M 6.34375,2.0312497 A 1.0334065,1.0334065 0 0 0 5.875,2.2499997 l -4.5,3.375 a 1.0334065,1.0334065 0 0 0 0,1.625 l 3.40625,2.5625 L 1.375,12.375 a 1.0334065,1.0334065 0 0 0 0,1.625 l 9,6.75 a 1.0334065,1.0334065 0 0 0 1.25,0 l 9,-6.75 a 1.0334065,1.0334065 0 0 0 0,-1.625 l -3.40625,-2.5625003 3.40625,-2.5625 a 1.0334065,1.0334065 0 0 0 0,-1.625 l -4.5,-3.375 a 1.0334065,1.0334065 0 0 0 -1.25,0 L 11,5.1562497 7.125,2.2499997 a 1.0334065,1.0334065 0 0 0 -0.78125,-0.21875 z m 0.15625,1.03125 4.5,3.375 4.5,-3.375 4.5,3.375 -4.5,3.375 4.5,3.3750003 -9,6.75 -9,-6.75 4.5,-3.3750003 -4.5,-3.375 4.5,-3.375 z M 10,7.9999997 10,14 l 2,0 0,-6.0000003 -2,0 z M 10,15 l 0,2 2,0 0,-2 -2,0 z"
       inkscape:connector-curvature="0"
       id="path3533"
       style="opacity:0.05;fill:#ffffff;fill-opacity:1;stroke:none;display:inline" />
    <path
       d="m 6.5,3.0624997 -4.5,3.375 4.5,3.375 L 2,13.1875 l 9,6.75 9,-6.75 -4.5,-3.3750003 4.5,-3.375 -4.5,-3.375 -4.5,3.375 -4.5,-3.375 z m 3.5,4.9375 2,0 L 12,14 10,14 10,7.9999997 z M 10,15 l 2,0 0,2 -2,0 0,-2 z"
       inkscape:connector-curvature="0"
       id="path2928"
       style="fill:url(#radialGradient3828);fill-opacity:1;stroke:none;display:inline" />
    <path
       d="m 6.5,3.0625 -4.5,3.375 4.5,3.375 -4.5,3.375 9,6.75 9,-6.75 L 15.5,9.8125 20,6.4375 15.5,3.0625 11,6.4375 6.5,3.0625 z m 0,0.53125 4.25,3.1875 a 0.42250751,0.42250751 0 0 0 0.5,0 L 15.5,3.59375 19.28125,6.4375 15.25,9.46875 a 0.42250751,0.42250751 0 0 0 0,0.6875 L 19.28125,13.1875 11,19.40625 2.71875,13.1875 6.75,10.15625 a 0.42250751,0.42250751 0 0 0 0,-0.6875 L 2.71875,6.4375 6.5,3.59375 z M 9.90625,7.5625 A 0.42250751,0.42250751 0 0 0 9.5625,8 l 0,6 A 0.42250751,0.42250751 0 0 0 10,14.4375 l 2,0 A 0.42250751,0.42250751 0 0 0 12.4375,14 l 0,-6 A 0.42250751,0.42250751 0 0 0 12,7.5625 l -2,0 a 0.42250751,0.42250751 0 0 0 -0.09375,0 z M 10,8 l 2,0 0,6 -2,0 0,-6 z M 9.90625,14.5625 A 0.42250751,0.42250751 0 0 0 9.5625,15 l 0,2 A 0.42250751,0.42250751 0 0 0 10,17.4375 l 2,0 A 0.42250751,0.42250751 0 0 0 12.4375,17 l 0,-2 A 0.42250751,0.42250751 0 0 0 12,14.5625 l -2,0 a 0.42250751,0.42250751 0 0 0 -0.09375,0 z M 10,15 l 2,0 0,2 -2,0 0,-2 z"
       inkscape:connector-curvature="0"
       id="path3830"
       style="opacity:0.25;fill:#000000;fill-opacity:1;stroke:none;display:inline" />
    <path
       d="m 6.5,3.0624997 -4.5,3.375 0.65625,0.5 3.84375,-2.875 4.5,3.375 4.5,-3.375 3.84375,2.875 0.65625,-0.5 -4.5,-3.375 -4.5,3.375 -4.5,-3.375 z M 5.84375,10.3125 2,13.1875 l 0.65625,0.5 3.84375,-2.875 -0.65625,-0.5 z m 10.3125,0 -0.65625,0.5 3.84375,2.875 0.65625,-0.5 -3.84375,-2.875 z M 10,14 l 0,1 2,0 0,-1 -2,0 z m 0,3 0,1 2,0 0,-1 -2,0 z"
       inkscape:connector-curvature="0"
       id="path3817"
       style="opacity:0.25;fill:#000000;fill-opacity:1;stroke:none;display:inline" />
    <path
       d="M 2.65625,6.9374997 2,7.4374997 5.84375,10.3125 6.5,9.8124997 l -3.84375,-2.875 z m 16.6875,0 L 15.5,9.8124997 16.15625,10.3125 20,7.4374997 l -0.65625,-0.5 z M 10,7.9999997 l 0,1 2,0 0,-1 -2,0 z M 2.65625,13.6875 2,14.1875 l 9,6.75 9,-6.75 -0.65625,-0.5 L 11,19.9375 2.65625,13.6875 z M 10,15 l 0,1 2,0 0,-1 -2,0 z"
       inkscape:connector-curvature="0"
       id="path3826"
       style="opacity:0.2;fill:#ffffff;fill-opacity:1;stroke:none;display:inline" />
  </g>
</svg>
