<?xml version="1.0" encoding="UTF-8" standalone="no"?>
<!-- Created with Inkscape (http://www.inkscape.org/) -->

<svg
   xmlns:dc="http://purl.org/dc/elements/1.1/"
   xmlns:cc="http://creativecommons.org/ns#"
   xmlns:rdf="http://www.w3.org/1999/02/22-rdf-syntax-ns#"
   xmlns:svg="http://www.w3.org/2000/svg"
   xmlns="http://www.w3.org/2000/svg"
   xmlns:xlink="http://www.w3.org/1999/xlink"
   xmlns:inkscape="http://www.inkscape.org/namespaces/inkscape"
   version="1.0"
   width="22"
   height="22"
   id="svg2"
   style="display:inline">
  <defs
     id="defs4">
    <linearGradient
       x1="11.998966"
       y1="0.92195445"
       x2="11.998966"
       y2="19.387045"
       id="StandardGradient"
       gradientUnits="userSpaceOnUse"
       gradientTransform="scale(0.9219544,1.0846523)">
      <stop
         id="stop3283"
         style="stop-color:#000000;stop-opacity:0.23529412"
         offset="0" />
      <stop
         id="stop3850"
         style="stop-color:#000000;stop-opacity:0.39215687"
         offset="0.69999999" />
      <stop
         id="stop2651"
         style="stop-color:#000000;stop-opacity:0.55000001"
         offset="1" />
    </linearGradient>
    <radialGradient
       cx="36"
       cy="2"
       r="4"
       fx="36"
       fy="2"
       id="radialGradient3855"
       xlink:href="#SpecificGradient"
       gradientUnits="userSpaceOnUse"
       gradientTransform="translate(0,10)" />
    <linearGradient
       x1="10.406627"
       y1="2"
       x2="10.406627"
       y2="18.000771"
       id="SpecificGradient"
       gradientUnits="userSpaceOnUse">
      <stop
         id="stop3292"
         style="stop-color:#e64b36;stop-opacity:1"
         offset="0" />
      <stop
         id="stop3294"
         style="stop-color:#a31414;stop-opacity:1"
         offset="1" />
    </linearGradient>
    <radialGradient
       cx="36"
       cy="2"
       r="4"
       fx="36"
       fy="2"
       id="radialGradient3038"
       xlink:href="#StandardGradient"
       gradientUnits="userSpaceOnUse" />
    <radialGradient
       cx="12"
       cy="12.750001"
       r="7"
       fx="12"
       fy="12.750001"
       id="radialGradient3849"
       xlink:href="#StandardGradient"
       gradientUnits="userSpaceOnUse"
       gradientTransform="matrix(2.2857143,0,0,1.4285715,-15.428571,-5.2142875)" />
  </defs>
  <metadata
     id="metadata7">
    <rdf:RDF>
      <cc:Work
         rdf:about="">
        <dc:format>image/svg+xml</dc:format>
        <dc:type
           rdf:resource="http://purl.org/dc/dcmitype/StillImage" />
        <dc:title />
      </cc:Work>
    </rdf:RDF>
  </metadata>
  <g
     id="layer1"
     style="display:inline">
    <rect
       width="22"
       height="22"
       x="-30"
       y="0"
       id="rect3047"
       style="opacity:0.5;color:#000000;fill:#ff00ff;fill-opacity:1;fill-rule:nonzero;stroke:none;stroke-width:2;marker:none;visibility:visible;display:inline;overflow:visible;enable-background:accumulate" />
    <rect
       width="8"
       height="8"
       x="32"
       y="-2"
       id="rect3841"
       style="color:#000000;fill:url(#radialGradient3038);fill-opacity:1;fill-rule:nonzero;stroke:none;stroke-width:2;marker:none;visibility:visible;display:inline;overflow:visible;enable-background:accumulate" />
    <rect
       width="8"
       height="8"
       x="32"
       y="8"
       id="rect3853"
       style="color:#000000;fill:url(#radialGradient3855);fill-opacity:1;fill-rule:nonzero;stroke:none;stroke-width:2;marker:none;visibility:visible;display:inline;overflow:visible;enable-background:accumulate" />
    <text
       x="34"
       y="19"
       id="text3977"
       xml:space="preserve"
       style="font-size:1px;font-style:normal;font-variant:normal;font-weight:normal;font-stretch:normal;text-align:start;line-height:125%;letter-spacing:0px;word-spacing:0px;writing-mode:lr-tb;text-anchor:start;fill:#000000;fill-opacity:1;stroke:none;font-family:Trebuchet MS;-inkscape-font-specification:Trebuchet MS"><tspan
         x="34"
         y="19"
         id="tspan3805">-0.875px /blur 5 / opacity 40</tspan></text>
    <rect
       width="1"
       height="1"
       x="32"
       y="18"
       id="rect3981"
       style="color:#000000;fill:#000000;fill-opacity:1;fill-rule:nonzero;stroke:none;stroke-width:2;marker:none;visibility:visible;display:inline;overflow:visible;enable-background:accumulate" />
    <text
       x="34"
       y="21"
       id="text3983"
       xml:space="preserve"
       style="font-size:1px;font-style:normal;font-variant:normal;font-weight:normal;font-stretch:normal;text-align:start;line-height:125%;letter-spacing:0px;word-spacing:0px;writing-mode:lr-tb;text-anchor:start;fill:#000000;fill-opacity:1;stroke:none;font-family:Trebuchet MS;-inkscape-font-specification:Trebuchet MS"><tspan
         x="34"
         y="21"
         id="tspan3985">0px /blur 7 / opacity 15</tspan></text>
    <rect
       width="1"
       height="1"
       x="32"
       y="20"
       id="rect3987"
       style="color:#000000;fill:#ffffff;fill-opacity:1;fill-rule:nonzero;stroke:none;stroke-width:2;marker:none;visibility:visible;display:inline;overflow:visible;enable-background:accumulate" />
    <text
       x="34"
       y="23"
       id="text3989"
       xml:space="preserve"
       style="font-size:1px;font-style:normal;font-variant:normal;font-weight:normal;font-stretch:normal;text-align:start;line-height:125%;letter-spacing:0px;word-spacing:0px;writing-mode:lr-tb;text-anchor:start;fill:#000000;fill-opacity:1;stroke:none;font-family:Trebuchet MS;-inkscape-font-specification:Trebuchet MS"><tspan
         x="34"
         y="23"
         id="tspan3995">-0.5px /blur 3 / opacity 30</tspan></text>
    <rect
       width="1"
       height="1"
       x="32"
       y="22"
       id="rect3993"
       style="color:#000000;fill:#ffffff;fill-opacity:1;fill-rule:nonzero;stroke:none;stroke-width:2;marker:none;visibility:visible;display:inline;overflow:visible;enable-background:accumulate" />
    <path
       d="M 6,2.0625 C 4.3906031,2.0625 3.0625,3.3906031 3.0625,5 l 0,12 c 0,1.609397 1.3281031,2.9375 2.9375,2.9375 l 10,0 c 1.609397,0 2.9375,-1.328103 2.9375,-2.9375 l 0,-12 C 18.9375,3.3906031 17.609397,2.0625 16,2.0625 l -10,0 z M 6,3 16,3 c 1.108,0 2,0.892 2,2 l 0,12 c 0,1.108 -0.892,2 -2,2 L 6,19 C 4.892,19 4,18.108 4,17 L 4,5 C 4,3.892 4.892,3 6,3 z m 5.21875,3.03125 c -0.775392,9.9e-6 -1.4955738,0.1000315 -2.125,0.3125 C 8.468877,6.5514085 7.9424237,6.8875525 7.5,7.3125 7.0621334,7.7326354 6.7059256,8.237573 6.46875,8.875 6.2315722,9.5076119 6.1249993,10.275093 6.125,11.125 c -7e-7,0.796797 0.1332611,1.485293 0.375,2.09375 0.2462977,0.608462 0.5666944,1.115953 1,1.53125 0.4378626,0.41047 0.9558714,0.725017 1.5625,0.9375 0.6066213,0.207649 1.274781,0.3125 2,0.3125 0.328392,0 0.675478,-0.0287 1.03125,-0.0625 0.355758,-0.0338 0.711288,-0.06705 1.0625,-0.125 0.351196,-0.05795 0.707404,-0.14149 1.03125,-0.21875 0.328391,-0.08209 0.610447,-0.15825 0.875,-0.25 l 0,-3.15625 0.90625,-0.1875 0,-1 L 12,11 l 0,1 1.09375,0.1875 0,2.8125 c -0.218939,0.07727 -0.641714,0.13921 -0.90625,0.1875 -0.26455,0.04346 -0.521274,0.0625 -0.78125,0.0625 -0.237183,0 -0.477018,-0.01421 -0.71875,-0.0625 C 10.445756,15.134382 10.192239,15.026977 9.96875,14.90625 9.7498133,14.785525 9.539873,14.640322 9.34375,14.4375 9.1521803,14.229853 8.9851404,13.965311 8.84375,13.65625 8.7023529,13.347193 8.613347,12.98263 8.53125,12.5625 8.4491474,12.142377 8.4062471,11.653924 8.40625,11.09375 8.4062471,10.267988 8.483603,9.5817681 8.625,9.03125 8.7709517,8.4759166 8.954203,8.0471333 9.21875,7.71875 9.4878505,7.385554 9.8134863,7.1352222 10.1875,7 c 0.374004,-0.1400327 0.784761,-0.2187409 1.25,-0.21875 0.241731,9.3e-6 0.486128,0.019047 0.71875,0.0625 0.23717,0.038641 0.473122,0.110244 0.6875,0.1875 0.218925,0.072444 0.433426,0.1485987 0.625,0.25 0.191557,0.1014186 0.340352,0.2278611 0.5,0.34375 l 0.1875,1.25 L 15,8.875 15,6.75 C 14.74457,6.6727445 14.250851,6.509946 14,6.4375 13.749131,6.3602448 13.47028,6.276708 13.1875,6.21875 12.904705,6.1608111 12.609642,6.127563 12.28125,6.09375 11.957406,6.059957 11.61556,6.0312599 11.21875,6.03125 z M 7.9375,8.3125 C 7.8793538,8.4785326 7.7652915,8.6041636 7.71875,8.78125 a 0.93431046,0.93431046 0 0 0 0,0.03125 c -0.1675073,0.6521766 -0.2500031,1.397142 -0.25,2.28125 -3.1e-6,0.607874 0.059753,1.162474 0.15625,1.65625 0.061803,0.316275 0.1774534,0.600485 0.28125,0.90625 C 7.7220641,13.413421 7.5134692,13.217079 7.375,12.875 7.1790491,12.381791 7.0624994,11.817633 7.0625,11.125 7.0624994,10.35319 7.1614709,9.6736834 7.34375,9.1875 7.4810273,8.8185572 7.71278,8.5795554 7.9375,8.3125 z m 6.0625,3.625 0.15625,0 a 0.93431046,0.93431046 0 0 0 -0.03125,0.25 l 0,2.46875 c -0.03282,0.0085 -0.05946,-0.0087 -0.09375,0 l 0,-2.46875 A 0.93431046,0.93431046 0 0 0 14,11.9375 z"
       inkscape:connector-curvature="0"
       id="path5479"
       style="opacity:0.05;color:#000000;fill:#ffffff;fill-opacity:1;fill-rule:nonzero;stroke:none;stroke-width:1;marker:none;visibility:visible;display:inline;overflow:visible;enable-background:accumulate" />
    <path
       d="M 6,3 C 4.892,3 4,3.892 4,5 l 0,12 c 0,1.108 0.892,2 2,2 l 10,0 c 1.108,0 2,-0.892 2,-2 L 18,5 C 18,3.892 17.108,3 16,3 L 6,3 z m 5.21875,3.03125 c 0.39681,9.9e-6 0.738656,0.028707 1.0625,0.0625 0.328392,0.033813 0.623455,0.067061 0.90625,0.125 0.28278,0.057958 0.561631,0.1414948 0.8125,0.21875 0.250851,0.072446 0.74457,0.2352445 1,0.3125 l 0,2.125 -0.84375,0 -0.1875,-1.25 c -0.159648,-0.1158889 -0.308443,-0.2423314 -0.5,-0.34375 -0.191574,-0.1014013 -0.406075,-0.1775555 -0.625,-0.25 C 12.629372,6.953994 12.39342,6.8823914 12.15625,6.84375 11.923628,6.8002973 11.679231,6.7812593 11.4375,6.78125 10.972261,6.7812591 10.561504,6.8599673 10.1875,7 9.8134863,7.1352222 9.4878505,7.385554 9.21875,7.71875 8.954203,8.0471333 8.7709517,8.4759166 8.625,9.03125 c -0.141397,0.5505181 -0.2187529,1.236738 -0.21875,2.0625 -2.9e-6,0.560174 0.042897,1.048627 0.125,1.46875 0.082097,0.42013 0.1711029,0.784693 0.3125,1.09375 0.1413904,0.309061 0.3084303,0.573603 0.5,0.78125 0.196123,0.202822 0.4060633,0.348025 0.625,0.46875 0.223489,0.120727 0.477006,0.228132 0.71875,0.28125 0.241732,0.04829 0.481567,0.0625 0.71875,0.0625 0.259976,0 0.5167,-0.01904 0.78125,-0.0625 0.264536,-0.04829 0.687311,-0.110234 0.90625,-0.1875 l 0,-2.8125 L 12,12 l 0,-1 3.96875,0 0,1 -0.90625,0.1875 0,3.15625 c -0.264553,0.09175 -0.546609,0.167906 -0.875,0.25 -0.323846,0.07726 -0.680054,0.160801 -1.03125,0.21875 -0.351212,0.05795 -0.706742,0.0912 -1.0625,0.125 C 11.737978,15.9713 11.390892,16 11.0625,16 10.337281,16 9.6691213,15.895149 9.0625,15.6875 8.4558714,15.475017 7.9378626,15.16047 7.5,14.75 7.0666944,14.334703 6.7462977,13.827212 6.5,13.21875 6.2582611,12.610293 6.1249993,11.921797 6.125,11.125 6.1249993,10.275093 6.2315722,9.5076119 6.46875,8.875 6.7059256,8.237573 7.0621334,7.7326354 7.5,7.3125 7.9424237,6.8875525 8.468877,6.5514085 9.09375,6.34375 c 0.6294262,-0.2124685 1.349608,-0.3124901 2.125,-0.3125 z"
       inkscape:connector-curvature="0"
       id="rect2969"
       style="color:#000000;fill:url(#radialGradient3849);fill-opacity:1;fill-rule:nonzero;stroke:none;stroke-width:1;marker:none;visibility:visible;display:inline;overflow:visible;enable-background:accumulate" />
    <path
       d="M 6,3 C 4.892,3 4,3.892 4,5 L 4,6 C 4,4.892 4.892,4 6,4 l 10,0 c 1.108,0 2,0.892 2,2 L 18,5 C 18,3.892 17.108,3 16,3 L 6,3 z m 5.21875,4.03125 C 10.771189,7.0312557 10.341437,7.0559618 9.9375,7.125 9.6680195,7.2685279 9.4253028,7.4629996 9.21875,7.71875 8.954203,8.0471333 8.7709517,8.4759166 8.625,9.03125 8.483603,9.5817681 8.4062471,10.267988 8.40625,11.09375 8.4062489,11.306724 8.425301,11.495074 8.4375,11.6875 8.460054,11.052238 8.509163,10.482251 8.625,10.03125 8.7709517,9.4759166 8.954203,9.0471333 9.21875,8.71875 9.4878505,8.385554 9.8134863,8.1352222 10.1875,8 c 0.374004,-0.1400327 0.784761,-0.2187409 1.25,-0.21875 0.241731,9.3e-6 0.486128,0.019047 0.71875,0.0625 0.23717,0.038641 0.473122,0.110244 0.6875,0.1875 0.218925,0.072444 0.433426,0.1485987 0.625,0.25 0.191557,0.1014186 0.340352,0.2278611 0.5,0.34375 l 0.1875,1.25 0.84375,0 0,-1 -0.84375,0 -0.1875,-1.25 C 13.820536,7.5174108 13.672407,7.4098134 13.5,7.3125 13.48743,7.30918 13.48137,7.284515 13.46875,7.28125 13.3739,7.256714 13.28423,7.238576 13.1875,7.21875 12.904705,7.160811 12.609642,7.127563 12.28125,7.09375 11.957406,7.059957 11.61556,7.03126 11.21875,7.03125 z M 6.15625,11.6875 C 6.14925,11.834374 6.125,11.972517 6.125,12.125 c -7e-7,0.796797 0.1332611,1.485293 0.375,2.09375 0.2462977,0.608462 0.5666944,1.115953 1,1.53125 0.4378626,0.41047 0.9558714,0.725017 1.5625,0.9375 0.6066213,0.207649 1.274781,0.3125 2,0.3125 0.328392,0 0.675478,-0.0287 1.03125,-0.0625 0.355758,-0.0338 0.711288,-0.06705 1.0625,-0.125 0.351196,-0.05795 0.707404,-0.14149 1.03125,-0.21875 0.328391,-0.08209 0.610447,-0.15825 0.875,-0.25 l 0,-1 c -0.264553,0.09175 -0.546609,0.167906 -0.875,0.25 -0.323846,0.07726 -0.680054,0.160801 -1.03125,0.21875 -0.02038,0.0034 -0.04209,-0.0032 -0.0625,0 l 0,0.1875 c -0.218939,0.07727 -0.641714,0.13921 -0.90625,0.1875 -0.26455,0.04346 -0.521274,0.0625 -0.78125,0.0625 -0.237183,0 -0.477018,-0.01421 -0.71875,-0.0625 C 10.445756,16.13438 10.192239,16.026977 9.96875,15.90625 9.95626,15.89935 9.94993,15.88205 9.9375,15.875 9.6396517,15.823368 9.3357799,15.781045 9.0625,15.6875 8.4558714,15.475017 7.9378626,15.16047 7.5,14.75 7.0666944,14.334703 6.7462977,13.827212 6.5,13.21875 6.3186958,12.762407 6.2050611,12.24581 6.15625,11.6875 z M 12,12 l 0,1 1.09375,0.1875 0,-1 L 12,12 z m 3.96875,0 -0.90625,0.1875 0,1 0.90625,-0.1875 0,-1 z"
       inkscape:connector-curvature="0"
       id="path3762"
       style="opacity:0.3;color:#000000;fill:#000000;fill-opacity:1;fill-rule:nonzero;stroke:none;stroke-width:1;marker:none;visibility:visible;display:inline;overflow:visible;enable-background:accumulate" />
    <path
       d="m 11.21875,6.03125 c -0.775392,9.9e-6 -1.4955738,0.1000315 -2.125,0.3125 C 8.468877,6.5514085 7.9424237,6.8875525 7.5,7.3125 7.0621334,7.7326354 6.7059256,8.237573 6.46875,8.875 6.2315722,9.507612 6.1249993,10.275093 6.125,11.125 c -2e-7,0.199199 0.01498,0.376397 0.03125,0.5625 C 6.1882644,11.015732 6.2741247,10.394114 6.46875,9.875 6.7059256,9.237573 7.0621334,8.7326354 7.5,8.3125 7.9424237,7.8875525 8.468877,7.5514085 9.09375,7.34375 9.3598677,7.2539196 9.6416227,7.1755694 9.9375,7.125 10.019103,7.0815373 10.100567,7.03143 10.1875,7 c 0.374004,-0.1400327 0.784761,-0.2187409 1.25,-0.21875 0.241731,9.3e-6 0.486128,0.019047 0.71875,0.0625 0.23717,0.038641 0.473122,0.110244 0.6875,0.1875 0.218925,0.072444 0.433426,0.1485987 0.625,0.25 0.01262,0.00326 0.01868,0.027927 0.03125,0.03125 0.1691,0.044706 0.346364,0.077688 0.5,0.125 0.250851,0.072446 0.74457,0.2352445 1,0.3125 l 0,-1 C 14.74457,6.6727445 14.250851,6.509946 14,6.4375 13.749131,6.3602448 13.47028,6.276708 13.1875,6.21875 12.904705,6.160811 12.609642,6.127563 12.28125,6.09375 11.957406,6.059957 11.61556,6.0312599 11.21875,6.03125 z M 12,11 l 0,1 3.96875,0 0,-1 L 12,11 z m -3.5625,0.6875 c -0.00498,0.140175 -0.031251,0.256978 -0.03125,0.40625 -2.9e-6,0.560174 0.042897,1.048627 0.125,1.46875 0.082097,0.42013 0.1711029,0.784693 0.3125,1.09375 0.1413904,0.309061 0.3084303,0.573603 0.5,0.78125 0.1849348,0.191252 0.3882857,0.320927 0.59375,0.4375 0.01243,0.0071 0.01876,0.02436 0.03125,0.03125 C 10.320809,15.965 10.677631,16 11.0625,16 c 0.328392,0 0.675478,-0.0287 1.03125,-0.0625 0.335117,-0.03184 0.668706,-0.07303 1,-0.125 l 0,-0.8125 c -0.218939,0.07727 -0.641714,0.13921 -0.90625,0.1875 -0.26455,0.04346 -0.521274,0.0625 -0.78125,0.0625 -0.237183,0 -0.477018,-0.01421 -0.71875,-0.0625 C 10.445756,15.134382 10.192239,15.026977 9.96875,14.90625 9.7498133,14.785525 9.539873,14.640322 9.34375,14.4375 9.1521803,14.229853 8.9851404,13.965311 8.84375,13.65625 8.7023529,13.347193 8.613347,12.98263 8.53125,12.5625 8.4803619,12.302104 8.4573865,12.001203 8.4375,11.6875 z M 4,17 4,18 c 0,1.108 0.892,2 2,2 l 10,0 c 1.108,0 2,-0.892 2,-2 l 0,-1 c 0,1.108 -0.892,2 -2,2 L 6,19 C 4.892,19 4,18.108 4,17 z"
       inkscape:connector-curvature="0"
       id="path3771"
       style="opacity:0.2;color:#000000;fill:#ffffff;fill-opacity:1;fill-rule:nonzero;stroke:none;stroke-width:1;marker:none;visibility:visible;display:inline;overflow:visible;enable-background:accumulate" />
    <path
       d="M 6,3 C 4.892,3 4,3.892 4,5 l 0,12 c 0,1.108 0.892,2 2,2 l 10,0 c 1.108,0 2,-0.892 2,-2 L 18,5 C 18,3.892 17.108,3 16,3 L 6,3 z m 0,0.46875 10,0 c 0.864353,0 1.53125,0.6668974 1.53125,1.53125 l 0,12 c 0,0.864353 -0.666897,1.53125 -1.53125,1.53125 l -10,0 C 5.1356474,18.53125 4.46875,17.864353 4.46875,17 l 0,-12 C 4.46875,4.1356474 5.1356474,3.46875 6,3.46875 z M 11.21875,5.5625 C 10.404322,5.5625104 9.6254431,5.6740286 8.9375,5.90625 8.2459082,6.1360806 7.6734232,6.5332713 7.1875,7 6.7072671,7.4607861 6.292907,8.0155273 6.03125,8.71875 5.7673949,9.422517 5.6562493,10.237143 5.65625,11.125 c -7e-7,0.847414 0.142261,1.585539 0.40625,2.25 a 0.45401625,0.45401625 0 0 0 0.03125,0 c 0.2647339,0.654007 0.6077719,1.22172 1.09375,1.6875 a 0.45401625,0.45401625 0 0 0 0,0.03125 c 0.4837736,0.453509 1.0562977,0.799214 1.71875,1.03125 0.6589548,0.225563 1.387275,0.34375 2.15625,0.34375 0.354842,0 0.70314,-0.05961 1.0625,-0.09375 0.355315,-0.03376 0.721504,-0.06358 1.09375,-0.125 0.371695,-0.06133 0.737416,-0.141195 1.0625,-0.21875 a 0.45401625,0.45401625 0 0 0 0.03125,0 c 0.333141,-0.08328 0.620795,-0.151001 0.90625,-0.25 a 0.45401625,0.45401625 0 0 0 0.3125,-0.4375 l 0,-2.78125 0.53125,-0.125 A 0.45401625,0.45401625 0 0 0 16.4375,12 l 0,-1 a 0.45401625,0.45401625 0 0 0 -0.46875,-0.46875 l -3.96875,0 A 0.45401625,0.45401625 0 0 0 11.53125,11 l 0,1 a 0.45401625,0.45401625 0 0 0 0.40625,0.4375 l 0.6875,0.125 0,2.0625 c -0.172227,0.03515 -0.326189,0.09341 -0.5,0.125 -0.01038,0.0017 -0.0209,-0.0016 -0.03125,0 -0.228075,0.03575 -0.460009,0.03125 -0.6875,0.03125 -0.219051,0 -0.423056,0.0091 -0.625,-0.03125 C 10.599811,14.710133 10.383741,14.606008 10.1875,14.5 10.003413,14.398492 9.8407815,14.279302 9.6875,14.125 9.5370504,13.961924 9.3758886,13.743926 9.25,13.46875 9.1348083,13.216971 9.0484827,12.876781 8.96875,12.46875 8.8936415,12.084418 8.8749972,11.630745 8.875,11.09375 8.8749972,10.29634 8.933791,9.6573685 9.0625,9.15625 9.1993089,8.6357043 9.3548173,8.2577973 9.5625,8 9.788957,7.7196045 10.058977,7.5404577 10.34375,7.4375 10.667848,7.3161528 11.023457,7.2500081 11.4375,7.25 c 0.217907,8.4e-6 0.425267,-0.00606 0.625,0.03125 a 0.45401625,0.45401625 0 0 0 0.03125,0 c 0.196486,0.032013 0.395156,0.1159323 0.59375,0.1875 0.212805,0.070419 0.411699,0.1389299 0.5625,0.21875 0.09902,0.052427 0.203084,0.1369351 0.3125,0.21875 l 0.15625,1.03125 a 0.45401625,0.45401625 0 0 0 0.4375,0.40625 l 0.84375,0 A 0.45401625,0.45401625 0 0 0 15.46875,8.875 l 0,-2.125 A 0.45401625,0.45401625 0 0 0 15.125,6.3125 C 14.883568,6.2394783 14.397475,6.0786911 14.125,6 13.871672,5.9219874 13.590577,5.8446491 13.28125,5.78125 c -0.300326,-0.061531 -0.618296,-0.091963 -0.9375,-0.125 -0.01046,-0.00108 -0.02075,0.00108 -0.03125,0 -0.322798,-0.033278 -0.686609,-0.09374 -1.09375,-0.09375 z m 0,0.46875 c 0.39681,9.9e-6 0.738656,0.028707 1.0625,0.0625 0.328392,0.033813 0.623455,0.067061 0.90625,0.125 0.28278,0.057958 0.561631,0.1414948 0.8125,0.21875 0.250851,0.072446 0.74457,0.2352445 1,0.3125 l 0,2.125 -0.84375,0 -0.1875,-1.25 c -0.159648,-0.1158889 -0.308443,-0.2423314 -0.5,-0.34375 -0.191574,-0.1014013 -0.406075,-0.1775555 -0.625,-0.25 C 12.629372,6.953994 12.39342,6.8823914 12.15625,6.84375 11.923628,6.8002973 11.679231,6.7812593 11.4375,6.78125 10.972261,6.7812591 10.561504,6.8599673 10.1875,7 9.8134863,7.1352222 9.4878505,7.385554 9.21875,7.71875 8.954203,8.0471333 8.7709517,8.4759166 8.625,9.03125 c -0.141397,0.5505181 -0.2187529,1.236738 -0.21875,2.0625 -2.9e-6,0.560174 0.042897,1.048627 0.125,1.46875 0.082097,0.42013 0.1711029,0.784693 0.3125,1.09375 0.1413904,0.309061 0.3084303,0.573603 0.5,0.78125 0.196123,0.202822 0.4060633,0.348025 0.625,0.46875 0.223489,0.120727 0.477006,0.228132 0.71875,0.28125 0.241732,0.04829 0.481567,0.0625 0.71875,0.0625 0.259976,0 0.5167,-0.01904 0.78125,-0.0625 0.264536,-0.04829 0.687311,-0.110234 0.90625,-0.1875 l 0,-2.8125 L 12,12 l 0,-1 3.96875,0 0,1 -0.90625,0.1875 0,3.15625 c -0.264553,0.09175 -0.546609,0.167906 -0.875,0.25 -0.323846,0.07726 -0.680054,0.160801 -1.03125,0.21875 -0.351212,0.05795 -0.706742,0.0912 -1.0625,0.125 C 11.737978,15.9713 11.390892,16 11.0625,16 10.337281,16 9.6691213,15.895149 9.0625,15.6875 8.4558714,15.475017 7.9378626,15.16047 7.5,14.75 7.0666944,14.334703 6.7462977,13.827212 6.5,13.21875 6.2582611,12.610293 6.1249993,11.921797 6.125,11.125 6.1249993,10.275093 6.2315722,9.5076119 6.46875,8.875 6.7059256,8.237573 7.0621334,7.7326354 7.5,7.3125 7.9424237,6.8875525 8.468877,6.5514085 9.09375,6.34375 c 0.6294262,-0.2124685 1.349608,-0.3124901 2.125,-0.3125 z"
       inkscape:connector-curvature="0"
       id="path3851"
       style="opacity:0.3;color:#000000;fill:#000000;fill-opacity:1;fill-rule:nonzero;stroke:none;stroke-width:1;marker:none;visibility:visible;display:inline;overflow:visible;enable-background:accumulate" />
  </g>
</svg>
