<?xml version="1.0" encoding="UTF-8" standalone="no"?>
<!-- Created with Inkscape (http://www.inkscape.org/) -->

<svg
   xmlns:dc="http://purl.org/dc/elements/1.1/"
   xmlns:cc="http://creativecommons.org/ns#"
   xmlns:rdf="http://www.w3.org/1999/02/22-rdf-syntax-ns#"
   xmlns:svg="http://www.w3.org/2000/svg"
   xmlns="http://www.w3.org/2000/svg"
   xmlns:xlink="http://www.w3.org/1999/xlink"
   xmlns:inkscape="http://www.inkscape.org/namespaces/inkscape"
   version="1.0"
   width="22"
   height="22"
   id="svg2"
   style="display:inline">
  <defs
     id="defs4">
    <linearGradient
       x1="11.998966"
       y1="0.92195445"
       x2="11.998966"
       y2="19.387045"
       id="StandardGradient"
       gradientUnits="userSpaceOnUse"
       gradientTransform="scale(0.9219544,1.0846523)">
      <stop
         id="stop3283-1"
         style="stop-color:#000000;stop-opacity:0.23529412"
         offset="0" />
      <stop
         id="stop3850"
         style="stop-color:#000000;stop-opacity:0.39215687"
         offset="0.69999999" />
      <stop
         id="stop2651"
         style="stop-color:#000000;stop-opacity:0.55000001"
         offset="1" />
    </linearGradient>
    <linearGradient
       x1="10.406627"
       y1="2"
       x2="10.406627"
       y2="18.000771"
       id="SpecificGradient"
       gradientUnits="userSpaceOnUse">
      <stop
         id="stop3292"
         style="stop-color:#e64b36;stop-opacity:1"
         offset="0" />
      <stop
         id="stop3294"
         style="stop-color:#a31414;stop-opacity:1"
         offset="1" />
    </linearGradient>
    <radialGradient
       cx="36"
       cy="2"
       r="4"
       fx="36"
       fy="2"
       id="radialGradient3851"
       xlink:href="#StandardGradient"
       gradientUnits="userSpaceOnUse" />
    <radialGradient
       cx="36"
       cy="2"
       r="4"
       fx="36"
       fy="2"
       id="radialGradient3855"
       xlink:href="#SpecificGradient"
       gradientUnits="userSpaceOnUse"
       gradientTransform="translate(0,10)" />
    <radialGradient
       cx="13"
       cy="10.513889"
       r="5"
       fx="13"
       fy="10.513889"
       id="radialGradient3832"
       xlink:href="#StandardGradient"
       gradientUnits="userSpaceOnUse"
       gradientTransform="matrix(3,0,0,1.8,-26,-6.925)" />
  </defs>
  <metadata
     id="metadata7">
    <rdf:RDF>
      <cc:Work
         rdf:about="">
        <dc:format>image/svg+xml</dc:format>
        <dc:type
           rdf:resource="http://purl.org/dc/dcmitype/StillImage" />
        <dc:title />
      </cc:Work>
    </rdf:RDF>
  </metadata>
  <g
     id="layer1"
     style="display:inline">
    <path
       d="M 7.8125,2 C 7.3545022,2.0883583 6.9927323,2.5336135 7,3 L 6.5,3 C 5.1309926,3 4,4.130993 4,5.5 l 0,12 C 4,18.869007 5.1309926,20 6.5,20 l 8,0 c 1.369007,0 2.5,-1.130993 2.5,-2.5 l 0,-4.5 1,0 0,5 c 0.0081,0.46029 0.37396,0.889043 0.827242,0.969464 0.453283,0.08042 0.944303,-0.196306 1.110258,-0.625714 l 3,-8 C 23.155087,9.7426559 22.639255,9.0032974 22,9 L 21,9 21,5 C 20.987996,4.5544061 20.642759,4.139396 20.206794,4.0464854 19.770829,3.9535748 19.286385,4.1917676 19.09375,4.59375 L 17,9.46875 17,5.5 C 17,4.130993 15.869007,3 14.5,3 L 14,3 C 13.998681,2.4767629 13.523237,2.0013193 13,2 L 8,2 C 7.968773,1.99854 7.937477,1.99854 7.90625,2 7.875023,1.99854 7.843727,1.99854 7.8125,2 z M 8,3 l 5,0 0,1 1.5,0 C 15.331,4 16,4.669 16,5.5 l 0,12 c 0,0.831 -0.669,1.5 -1.5,1.5 l -8,0 C 5.669,19 5,18.331 5,17.5 L 5,5.5 C 5,4.669 5.669,4 6.5,4 L 8,4 z m 12,2 0,5 2,0 -3,8 0,-6 -2,0 z"
       inkscape:connector-curvature="0"
       id="path3927"
       style="opacity:0.05;color:#000000;fill:#ffffff;fill-opacity:1;fill-rule:nonzero;stroke:none;stroke-width:2;marker:none;visibility:visible;display:inline;overflow:visible;enable-background:accumulate" />
    <path
       d="M 21.625,11 19,18 l 0,1 3,-8 z M 17.4375,12 17,13 l 2,0 0,-1 z M 5,17.5 l 0,1 C 5,19.331 5.669,20 6.5,20 l 8,0 c 0.831,0 1.5,-0.669 1.5,-1.5 l 0,-1 c 0,0.831 -0.669,1.5 -1.5,1.5 l -8,0 C 5.669,19 5,18.331 5,17.5 z"
       inkscape:connector-curvature="0"
       id="path3912"
       style="opacity:0.2;color:#000000;fill:#ffffff;fill-opacity:1;fill-rule:nonzero;stroke:none;stroke-width:2;marker:none;visibility:visible;display:inline;overflow:visible;enable-background:accumulate" />
    <rect
       width="8"
       height="8"
       x="32"
       y="-2"
       id="rect3841"
       style="opacity:0.8;color:#000000;fill:url(#radialGradient3851);fill-opacity:1;fill-rule:nonzero;stroke:none;stroke-width:2;marker:none;visibility:visible;display:inline;overflow:visible;enable-background:accumulate" />
    <rect
       width="8"
       height="8"
       x="32"
       y="8"
       id="rect3853"
       style="opacity:0.8;color:#000000;fill:url(#radialGradient3855);fill-opacity:1;fill-rule:nonzero;stroke:none;stroke-width:2;marker:none;visibility:visible;display:inline;overflow:visible;enable-background:accumulate" />
    <path
       d="M 8,3 8,4 6.5,4 C 5.669,4 5,4.669 5,5.5 l 0,12 C 5,18.331 5.669,19 6.5,19 l 8,0 c 0.831,0 1.5,-0.669 1.5,-1.5 l 0,-12 C 16,4.669 15.331,4 14.5,4 L 13,4 13,3 z m 12,2 -3,7 2,0 0,6 3,-8 -2,0 z"
       inkscape:connector-curvature="0"
       id="path3828"
       style="color:#000000;fill:url(#radialGradient3832);fill-opacity:1;fill-rule:nonzero;stroke:none;stroke-width:2;marker:none;visibility:visible;display:inline;overflow:visible;enable-background:accumulate" />
    <path
       d="M 8,3 8,4 6.5,4 C 5.669,4 5,4.669 5,5.5 l 0,12 C 5,18.331 5.669,19 6.5,19 l 8,0 c 0.831,0 1.5,-0.669 1.5,-1.5 l 0,-12 C 16,4.669 15.331,4 14.5,4 L 13,4 13,3 z m 0.5,0.5 4,0 0,0.5 c 1.06e-4,0.2617705 0.238229,0.4998943 0.5,0.5 l 1.5,0 c 0.562567,0 1,0.437433 1,1 l 0,12 c 0,0.562567 -0.437433,1 -1,1 l -8,0 c -0.5625671,0 -1,-0.437433 -1,-1 l 0,-12 c 0,-0.562567 0.4374329,-1 1,-1 L 8,4.5 C 8.2617705,4.4998943 8.4998943,4.2617705 8.5,4 z M 20,5 l -3,7 2,0 0,6 3,-8 -2,0 z M 19.5,7.4375 19.5,10 c 1.06e-4,0.261771 0.238229,0.499894 0.5,0.5 l 1.28125,0 L 19.5,15.21875 19.5,12 C 19.499894,11.738229 19.261771,11.500106 19,11.5 l -1.25,0 z"
       inkscape:connector-curvature="0"
       id="path3892"
       style="opacity:0.3;color:#000000;fill:#000000;fill-opacity:1;fill-rule:nonzero;stroke:none;stroke-width:2;marker:none;visibility:visible;display:inline;overflow:visible;enable-background:accumulate" />
    <path
       d="m 8,3 0,1 5,0 0,-1 z m 5,1 0,1 1.5,0 C 15.331,5 16,5.669 16,6.5 l 0,-1 C 16,4.669 15.331,4 14.5,4 z M 8,4 6.5,4 C 5.669,4 5,4.669 5,5.5 l 0,1 C 5,5.669 5.669,5 6.5,5 L 8,5 z m 12,1 -3,7 0.4375,0 L 20,6 z m 0,5 0,1 1.625,0 L 22,10 z"
       inkscape:connector-curvature="0"
       id="path3883"
       style="opacity:0.3;color:#000000;fill:#000000;fill-opacity:1;fill-rule:nonzero;stroke:none;stroke-width:2;marker:none;visibility:visible;display:inline;overflow:visible;enable-background:accumulate" />
  </g>
</svg>
