<?xml version="1.0" encoding="UTF-8" standalone="no"?>
<!-- Created with Inkscape (http://www.inkscape.org/) -->

<svg
   xmlns:dc="http://purl.org/dc/elements/1.1/"
   xmlns:cc="http://creativecommons.org/ns#"
   xmlns:rdf="http://www.w3.org/1999/02/22-rdf-syntax-ns#"
   xmlns:svg="http://www.w3.org/2000/svg"
   xmlns="http://www.w3.org/2000/svg"
   xmlns:xlink="http://www.w3.org/1999/xlink"
   xmlns:inkscape="http://www.inkscape.org/namespaces/inkscape"
   version="1.0"
   width="22"
   height="22"
   id="svg2"
   style="display:inline">
  <defs
     id="defs4">
    <linearGradient
       x1="11.998966"
       y1="0.92195445"
       x2="11.998966"
       y2="19.387045"
       id="StandardGradient"
       gradientUnits="userSpaceOnUse"
       gradientTransform="scale(0.9219544,1.0846523)">
      <stop
         id="stop3283"
         style="stop-color:#000000;stop-opacity:0.23529412"
         offset="0" />
      <stop
         id="stop3850"
         style="stop-color:#000000;stop-opacity:0.39215687"
         offset="0.69999999" />
      <stop
         id="stop2651"
         style="stop-color:#000000;stop-opacity:0.55000001"
         offset="1" />
    </linearGradient>
    <radialGradient
       cx="36"
       cy="2"
       r="4"
       fx="36"
       fy="2"
       id="radialGradient3855"
       xlink:href="#SpecificGradient"
       gradientUnits="userSpaceOnUse"
       gradientTransform="translate(0,10)" />
    <linearGradient
       x1="10.406627"
       y1="2"
       x2="10.406627"
       y2="18.000771"
       id="SpecificGradient"
       gradientUnits="userSpaceOnUse">
      <stop
         id="stop3292"
         style="stop-color:#e64b36;stop-opacity:1"
         offset="0" />
      <stop
         id="stop3294"
         style="stop-color:#a31414;stop-opacity:1"
         offset="1" />
    </linearGradient>
    <radialGradient
       cx="36"
       cy="2"
       r="4"
       fx="36"
       fy="2"
       id="radialGradient3038"
       xlink:href="#StandardGradient"
       gradientUnits="userSpaceOnUse" />
    <radialGradient
       cx="12"
       cy="12.555555"
       r="7"
       fx="12"
       fy="12.555555"
       id="radialGradient3905"
       xlink:href="#StandardGradient"
       gradientUnits="userSpaceOnUse"
       gradientTransform="matrix(2.2857143,0,0,1.5714286,-15.428571,-6.7301585)" />
  </defs>
  <metadata
     id="metadata7">
    <rdf:RDF>
      <cc:Work
         rdf:about="">
        <dc:format>image/svg+xml</dc:format>
        <dc:type
           rdf:resource="http://purl.org/dc/dcmitype/StillImage" />
        <dc:title />
      </cc:Work>
    </rdf:RDF>
  </metadata>
  <g
     id="layer1"
     style="display:inline">
    <rect
       width="22"
       height="22"
       x="-30"
       y="0"
       id="rect3047"
       style="opacity:0.5;color:#000000;fill:#ff00ff;fill-opacity:1;fill-rule:nonzero;stroke:none;stroke-width:2;marker:none;visibility:visible;display:inline;overflow:visible;enable-background:accumulate" />
    <rect
       width="8"
       height="8"
       x="32"
       y="-2"
       id="rect3841"
       style="color:#000000;fill:url(#radialGradient3038);fill-opacity:1;fill-rule:nonzero;stroke:none;stroke-width:2;marker:none;visibility:visible;display:inline;overflow:visible;enable-background:accumulate" />
    <rect
       width="8"
       height="8"
       x="32"
       y="8"
       id="rect3853"
       style="color:#000000;fill:url(#radialGradient3855);fill-opacity:1;fill-rule:nonzero;stroke:none;stroke-width:2;marker:none;visibility:visible;display:inline;overflow:visible;enable-background:accumulate" />
    <text
       x="34"
       y="19"
       id="text3977"
       xml:space="preserve"
       style="font-size:1px;font-style:normal;font-variant:normal;font-weight:normal;font-stretch:normal;text-align:start;line-height:125%;letter-spacing:0px;word-spacing:0px;writing-mode:lr-tb;text-anchor:start;fill:#000000;fill-opacity:1;stroke:none;font-family:Trebuchet MS;-inkscape-font-specification:Trebuchet MS"><tspan
         x="34"
         y="19"
         id="tspan3805">-0.875px /blur 5 / opacity 40</tspan></text>
    <rect
       width="1"
       height="1"
       x="32"
       y="18"
       id="rect3981"
       style="color:#000000;fill:#000000;fill-opacity:1;fill-rule:nonzero;stroke:none;stroke-width:2;marker:none;visibility:visible;display:inline;overflow:visible;enable-background:accumulate" />
    <text
       x="34"
       y="21"
       id="text3983"
       xml:space="preserve"
       style="font-size:1px;font-style:normal;font-variant:normal;font-weight:normal;font-stretch:normal;text-align:start;line-height:125%;letter-spacing:0px;word-spacing:0px;writing-mode:lr-tb;text-anchor:start;fill:#000000;fill-opacity:1;stroke:none;font-family:Trebuchet MS;-inkscape-font-specification:Trebuchet MS"><tspan
         x="34"
         y="21"
         id="tspan3985">0px /blur 7 / opacity 15</tspan></text>
    <rect
       width="1"
       height="1"
       x="32"
       y="20"
       id="rect3987"
       style="color:#000000;fill:#ffffff;fill-opacity:1;fill-rule:nonzero;stroke:none;stroke-width:2;marker:none;visibility:visible;display:inline;overflow:visible;enable-background:accumulate" />
    <text
       x="34"
       y="23"
       id="text3989"
       xml:space="preserve"
       style="font-size:1px;font-style:normal;font-variant:normal;font-weight:normal;font-stretch:normal;text-align:start;line-height:125%;letter-spacing:0px;word-spacing:0px;writing-mode:lr-tb;text-anchor:start;fill:#000000;fill-opacity:1;stroke:none;font-family:Trebuchet MS;-inkscape-font-specification:Trebuchet MS"><tspan
         x="34"
         y="23"
         id="tspan3995">-0.5px /blur 3 / opacity 30</tspan></text>
    <rect
       width="1"
       height="1"
       x="32"
       y="22"
       id="rect3993"
       style="color:#000000;fill:#ffffff;fill-opacity:1;fill-rule:nonzero;stroke:none;stroke-width:2;marker:none;visibility:visible;display:inline;overflow:visible;enable-background:accumulate" />
    <path
       d="m 7.8125,1.0312503 a 0.98398201,0.98398201 0 0 0 -0.78125,0.96875 l 0,0.03125 -0.03125,0 a 0.98398201,0.98398201 0 0 0 -0.96875,0.96875 l 0,0.03125 -0.53125,0 c -1.3590531,0 -2.46875,1.1096969 -2.46875,2.46875 l 0,12.9999997 c 0,1.359053 1.1096969,2.46875 2.46875,2.46875 l 11,0 c 1.359053,0 2.46875,-1.109697 2.46875,-2.46875 l 0,-0.5 0,-12.4999997 c 0,-1.3590531 -1.109697,-2.46875 -2.46875,-2.46875 l -0.53125,0 0,-0.03125 A 0.98398201,0.98398201 0 0 0 15,2.0312504 l -0.03125,0 0,-0.03125 A 0.98398201,0.98398201 0 0 0 14,1.0312503 l -6,0 a 0.98398201,0.98398201 0 0 0 -0.1875,0 z M 8,2.0000003 l 6,0 0,1.0000001 1,0 0,1 1.5,0 c 0.831,0 1.5,0.669 1.5,1.5 L 18,18 l 0,0.5 c 0,0.831 -0.669,1.5 -1.5,1.5 l -11,0 C 4.669,20 4,19.331 4,18.5 L 4,5.5000004 c 0,-0.831 0.669,-1.5 1.5,-1.5 l 1.5,0 0,-1 1,0 0,-1.0000001 z m 1,2.0312501 0,2 4.03125,0 -0.03125,-2 -4,0 z m 0.96875,0.96875 2.0625,0 0.03125,0.0625 -2.09375,0 0,-0.0625 z m -2.96875,2 c -0.554,0 -1,0.446 -1,1 L 6,17 c 0,0.554 0.446,1 1,1 l 8,0 c 0.554,0 1,-0.446 1,-1 l 0,-8.9999996 c 0,-0.554 -0.446,-1 -1,-1 l -8,0 z m 0,0.96875 8,0 c 0.02595,0 0.03125,0.0053 0.03125,0.03125 l 0,8.9999996 c 0,0.02595 -0.0053,0.03125 -0.03125,0.03125 l -8,0 C 6.974053,17.03125 6.96875,17.02595 6.96875,17 l 0,-8.9999996 c 0,-0.025947 0.0053,-0.03125 0.03125,-0.03125 z m 6.96875,1.03125 a 0.98398201,0.98398201 0 0 0 -0.1875,0.03125 0.98398201,0.98398201 0 0 0 -0.46875,0.28125 L 10,12.625 8.6875,11.3125 A 0.98398201,0.98398201 0 0 0 7.03125,12 l 0,2 a 0.98398201,0.98398201 0 0 0 0.28125,0.6875 l 2,2 a 0.98398201,0.98398201 0 0 0 1.375,0 l 4,-4 A 0.98398201,0.98398201 0 0 0 14.96875,12 l 0,-2 a 0.98398201,0.98398201 0 0 0 -1,-0.9999996 z M 14,10 l 0,2 -4,4 -2,-2 0,-2 2,2 4,-4 z"
       inkscape:connector-curvature="0"
       id="path5322"
       style="opacity:0.05;fill:#ffffff;fill-opacity:1;stroke:none;display:inline" />
    <path
       d="m 8,2.0000003 0,1.0000001 -1,0 0,1 -1.5,0 c -0.831,0 -1.5,0.669 -1.5,1.5 L 4,18.5 C 4,19.331 4.669,20 5.5,20 l 11,0 C 17.331,20 18,19.331 18,18.5 L 18,18 18,5.5000004 c 0,-0.831 -0.669,-1.5 -1.5,-1.5 l -1.5,0 0,-1 -1,0 0,-1.0000001 -6,0 z m 1,2.0312501 4,0 0.03125,2 -4.03125,0 0,-2 z m -2,2.96875 8,0 c 0.554,0 1,0.446 1,1 L 16,17 c 0,0.554 -0.446,1 -1,1 L 7,18 C 6.446,18 6,17.554 6,17 L 6,8.0000004 c 0,-0.554 0.446,-1 1,-1 z M 14,10 l -4,4 -2,-2 0,2 2,2 4,-4 0,-2 z"
       inkscape:connector-curvature="0"
       id="Symbol"
       style="fill:url(#radialGradient3905);fill-opacity:1;stroke:none;display:inline" />
    <path
       d="m 8,2.0000003 0,1.0000001 6,0 0,-1.0000001 -6,0 z m 6,1.0000001 0,1 1,0 0,-1 -1,0 z m 1,1 0,1 1.5,0 c 0.831,0 1.5,0.669 1.5,1.5 l 0,-1 c 0,-0.831 -0.669,-1.5 -1.5,-1.5 l -1.5,0 z m -7,-1 -1,0 0,1 1,0 0,-1 z m -1,1 -1.5,0 c -0.831,0 -1.5,0.669 -1.5,1.5 l 0,1 c 0,-0.831 0.669,-1.5 1.5,-1.5 l 1.5,0 0,-1 z m 2,2.03125 0,0.96875 4.03125,0 0,-0.96875 -0.03125,0 -4,0 z M 14,10 l -4,4 -2,-2 0,1 2,2 4,-4 0,-1 z m -8,7 0,1 c 0,0.554 0.446,1 1,1 l 8,0 c 0.554,0 1,-0.446 1,-1 l 0,-1 c 0,0.554 -0.446,1 -1,1 L 7,18 C 6.446,18 6,17.554 6,17 z"
       inkscape:connector-curvature="0"
       id="path2897"
       style="opacity:0.3;fill:#000000;fill-opacity:1;stroke:none;display:inline" />
    <path
       d="m 9,4.0312504 0,1 4,0 0,-1 -4,0 z m 4,1 0,1 0.03125,0 -0.03125,-1 z m -6,1.96875 c -0.554,0 -1,0.446 -1,1 l 0,1 c 0,-0.554 0.446,-1 1,-1 l 8,0 c 0.554,0 1,0.446 1,1 l 0,-1 c 0,-0.554 -0.446,-1 -1,-1 l -1.96875,0 0,0.03125 -4.03125,0 0,-0.03125 -2,0 z M 14,12 l -4,4 -2,-2 0,1 2,2 4,-4 0,-1 z m -10,6.5 0,1 C 4,20.331 4.669,21 5.5,21 l 11,0 c 0.831,0 1.5,-0.669 1.5,-1.5 l 0,-0.5 0,-0.5 c 0,0.831 -0.669,1.5 -1.5,1.5 l -11,0 C 4.669,20 4,19.331 4,18.5 z"
       inkscape:connector-curvature="0"
       id="path3678"
       style="opacity:0.2;fill:#ffffff;fill-opacity:1;stroke:none;display:inline" />
    <path
       d="M 8,2 8,3 7,3 7,4 5.5,4 C 4.669,4 4,4.669 4,5.5 l 0,13 C 4,19.331 4.669,20 5.5,20 l 11,0 C 17.331,20 18,19.331 18,18.5 L 18,18 18,5.5 C 18,4.669 17.331,4 16.5,4 L 15,4 15,3 14,3 14,2 8,2 z m 0.46875,0.46875 5.0625,0 0,0.53125 A 0.45401625,0.45401625 0 0 0 14,3.46875 l 0.53125,0 0,0.53125 A 0.45401625,0.45401625 0 0 0 15,4.46875 l 1.5,0 c 0.587353,0 1.03125,0.4438974 1.03125,1.03125 l 0,12.5 0,0.5 c 0,0.587353 -0.443897,1.03125 -1.03125,1.03125 l -11,0 c -0.5873526,0 -1.03125,-0.443897 -1.03125,-1.03125 l 0,-13 C 4.46875,4.9126474 4.9126474,4.46875 5.5,4.46875 l 1.5,0 A 0.45401625,0.45401625 0 0 0 7.46875,4 l 0,-0.53125 0.53125,0 A 0.45401625,0.45401625 0 0 0 8.46875,3 l 0,-0.53125 z m 0.4375,1.09375 a 0.45401625,0.45401625 0 0 0 -0.375,0.46875 l 0,2 A 0.45401625,0.45401625 0 0 0 9,6.5 l 4.03125,0 A 0.45401625,0.45401625 0 0 0 13.5,6.03125 l -0.03125,-2 A 0.45401625,0.45401625 0 0 0 13,3.5625 l -4,0 a 0.45401625,0.45401625 0 0 0 -0.09375,0 z M 9,4.03125 l 4,0 0.03125,2 -4.03125,0 0,-2 z m -2,2.5 C 6.2023526,6.53125 5.53125,7.2023526 5.53125,8 l 0,9 c 0,0.797647 0.6711026,1.46875 1.46875,1.46875 l 8,0 c 0.797647,0 1.46875,-0.671103 1.46875,-1.46875 l 0,-9 C 16.46875,7.2023526 15.797647,6.53125 15,6.53125 l -8,0 z M 7,7 15,7 c 0.554,0 1,0.446 1,1 l 0,9 c 0,0.554 -0.446,1 -1,1 L 7,18 C 6.446,18 6,17.554 6,17 L 6,8 C 6,7.446 6.446,7 7,7 z m 7,3 -4,4 -2,-2 0,2 2,2 4,-4 0,-2 z m -0.46875,1.09375 0,0.75 L 10,15.375 8.46875,13.84375 l 0,-0.75 1.21875,1.21875 a 0.45401625,0.45401625 0 0 0 0.625,0 l 3.21875,-3.21875 z"
       inkscape:connector-curvature="0"
       id="path3915"
       style="opacity:0.3;fill:#000000;fill-opacity:1;stroke:none;display:inline" />
  </g>
</svg>
