<?xml version="1.0" encoding="UTF-8" standalone="no"?>
<!-- Created with Inkscape (http://www.inkscape.org/) -->

<svg
   xmlns:dc="http://purl.org/dc/elements/1.1/"
   xmlns:cc="http://creativecommons.org/ns#"
   xmlns:rdf="http://www.w3.org/1999/02/22-rdf-syntax-ns#"
   xmlns:svg="http://www.w3.org/2000/svg"
   xmlns="http://www.w3.org/2000/svg"
   xmlns:xlink="http://www.w3.org/1999/xlink"
   xmlns:inkscape="http://www.inkscape.org/namespaces/inkscape"
   version="1.0"
   width="22"
   height="22"
   id="svg2"
   style="display:inline">
  <defs
     id="defs4">
    <linearGradient
       x1="11.998966"
       y1="0.92195445"
       x2="11.998966"
       y2="19.387045"
       id="StandardGradient"
       gradientUnits="userSpaceOnUse"
       gradientTransform="scale(0.9219544,1.0846523)">
      <stop
         id="stop3283"
         style="stop-color:#000000;stop-opacity:0.23529412"
         offset="0" />
      <stop
         id="stop3850"
         style="stop-color:#000000;stop-opacity:0.39215687"
         offset="0.69999999" />
      <stop
         id="stop2651"
         style="stop-color:#000000;stop-opacity:0.55000001"
         offset="1" />
    </linearGradient>
    <radialGradient
       cx="36"
       cy="2"
       r="4"
       fx="36"
       fy="2"
       id="radialGradient3855"
       xlink:href="#SpecificGradient"
       gradientUnits="userSpaceOnUse"
       gradientTransform="translate(0,10)" />
    <linearGradient
       x1="10.406627"
       y1="2"
       x2="10.406627"
       y2="18.000771"
       id="SpecificGradient"
       gradientUnits="userSpaceOnUse">
      <stop
         id="stop3292"
         style="stop-color:#e64b36;stop-opacity:1"
         offset="0" />
      <stop
         id="stop3294"
         style="stop-color:#a31414;stop-opacity:1"
         offset="1" />
    </linearGradient>
    <radialGradient
       cx="36"
       cy="2"
       r="4"
       fx="36"
       fy="2"
       id="radialGradient3038"
       xlink:href="#StandardGradient"
       gradientUnits="userSpaceOnUse" />
    <radialGradient
       cx="12"
       cy="12.35"
       r="9"
       fx="12"
       fy="12.35"
       id="radialGradient3857"
       xlink:href="#StandardGradient"
       gradientUnits="userSpaceOnUse"
       gradientTransform="matrix(1.7777778,1.3055557e-8,0,1.1111111,-9.333333,-0.7222224)" />
  </defs>
  <metadata
     id="metadata7">
    <rdf:RDF>
      <cc:Work
         rdf:about="">
        <dc:format>image/svg+xml</dc:format>
        <dc:type
           rdf:resource="http://purl.org/dc/dcmitype/StillImage" />
        <dc:title />
      </cc:Work>
    </rdf:RDF>
  </metadata>
  <g
     id="layer1"
     style="display:inline">
    <rect
       width="22"
       height="22"
       x="-30"
       y="0"
       id="rect3047"
       style="opacity:0.5;color:#000000;fill:#ff00ff;fill-opacity:1;fill-rule:nonzero;stroke:none;stroke-width:2;marker:none;visibility:visible;display:inline;overflow:visible;enable-background:accumulate" />
    <rect
       width="8"
       height="8"
       x="32"
       y="-2"
       id="rect3841"
       style="color:#000000;fill:url(#radialGradient3038);fill-opacity:1;fill-rule:nonzero;stroke:none;stroke-width:2;marker:none;visibility:visible;display:inline;overflow:visible;enable-background:accumulate" />
    <rect
       width="8"
       height="8"
       x="32"
       y="8"
       id="rect3853"
       style="color:#000000;fill:url(#radialGradient3855);fill-opacity:1;fill-rule:nonzero;stroke:none;stroke-width:2;marker:none;visibility:visible;display:inline;overflow:visible;enable-background:accumulate" />
    <text
       x="34"
       y="19"
       id="text3977"
       xml:space="preserve"
       style="font-size:1px;font-style:normal;font-variant:normal;font-weight:normal;font-stretch:normal;text-align:start;line-height:125%;letter-spacing:0px;word-spacing:0px;writing-mode:lr-tb;text-anchor:start;fill:#000000;fill-opacity:1;stroke:none;font-family:Trebuchet MS;-inkscape-font-specification:Trebuchet MS"><tspan
         x="34"
         y="19"
         id="tspan3805">-0.875px /blur 5 / opacity 40</tspan></text>
    <rect
       width="1"
       height="1"
       x="32"
       y="18"
       id="rect3981"
       style="color:#000000;fill:#000000;fill-opacity:1;fill-rule:nonzero;stroke:none;stroke-width:2;marker:none;visibility:visible;display:inline;overflow:visible;enable-background:accumulate" />
    <text
       x="34"
       y="21"
       id="text3983"
       xml:space="preserve"
       style="font-size:1px;font-style:normal;font-variant:normal;font-weight:normal;font-stretch:normal;text-align:start;line-height:125%;letter-spacing:0px;word-spacing:0px;writing-mode:lr-tb;text-anchor:start;fill:#000000;fill-opacity:1;stroke:none;font-family:Trebuchet MS;-inkscape-font-specification:Trebuchet MS"><tspan
         x="34"
         y="21"
         id="tspan3985">0px /blur 7 / opacity 15</tspan></text>
    <rect
       width="1"
       height="1"
       x="32"
       y="20"
       id="rect3987"
       style="color:#000000;fill:#ffffff;fill-opacity:1;fill-rule:nonzero;stroke:none;stroke-width:2;marker:none;visibility:visible;display:inline;overflow:visible;enable-background:accumulate" />
    <text
       x="34"
       y="23"
       id="text3989"
       xml:space="preserve"
       style="font-size:1px;font-style:normal;font-variant:normal;font-weight:normal;font-stretch:normal;text-align:start;line-height:125%;letter-spacing:0px;word-spacing:0px;writing-mode:lr-tb;text-anchor:start;fill:#000000;fill-opacity:1;stroke:none;font-family:Trebuchet MS;-inkscape-font-specification:Trebuchet MS"><tspan
         x="34"
         y="23"
         id="tspan3995">-0.5px /blur 3 / opacity 30</tspan></text>
    <rect
       width="1"
       height="1"
       x="32"
       y="22"
       id="rect3993"
       style="color:#000000;fill:#ffffff;fill-opacity:1;fill-rule:nonzero;stroke:none;stroke-width:2;marker:none;visibility:visible;display:inline;overflow:visible;enable-background:accumulate" />
    <path
       d="M 6.5,1.96875 C 5.1214705,1.96875 3.96875,3.1214705 3.96875,4.5 l 0,3.46875 -0.46875,0 c -1.3785295,0 -2.53125,1.1527205 -2.53125,2.53125 l 0,5 c 0,1.378529 1.1527205,2.53125 2.53125,2.53125 l 0.46875,0 0,0.46875 c 0,1.378529 1.1527205,2.53125 2.53125,2.53125 l 9,0 c 1.378529,0 2.53125,-1.152721 2.53125,-2.53125 l 0,-0.46875 0.46875,0 c 1.378529,0 2.53125,-1.152721 2.53125,-2.53125 l 0,-5 c 0,-1.3785295 -1.152721,-2.53125 -2.53125,-2.53125 l -0.46875,0 0,-3.46875 c 0,-1.3785295 -1.152721,-2.53125 -2.53125,-2.53125 l -9,0 z M 6.5,3 l 9,0 C 16.331,3 17,3.669 17,4.5 l 0,4.5 1.5,0 c 0.831,0 1.5,0.669 1.5,1.5 l 0,5 c 0,0.831 -0.669,1.5 -1.5,1.5 l -1.5,0 0,1.5 c 0,0.831 -0.669,1.5 -1.5,1.5 l -9,0 C 5.669,20 5,19.331 5,18.5 L 5,17 3.5,17 C 2.669,17 2,16.331 2,15.5 l 0,-5 C 2,9.669 2.669,9 3.5,9 L 5,9 5,4.5 C 5,3.669 5.669,3 6.5,3 z m 0.5,2 0,5 0,1 8,0 0,-1 0,-5 -8,0 z m 1,1 6,0 0,1 -6,0 0,-1 z m 0,2 4,0 0,1 -4,0 0,-1 z m 5.03125,0.03125 0.9375,0 0,1.9375 -1.65625,0 A 1.0202746,1.0202746 0 0 0 13.03125,9 l 0,-0.96875 z M 7,16 l 0,1 0,1 8,0 0,-1 0,-1 -8,0 z"
       inkscape:connector-curvature="0"
       id="path3851"
       style="opacity:0.05;color:#000000;fill:#ffffff;fill-opacity:1;fill-rule:nonzero;stroke:none;stroke-width:0.80000001;marker:none;visibility:visible;display:inline;overflow:visible;enable-background:accumulate" />
    <path
       d="M 6.5,3 C 5.669,3 5,3.669 5,4.5 L 5,9 3.5,9 C 2.669,9 2,9.669 2,10.5 l 0,5 C 2,16.331 2.669,17 3.5,17 L 5,17 5,18.5 C 5,19.331 5.669,20 6.5,20 l 9,0 c 0.831,0 1.5,-0.669 1.5,-1.5 l 0,-1.5 1.5,0 c 0.831,0 1.5,-0.669 1.5,-1.5 l 0,-5 C 20,9.669 19.331,9 18.5,9 L 17,9 17,4.5 C 17,3.669 16.331,3 15.5,3 z m 0.5,2 8,0 0,5 0,1 -8,0 0,-1 z m 1,1 0,1 6,0 0,-1 z m 0,2 0,1 4,0 0,-1 z m 7.5,4 C 15.776142,12 16,12.223858 16,12.5 16,12.776142 15.776142,13 15.5,13 15.223858,13 15,12.776142 15,12.5 15,12.43096 15.0059,12.372319 15.03125,12.3125 15.10715,12.133043 15.292893,12 15.5,12 z m 2,0 C 17.776142,12 18,12.223858 18,12.5 18,12.776142 17.776142,13 17.5,13 17.223858,13 17,12.776142 17,12.5 17,12.223858 17.223858,12 17.5,12 z M 7,16 l 8,0 0,1 0,1 -8,0 0,-1 z"
       inkscape:connector-curvature="0"
       id="rect3047-7"
       style="color:#000000;fill:url(#radialGradient3857);fill-opacity:1;fill-rule:nonzero;stroke:none;stroke-width:0.80000001;marker:none;visibility:visible;display:inline;overflow:visible;enable-background:accumulate" />
    <path
       d="M 6.5,3 C 5.669,3 5,3.669 5,4.5 L 5,9 3.5,9 C 2.669,9 2,9.669 2,10.5 l 0,5 C 2,16.331 2.669,17 3.5,17 L 5,17 5,18.5 C 5,19.331 5.669,20 6.5,20 l 9,0 c 0.831,0 1.5,-0.669 1.5,-1.5 l 0,-1.5 1.5,0 c 0.831,0 1.5,-0.669 1.5,-1.5 l 0,-5 C 20,9.669 19.331,9 18.5,9 L 17,9 17,4.5 C 17,3.669 16.331,3 15.5,3 l -9,0 z m 0,0.53125 9,0 c 0.538623,0 0.96875,0.4301269 0.96875,0.96875 l 0,4.5 A 0.54481953,0.54481953 0 0 0 17,9.53125 l 1.5,0 c 0.538623,0 0.96875,0.4301269 0.96875,0.96875 l 0,5 c 0,0.538623 -0.430127,0.96875 -0.96875,0.96875 l -1.5,0 A 0.54481953,0.54481953 0 0 0 16.46875,17 l 0,1.5 c 0,0.538623 -0.430127,0.96875 -0.96875,0.96875 l -9,0 c -0.5386231,0 -0.96875,-0.430127 -0.96875,-0.96875 l 0,-1.5 A 0.54481953,0.54481953 0 0 0 5,16.46875 l -1.5,0 c -0.5386231,0 -0.96875,-0.430127 -0.96875,-0.96875 l 0,-5 C 2.53125,9.9613769 2.9613769,9.53125 3.5,9.53125 l 1.5,0 A 0.54481953,0.54481953 0 0 0 5.53125,9 l 0,-4.5 C 5.53125,3.9613769 5.9613769,3.53125 6.5,3.53125 z m 0.3125,0.9375 A 0.54481953,0.54481953 0 0 0 6.46875,5 l 0,5 0,1 A 0.54481953,0.54481953 0 0 0 7,11.53125 l 8,0 a 0.54481953,0.54481953 0 0 0 0.0625,0 c -0.240728,0.102105 -0.426056,0.313793 -0.53125,0.5625 -0.06341,0.149626 -0.0625,0.306174 -0.0625,0.40625 0,0.570556 0.460694,1.03125 1.03125,1.03125 0.535385,0 0.946487,-0.414609 1,-0.9375 0.05351,0.522891 0.464615,0.9375 1,0.9375 0.570556,0 1.03125,-0.460694 1.03125,-1.03125 0,-0.570556 -0.460694,-1.03125 -1.03125,-1.03125 -0.535385,0 -0.946487,0.414609 -1,0.9375 -0.05351,-0.522891 -0.464615,-0.9375 -1,-0.9375 -0.110102,0 -0.213729,0.0027 -0.3125,0.03125 A 0.54481953,0.54481953 0 0 0 15.53125,11 l 0,-1 0,-5 A 0.54481953,0.54481953 0 0 0 15,4.46875 l -8,0 a 0.54481953,0.54481953 0 0 0 -0.15625,0 0.54481953,0.54481953 0 0 0 -0.03125,0 z M 7,5 l 8,0 0,5 0,1 -8,0 0,-1 0,-5 z m 1,1 0,1 6,0 0,-1 -6,0 z m 0,2 0,1 4,0 0,-1 -4,0 z m 7.5,4 C 15.776142,12 16,12.223858 16,12.5 16,12.776142 15.776142,13 15.5,13 15.223858,13 15,12.776142 15,12.5 15,12.43096 15.0059,12.372319 15.03125,12.3125 15.10715,12.133043 15.292893,12 15.5,12 z m 2,0 C 17.776142,12 18,12.223858 18,12.5 18,12.776142 17.776142,13 17.5,13 17.223858,13 17,12.776142 17,12.5 17,12.223858 17.223858,12 17.5,12 z M 6.8125,15.46875 A 0.54481953,0.54481953 0 0 0 6.46875,16 l 0,1 0,1 A 0.54481953,0.54481953 0 0 0 7,18.53125 l 8,0 A 0.54481953,0.54481953 0 0 0 15.53125,18 l 0,-1 0,-1 A 0.54481953,0.54481953 0 0 0 15,15.46875 l -8,0 a 0.54481953,0.54481953 0 0 0 -0.15625,0 0.54481953,0.54481953 0 0 0 -0.03125,0 z M 7,16 l 8,0 0,1 0,1 -8,0 0,-1 0,-1 z"
       inkscape:connector-curvature="0"
       id="path3044"
       style="opacity:0.3;color:#000000;fill:#000000;fill-opacity:1;fill-rule:nonzero;stroke:none;stroke-width:0.80000001;marker:none;visibility:visible;display:inline;overflow:visible;enable-background:accumulate" />
    <path
       d="M 6.5,3 C 5.669,3 5,3.669 5,4.5 l 0,1 C 5,4.669 5.669,4 6.5,4 l 9,0 C 16.331,4 17,4.669 17,5.5 l 0,-1 C 17,3.669 16.331,3 15.5,3 l -9,0 z M 8,6 8,7 14,7 14,6 8,6 z M 8,8 8,9 12,9 12,8 8,8 z M 3.5,9 C 2.669,9 2,9.669 2,10.5 l 0,1 C 2,10.669 2.669,10 3.5,10 L 5,10 5,9 3.5,9 z m 13.5,0 0,1 1.5,0 c 0.831,0 1.5,0.669 1.5,1.5 l 0,-1 C 20,9.669 19.331,9 18.5,9 L 17,9 z m -10,2 0,1 8,0 0,-1 -8,0 z m 8.5,2 c -0.207107,0 -0.392846,0.133043 -0.46875,0.3125 C 15.0059,13.37232 15,13.43096 15,13.5 15,13.776142 15.223858,14 15.5,14 15.776142,14 16,13.776142 16,13.5 16,13.223858 15.776142,13 15.5,13 z m 2,0 C 17.223858,13 17,13.223858 17,13.5 17,13.776142 17.223858,14 17.5,14 17.776142,14 18,13.776142 18,13.5 18,13.223858 17.776142,13 17.5,13 z M 7,18 l 0,1 8,0 0,-1 -8,0 z"
       inkscape:connector-curvature="0"
       id="path3825"
       style="opacity:0.3;color:#000000;fill:#000000;fill-opacity:1;fill-rule:nonzero;stroke:none;stroke-width:0.80000001;marker:none;visibility:visible;display:inline;overflow:visible;enable-background:accumulate" />
    <path
       d="m 7,5 0,1 1,0 6,0 1,0 0,-1 -8,0 z m 1,2 0,1 4,0 2,0 0,-1 -6,0 z m 0,2 0,1 4,0 0,-1 -4,0 z m 7.5,3 c -0.207107,0 -0.392846,0.133043 -0.46875,0.3125 C 15.0059,12.37232 15,12.43096 15,12.5 15,12.776142 15.223858,13 15.5,13 15.776142,13 16,12.776142 16,12.5 16,12.223858 15.776142,12 15.5,12 z m 2,0 C 17.223858,12 17,12.223858 17,12.5 17,12.776142 17.223858,13 17.5,13 17.776142,13 18,12.776142 18,12.5 18,12.223858 17.776142,12 17.5,12 z M 2,15.5 l 0,1 C 2,17.331 2.669,18 3.5,18 L 5,18 5,17 3.5,17 C 2.669,17 2,16.331 2,15.5 z m 18,0 c 0,0.831 -0.669,1.5 -1.5,1.5 l -1.5,0 0,1 1.5,0 c 0.831,0 1.5,-0.669 1.5,-1.5 l 0,-1 z M 7,16 l 0,1 8,0 0,-1 -8,0 z m -2,2.5 0,1 C 5,20.331 5.669,21 6.5,21 l 9,0 c 0.831,0 1.5,-0.669 1.5,-1.5 l 0,-1 c 0,0.831 -0.669,1.5 -1.5,1.5 l -9,0 C 5.669,20 5,19.331 5,18.5 z"
       inkscape:connector-curvature="0"
       id="path3834"
       style="opacity:0.3;color:#000000;fill:#ffffff;fill-opacity:1;fill-rule:nonzero;stroke:none;stroke-width:0.80000001;marker:none;visibility:visible;display:inline;overflow:visible;enable-background:accumulate" />
  </g>
</svg>
