<?xml version="1.0" encoding="UTF-8" standalone="no"?>
<!-- Created with Inkscape (http://www.inkscape.org/) -->

<svg
   xmlns:dc="http://purl.org/dc/elements/1.1/"
   xmlns:cc="http://creativecommons.org/ns#"
   xmlns:rdf="http://www.w3.org/1999/02/22-rdf-syntax-ns#"
   xmlns:svg="http://www.w3.org/2000/svg"
   xmlns="http://www.w3.org/2000/svg"
   xmlns:xlink="http://www.w3.org/1999/xlink"
   xmlns:inkscape="http://www.inkscape.org/namespaces/inkscape"
   version="1.0"
   width="22"
   height="22"
   id="svg2"
   style="display:inline">
  <defs
     id="defs4">
    <linearGradient
       x1="11.998966"
       y1="0.92195445"
       x2="11.998966"
       y2="19.387045"
       id="StandardGradient"
       gradientUnits="userSpaceOnUse"
       gradientTransform="scale(0.9219544,1.0846523)">
      <stop
         id="stop3283"
         style="stop-color:#000000;stop-opacity:0.23529412"
         offset="0" />
      <stop
         id="stop3850"
         style="stop-color:#000000;stop-opacity:0.39215687"
         offset="0.69999999" />
      <stop
         id="stop2651"
         style="stop-color:#000000;stop-opacity:0.55000001"
         offset="1" />
    </linearGradient>
    <radialGradient
       cx="36"
       cy="2"
       r="4"
       fx="36"
       fy="2"
       id="radialGradient3855"
       xlink:href="#SpecificGradient"
       gradientUnits="userSpaceOnUse"
       gradientTransform="translate(0,10)" />
    <linearGradient
       x1="10.406627"
       y1="2"
       x2="10.406627"
       y2="18.000771"
       id="SpecificGradient"
       gradientUnits="userSpaceOnUse">
      <stop
         id="stop3292"
         style="stop-color:#e64b36;stop-opacity:1"
         offset="0" />
      <stop
         id="stop3294"
         style="stop-color:#a31414;stop-opacity:1"
         offset="1" />
    </linearGradient>
    <radialGradient
       cx="36"
       cy="2"
       r="4"
       fx="36"
       fy="2"
       id="radialGradient3038"
       xlink:href="#StandardGradient"
       gradientUnits="userSpaceOnUse" />
    <radialGradient
       cx="12"
       cy="12.647775"
       r="7.425591"
       fx="12"
       fy="12.647775"
       id="radialGradient3857"
       xlink:href="#StandardGradient"
       gradientUnits="userSpaceOnUse"
       gradientTransform="matrix(2.1547107,3.977529e-8,-2.4859556e-8,1.3466942,-13.856528,-4.0326851)" />
  </defs>
  <metadata
     id="metadata7">
    <rdf:RDF>
      <cc:Work
         rdf:about="">
        <dc:format>image/svg+xml</dc:format>
        <dc:type
           rdf:resource="http://purl.org/dc/dcmitype/StillImage" />
        <dc:title />
      </cc:Work>
    </rdf:RDF>
  </metadata>
  <g
     id="layer1"
     style="display:inline">
    <rect
       width="22"
       height="22"
       x="-30"
       y="0"
       id="rect3047"
       style="opacity:0.5;color:#000000;fill:#ff00ff;fill-opacity:1;fill-rule:nonzero;stroke:none;stroke-width:2;marker:none;visibility:visible;display:inline;overflow:visible;enable-background:accumulate" />
    <rect
       width="8"
       height="8"
       x="32"
       y="-2"
       id="rect3841"
       style="color:#000000;fill:url(#radialGradient3038);fill-opacity:1;fill-rule:nonzero;stroke:none;stroke-width:2;marker:none;visibility:visible;display:inline;overflow:visible;enable-background:accumulate" />
    <rect
       width="8"
       height="8"
       x="32"
       y="8"
       id="rect3853"
       style="color:#000000;fill:url(#radialGradient3855);fill-opacity:1;fill-rule:nonzero;stroke:none;stroke-width:2;marker:none;visibility:visible;display:inline;overflow:visible;enable-background:accumulate" />
    <text
       x="34"
       y="19"
       id="text3977"
       xml:space="preserve"
       style="font-size:1px;font-style:normal;font-variant:normal;font-weight:normal;font-stretch:normal;text-align:start;line-height:125%;letter-spacing:0px;word-spacing:0px;writing-mode:lr-tb;text-anchor:start;fill:#000000;fill-opacity:1;stroke:none;font-family:Trebuchet MS;-inkscape-font-specification:Trebuchet MS"><tspan
         x="34"
         y="19"
         id="tspan3805">-0.875px /blur 5 / opacity 40</tspan></text>
    <rect
       width="1"
       height="1"
       x="32"
       y="18"
       id="rect3981"
       style="color:#000000;fill:#000000;fill-opacity:1;fill-rule:nonzero;stroke:none;stroke-width:2;marker:none;visibility:visible;display:inline;overflow:visible;enable-background:accumulate" />
    <text
       x="34"
       y="21"
       id="text3983"
       xml:space="preserve"
       style="font-size:1px;font-style:normal;font-variant:normal;font-weight:normal;font-stretch:normal;text-align:start;line-height:125%;letter-spacing:0px;word-spacing:0px;writing-mode:lr-tb;text-anchor:start;fill:#000000;fill-opacity:1;stroke:none;font-family:Trebuchet MS;-inkscape-font-specification:Trebuchet MS"><tspan
         x="34"
         y="21"
         id="tspan3985">0px /blur 7 / opacity 15</tspan></text>
    <rect
       width="1"
       height="1"
       x="32"
       y="20"
       id="rect3987"
       style="color:#000000;fill:#ffffff;fill-opacity:1;fill-rule:nonzero;stroke:none;stroke-width:2;marker:none;visibility:visible;display:inline;overflow:visible;enable-background:accumulate" />
    <text
       x="34"
       y="23"
       id="text3989"
       xml:space="preserve"
       style="font-size:1px;font-style:normal;font-variant:normal;font-weight:normal;font-stretch:normal;text-align:start;line-height:125%;letter-spacing:0px;word-spacing:0px;writing-mode:lr-tb;text-anchor:start;fill:#000000;fill-opacity:1;stroke:none;font-family:Trebuchet MS;-inkscape-font-specification:Trebuchet MS"><tspan
         x="34"
         y="23"
         id="tspan3995">-0.5px /blur 3 / opacity 30</tspan></text>
    <rect
       width="1"
       height="1"
       x="32"
       y="22"
       id="rect3993"
       style="color:#000000;fill:#ffffff;fill-opacity:1;fill-rule:nonzero;stroke:none;stroke-width:2;marker:none;visibility:visible;display:inline;overflow:visible;enable-background:accumulate" />
    <path
       d="m 17.0625,1.0312498 c -0.303131,0.00655 -0.614994,0.010632 -0.9375,0.03125 -1.315941,0.08421 -2.80063,0.3059058 -4.15625,0.6875 C 10.61313,2.1315939 9.3632392,2.6168449 8.5625,3.5624997 A 0.97202889,0.97202889 0 0 0 8.5,3.6249997 C 8.0888367,4.2163177 7.938128,4.9157676 7.78125,5.6874997 7.624372,6.4592318 7.5307919,7.3038154 7.46875,8.0937497 7.406708,8.883684 7.3642404,9.5847611 7.375,10.125 c 0.00538,0.270119 0.02829,0.503488 0.0625,0.71875 0.017105,0.107631 -0.00471,0.191883 0.15625,0.468749 0.080481,0.138433 0.2866143,0.464409 0.78125,0.5 0.4946357,0.03559 0.7755503,-0.272692 0.875,-0.40625 0.1894174,-0.254382 0.6579592,-0.572042 0.90625,-0.843749 0.03405,0.0014 0.0974,0.0322 0.125,0.03125 0.658708,-0.02273 1.197592,0.03475 1.78125,0.0625 0.294871,0.426243 0.469165,0.76869 0.71875,1.156249 -0.152285,0.573871 -0.317874,0.939396 -0.46875,1.4375 -3.1371755,1.483858 -5.0778401,2.134319 -7.84375,2.4375 -0.343249,0.03762 -0.8350891,0.485147 -0.90625,0.8125 -0.071161,0.327353 -0.01401,0.491576 0.03125,0.625 0.090521,0.266849 0.2285824,0.431978 0.375,0.625 0.2928352,0.386044 0.7017274,0.806529 1.28125,1.1875 1.0204164,0.670809 2.6083589,1.027489 4.375,0.65625 -0.05858,0.316533 -0.1197184,0.681794 0.03125,0.875 0.2050678,0.262441 0.369854,0.32404 0.5,0.375 0.260293,0.101921 0.445222,0.111358 0.6875,0.125 0.484556,0.02728 1.082477,-0.02631 1.75,-0.21875 1.173667,-0.338364 2.487039,-1.298472 3.34375,-2.875 0.196211,0.175289 0.3432,0.427943 0.53125,0.4375 0.328086,0.01667 0.469616,-0.06048 0.59375,-0.125 0.248267,-0.129039 0.393303,-0.263807 0.5625,-0.4375 0.338394,-0.347385 0.71158,-0.839987 1,-1.46875 0.54793,-1.194501 0.715873,-2.965745 -0.15625,-4.78125 0.01009,0.0031 0.02116,-0.0031 0.03125,0 0.33156,0.101922 0.930022,-0.105561 1.125,-0.375 0.194978,-0.269438 0.206329,-0.453437 0.21875,-0.593749 0.02484,-0.280624 -0.0063,-0.482865 -0.0625,-0.7187503 -0.112446,-0.4717703 -0.341049,-1.0437546 -0.71875,-1.625 -0.600714,-0.9244408 -1.782017,-1.7413703 -3.28125,-2.1875 1.135385,-0.7339445 2.350246,-1.594224 3.21875,-2 0.407671,-0.190469 0.712714,-0.3556323 1,-0.6875 0.143643,-0.1659338 0.317958,-0.3845243 0.34375,-0.71875 0.02579,-0.3342257 -0.137215,-0.7110783 -0.3125,-0.9062499 -0.350571,-0.3903433 -0.669184,-0.4207391 -1,-0.5 -0.330816,-0.079261 -0.688527,-0.1334996 -1.09375,-0.15625 -0.277469,-0.01558 -0.571869,-0.00655 -0.875,0 z m 0.03125,0.96875 c 0.282593,-0.00623 0.537346,-0.013695 0.78125,0 1.463427,0.082161 2.108487,0.4756969 0.71875,1.1249999 -2.998112,1.400755 -8.0276,4.870751 -10.125,7.6875003 -0.2544791,0.341758 -0.1420773,-5.2072243 0.84375,-6.6250003 1.097304,-1.295891 4.369211,-1.995899 6.875,-2.15625 0.313224,-0.020025 0.623657,-0.02502 0.90625,-0.03125 z m -2.5,4.5937499 c 3.730056,0.285005 4.597065,4.0946513 4.1875,3.9687503 C 16.01519,9.7122097 13.795076,9.5026567 10.25,9.6249997 c -0.4285934,0.014792 2.609729,-2.907383 4.34375,-3.03125 z m -1.875,3.03125 c 0.64081,-0.032644 3.928553,0.8594573 4.84375,2.0624993 1.782058,3.256775 -0.978345,6.03393 -1.09375,5.625 -0.779405,-2.761774 -1.816454,-4.711833 -3.84375,-7.5937493 -0.03064,-0.04355 0.0022,-0.08905 0.09375,-0.09375 z m 1.0625,2.3124993 c 0.302518,0.07706 2.008787,3.455769 1.65625,5.03125 -1.342626,3.457244 -5.270238,3.196304 -5.03125,2.84375 1.61403,-2.381017 2.44828,-4.445498 3.34375,-7.84375 0.0068,-0.02565 0.01108,-0.03635 0.03125,-0.03125 z m -1.03125,2.1875 c 0.386872,-0.183212 -1.210623,3.700067 -2.75,4.5 -3.5340491,1.215277 -5.8637482,-1.92203 -5.4375,-1.96875 2.878729,-0.315548 4.9874952,-1.015822 8.1875,-2.53125 z"
       inkscape:connector-curvature="0"
       id="path5504"
       style="opacity:0.05;fill:#ffffff;fill-opacity:1;fill-rule:nonzero;stroke:none;stroke-width:25;marker-mid:none;display:inline" />
    <path
       d="M 18.59375,3.1249997 C 15.970402,4.3506607 11.783759,7.1484177 9.375,9.7187497 9.0308915,10.08594 8.730925,10.460406 8.46875,10.8125 8.444425,10.84517 8.423428,10.8162 8.40625,10.75 c -0.00303,-0.01357 0.00278,-0.04588 0,-0.0625 -0.00862,-0.05421 -0.025385,-0.168797 -0.03125,-0.25 -0.012811,0.630371 -0.01119,1.138982 0.03125,1.312499 0.00707,0.02892 0.022386,0.05412 0.03125,0.0625 0.00886,0.0084 0.020521,0.01441 0.03125,0 C 8.9931,11.108312 9.6866931,10.368304 10.5,9.6249997 c -0.08917,0.0027 -0.159116,-0.0031 -0.25,0 -0.4088781,0.01411 2.33465,-2.616557 4.09375,-2.96875 1.533162,-1.049575 3.049562,-1.97039 4.25,-2.53125 1.113538,-0.520259 0.903117,-0.840014 0.03125,-1 -0.0099,0.0047 -0.02113,-0.0047 -0.03125,0 z m -5.90625,6.46875 c -0.49035,-0.01028 -1.049408,0.02102 -1.59375,0.03125 C 10.468057,10.187115 10.079613,10.630881 10.25,10.625 c 0.913814,-0.03154 1.704927,-0.01952 2.46875,0 0.173033,0.0044 0.362241,-0.0069 0.53125,0 -0.206801,-0.30744 -0.393455,-0.577096 -0.625,-0.9062503 -0.03064,-0.04355 0.0022,-0.08905 0.09375,-0.09375 0.516928,-0.02633 2.735569,0.5512683 4.0625,1.4062493 0.652505,0.137306 1.308485,0.318677 2,0.53125 0.145463,0.04472 0.12267,-0.417318 -0.125,-1.031249 -0.06539,-0.01975 -0.122661,-0.04344 -0.1875,-0.0625 C 18.031883,10.340495 17.60781,10.222238 17.1875,10.125 17.050347,10.09289 16.91775,10.06031 16.78125,10.03125 16.644595,10.00249 16.511495,9.99446 16.375,9.96875 16.033408,9.90441 15.690229,9.858744 15.34375,9.8125 14.98891,9.76376 14.618666,9.71845 14.25,9.6875 13.744927,9.64509 13.23824,9.6053 12.6875,9.59375 z M 12.71875,10.625 c -0.09154,0.0047 -0.124387,0.0502 -0.09375,0.09375 0.388324,0.552023 0.710443,1.035352 1.03125,1.531249 0.0274,-0.101875 0.06625,-0.176908 0.09375,-0.28125 0.0068,-0.02565 0.01108,-0.03635 0.03125,-0.03125 0.206442,0.05259 1.05526,1.650874 1.46875,3.15625 0.483913,1.019195 0.885887,2.03927 1.21875,3.21875 0.09257,0.328009 1.869405,-1.406206 1.65625,-3.78125 -0.02219,0.168294 -0.05537,0.311471 -0.09375,0.46875 -0.07725,0.318078 -0.190364,0.610653 -0.3125,0.875 -0.06755,0.146198 -0.144389,0.310253 -0.21875,0.4375 -0.05016,0.08446 -0.105122,0.174839 -0.15625,0.25 -0.129524,0.189671 -0.255793,0.344677 -0.375,0.46875 -0.0086,0.009 -0.02282,0.02259 -0.03125,0.03125 -0.07339,0.07362 -0.158076,0.142864 -0.21875,0.1875 -0.0166,0.01156 -0.04733,0.02222 -0.0625,0.03125 -0.02344,0.01374 -0.04288,0.02363 -0.0625,0.03125 -0.01491,0.0059 -0.01881,0.02898 -0.03125,0.03125 -0.04451,0.0098 -0.08383,0.0039 -0.09375,-0.03125 -0.172251,-0.610362 -0.357173,-1.16886 -0.5625,-1.71875 -0.02799,-0.07429 -0.06496,-0.145121 -0.09375,-0.21875 -0.01695,-0.04379 -0.04527,-0.08143 -0.0625,-0.125 -0.103465,-0.259035 -0.197949,-0.527486 -0.3125,-0.78125 -0.07287,-0.162461 -0.140767,-0.338446 -0.21875,-0.5 -0.0652,-0.134301 -0.149844,-0.271953 -0.21875,-0.40625 -0.195913,-0.383084 -0.425136,-0.794103 -0.65625,-1.1875 -0.02227,-0.0378 -0.03989,-0.08705 -0.0625,-0.125 C 14.004974,11.786321 13.706054,11.310205 13.375,10.8125 13.34637,10.76946 13.31035,10.73091 13.28125,10.6875 13.037083,10.64074 12.829881,10.61934 12.71875,10.625 z M 12.75,15.124999 c -0.101171,0.04791 -0.182202,0.0787 -0.28125,0.125 -0.101772,0.232651 -0.239141,0.488023 -0.375,0.75 -0.03417,0.06561 -0.05772,0.121125 -0.09375,0.1875 -0.02157,0.04008 -0.0403,0.08477 -0.0625,0.125 -0.13814,0.25032 -0.278675,0.507095 -0.4375,0.75 -0.02842,0.04314 -0.06481,0.08253 -0.09375,0.125 -0.0455,0.06721 -0.109552,0.122393 -0.15625,0.1875 -0.07615,0.105253 -0.140034,0.21462 -0.21875,0.3125 -0.150273,0.18686 -0.312599,0.351702 -0.46875,0.5 -0.06812,0.0647 -0.118882,0.132239 -0.1875,0.1875 -0.124419,0.101512 -0.250257,0.185178 -0.375,0.25 -0.2208781,0.07596 -0.4451597,0.143733 -0.65625,0.1875 -0.028913,0.0059 -0.065036,-0.0053 -0.09375,0 -0.063031,0.01183 -0.1254089,0.02207 -0.1875,0.03125 -0.2287892,0.03384 -0.4408764,0.06148 -0.65625,0.0625 -0.2487426,0.0012 -0.4893838,-0.027 -0.71875,-0.0625 -0.2087244,-0.0323 -0.4023273,-0.06835 -0.59375,-0.125 -0.023011,-0.0068 -0.039749,-0.02414 -0.0625,-0.03125 C 6.829301,18.624349 6.6494279,18.55208 6.46875,18.468749 6.2841776,18.382819 6.0982521,18.287206 5.9375,18.187499 5.7737852,18.086999 5.6375425,17.981943 5.5,17.874999 5.3637575,17.769066 5.233969,17.66711 5.125,17.562499 c -0.010427,0.0014 -0.020949,-0.0015 -0.03125,0 -0.1802631,0.02631 -0.3423629,0.07305 -0.53125,0.09375 -0.4262482,0.04672 1.9034509,3.184027 5.4375,1.96875 0.488285,-0.253736 0.971455,-0.822743 1.40625,-1.46875 0.01777,-0.03194 0.04495,-0.06178 0.0625,-0.09375 0.503228,-0.916779 0.903489,-1.889816 1.28125,-2.9375 z m 2.6875,1.875 c -0.08113,0.205596 -0.183193,0.382663 -0.28125,0.5625 -0.104509,0.191191 -0.223387,0.367481 -0.34375,0.53125 -0.117711,0.161523 -0.214085,0.300599 -0.34375,0.4375 -0.0096,0.01019 -0.02161,0.02119 -0.03125,0.03125 -0.120056,0.124228 -0.247726,0.238809 -0.375,0.34375 -0.01146,0.0094 -0.01974,0.02195 -0.03125,0.03125 -0.13145,0.106133 -0.270112,0.193903 -0.40625,0.28125 -0.360327,0.231188 -0.736325,0.4124 -1.09375,0.53125 -0.03081,0.01017 -0.06317,0.02181 -0.09375,0.03125 -0.179442,0.05566 -0.363772,0.09207 -0.53125,0.125 -0.120692,0.02324 -0.263809,0.04951 -0.375,0.0625 -0.233047,0.02568 -0.452898,0.04094 -0.625,0.03125 -0.168192,0.271396 -0.311972,0.535122 -0.5,0.8125 -0.238988,0.352554 3.688624,0.613494 5.03125,-2.84375 0.06165,-0.275523 0.04576,-0.610232 0,-0.96875 z"
       inkscape:connector-curvature="0"
       id="path3975"
       style="opacity:0.2;fill:#ffffff;fill-opacity:1;fill-rule:nonzero;stroke:none;stroke-width:25;marker-mid:none;display:inline" />
    <path
       d="m 17.875,1.9999998 c -0.487809,-0.02739 -1.061052,-0.0088 -1.6875,0.03125 -2.505789,0.160351 -5.777696,0.860359 -6.875,2.15625 -0.9858273,1.417776 -1.0982291,6.9667582 -0.84375,6.6250002 2.0974,-2.8167492 7.126888,-6.2867452 10.125,-7.6875002 1.389737,-0.649303 0.744677,-1.042839 -0.71875,-1.125 z m -3.28125,4.5937499 c -1.734021,0.123867 -4.7723434,3.046042 -4.34375,3.03125 3.545076,-0.122343 5.76519,0.08721 8.53125,0.9375003 0.409565,0.125901 -0.457444,-3.6837453 -4.1875,-3.9687503 z m -1.875,3.03125 c -0.09154,0.0047 -0.124387,0.0502 -0.09375,0.09375 2.027296,2.8819163 3.064345,4.8319753 3.84375,7.5937493 0.115405,0.40893 2.875808,-2.368225 1.09375,-5.625 -0.915197,-1.203042 -4.20294,-2.0951433 -4.84375,-2.0624993 z m 1.0625,2.3124993 c -0.02017,-0.0051 -0.02448,0.0056 -0.03125,0.03125 -0.89547,3.398252 -1.72972,5.462733 -3.34375,7.84375 -0.238988,0.352554 3.688624,0.613494 5.03125,-2.84375 0.352537,-1.575481 -1.353732,-4.954186 -1.65625,-5.03125 z m -1.03125,2.1875 c -3.2000048,1.515428 -5.308771,2.215702 -8.1875,2.53125 -0.4262482,0.04672 1.9034509,3.184027 5.4375,1.96875 1.539377,-0.799933 3.136872,-4.683212 2.75,-4.5 z"
       inkscape:connector-curvature="0"
       id="path3956"
       style="fill:url(#radialGradient3857);fill-opacity:1;fill-rule:nonzero;stroke:none;stroke-width:25;marker-mid:none;display:inline" />
    <path
       d="M 7.5,5.1562497 C 6.8532024,5.2652997 4.2766242,7.0323647 4.875,10.21875 5.4430828,11.845524 9.0624691,14.031166 8.9375,13.624999 7.9038309,10.265419 7.53985,8.0839847 7.65625,5.2187497 7.6584,5.1657187 7.5924,5.1406717 7.5,5.1562497 z"
       inkscape:connector-curvature="0"
       id="path3954"
       style="opacity:0.2;fill:#000000;fill-opacity:1;fill-rule:nonzero;stroke:none;stroke-width:25;marker-mid:none;display:inline" />
    <path
       d="m 3.3125,10.1875 c -0.3472505,0.181216 -0.9844148,3.601944 2.03125,5.374999 1.6100618,0.649363 5.640873,-0.637811 5.25,-0.8125 C 7.3606501,13.30507 5.4745363,12.16283 3.375,10.1875 c -0.01943,-0.01828 -0.03935,-0.01208 -0.0625,0 z"
       inkscape:connector-curvature="0"
       id="path3948"
       style="opacity:0.2;fill:#000000;fill-opacity:1;fill-rule:nonzero;stroke:none;stroke-width:25;marker-mid:none;display:inline" />
    <path
       d="m 17.09375,1.9999998 c -0.282593,0.0062 -0.593026,0.01121 -0.90625,0.03125 -2.505789,0.160351 -5.777696,0.860359 -6.875,2.15625 C 8.5047528,5.3491688 8.2886369,9.2417048 8.375,10.4375 8.40856,8.7861068 8.659185,6.1270708 9.3125,5.1874998 c 1.097304,-1.295891 4.369211,-1.995899 6.875,-2.15625 0.999952,-0.06399 1.858536,-0.01249 2.4375,0.09375 1.350342,-0.640689 0.702768,-1.043438 -0.75,-1.125 -0.243904,-0.01369 -0.498657,-0.0062 -0.78125,0 z m -2.5,4.5937499 c -1.734021,0.123867 -4.7723434,3.046042 -4.34375,3.03125 0.306735,-0.01059 0.555642,0.0054 0.84375,0 0.948183,-0.851837 2.455337,-1.956626 3.5,-2.03125 2.405275,0.183782 3.61283,1.822843 4.0625,2.9375003 0.0428,0.01292 0.08195,0.01802 0.125,0.03125 0.409565,0.125901 -0.457444,-3.6837453 -4.1875,-3.9687503 z m -1.875,3.03125 c -0.09154,0.0047 -0.124387,0.0502 -0.09375,0.09375 0.246123,0.3498783 0.438007,0.6432223 0.65625,0.9687503 1.163759,0.222878 3.52477,1.005592 4.28125,1.999999 0.334136,0.610645 0.500378,1.190918 0.5625,1.75 0.09158,-0.820561 -0.02519,-1.768054 -0.5625,-2.75 -0.915197,-1.203042 -4.20294,-2.0951433 -4.84375,-2.0624993 z m 1.0625,2.3124993 c -0.02017,-0.0051 -0.02448,0.0056 -0.03125,0.03125 -0.89547,3.398252 -1.72972,5.462733 -3.34375,7.84375 -0.05975,0.08814 0.144416,0.167478 0.5,0.1875 1.275569,-2.058268 2.052598,-4.02888 2.84375,-7.03125 0.0068,-0.02565 0.01108,-0.03635 0.03125,-0.03125 0.248122,0.06321 1.429958,2.342555 1.65625,4.03125 0.352537,-1.575481 -1.353732,-4.954186 -1.65625,-5.03125 z m -1.03125,2.1875 c -3.2000048,1.515428 -5.308771,2.215702 -8.1875,2.53125 -0.1540281,0.01688 0.070001,0.433446 0.5625,0.90625 2.5000563,-0.333529 4.5272423,-0.996052 7.34375,-2.3125 0.305317,-0.697954 0.426327,-1.193704 0.28125,-1.125 z"
       inkscape:connector-curvature="0"
       id="path3941"
       style="opacity:0.3;fill:#000000;fill-opacity:1;fill-rule:nonzero;stroke:none;stroke-width:25;marker-mid:none;display:inline" />
    <path
       d="M 17.09375,2 C 16.811157,2.00623 16.500724,2.011225 16.1875,2.03125 13.681711,2.191601 10.409804,2.891609 9.3125,4.1875 8.3266727,5.605276 8.2142709,11.154258 8.46875,10.8125 10.56615,7.9957508 15.595638,4.525755 18.59375,3.125 19.983487,2.475697 19.338427,2.082161 17.875,2 17.631096,1.986305 17.376343,1.99377 17.09375,2 z m 0,0.53125 c 0.272767,-0.00606 0.524266,-0.012675 0.75,0 0.254907,0.014311 0.44514,0.031304 0.625,0.0625 -0.04967,0.026721 -0.03362,0.034404 -0.09375,0.0625 C 15.597751,3.9538149 11.364814,6.8334409 8.90625,9.5625 8.9123328,9.147023 8.8959797,8.7161476 8.9375,8.1875 8.9960238,7.4423587 9.1111324,6.6518835 9.25,5.96875 9.3853185,5.3030759 9.5632385,4.7689643 9.71875,4.53125 9.7258829,4.5228262 9.7425069,4.5084349 9.75,4.5 c 0.425499,-0.4789823 1.425007,-0.9747134 2.625,-1.3125 1.221125,-0.343735 2.624987,-0.5470087 3.84375,-0.625 0.308199,-0.019704 0.602233,-0.025195 0.875,-0.03125 z m -2.5,4.0625 C 12.859729,6.717617 9.8214066,9.639792 10.25,9.625 c 3.545076,-0.122343 5.76519,0.08721 8.53125,0.9375 0.409565,0.125901 -0.457444,-3.683745 -4.1875,-3.96875 z m 0,0.53125 c 0.01125,9.333e-4 0.02006,-0.001 0.03125,0 1.649451,0.147708 2.630154,1.0485495 3.1875,1.90625 0.218391,0.336083 0.288524,0.6143236 0.375,0.875 -1.73192,-0.4533267 -3.392982,-0.6876451 -5.21875,-0.75 A 0.52623229,0.52623229 0 0 0 12.8125,9.1875 0.52623229,0.52623229 0 0 0 12.75,9.1875 0.52623229,0.52623229 0 0 0 12.65625,9.15625 C 12.247571,9.1460619 11.771627,9.1425342 11.34375,9.125 11.54034,8.9400764 11.6812,8.7691988 11.9375,8.5625 12.814374,7.8553267 13.99152,7.1813873 14.59375,7.125 z m -1.875,2.5 c -0.09154,0.0047 -0.124387,0.0502 -0.09375,0.09375 2.027296,2.881916 3.064345,4.831976 3.84375,7.59375 0.115405,0.40893 2.875808,-2.368225 1.09375,-5.625 C 16.647303,10.484458 13.35956,9.592356 12.71875,9.625 z m 0.96875,0.8125 c 0.432841,0.09319 0.802078,0.130743 1.375,0.34375 0.863336,0.32098 1.697346,0.769287 2.03125,1.15625 0.0031,0.0036 -0.003,0.02769 0,0.03125 0.787932,1.461401 0.583845,2.755332 0.15625,3.6875 -0.168509,0.367354 -0.355445,0.599383 -0.53125,0.8125 -0.663828,-2.098762 -1.625752,-3.922473 -3.03125,-6.03125 z m 0.09375,1.5 c -0.02017,-0.0051 -0.02448,0.0056 -0.03125,0.03125 -0.89547,3.398252 -1.72972,5.462733 -3.34375,7.84375 -0.238988,0.352554 3.688624,0.613494 5.03125,-2.84375 0.352537,-1.575481 -1.353732,-4.954186 -1.65625,-5.03125 z m 0.125,1.1875 c 0.148011,0.289857 0.319369,0.595135 0.46875,0.96875 0.393016,0.982968 0.658825,2.133807 0.5625,2.6875 -0.607016,1.563058 -1.74664,2.241985 -2.75,2.53125 -0.388995,0.112146 -0.690795,0.117262 -0.96875,0.125 1.194268,-1.889691 1.971447,-3.82595 2.6875,-6.3125 z m -1.15625,1 C 9.5499952,15.640428 7.441229,16.340702 4.5625,16.65625 4.1362518,16.70297 6.4659509,19.840277 10,18.625 c 1.539377,-0.799933 3.136872,-4.683212 2.75,-4.5 z M 11.9375,15 c -0.105197,0.248031 -0.160996,0.457854 -0.3125,0.75 -0.521935,1.006447 -1.34836,2.132583 -1.875,2.40625 C 8.1949218,18.65598 6.9447508,18.246937 6.09375,17.6875 5.7584564,17.467082 5.5594396,17.235106 5.375,17.03125 7.5917216,16.715762 9.5713618,16.056948 11.9375,15 z"
       inkscape:connector-curvature="0"
       id="path3859"
       style="opacity:0.3;fill:#000000;fill-opacity:1;fill-rule:nonzero;stroke:none;stroke-width:25;marker-mid:none;display:inline" />
  </g>
</svg>
