<?xml version="1.0" encoding="UTF-8" standalone="no"?>
<!-- Created with Inkscape (http://www.inkscape.org/) -->

<svg
   xmlns:dc="http://purl.org/dc/elements/1.1/"
   xmlns:cc="http://creativecommons.org/ns#"
   xmlns:rdf="http://www.w3.org/1999/02/22-rdf-syntax-ns#"
   xmlns:svg="http://www.w3.org/2000/svg"
   xmlns="http://www.w3.org/2000/svg"
   xmlns:xlink="http://www.w3.org/1999/xlink"
   xmlns:inkscape="http://www.inkscape.org/namespaces/inkscape"
   version="1.0"
   width="22"
   height="22"
   id="svg2"
   style="display:inline">
  <defs
     id="defs4">
    <linearGradient
       x1="11.998966"
       y1="0.92195445"
       x2="11.998966"
       y2="19.387045"
       id="StandardGradient"
       gradientUnits="userSpaceOnUse"
       gradientTransform="scale(0.9219544,1.0846523)">
      <stop
         id="stop3283"
         style="stop-color:#000000;stop-opacity:0.23529412"
         offset="0" />
      <stop
         id="stop3850"
         style="stop-color:#000000;stop-opacity:0.39215687"
         offset="0.69999999" />
      <stop
         id="stop2651"
         style="stop-color:#000000;stop-opacity:0.55000001"
         offset="1" />
    </linearGradient>
    <radialGradient
       cx="36"
       cy="2"
       r="4"
       fx="36"
       fy="2"
       id="radialGradient3855"
       xlink:href="#SpecificGradient"
       gradientUnits="userSpaceOnUse"
       gradientTransform="translate(0,10)" />
    <linearGradient
       x1="10.406627"
       y1="2"
       x2="10.406627"
       y2="18.000771"
       id="SpecificGradient"
       gradientUnits="userSpaceOnUse">
      <stop
         id="stop3292"
         style="stop-color:#e64b36;stop-opacity:1"
         offset="0" />
      <stop
         id="stop3294"
         style="stop-color:#a31414;stop-opacity:1"
         offset="1" />
    </linearGradient>
    <radialGradient
       cx="36"
       cy="2"
       r="4"
       fx="36"
       fy="2"
       id="radialGradient3038"
       xlink:href="#StandardGradient"
       gradientUnits="userSpaceOnUse" />
    <radialGradient
       cx="12"
       cy="12.512932"
       r="7.564661"
       fx="12"
       fy="12.512932"
       id="radialGradient3912"
       xlink:href="#StandardGradient"
       gradientUnits="userSpaceOnUse"
       gradientTransform="matrix(2.1150981,-1.3792224e-8,0,1.4541299,-13.381177,-5.1954283)" />
  </defs>
  <metadata
     id="metadata7">
    <rdf:RDF>
      <cc:Work
         rdf:about="">
        <dc:format>image/svg+xml</dc:format>
        <dc:type
           rdf:resource="http://purl.org/dc/dcmitype/StillImage" />
        <dc:title />
      </cc:Work>
    </rdf:RDF>
  </metadata>
  <g
     id="layer1"
     style="display:inline">
    <rect
       width="22"
       height="22"
       x="-30"
       y="0"
       id="rect3047"
       style="opacity:0.5;color:#000000;fill:#ff00ff;fill-opacity:1;fill-rule:nonzero;stroke:none;stroke-width:2;marker:none;visibility:visible;display:inline;overflow:visible;enable-background:accumulate" />
    <rect
       width="8"
       height="8"
       x="32"
       y="-2"
       id="rect3841"
       style="color:#000000;fill:url(#radialGradient3038);fill-opacity:1;fill-rule:nonzero;stroke:none;stroke-width:2;marker:none;visibility:visible;display:inline;overflow:visible;enable-background:accumulate" />
    <rect
       width="8"
       height="8"
       x="32"
       y="8"
       id="rect3853"
       style="color:#000000;fill:url(#radialGradient3855);fill-opacity:1;fill-rule:nonzero;stroke:none;stroke-width:2;marker:none;visibility:visible;display:inline;overflow:visible;enable-background:accumulate" />
    <text
       x="34"
       y="19"
       id="text3977"
       xml:space="preserve"
       style="font-size:1px;font-style:normal;font-variant:normal;font-weight:normal;font-stretch:normal;text-align:start;line-height:125%;letter-spacing:0px;word-spacing:0px;writing-mode:lr-tb;text-anchor:start;fill:#000000;fill-opacity:1;stroke:none;font-family:Trebuchet MS;-inkscape-font-specification:Trebuchet MS"><tspan
         x="34"
         y="19"
         id="tspan3805">-0.875px /blur 5 / opacity 40</tspan></text>
    <rect
       width="1"
       height="1"
       x="32"
       y="18"
       id="rect3981"
       style="color:#000000;fill:#000000;fill-opacity:1;fill-rule:nonzero;stroke:none;stroke-width:2;marker:none;visibility:visible;display:inline;overflow:visible;enable-background:accumulate" />
    <text
       x="34"
       y="21"
       id="text3983"
       xml:space="preserve"
       style="font-size:1px;font-style:normal;font-variant:normal;font-weight:normal;font-stretch:normal;text-align:start;line-height:125%;letter-spacing:0px;word-spacing:0px;writing-mode:lr-tb;text-anchor:start;fill:#000000;fill-opacity:1;stroke:none;font-family:Trebuchet MS;-inkscape-font-specification:Trebuchet MS"><tspan
         x="34"
         y="21"
         id="tspan3985">0px /blur 7 / opacity 15</tspan></text>
    <rect
       width="1"
       height="1"
       x="32"
       y="20"
       id="rect3987"
       style="color:#000000;fill:#ffffff;fill-opacity:1;fill-rule:nonzero;stroke:none;stroke-width:2;marker:none;visibility:visible;display:inline;overflow:visible;enable-background:accumulate" />
    <text
       x="34"
       y="23"
       id="text3989"
       xml:space="preserve"
       style="font-size:1px;font-style:normal;font-variant:normal;font-weight:normal;font-stretch:normal;text-align:start;line-height:125%;letter-spacing:0px;word-spacing:0px;writing-mode:lr-tb;text-anchor:start;fill:#000000;fill-opacity:1;stroke:none;font-family:Trebuchet MS;-inkscape-font-specification:Trebuchet MS"><tspan
         x="34"
         y="23"
         id="tspan3995">-0.5px /blur 3 / opacity 30</tspan></text>
    <rect
       width="1"
       height="1"
       x="32"
       y="22"
       id="rect3993"
       style="color:#000000;fill:#ffffff;fill-opacity:1;fill-rule:nonzero;stroke:none;stroke-width:2;marker:none;visibility:visible;display:inline;overflow:visible;enable-background:accumulate" />
    <path
       d="M 9.84375,-0.03124963 A 1.0298227,1.0298227 0 0 0 9,1.0000004 l 0,1.46875 C 5.8125258,3.2248691 3.2519523,5.6481695 2.4375,8.8125004 a 1.0298227,1.0298227 0 0 0 1,1.2812496 l 2.03125,0 A 1.0298227,1.0298227 0 0 0 5.875,10 c -0.063594,0.317635 -0.2147733,0.60263 -0.21875,0.9375 0,0 5.87e-5,0.03053 0,0.03125 -6.32e-5,0.01065 0,0.02059 0,0.03125 -0.00339,0.04474 0.00407,0.482009 0.09375,0.96875 a 1.0298227,1.0298227 0 0 0 -0.28125,-0.0625 l -2.03125,0 a 1.0298227,1.0298227 0 0 0 -1,1.28125 C 3.2519522,16.351832 5.8125259,18.775131 9,19.53125 L 9,21 a 1.0298227,1.0298227 0 0 0 1.03125,1.03125 l 1.9375,0 A 1.0298227,1.0298227 0 0 0 13,21 l 0,-1.46875 c 3.187474,-0.756119 5.748046,-3.179419 6.5625,-6.34375 a 1.0298227,1.0298227 0 0 0 -1,-1.28125 l -2,0 A 1.0298227,1.0298227 0 0 0 16.125,12 c 0.06757,-0.337319 0.21875,-0.643775 0.21875,-1 a 1.0298227,1.0298227 0 0 0 0,-0.03125 c 0,0 -0.02389,-0.45638 -0.09375,-0.90625 a 1.0298227,1.0298227 0 0 0 0.28125,0.03125 l 2.03125,0 a 1.0298227,1.0298227 0 0 0 1,-1.2812496 C 18.748047,5.6481636 16.187473,3.2248681 13,2.4687504 l 0,-1.46875 a 1.0298227,1.0298227 0 0 0 -1.03125,-1.03125003 l -1.9375,0 a 1.0298227,1.0298227 0 0 0 -0.09375,0 1.0298227,1.0298227 0 0 0 -0.09375,0 z m 0.1875,1.03125003 1.9375,0 0,2.25 c 3.200841,0.398935 5.805471,2.749855 6.59375,5.8125 l -2.03125,0 c -0.508062,-1.434335 -1.568485,-2.682164 -2.96875,-3.3125 -0.777405,-0.388377 -1.627485,-0.6198 -2.5,-0.625 -0.05817,-4e-4 -0.09798,-0.0015 -0.15625,0 -2.403228,-0.016095 -4.606973,1.726846 -5.4375,3.9375 l -2.03125,0 c 0.788278,-3.062638 3.392909,-5.413565 6.59375,-5.8125 l 0,-2.25 z M 11,6.6875004 c 1.762725,0 3.273678,1.075836 3.9375,2.59375 l -2.0625,0 c -0.466562,-0.509609 -1.12096,-0.82973 -1.8125,-0.84375 -0.05147,-10e-4 -0.10463,-0.0025 -0.15625,0 C 9.874626,8.4463404 8.996731,9.1853904 8.625,10.125 l 6.59375,0 C 15.30426,10.543064 15.3125,11 15.3125,11 c 0,2.374755 -1.937744,4.3125 -4.3125,4.3125 -1.762724,0 -3.273686,-1.075805 -3.9375,-2.59375 l 2.03125,0 c 0.85091,0.884824 2.376095,1.163631 3.375,0.375 0.434186,-0.298214 0.759231,-0.720795 0.9375,-1.21875 l -6.625,0 C 6.65773,11.418929 6.6875,11 6.6875,11 6.6875,8.6157434 8.625245,6.6875004 11,6.6875004 z M 3.4375,12.9375 l 2.03125,0 c 0.812319,2.213212 2.97332,3.94964 5.375,3.9375 2.466721,0.0865 4.929374,-1.608839 5.71875,-3.9375 l 2,0 c -0.78828,3.062639 -3.392908,5.413565 -6.59375,5.8125 l 0,2.25 -1.9375,0 0,-2.25 C 6.830409,18.351065 4.225778,16.000139 3.4375,12.9375 z"
       inkscape:connector-curvature="0"
       id="path3836"
       style="opacity:0.05;fill:#ffffff;fill-opacity:1;stroke:none;display:inline" />
    <path
       d="m 11.001421,6.7001254 c -2.374755,0 -4.299875,1.915618 -4.299875,4.2998746 0,0 -0.0285,0.403904 0.09502,0.859975 l 6.603386,0 c -0.178269,0.497955 -0.498014,0.944718 -0.9322,1.242932 -0.998905,0.788631 -2.511728,0.501867 -3.362638,-0.382957 l -2.04412,0 c 0.663814,1.517945 2.177708,2.579925 3.940432,2.579925 2.374756,0 4.299874,-1.92512 4.299874,-4.299875 0,0 0,-0.441911 -0.08551,-0.859975 l -6.606166,0 c 0.371731,-0.9396096 1.259405,-1.7010326 2.291029,-1.7098726 0.05162,-0.0025 0.103052,-0.0027 0.154526,-0.0017 0.69154,0.01402 1.362564,0.341967 1.829126,0.851576 l 2.057557,0 C 14.27804,7.7621144 12.764146,6.7001354 11.001421,6.7001354 z m -0.977753,-5.700125 0,2.25037 c -3.200841,0.398935 -5.80005,2.734329 -6.588328,5.796967 l 2.025124,0 c 0.830527,-2.210654 3.029524,-3.934769 5.432752,-3.918674 0.05827,-0.0015 0.117267,-0.0023 0.175433,-0.0019 0.872515,0.0052 1.730165,0.22183 2.50757,0.610207 1.400265,0.630336 2.44,1.876039 2.948062,3.310374 l 2.04038,0 c -0.788279,-3.062645 -3.387487,-5.398039 -6.588328,-5.796974 l 0,-2.25037 z M 3.43534,12.952663 c 0.788278,3.062639 3.387487,5.398032 6.588328,5.796967 l 0,2.25037 1.952665,0 0,-2.25037 c 3.200842,-0.398935 5.800049,-2.734328 6.588329,-5.796967 l -2.011778,0 c -0.789376,2.328661 -3.229181,4.003268 -5.695902,3.916767 -2.40168,0.01214 -4.580385,-1.703555 -5.392704,-3.916767 z"
       inkscape:connector-curvature="0"
       id="path4189"
       style="fill:url(#radialGradient3912);fill-opacity:1;stroke:none;display:inline" />
    <path
       d="m 10.03125,1.0000004 0,1 1.9375,0 0,-1 -1.9375,0 z m 0,2.25 c -3.200841,0.398935 -5.805472,2.749862 -6.59375,5.8125 l 0.34375,0 c 1.045762,-2.563888 3.405919,-4.4580296 6.25,-4.8125 l 0,-1 z m 1.9375,0 0,1 c 2.844081,0.3544704 5.204238,2.2486071 6.25,4.8125 l 0.34375,0 c -0.788279,-3.062645 -3.392909,-5.413565 -6.59375,-5.8125 z M 11,6.6875004 c -2.374755,0 -4.3125,1.928243 -4.3125,4.3124996 0,0 0.018,0.255363 0.0625,0.5625 C 6.970953,9.3882735 8.774229,7.6875004 11,7.6875004 c 1.338166,0 2.52418,0.6348496 3.3125,1.59375 l 0.625,0 C 14.273678,7.7633364 12.762725,6.6875004 11,6.6875004 z M 9.28125,10.125 c -0.294388,0.283676 -0.505955,0.620106 -0.65625,1 l 6.59375,0 c 0.02694,0.131719 0.01861,0.253114 0.03125,0.375 0.01918,-0.1648 0.0625,-0.330054 0.0625,-0.5 0,0 -0.0082,-0.456936 -0.09375,-0.875 l -0.34375,0 c 0.02399,0.04956 0.04037,0.105653 0.0625,0.15625 l -2.0625,0 C 12.82438,10.22596 12.773946,10.175842 12.71875,10.125 l -3.4375,0 z M 7.125,12.875 c 0.149377,0.308557 0.347006,0.581621 0.5625,0.84375 l 1.40625,0 c 0.85091,0.884824 2.376095,1.163631 3.375,0.375 0.434186,-0.298214 0.759231,-0.720795 0.9375,-1.21875 l -0.65625,0 c -0.085,0.08001 -0.184617,0.152379 -0.28125,0.21875 C 11.529169,13.835545 10.120426,13.638874 9.25,12.875 l -2.125,0 z m -3.6875,0.0625 c 0.08786,0.341357 0.21257,0.678387 0.34375,1 l 1.6875,0 c 0.812319,2.213212 2.97332,3.94964 5.375,3.9375 2.466721,0.0865 4.929374,-1.608839 5.71875,-3.9375 l 1.65625,0 c 0.13118,-0.321613 0.25589,-0.658643 0.34375,-1 l -2,0 c -0.789376,2.328661 -3.252029,4.024001 -5.71875,3.9375 -2.40168,0.01214 -4.562681,-1.724288 -5.375,-3.9375 l -2.03125,0 z"
       inkscape:connector-curvature="0"
       id="path3811"
       style="opacity:0.38999999;fill:#000000;fill-opacity:1;stroke:none;display:inline" />
    <path
       d="m 10.90625,5.1250004 c -2.403228,-0.016095 -4.606973,1.726846 -5.4375,3.9375 l -1.6875,0 C 3.65007,9.3841136 3.5253602,9.7211439 3.4375,10.0625 l 2.03125,0 c 0.830527,-2.2106536 3.034272,-3.9535946 5.4375,-3.9374996 0.05827,-0.0015 0.09808,-4e-4 0.15625,0 0.872515,0.0052 1.722595,0.236623 2.5,0.625 1.400265,0.630336 2.460688,1.878165 2.96875,3.3124996 l 2.03125,0 C 18.47464,9.7211431 18.34993,9.3841142 18.21875,9.0625004 l -1.6875,0 c -0.508062,-1.434335 -1.568485,-2.682164 -2.96875,-3.3125 -0.777405,-0.388377 -1.627485,-0.6198 -2.5,-0.625 -0.05817,-4e-4 -0.09798,-0.0015 -0.15625,0 z m 0,3.3125 C 9.874626,8.4463404 8.996731,9.1853904 8.625,10.125 l 0.65625,0 c 0.4337363,-0.4179531 1.010472,-0.6822337 1.625,-0.6874996 0.05162,-0.0025 0.104776,-10e-4 0.15625,0 0.616514,0.012499 1.202684,0.2697075 1.65625,0.6874996 l 2.15625,0 C 14.725622,9.8164499 14.527995,9.5433755 14.3125,9.2812504 l -1.4375,0 c -0.466562,-0.509609 -1.12096,-0.82973 -1.8125,-0.84375 -0.05147,-10e-4 -0.10463,-0.0025 -0.15625,0 z M 15.25,11.5 c -0.248803,2.138043 -2.04519,3.8125 -4.25,3.8125 -1.3381655,0 -2.5241835,-0.634836 -3.3125,-1.59375 l -0.625,0 C 7.726314,15.236695 9.237276,16.3125 11,16.3125 c 2.374756,0 4.3125,-1.937745 4.3125,-4.3125 0,0 -0.03502,-0.23503 -0.0625,-0.5 z m -8.5,0.0625 C 6.73521,11.708034 6.6875,11.85042 6.6875,12 c 0,0 -0.02977,0.418929 0.09375,0.875 l 0.34375,0 C 7.101006,12.82544 7.084627,12.769348 7.0625,12.71875 l 2.03125,0 C 9.144285,12.7713 9.1950423,12.82677 9.25,12.875 l 3.5,0 c 0.296909,-0.2795 0.517657,-0.61287 0.65625,-1 l -6.625,0 C 6.750596,11.761819 6.764688,11.66388 6.75,11.5625 z m -3.3125,2.375 c 0.788278,3.062639 3.392909,5.413565 6.59375,5.8125 l 0,-1 c -2.8440806,-0.35447 -5.2042383,-2.248611 -6.25,-4.8125 l -0.34375,0 z m 14.78125,0 c -1.045763,2.563889 -3.405919,4.45803 -6.25,4.8125 l 0,1 c 3.200842,-0.398935 5.80547,-2.749861 6.59375,-5.8125 l -0.34375,0 z M 10.03125,21 l 0,1 1.9375,0 0,-1 -1.9375,0 z"
       inkscape:connector-curvature="0"
       id="path3820"
       style="opacity:0.2;fill:#ffffff;fill-opacity:1;stroke:none;display:inline" />
    <path
       d="m 10.03125,1 0,2.25 C 6.830409,3.648935 4.225778,5.999862 3.4375,9.0625 l 2.03125,0 c 0.830527,-2.210654 3.034272,-3.953595 5.4375,-3.9375 0.05827,-0.0015 0.09808,-4e-4 0.15625,0 0.872515,0.0052 1.722595,0.236623 2.5,0.625 1.400265,0.630336 2.460688,1.878165 2.96875,3.3125 l 2.03125,0 C 17.774221,5.999855 15.169591,3.648935 11.96875,3.25 l 0,-2.25 -1.9375,0 z m 0.40625,0.40625 1.125,0 0,1.84375 a 0.40861463,0.40861463 0 0 0 0.34375,0.40625 c 2.844282,0.3544955 5.134591,2.3611662 6.03125,5 l -1.15625,0 C 16.207655,7.2524722 15.157093,6.0168113 13.75,5.375 c -0.0082,-0.00376 -0.02298,0.00372 -0.03125,0 -0.818936,-0.4048294 -1.723033,-0.6506882 -2.65625,-0.65625 -0.0543,-3.734e-4 -0.08806,-0.00176 -0.15625,0 -2.5061784,-0.016784 -4.729896,1.6962865 -5.6875,3.9375 l -1.15625,0 c 0.8966582,-2.6388287 3.1869684,-4.6455046 6.03125,-5 A 0.40861463,0.40861463 0 0 0 10.4375,3.25 l 0,-1.84375 z M 11,6.6875 c -2.374755,0 -4.3125,1.9282434 -4.3125,4.3125 0,0 -0.02977,0.418929 0.09375,0.875 l 6.625,0 c -0.178269,0.497955 -0.503314,0.920536 -0.9375,1.21875 -0.998905,0.788631 -2.52409,0.509824 -3.375,-0.375 l -2.03125,0 C 7.726314,14.236695 9.237276,15.3125 11,15.3125 c 2.374756,0 4.3125,-1.937745 4.3125,-4.3125 0,0 -0.0082,-0.456936 -0.09375,-0.875 l -6.59375,0 c 0.371731,-0.9396096 1.249626,-1.67866 2.28125,-1.6875 0.05162,-0.0025 0.104776,-10e-4 0.15625,0 0.69154,0.01402 1.345938,0.334141 1.8125,0.84375 l 2.0625,0 C 14.273678,7.763336 12.762725,6.6875 11,6.6875 z m 0,0.40625 c 1.359416,0 2.523634,0.7228944 3.21875,1.78125 L 13,8.875 C 12.477312,8.381506 11.797812,8.0461574 11.0625,8.03125 c -0.04083,-7.933e-4 -0.09852,-0.00152 -0.15625,0 -0.01155,3.039e-4 -0.01908,-5.896e-4 -0.03125,0 -1.2103934,0.024917 -2.2029619,0.8707312 -2.625,1.9375 a 0.40861463,0.40861463 0 0 0 0.375,0.5625 l 6.21875,0 C 14.863074,10.735923 14.90625,11 14.90625,11 c 0,2.152497 -1.753752,3.90625 -3.90625,3.90625 -1.3594192,0 -2.523638,-0.722885 -3.21875,-1.78125 l 1.1875,0 c 0.997919,0.906366 2.582946,1.178443 3.71875,0.3125 0.01163,-0.0089 0.01972,-0.02215 0.03125,-0.03125 0.485993,-0.344874 0.860872,-0.843047 1.0625,-1.40625 a 0.40861463,0.40861463 0 0 0 -0.375,-0.53125 l -6.25,0 c -0.014238,-0.177997 -0.0625,-0.4375 -0.0625,-0.4375 A 0.40861463,0.40861463 0 0 0 7.09375,11 C 7.09375,8.8371155 8.846413,7.09375 11,7.09375 z M 3.4375,12.9375 c 0.788278,3.062639 3.392909,5.413565 6.59375,5.8125 l 0,2.25 1.9375,0 0,-2.25 c 3.200842,-0.398935 5.80547,-2.749861 6.59375,-5.8125 l -2,0 c -0.789376,2.328661 -3.252029,4.024001 -5.71875,3.9375 -2.40168,0.01214 -4.562681,-1.724288 -5.375,-3.9375 l -2.03125,0 z m 0.625,0.40625 1.15625,0 c 0.9369583,2.242063 3.1213133,3.950156 5.625,3.9375 2.555216,0.0896 4.985633,-1.581331 5.9375,-3.9375 l 1.15625,0 c -0.89666,2.63883 -3.186967,4.645505 -6.03125,5 A 0.40861463,0.40861463 0 0 0 11.5625,18.75 l 0,1.84375 -1.125,0 0,-1.84375 a 0.40861463,0.40861463 0 0 0 -0.34375,-0.40625 c -2.8442817,-0.354495 -5.1345918,-2.361171 -6.03125,-5 z"
       inkscape:connector-curvature="0"
       id="path3914"
       style="opacity:0.3;fill:#000000;fill-opacity:1;stroke:none;display:inline" />
  </g>
</svg>
