<?xml version="1.0" encoding="UTF-8" standalone="no"?>
<!-- Created with Inkscape (http://www.inkscape.org/) -->

<svg
   xmlns:dc="http://purl.org/dc/elements/1.1/"
   xmlns:cc="http://creativecommons.org/ns#"
   xmlns:rdf="http://www.w3.org/1999/02/22-rdf-syntax-ns#"
   xmlns:svg="http://www.w3.org/2000/svg"
   xmlns="http://www.w3.org/2000/svg"
   xmlns:xlink="http://www.w3.org/1999/xlink"
   xmlns:inkscape="http://www.inkscape.org/namespaces/inkscape"
   version="1.0"
   width="22"
   height="22"
   id="svg2"
   style="display:inline">
  <defs
     id="defs4">
    <linearGradient
       x1="11.998966"
       y1="0.92195445"
       x2="11.998966"
       y2="19.387045"
       id="StandardGradient"
       gradientUnits="userSpaceOnUse"
       gradientTransform="scale(0.9219544,1.0846523)">
      <stop
         id="stop3283"
         style="stop-color:#000000;stop-opacity:0.23529412"
         offset="0" />
      <stop
         id="stop3850"
         style="stop-color:#000000;stop-opacity:0.39215687"
         offset="0.69999999" />
      <stop
         id="stop2651"
         style="stop-color:#000000;stop-opacity:0.55000001"
         offset="1" />
    </linearGradient>
    <radialGradient
       cx="36"
       cy="2"
       r="4"
       fx="36"
       fy="2"
       id="radialGradient3855"
       xlink:href="#SpecificGradient"
       gradientUnits="userSpaceOnUse"
       gradientTransform="translate(0,10)" />
    <linearGradient
       x1="10.406627"
       y1="2"
       x2="10.406627"
       y2="18.000771"
       id="SpecificGradient"
       gradientUnits="userSpaceOnUse">
      <stop
         id="stop3292"
         style="stop-color:#e64b36;stop-opacity:1"
         offset="0" />
      <stop
         id="stop3294"
         style="stop-color:#a31414;stop-opacity:1"
         offset="1" />
    </linearGradient>
    <radialGradient
       cx="36"
       cy="2"
       r="4"
       fx="36"
       fy="2"
       id="radialGradient3038"
       xlink:href="#StandardGradient"
       gradientUnits="userSpaceOnUse" />
    <radialGradient
       cx="12"
       cy="13"
       r="7.5"
       fx="12"
       fy="13"
       id="radialGradient4129"
       xlink:href="#StandardGradient"
       gradientUnits="userSpaceOnUse"
       gradientTransform="matrix(2.1333333,-5.7333334e-8,2.8666668e-8,1.0666667,-13.6,29.133334)" />
    <clipPath
       id="clipPath4147">
      <path
         d="m 14,4 0,2 -5,3 -3,0 7,7 0,-3 3,-5 2,0 -4,-4 z M 8,13 4,17 3,19 5,18 9,14 8,13 z"
         inkscape:connector-curvature="0"
         id="path4149"
         style="fill:#ff00ff;fill-opacity:1;stroke:none;display:inline" />
    </clipPath>
    <filter
       color-interpolation-filters="sRGB"
       id="filter4151">
      <feGaussianBlur
         id="feGaussianBlur4153"
         stdDeviation="0.375" />
    </filter>
    <clipPath
       id="clipPath4159">
      <path
         d="m -30,0 0,22 22,0 0,-22 -22,0 z m 14,4 4,4 -2,0 -3,5 0,3 -7,-7 3,0 5,-3 0,-2 z m -6,9 1,1 -4,4 -2,1 1,-2 4,-4 z"
         inkscape:connector-curvature="0"
         id="path4161"
         style="opacity:0.5;color:#000000;fill:#ff00ff;fill-opacity:1;fill-rule:nonzero;stroke:none;stroke-width:2;marker:none;visibility:visible;display:inline;overflow:visible;enable-background:accumulate" />
    </clipPath>
    <filter
       color-interpolation-filters="sRGB"
       id="filter4163">
      <feGaussianBlur
         id="feGaussianBlur4165"
         stdDeviation="0.525" />
    </filter>
    <clipPath
       id="clipPath4172">
      <path
         d="m -30,30 0,22 22,0 0,-22 -22,0 z m 14,4 4,4 -2,0 -3,5 0,3 -7,-7 3,0 5,-3 0,-2 z m -6,9 1,1 -4,4 -2,1 1,-2 4,-4 z"
         inkscape:connector-curvature="0"
         id="path4174"
         style="opacity:0.5;color:#000000;fill:#ff00ff;fill-opacity:1;fill-rule:nonzero;stroke:none;stroke-width:2;marker:none;visibility:visible;display:inline;overflow:visible;enable-background:accumulate" />
    </clipPath>
    <filter
       color-interpolation-filters="sRGB"
       id="filter4474">
      <feGaussianBlur
         id="feGaussianBlur4476"
         stdDeviation="0.375" />
    </filter>
    <radialGradient
       cx="12"
       cy="13"
       r="7.5"
       fx="12"
       fy="13"
       id="radialGradient3029"
       xlink:href="#StandardGradient"
       gradientUnits="userSpaceOnUse"
       gradientTransform="matrix(2.1333333,-5.7333334e-8,2.8666668e-8,1.0666667,-13.6,-0.866666)" />
  </defs>
  <metadata
     id="metadata7">
    <rdf:RDF>
      <cc:Work
         rdf:about="">
        <dc:format>image/svg+xml</dc:format>
        <dc:type
           rdf:resource="http://purl.org/dc/dcmitype/StillImage" />
        <dc:title />
      </cc:Work>
    </rdf:RDF>
  </metadata>
  <g
     id="layer1"
     style="display:inline">
    <path
       d="M 13.875,3 A 0.97926097,0.97926097 0 0 0 13.78125,3.03125 0.97926097,0.97926097 0 0 0 13.03125,4 l 0,1.4375 -4.3125,2.59375 -2.71875,0 A 0.97926097,0.97926097 0 0 0 5.3125,9.6875 l 2.375,2.375 a 0.97926097,0.97926097 0 0 0 -0.375,0.25 l -4,4 a 0.97926097,0.97926097 0 0 0 -0.1875,0.25 l -1,2 a 0.97926097,0.97926097 0 0 0 1.3125,1.3125 l 2,-1 a 0.97926097,0.97926097 0 0 0 0.25,-0.1875 l 4,-4 a 0.97926097,0.97926097 0 0 0 0.25,-0.375 l 2.375,2.375 A 0.97926097,0.97926097 0 0 0 13.96875,16 l 0,-2.71875 2.59375,-4.3125 1.4375,0 A 0.97926097,0.97926097 0 0 0 18.6875,7.3125 l -4,-4 A 0.97926097,0.97926097 0 0 0 13.875,3 z M 14,4 l 4,4 -2,0 -3,5 0,3 -7,-7 3,0 5,-3 0,-2 z m -6,9 1,1 -4,4 -2,1 1,-2 4,-4 z"
       inkscape:connector-curvature="0"
       id="path3814"
       style="opacity:0.05;fill:#ffffff;fill-opacity:1;stroke:none;display:inline" />
    <path
       d="m -16,4 0,2 -5,3 -3,0 7,7 0,-3 3,-5 2,0 -4,-4 z m -6,9 -4,4 -1,2 2,-1 4,-4 -1,-1 z"
       inkscape:connector-curvature="0"
       transform="translate(30,30)"
       clip-path="url(#clipPath4159)"
       id="path4155"
       style="opacity:0.2;fill:none;stroke:#ffffff;display:inline;filter:url(#filter4163)" />
    <path
       d="m -16,34.5 0,2 -5,3 -3,0 7,7 0,-3 3,-5 2,0 -4,-4 z m -6,9 -4,4 -1,2 2,-1 4,-4 -1,-1 z"
       inkscape:connector-curvature="0"
       transform="translate(30,0)"
       clip-path="url(#clipPath4172)"
       id="path4167"
       style="opacity:0.4;fill:#ffffff;fill-opacity:1;stroke:none;display:inline;filter:url(#filter4474)" />
    <rect
       width="22"
       height="22"
       x="-30"
       y="0"
       id="rect3047"
       style="opacity:0.5;color:#000000;fill:#ff00ff;fill-opacity:1;fill-rule:nonzero;stroke:none;stroke-width:2;marker:none;visibility:visible;display:inline;overflow:visible;enable-background:accumulate" />
    <rect
       width="8"
       height="8"
       x="32"
       y="-2"
       id="rect3841"
       style="color:#000000;fill:url(#radialGradient3038);fill-opacity:1;fill-rule:nonzero;stroke:none;stroke-width:2;marker:none;visibility:visible;display:inline;overflow:visible;enable-background:accumulate" />
    <rect
       width="8"
       height="8"
       x="32"
       y="8"
       id="rect3853"
       style="color:#000000;fill:url(#radialGradient3855);fill-opacity:1;fill-rule:nonzero;stroke:none;stroke-width:2;marker:none;visibility:visible;display:inline;overflow:visible;enable-background:accumulate" />
    <text
       x="34"
       y="19"
       id="text3977"
       xml:space="preserve"
       style="font-size:1px;font-style:normal;font-variant:normal;font-weight:normal;font-stretch:normal;text-align:start;line-height:125%;letter-spacing:0px;word-spacing:0px;writing-mode:lr-tb;text-anchor:start;fill:#000000;fill-opacity:1;stroke:none;font-family:Trebuchet MS;-inkscape-font-specification:Trebuchet MS"><tspan
         x="34"
         y="19"
         id="tspan3979">-0.375px /blur 5 / opacity 40</tspan></text>
    <rect
       width="1"
       height="1"
       x="32"
       y="18"
       id="rect3981"
       style="color:#000000;fill:#000000;fill-opacity:1;fill-rule:nonzero;stroke:none;stroke-width:2;marker:none;visibility:visible;display:inline;overflow:visible;enable-background:accumulate" />
    <text
       x="34"
       y="21"
       id="text3983"
       xml:space="preserve"
       style="font-size:1px;font-style:normal;font-variant:normal;font-weight:normal;font-stretch:normal;text-align:start;line-height:125%;letter-spacing:0px;word-spacing:0px;writing-mode:lr-tb;text-anchor:start;fill:#000000;fill-opacity:1;stroke:none;font-family:Trebuchet MS;-inkscape-font-specification:Trebuchet MS"><tspan
         x="34"
         y="21"
         id="tspan3985">0px /blur 7 / opacity 20</tspan></text>
    <rect
       width="1"
       height="1"
       x="32"
       y="20"
       id="rect3987"
       style="color:#000000;fill:#ffffff;fill-opacity:1;fill-rule:nonzero;stroke:none;stroke-width:2;marker:none;visibility:visible;display:inline;overflow:visible;enable-background:accumulate" />
    <text
       x="34"
       y="23"
       id="text3989"
       xml:space="preserve"
       style="font-size:1px;font-style:normal;font-variant:normal;font-weight:normal;font-stretch:normal;text-align:start;line-height:125%;letter-spacing:0px;word-spacing:0px;writing-mode:lr-tb;text-anchor:start;fill:#000000;fill-opacity:1;stroke:none;font-family:Trebuchet MS;-inkscape-font-specification:Trebuchet MS"><tspan
         x="34"
         y="23"
         id="tspan4470">-0.5px /blur 5 / opacity 40</tspan></text>
    <rect
       width="1"
       height="1"
       x="32"
       y="22"
       id="rect3993"
       style="color:#000000;fill:#ffffff;fill-opacity:1;fill-rule:nonzero;stroke:none;stroke-width:2;marker:none;visibility:visible;display:inline;overflow:visible;enable-background:accumulate" />
    <path
       d="m 14,34 0,2 -5,3 -3,0 7,7 0,-3 3,-5 2,0 -4,-4 z M 8,43 4,47 3,49 5,48 9,44 8,43 z"
       inkscape:connector-curvature="0"
       id="path3645"
       style="fill:url(#radialGradient4129);fill-opacity:1;stroke:none;display:inline" />
    <path
       d="m 14,4.375 0,2 -5,3 -3,0 7,7 0,-3 3,-5 2,0 -4,-4 z m -6,9 -4,4 -1,2 2,-1 4,-4 -1,-1 z"
       inkscape:connector-curvature="0"
       transform="translate(0,30)"
       clip-path="url(#clipPath4147)"
       id="path4143"
       style="opacity:0.4;fill:none;stroke:#000000;display:inline;filter:url(#filter4151)" />
    <path
       d="m 14,4 0,2 -5,3 -3,0 7,7 0,-3 3,-5 2,0 -4,-4 z M 8,13 4,17 3,19 5,18 9,14 8,13 z"
       inkscape:connector-curvature="0"
       id="path3027"
       style="fill:url(#radialGradient3029);fill-opacity:1;stroke:none;display:inline" />
    <path
       d="m 16,8 -3,5 0,1 3,-5 2,0 -1,-1 -1,0 z m -10,2 7,7 0,-1 -6,-6 -1,0 z M 8.5,14.5 5,18 3.65625,18.65625 3,20 5,19 9,15 8.5,14.5 z"
       inkscape:connector-curvature="0"
       id="path3031"
       style="opacity:0.2;fill:#ffffff;fill-opacity:1;stroke:none;display:inline" />
    <path
       d="m 14,4 0,2 -5,3 -3,0 7,7 0,-3 3,-5 2,0 -4,-4 z m 0.46875,1.15625 2.375,2.375 -0.84375,0 A 0.48031376,0.48031376 0 0 0 15.59375,7.75 l -3,5 A 0.48031376,0.48031376 0 0 0 12.53125,13 l 0,1.84375 -5.375,-5.375 1.84375,0 a 0.48031376,0.48031376 0 0 0 0.25,-0.0625 l 5,-3 A 0.48031376,0.48031376 0 0 0 14.46875,6 l 0,-0.84375 z M 8,13 4,17 3,19 5,18 9,14 8,13 z M 8,13.6875 8.3125,14 l -3.53125,3.5625 -0.0625,0.03125 -0.625,0.3125 0.3125,-0.625 L 4.4375,17.21875 8,13.6875 z"
       inkscape:connector-curvature="0"
       id="path3819"
       style="opacity:0.3;fill:#000000;fill-opacity:1;stroke:none;display:inline" />
    <path
       d="m 14,4 0,1 3,3 1,0 -4,-4 z m 0,2 -5,3 -3,0 1,1 2,0 5,-3 0,-1 z M 8,13 4,17 3,19 3.65625,18.65625 4,18 8,14 8.5,14.5 9,14 8,13 z"
       inkscape:connector-curvature="0"
       id="path3832"
       style="opacity:0.3;fill:#000000;fill-opacity:1;stroke:none;display:inline" />
  </g>
</svg>
