<?xml version="1.0" encoding="UTF-8" standalone="no"?>
<!-- Created with Inkscape (http://www.inkscape.org/) -->

<svg
   xmlns:dc="http://purl.org/dc/elements/1.1/"
   xmlns:cc="http://creativecommons.org/ns#"
   xmlns:rdf="http://www.w3.org/1999/02/22-rdf-syntax-ns#"
   xmlns:svg="http://www.w3.org/2000/svg"
   xmlns="http://www.w3.org/2000/svg"
   xmlns:xlink="http://www.w3.org/1999/xlink"
   xmlns:inkscape="http://www.inkscape.org/namespaces/inkscape"
   version="1.0"
   width="22"
   height="22"
   id="svg2"
   style="display:inline">
  <defs
     id="defs4">
    <linearGradient
       x1="11.998966"
       y1="0.92195445"
       x2="11.998966"
       y2="19.387045"
       id="StandardGradient"
       gradientUnits="userSpaceOnUse"
       gradientTransform="scale(0.9219544,1.0846523)">
      <stop
         id="stop3283"
         style="stop-color:#000000;stop-opacity:0.23529412"
         offset="0" />
      <stop
         id="stop3850"
         style="stop-color:#000000;stop-opacity:0.39215687"
         offset="0.69999999" />
      <stop
         id="stop2651"
         style="stop-color:#000000;stop-opacity:0.55000001"
         offset="1" />
    </linearGradient>
    <radialGradient
       cx="36"
       cy="2"
       r="4"
       fx="36"
       fy="2"
       id="radialGradient3855"
       xlink:href="#SpecificGradient"
       gradientUnits="userSpaceOnUse"
       gradientTransform="translate(0,10)" />
    <linearGradient
       x1="10.406627"
       y1="2"
       x2="10.406627"
       y2="18.000771"
       id="SpecificGradient"
       gradientUnits="userSpaceOnUse">
      <stop
         id="stop3292"
         style="stop-color:#e64b36;stop-opacity:1"
         offset="0" />
      <stop
         id="stop3294"
         style="stop-color:#a31414;stop-opacity:1"
         offset="1" />
    </linearGradient>
    <radialGradient
       cx="36"
       cy="2"
       r="4"
       fx="36"
       fy="2"
       id="radialGradient3038"
       xlink:href="#StandardGradient"
       gradientUnits="userSpaceOnUse" />
    <radialGradient
       cx="12"
       cy="12.995525"
       r="7.9687824"
       fx="12"
       fy="12.995525"
       id="radialGradient4035"
       xlink:href="#StandardGradient"
       gradientUnits="userSpaceOnUse"
       gradientTransform="matrix(2.007835,0,0,1.1294072,-12.09402,28.32276)" />
    <clipPath
       id="clipPath4061">
      <path
         d="m 10.875,18.964577 a 0.98082259,0.98082259 0 0 1 -0.09375,-0.03125 0.98082259,0.98082259 0 0 1 -0.46875,-0.28125 l -7,-7 a 0.98082259,0.98082259 0 0 1 0,-1.375 l 7,-6.9999998 a 0.98082259,0.98082259 0 0 1 1.375,0 l 7,6.9999998 a 0.98082259,0.98082259 0 0 1 0,1.375 l -7,7 a 0.98082259,0.98082259 0 0 1 -0.8125,0.3125 z m 0.125,-3 3,-3 -2,0 0,-3.9999998 2,0 -3,-3 -3,3 2,0 0,3.9999998 -2,0 3,3 z"
         inkscape:connector-curvature="0"
         id="path4063"
         style="fill:#ff00ff;fill-opacity:1;stroke:none;display:inline" />
    </clipPath>
    <filter
       color-interpolation-filters="sRGB"
       id="filter4065">
      <feGaussianBlur
         id="feGaussianBlur4067"
         stdDeviation="0.39888189" />
    </filter>
    <clipPath
       id="clipPath4073">
      <path
         d="m -30,0 0,22 22,0 0,-22 -22,0 z m 10.8125,3 a 0.98082259,0.98082259 0 0 1 0.875,0.28125 l 7,7 a 0.98082259,0.98082259 0 0 1 0,1.375 l -7,7 a 0.98082259,0.98082259 0 0 1 -0.8125,0.3125 0.98082259,0.98082259 0 0 1 -0.09375,-0.03125 0.98082259,0.98082259 0 0 1 -0.46875,-0.28125 l -7,-7 a 0.98082259,0.98082259 0 0 1 0,-1.375 l 7,-7 A 0.98082259,0.98082259 0 0 1 -19.1875,3 z M -19,5.96875 l -3,3 2,0 0,4 -2,0 3,3 3,-3 -2,0 0,-4 2,0 -3,-3 z"
         inkscape:connector-curvature="0"
         id="path4075"
         style="opacity:0.5;color:#000000;fill:#ff00ff;fill-opacity:1;fill-rule:nonzero;stroke:none;stroke-width:2;marker:none;visibility:visible;display:inline;overflow:visible;enable-background:accumulate" />
    </clipPath>
    <filter
       color-interpolation-filters="sRGB"
       id="filter4077">
      <feGaussianBlur
         id="feGaussianBlur4079"
         stdDeviation="0.55843465" />
    </filter>
    <clipPath
       id="clipPath4085">
      <path
         d="m -30,0 0,22 22,0 0,-22 -22,0 z m 10.8125,3 a 0.98082259,0.98082259 0 0 1 0.875,0.28125 l 7,7 a 0.98082259,0.98082259 0 0 1 0,1.375 l -7,7 a 0.98082259,0.98082259 0 0 1 -0.8125,0.3125 0.98082259,0.98082259 0 0 1 -0.09375,-0.03125 0.98082259,0.98082259 0 0 1 -0.46875,-0.28125 l -7,-7 a 0.98082259,0.98082259 0 0 1 0,-1.375 l 7,-7 A 0.98082259,0.98082259 0 0 1 -19.1875,3 z M -19,5.96875 l -3,3 2,0 0,4 -2,0 3,3 3,-3 -2,0 0,-4 2,0 -3,-3 z"
         inkscape:connector-curvature="0"
         id="path4087"
         style="opacity:0.5;color:#000000;fill:#ff00ff;fill-opacity:1;fill-rule:nonzero;stroke:none;stroke-width:2;marker:none;visibility:visible;display:inline;overflow:visible;enable-background:accumulate" />
    </clipPath>
    <filter
       color-interpolation-filters="sRGB"
       id="filter3958">
      <feGaussianBlur
         id="feGaussianBlur3960"
         stdDeviation="0.39888189" />
    </filter>
    <radialGradient
       cx="12"
       cy="12.995525"
       r="7.9687824"
       fx="12"
       fy="12.995525"
       id="radialGradient3028"
       xlink:href="#StandardGradient"
       gradientUnits="userSpaceOnUse"
       gradientTransform="matrix(2.007835,0,0,1.1294072,-12.09402,-1.67724)" />
  </defs>
  <metadata
     id="metadata7">
    <rdf:RDF>
      <cc:Work
         rdf:about="">
        <dc:format>image/svg+xml</dc:format>
        <dc:type
           rdf:resource="http://purl.org/dc/dcmitype/StillImage" />
        <dc:title />
      </cc:Work>
    </rdf:RDF>
  </metadata>
  <g
     id="layer1"
     style="display:inline">
    <path
       d="m 10.875,2 c -1.1e-4,6e-6 -0.124891,0.031237 -0.125,0.03125 -1.09e-4,1.27e-5 -0.09364,-1.93e-5 -0.09375,0 a 0.97550484,0.97550484 0 0 0 -0.0625,0.03125 l -0.125,0.03125 c -1.28e-4,3.83e-5 -0.156125,0.031202 -0.15625,0.03125 -1.25e-4,4.77e-5 -0.124879,0.062443 -0.125,0.0625 L 10.0625,2.25 c -1.17e-4,6.57e-5 -0.1248885,0.093676 -0.125,0.09375 -1.115e-4,7.41e-5 -0.1248943,0.062418 -0.125,0.0625 -1.057e-4,8.22e-5 -0.093651,0.09366 -0.09375,0.09375 -8.35e-5,7.54e-5 -0.070262,0.070875 -0.09375,0.09375 -0.00447,0.00436 -0.031235,-1.55e-5 -0.03125,0 l -6.96875,7 C 2.6248772,9.593875 2.5001101,9.7498637 2.5,9.75 2.4998899,9.7501363 2.3750964,9.9061036 2.375,9.90625 L 2.28125,10.0625 c -8.18e-5,1.55e-4 -0.093684,0.156088 -0.09375,0.15625 -6.64e-5,1.62e-4 -0.06245,0.187332 -0.0625,0.1875 -5.03e-5,1.68e-4 -0.031216,0.187328 -0.03125,0.1875 -3.38e-5,1.72e-4 -0.031233,0.187326 -0.03125,0.1875 -1.7e-5,1.74e-4 0,0.187325 0,0.1875 0,1.75e-4 -1.7e-5,0.187326 0,0.1875 1.7e-5,1.74e-4 0.031216,0.187328 0.03125,0.1875 3.38e-5,1.72e-4 0.0312,0.187332 0.03125,0.1875 5.03e-5,1.68e-4 0.062434,0.187338 0.0625,0.1875 6.64e-5,1.62e-4 0.093668,0.156095 0.09375,0.15625 L 2.375,12.03125 c 9.64e-5,1.46e-4 0.1248899,0.156114 0.125,0.15625 1.101e-4,1.36e-4 0.1248772,0.156125 0.125,0.15625 L 9.59375,19.3125 9.625,19.34375 c 0.028848,0.02897 0.062438,0.06244 0.0625,0.0625 9.31e-5,8.7e-5 0.124901,0.09367 0.125,0.09375 9.9e-5,8e-5 0.093646,0.09368 0.09375,0.09375 1.044e-4,7.3e-5 0.124891,0.06243 0.125,0.0625 1.09e-4,6.6e-5 0.124886,0.06244 0.125,0.0625 l 0.125,0.0625 c 1.17e-4,5e-5 0.124879,0.06246 0.125,0.0625 2.8e-5,10e-6 0.02006,-0.0034 0.03125,0 0.03637,0.01099 0.09366,0.03122 0.09375,0.03125 l 0.09375,0.03125 a 0.97550484,0.97550484 0 0 0 0.15625,0.03125 l 0.125,0 0.09375,0 0.125,0 c 1.03e-4,-8e-6 0.09365,1.4e-5 0.09375,0 1.03e-4,-1.4e-5 0.124898,-0.03123 0.125,-0.03125 l 0.125,-0.03125 0.09375,-0.03125 0.09375,-0.03125 c 9.7e-5,-3.7e-5 0.124905,-0.03121 0.125,-0.03125 9.5e-5,-4.3e-5 0.09366,-0.06245 0.09375,-0.0625 9.2e-5,-4.8e-5 0.09366,-0.06245 0.09375,-0.0625 8.9e-5,-5.3e-5 0.09366,-0.03119 0.09375,-0.03125 8.6e-5,-5.8e-5 0.09367,-0.09369 0.09375,-0.09375 8.2e-5,-6.3e-5 0.09367,-0.06243 0.09375,-0.0625 l 0.0625,-0.0625 c 5e-5,-4.8e-5 0.03927,-0.03866 0.0625,-0.0625 0.01162,-0.01192 0.03123,-0.03122 0.03125,-0.03125 L 19.375,12.34375 c 1.23e-4,-1.25e-4 0.12489,-0.156114 0.125,-0.15625 1.1e-4,-1.36e-4 0.124904,-0.156104 0.125,-0.15625 L 19.71875,11.875 c 8.2e-5,-1.55e-4 0.09368,-0.156088 0.09375,-0.15625 6.6e-5,-1.62e-4 0.06245,-0.187332 0.0625,-0.1875 5e-5,-1.68e-4 0.03122,-0.187328 0.03125,-0.1875 3.4e-5,-1.72e-4 0.03123,-0.187326 0.03125,-0.1875 1.7e-5,-1.74e-4 0,-0.187325 0,-0.1875 0,-1.75e-4 1.7e-5,-0.187326 0,-0.1875 -1.7e-5,-1.74e-4 -0.03122,-0.187328 -0.03125,-0.1875 -3.4e-5,-1.72e-4 -0.0312,-0.187332 -0.03125,-0.1875 -5e-5,-1.68e-4 -0.06243,-0.187338 -0.0625,-0.1875 -6.6e-5,-1.62e-4 -0.09367,-0.156095 -0.09375,-0.15625 L 19.625,9.90625 C 19.624904,9.9061036 19.50011,9.7501363 19.5,9.75 19.49989,9.7498637 19.375123,9.593875 19.375,9.59375 l -7,-7 -0.0625,-0.0625 c -8.1e-5,-7.4e-5 -0.09366,-0.093681 -0.09375,-0.09375 L 12.125,2.375 c -9e-5,-6.35e-5 -0.124906,-0.062442 -0.125,-0.0625 -9.4e-5,-5.8e-5 -0.09365,-0.062448 -0.09375,-0.0625 -9.7e-5,-5.22e-5 -0.09365,-0.062454 -0.09375,-0.0625 -10e-5,-4.62e-5 -0.124897,-0.03121 -0.125,-0.03125 -1.03e-4,-4e-5 -0.09365,-0.062466 -0.09375,-0.0625 l -0.125,-0.03125 -0.125,-0.03125 c -1.08e-4,-2.07e-5 -0.09364,1.41e-5 -0.09375,0 C 11.249891,2.0312359 11.12511,2.0000074 11.125,2 L 11,2 10.875,2 z m -0.0625,1 a 0.98082259,0.98082259 0 0 1 0.875,0.28125 l 7,7 a 0.98082259,0.98082259 0 0 1 0,1.375 l -7,7 A 0.98082259,0.98082259 0 0 1 10.875,18.96875 0.98082259,0.98082259 0 0 1 10.78125,18.9375 0.98082259,0.98082259 0 0 1 10.3125,18.65625 l -7,-7 a 0.98082259,0.98082259 0 0 1 0,-1.375 l 7,-7 A 0.98082259,0.98082259 0 0 1 10.8125,3 z M 11,5.96875 l -3,3 2,0 0,4 -2,0 3,3 3,-3 -2,0 0,-4 2,0 -3,-3 z m 0,1.375 0.6875,0.6875 a 0.97550484,0.97550484 0 0 0 -0.65625,0.9375 l 0,4 A 0.97550484,0.97550484 0 0 0 11.6875,13.875 L 11,14.59375 10.3125,13.90625 a 0.97550484,0.97550484 0 0 0 0.65625,-0.9375 l 0,-4 A 0.97550484,0.97550484 0 0 0 10.3125,8.0625 L 11,7.34375 z"
       inkscape:connector-curvature="0"
       id="path3815"
       style="opacity:0.05;fill:#ffffff;fill-opacity:1;stroke:none;display:inline" />
    <path
       d="m -19.125,19.495795 a 0.98082259,0.98082259 0 0 1 -0.09375,-0.03125 0.98082259,0.98082259 0 0 1 -0.46875,-0.28125 l -7,-7 a 0.98082259,0.98082259 0 0 1 0,-1.375 l 7,-6.9999999 a 0.98082259,0.98082259 0 0 1 1.375,0 l 7,6.9999999 a 0.98082259,0.98082259 0 0 1 0,1.375 l -7,7 a 0.98082259,0.98082259 0 0 1 -0.8125,0.3125 z m 0.125,-3 3,-3 -2,0 0,-3.9999999 2,0 -3,-3 -3,3 2,0 0,3.9999999 -2,0 3,3 z"
       inkscape:connector-curvature="0"
       transform="translate(30,30)"
       clip-path="url(#clipPath4085)"
       id="path4081"
       style="opacity:0.4;fill:#ffffff;fill-opacity:1;stroke:none;display:inline;filter:url(#filter3958)" />
    <path
       d="m -19.125,18.964577 a 0.98082259,0.98082259 0 0 1 -0.09375,-0.03125 0.98082259,0.98082259 0 0 1 -0.46875,-0.28125 l -7,-7 a 0.98082259,0.98082259 0 0 1 0,-1.375 l 7,-7 a 0.98082259,0.98082259 0 0 1 1.375,0 l 7,7 a 0.98082259,0.98082259 0 0 1 0,1.375 l -7,7 a 0.98082259,0.98082259 0 0 1 -0.8125,0.3125 z m 0.125,-3 3,-3 -2,0 0,-4 2,0 -3,-3 -3,3 2,0 0,4 -2,0 3,3 z"
       inkscape:connector-curvature="0"
       transform="translate(30,30)"
       clip-path="url(#clipPath4073)"
       id="path4069"
       style="opacity:0.2;fill:none;stroke:#ffffff;display:inline;filter:url(#filter4077)" />
    <rect
       width="22"
       height="22"
       x="-30"
       y="0"
       id="rect3047"
       style="opacity:0.5;color:#000000;fill:#ff00ff;fill-opacity:1;fill-rule:nonzero;stroke:none;stroke-width:2;marker:none;visibility:visible;display:inline;overflow:visible;enable-background:accumulate" />
    <rect
       width="8"
       height="8"
       x="32"
       y="-2"
       id="rect3841"
       style="color:#000000;fill:url(#radialGradient3038);fill-opacity:1;fill-rule:nonzero;stroke:none;stroke-width:2;marker:none;visibility:visible;display:inline;overflow:visible;enable-background:accumulate" />
    <rect
       width="8"
       height="8"
       x="32"
       y="8"
       id="rect3853"
       style="color:#000000;fill:url(#radialGradient3855);fill-opacity:1;fill-rule:nonzero;stroke:none;stroke-width:2;marker:none;visibility:visible;display:inline;overflow:visible;enable-background:accumulate" />
    <text
       x="34"
       y="19"
       id="text3977"
       xml:space="preserve"
       style="font-size:1px;font-style:normal;font-variant:normal;font-weight:normal;font-stretch:normal;text-align:start;line-height:125%;letter-spacing:0px;word-spacing:0px;writing-mode:lr-tb;text-anchor:start;fill:#000000;fill-opacity:1;stroke:none;font-family:Trebuchet MS;-inkscape-font-specification:Trebuchet MS"><tspan
         x="34"
         y="19"
         id="tspan3979">-0.875px /blur 5 / opacity 40</tspan></text>
    <rect
       width="1"
       height="1"
       x="32"
       y="18"
       id="rect3981"
       style="color:#000000;fill:#000000;fill-opacity:1;fill-rule:nonzero;stroke:none;stroke-width:2;marker:none;visibility:visible;display:inline;overflow:visible;enable-background:accumulate" />
    <text
       x="34"
       y="21"
       id="text3983"
       xml:space="preserve"
       style="font-size:1px;font-style:normal;font-variant:normal;font-weight:normal;font-stretch:normal;text-align:start;line-height:125%;letter-spacing:0px;word-spacing:0px;writing-mode:lr-tb;text-anchor:start;fill:#000000;fill-opacity:1;stroke:none;font-family:Trebuchet MS;-inkscape-font-specification:Trebuchet MS"><tspan
         x="34"
         y="21"
         id="tspan3985">0px /blur 7 / opacity 20</tspan></text>
    <rect
       width="1"
       height="1"
       x="32"
       y="20"
       id="rect3987"
       style="color:#000000;fill:#ffffff;fill-opacity:1;fill-rule:nonzero;stroke:none;stroke-width:2;marker:none;visibility:visible;display:inline;overflow:visible;enable-background:accumulate" />
    <text
       x="34"
       y="23"
       id="text3989"
       xml:space="preserve"
       style="font-size:1px;font-style:normal;font-variant:normal;font-weight:normal;font-stretch:normal;text-align:start;line-height:125%;letter-spacing:0px;word-spacing:0px;writing-mode:lr-tb;text-anchor:start;fill:#000000;fill-opacity:1;stroke:none;font-family:Trebuchet MS;-inkscape-font-specification:Trebuchet MS"><tspan
         x="34"
         y="23"
         id="tspan3995">-0.5px /blur 5 / opacity 40</tspan></text>
    <rect
       width="1"
       height="1"
       x="32"
       y="22"
       id="rect3993"
       style="color:#000000;fill:#ffffff;fill-opacity:1;fill-rule:nonzero;stroke:none;stroke-width:2;marker:none;visibility:visible;display:inline;overflow:visible;enable-background:accumulate" />
    <path
       d="m 10.875,48.964577 a 0.98082259,0.98082259 0 0 1 -0.09375,-0.03125 0.98082259,0.98082259 0 0 1 -0.46875,-0.28125 l -7,-7 a 0.98082259,0.98082259 0 0 1 0,-1.375 l 7,-7 a 0.98082259,0.98082259 0 0 1 1.375,0 l 7,7 a 0.98082259,0.98082259 0 0 1 0,1.375 l -7,7 a 0.98082259,0.98082259 0 0 1 -0.8125,0.3125 z m 0.125,-3 3,-3 -2,0 0,-4 2,0 -3,-3 -3,3 2,0 0,4 -2,0 3,3 z"
       inkscape:connector-curvature="0"
       id="path3675"
       style="fill:url(#radialGradient4035);fill-opacity:1;stroke:none;display:inline" />
    <path
       d="m 10.875,19.495795 a 0.98082259,0.98082259 0 0 1 -0.09375,-0.03125 0.98082259,0.98082259 0 0 1 -0.46875,-0.28125 l -7,-7 a 0.98082259,0.98082259 0 0 1 0,-1.375 l 7,-6.9999996 a 0.98082259,0.98082259 0 0 1 1.375,0 l 7,6.9999996 a 0.98082259,0.98082259 0 0 1 0,1.375 l -7,7 a 0.98082259,0.98082259 0 0 1 -0.8125,0.3125 z m 0.125,-3 3,-3 -2,0 0,-3.9999996 2,0 -3,-3 -3,3 2,0 0,3.9999996 -2,0 3,3 z"
       inkscape:connector-curvature="0"
       transform="translate(0,30)"
       clip-path="url(#clipPath4061)"
       id="path4055"
       style="opacity:0.4;fill:none;stroke:#000000;display:inline;filter:url(#filter4065)" />
    <path
       d="m 10.875,18.964577 a 0.98082259,0.98082259 0 0 1 -0.09375,-0.03125 0.98082259,0.98082259 0 0 1 -0.46875,-0.28125 l -7,-7 a 0.98082259,0.98082259 0 0 1 0,-1.375 l 7,-7 a 0.98082259,0.98082259 0 0 1 1.375,0 l 7,7 a 0.98082259,0.98082259 0 0 1 0,1.375 l -7,7 a 0.98082259,0.98082259 0 0 1 -0.8125,0.3125 z m 0.125,-3 3,-3 -2,0 0,-4 2,0 -3,-3 -3,3 2,0 0,4 -2,0 3,3 z"
       inkscape:connector-curvature="0"
       id="path3026"
       style="fill:url(#radialGradient3028);fill-opacity:1;stroke:none;display:inline" />
    <path
       d="m 11,5.96875 -3,3 1,0 2,-2 2,2 1,0 -3,-3 z m -7.84375,5.5 a 0.98082259,0.98082259 0 0 0 0.15625,1.1875 l 7,7 a 0.98082259,0.98082259 0 0 0 0.46875,0.28125 0.98082259,0.98082259 0 0 0 0.09375,0.03125 0.98082259,0.98082259 0 0 0 0.8125,-0.3125 l 7,-7 a 0.98082259,0.98082259 0 0 0 0.15625,-1.1875 0.98082259,0.98082259 0 0 1 -0.15625,0.1875 l -7,7 A 0.98082259,0.98082259 0 0 1 10.875,18.96875 0.98082259,0.98082259 0 0 1 10.78125,18.9375 0.98082259,0.98082259 0 0 1 10.3125,18.65625 l -7,-7 a 0.98082259,0.98082259 0 0 1 -0.15625,-0.1875 z m 4.84375,1.5 1,1 1,0 0,-1 -2,0 z m 4,0 0,1 1,0 1,-1 -2,0 z"
       inkscape:connector-curvature="0"
       id="path3030"
       style="opacity:0.2;fill:#ffffff;fill-opacity:1;stroke:none;display:inline" />
    <path
       d="m 10.8125,3 a 0.98082259,0.98082259 0 0 0 -0.5,0.28125 l -7,7 a 0.98082259,0.98082259 0 0 0 0,1.375 l 7,7 a 0.98082259,0.98082259 0 0 0 0.46875,0.28125 0.98082259,0.98082259 0 0 0 0.09375,0.03125 0.98082259,0.98082259 0 0 0 0.8125,-0.3125 l 7,-7 a 0.98082259,0.98082259 0 0 0 0,-1.375 l -7,-7 A 0.98082259,0.98082259 0 0 0 10.8125,3 z m 0.15625,0.53125 c 0.03128,-0.00171 -7.2e-5,-1.952e-4 0.03125,0 0.03125,0.0021 1.84e-4,0.027247 0.03125,0.03125 0.03107,0.004 4.85e-4,-0.00589 0.03125,0 0.03077,0.00589 9.01e-4,-0.00775 0.03125,0 0.03035,0.00775 0.0014,-0.00959 0.03125,0 0.02918,0.011384 0.0028,0.01811 0.03125,0.03125 0.02843,0.01314 0.0037,-0.014848 0.03125,0 0.02758,0.014848 0.0046,-0.0165 0.03125,0 0.02662,0.0165 -0.02557,0.013158 0,0.03125 0.02557,0.018092 0.0068,-0.019616 0.03125,0 0.02442,0.019616 0.0081,0.010183 0.03125,0.03125 0.02318,0.021067 -0.02185,0.00881 0,0.03125 l 7,7 0.03125,0 c 0.0166,0.01862 -0.01568,0.01185 0,0.03125 0.01472,0.02014 0.01753,0.01042 0.03125,0.03125 0.0127,0.02147 0.01961,0.0092 0.03125,0.03125 0.01056,0.0226 -0.0094,0.0082 0,0.03125 0.0094,0.02309 -0.0083,0.0077 0,0.03125 0.0072,0.0239 0.02525,0.007 0.03125,0.03125 0.0048,0.02448 -0.0036,0.0066 0,0.03125 0.0036,0.02468 -0.0024,0.0064 0,0.03125 0.0012,0.02492 0,0.0063 0,0.03125 0,0.02495 0.0012,0.0063 0,0.03125 -0.0024,0.02483 0.0036,0.0066 0,0.03125 -0.0036,0.02468 0.0048,0.0068 0,0.03125 -0.006,0.02421 -0.02409,0.0074 -0.03125,0.03125 -0.0083,0.02352 0.0094,0.0082 0,0.03125 -0.0094,0.02309 0.01056,0.0086 0,0.03125 -0.01164,0.02206 -0.01855,0.0098 -0.03125,0.03125 -0.01372,0.02083 -0.01653,0.01111 -0.03125,0.03125 -0.01568,0.0194 0.0166,0.01263 0,0.03125 l -0.03125,0 -7,7 a 0.56088614,0.56088614 0 0 0 0,0.03125 c -0.02,0.02173 -0.01004,-0.02055 -0.03125,0 -0.02121,0.02055 0.02236,0.01195 0,0.03125 -0.02236,0.0193 -0.0078,-0.01798 -0.03125,0 -0.02343,0.01798 -0.0068,0.01464 -0.03125,0.03125 -0.02534,0.01517 -0.0051,0.01756 -0.03125,0.03125 -0.02617,0.01369 -0.0043,-0.01217 -0.03125,0 -0.02757,0.0106 -0.0031,0.02225 -0.03125,0.03125 -0.02813,0.009 -0.0026,-0.0074 -0.03125,0 -0.02898,0.0057 -0.002,-0.004 -0.03125,0 -0.02926,0.004 -0.0018,-0.0024 -0.03125,0 -0.02944,0.0024 -0.0017,-6.59e-4 -0.03125,0 a 0.56088614,0.56088614 0 0 0 -0.03125,0 c -0.03508,-0.0093 0.0031,-0.01954 -0.03125,-0.03125 -0.03434,-0.01171 0.0022,0.0141 -0.03125,0 -0.03343,-0.0141 0.0011,0.01643 -0.03125,0 -0.03235,-0.01643 -1.39e-4,-0.01258 -0.03125,-0.03125 -0.03111,-0.01867 -0.0015,0.02081 -0.03125,0 -0.02972,-0.02081 0.02817,-0.0084 0,-0.03125 -0.02817,-0.02286 -0.0048,-0.0065 -0.03125,-0.03125 -0.02649,-0.02479 -0.0066,0.0266 -0.03125,0 a 0.56088614,0.56088614 0 0 0 0,-0.03125 l -7,-7 c -0.017486,-0.01779 -0.014648,0.01862 -0.03125,0 -0.016602,-0.01862 0.015679,-0.01185 0,-0.03125 -0.014719,-0.02014 -0.017526,-0.01042 -0.03125,-0.03125 -0.012697,-0.02147 -0.01961,-0.0092 -0.03125,-0.03125 -0.010556,-0.0226 0.00945,-0.0082 0,-0.03125 -0.00945,-0.02309 0.00831,-0.0077 0,-0.03125 -0.00716,-0.0239 -0.025254,-0.007 -0.03125,-0.03125 -0.00481,-0.02448 0.00362,-0.0066 0,-0.03125 -0.00362,-0.02468 0.00242,-0.0064 0,-0.03125 -0.00121,-0.02492 0,-0.0063 0,-0.03125 0,-0.02495 -0.00121,-0.0063 0,-0.03125 0.00242,-0.02483 -0.00362,-0.0066 0,-0.03125 0.00362,-0.02468 -0.00481,-0.0068 0,-0.03125 0.006,-0.02421 0.024086,-0.0074 0.03125,-0.03125 0.00831,-0.02352 -0.00945,-0.0082 0,-0.03125 0.00945,-0.02309 -0.010556,-0.0086 0,-0.03125 0.01164,-0.02206 0.018553,-0.0098 0.03125,-0.03125 0.013724,-0.02083 0.016531,-0.01111 0.03125,-0.03125 0.015679,-0.0194 -0.016602,-0.01263 0,-0.03125 l 0.03125,0 7,-7 a 0.56088614,0.56088614 0 0 0 0,-0.03125 c 0.02631,-0.027594 0.003,0.025568 0.03125,0 0.02829,-0.025568 -0.0301,-0.00785 0,-0.03125 0.0301,-0.0234 -5.04e-4,-0.010145 0.03125,-0.03125 0.03175,-0.021105 -0.002,0.018693 0.03125,0 0.03323,-0.018693 -0.0033,-0.015072 0.03125,-0.03125 0.03453,-0.016178 -0.0044,0.013574 0.03125,0 0.03563,-0.013574 -0.0053,0.010896 0.03125,0 0.03084,-0.0055 1.36e-4,0.00362 0.03125,0 0.03111,-0.00362 -2.6e-5,-0.029537 0.03125,-0.03125 z M 10.875,5.40625 A 0.56088614,0.56088614 0 0 0 10.59375,5.5625 l -3,3 A 0.56088614,0.56088614 0 0 0 8,9.53125 l 1.4375,0 0,2.875 -1.4375,0 A 0.56088614,0.56088614 0 0 0 7.59375,13.375 l 3,3 a 0.56088614,0.56088614 0 0 0 0.8125,0 l 3,-3 A 0.56088614,0.56088614 0 0 0 14,12.40625 l -1.4375,0 0,-2.875 1.4375,0 A 0.56088614,0.56088614 0 0 0 14.40625,8.5625 l -3,-3 a 0.56088614,0.56088614 0 0 0 -0.5,-0.15625 0.56088614,0.56088614 0 0 0 -0.03125,0 z m 0.125,0.5625 3,3 -2,0 0,4 2,0 -3,3 -3,-3 2,0 0,-4 -2,0 3,-3 z"
       inkscape:connector-curvature="0"
       id="path3820"
       style="opacity:0.3;fill:#000000;fill-opacity:1;stroke:none;display:inline" />
    <path
       d="m 10.8125,3 a 0.98082259,0.98082259 0 0 0 -0.5,0.28125 l -7,7 a 0.98082259,0.98082259 0 0 0 -0.15625,1.1875 0.98082259,0.98082259 0 0 1 0.15625,-0.1875 l 7,-7 a 0.98082259,0.98082259 0 0 1 1.375,0 l 7,7 a 0.98082259,0.98082259 0 0 1 0.15625,0.1875 0.98082259,0.98082259 0 0 0 -0.15625,-1.1875 l -7,-7 A 0.98082259,0.98082259 0 0 0 10.8125,3 z M 9,8.96875 l -1,1 2,0 0,-1 -1,0 z m 3,0 0,1 2,0 -1,-1 -1,0 z m -4,5 3,3 3,-3 -1,0 -2,2 -2,-2 -1,0 z"
       inkscape:connector-curvature="0"
       id="path3833"
       style="opacity:0.3;fill:#000000;fill-opacity:1;stroke:none;display:inline" />
  </g>
</svg>
