<?xml version="1.0" encoding="UTF-8" standalone="no"?>
<!-- Created with Inkscape (http://www.inkscape.org/) -->

<svg
   xmlns:dc="http://purl.org/dc/elements/1.1/"
   xmlns:cc="http://creativecommons.org/ns#"
   xmlns:rdf="http://www.w3.org/1999/02/22-rdf-syntax-ns#"
   xmlns:svg="http://www.w3.org/2000/svg"
   xmlns="http://www.w3.org/2000/svg"
   xmlns:inkscape="http://www.inkscape.org/namespaces/inkscape"
   version="1.0"
   width="22"
   height="22"
   id="svg2">
  <defs
     id="defs4" />
  <metadata
     id="metadata7">
    <rdf:RDF>
      <cc:Work
         rdf:about="">
        <dc:format>image/svg+xml</dc:format>
        <dc:type
           rdf:resource="http://purl.org/dc/dcmitype/StillImage" />
        <dc:title />
      </cc:Work>
    </rdf:RDF>
  </metadata>
  <g
     transform="translate(0,6)"
     id="layer1">
    <path
       d="m 6,18 a 3,3 0 1 1 -6,0 3,3 0 1 1 6,0 z"
       transform="translate(30,4)"
       id="path3115"
       style="color:#000000;fill:#ff0000;fill-opacity:1;fill-rule:nonzero;stroke:none;stroke-width:1;marker:none;visibility:visible;display:inline;overflow:visible;enable-background:accumulate" />
    <path
       d="m 10,16 a 4,4 0 1 1 -8,0 4,4 0 1 1 8,0 z"
       transform="translate(31,3)"
       id="path3117"
       style="color:#000000;fill:#ff0000;fill-opacity:1;fill-rule:nonzero;stroke:none;stroke-width:1;marker:none;visibility:visible;display:inline;overflow:visible;enable-background:accumulate" />
    <path
       d="m 12,16 a 2,2 0 1 1 -4,0 2,2 0 1 1 4,0 z"
       transform="translate(32,3)"
       id="path3119"
       style="color:#000000;fill:#ff0000;fill-opacity:1;fill-rule:nonzero;stroke:none;stroke-width:1;marker:none;visibility:visible;display:inline;overflow:visible;enable-background:accumulate" />
    <path
       d="m 6,18 a 3,3 0 1 1 -6,0 3,3 0 1 1 6,0 z"
       transform="translate(41,4)"
       id="path3121"
       style="color:#000000;fill:#ff0000;fill-opacity:1;fill-rule:nonzero;stroke:none;stroke-width:1;marker:none;visibility:visible;display:inline;overflow:visible;enable-background:accumulate" />
    <rect
       width="11"
       height="5"
       x="33"
       y="20"
       id="rect3123"
       style="color:#000000;fill:#ff0000;fill-opacity:1;fill-rule:nonzero;stroke:none;stroke-width:1;marker:none;visibility:visible;display:inline;overflow:visible;enable-background:accumulate" />
    <path
       d="M 13,13 10.162632,11.679169 9.330127,14.696153 7.5333097,12.133596 5.3038475,14.330127 5.0290365,11.212479 1.9999999,12 3.3208307,9.1626321 0.30384745,8.330127 2.8664044,6.5333097 0.66987286,4.3038475 3.787521,4.0290365 2.9999999,0.9999999 5.8373679,2.3208307 6.669873,-0.69615255 8.4666903,1.8664044 10.696152,-0.33012714 10.970963,2.787521 14,1.9999999 l -1.320831,2.837368 3.016984,0.8325051 -2.562557,1.7968173 2.196531,2.2294622 -3.117648,0.274811 z"
       transform="matrix(1.1666667,0,0,1.1666667,-28.333334,-3.1666662)"
       id="path3913"
       style="opacity:0.3;color:#000000;fill:#000000;fill-opacity:1;fill-rule:nonzero;stroke:none;stroke-width:1;marker:none;visibility:visible;display:inline;overflow:visible;enable-background:accumulate" />
    <path
       d="m 9.4375,26.03125 -0.96875,3.5 L 5.15625,28 6.09375,31.53125 2.4375,31.84375 5,34.46875 2.03125,36.5625 l 3.5,0.96875 L 4,40.84375 l 3.53125,-0.9375 0.3125,3.65625 2.625,-2.5625 2.09375,2.96875 0.96875,-3.5 L 16.84375,42 15.90625,38.46875 19.5625,38.15625 17,35.53125 19.96875,33.4375 16.46875,32.46875 18,29.15625 14.46875,30.09375 14.15625,26.4375 11.53125,29 9.4375,26.03125 z M 11,30 c 2.761424,0 5,2.238576 5,5 0,2.761424 -2.238576,5 -5,5 -2.7614237,0 -5,-2.238576 -5,-5 0,-2.761424 2.2385763,-5 5,-5 z"
       inkscape:connector-curvature="0"
       id="path3920"
       style="opacity:0.3;color:#000000;fill:#000000;fill-opacity:1;fill-rule:nonzero;stroke:none;stroke-width:1;marker:none;visibility:visible;display:inline;overflow:visible;enable-background:accumulate" />
    <path
       d="M 16,11 A 5,5 0 1 1 6,11 5,5 0 1 1 16,11 z"
       transform="matrix(0.8,0,0,0.8,2.2,26.2)"
       id="path3922"
       style="opacity:0.3;color:#000000;fill:#000000;fill-opacity:1;fill-rule:nonzero;stroke:none;stroke-width:1;marker:none;visibility:visible;display:inline;overflow:visible;enable-background:accumulate" />
    <path
       d="m 11,-2 c -3.8659932,0 -7,3.1340068 -7,7 0,3.8659927 3.1340068,7 7,7 3.14112,0 5.80122,-2.0567704 6.6875,-4.9062498 -1.008674,1.173844 -2.518421,1.9062493 -4.187501,1.9062493 C 10.462434,8.9999995 8,6.5375664 8,3.5 8,0.86578287 9.8708499,-1.3054878 12.343751,-1.8437499 11.906769,-1.9291599 11.461986,-2 11,-2 z"
       inkscape:connector-curvature="0"
       id="path2931"
       style="opacity:0.3;color:#000000;fill:#000000;fill-opacity:1;fill-rule:nonzero;stroke:none;stroke-width:1;marker:none;visibility:visible;display:inline;overflow:visible;enable-background:accumulate" />
  </g>
</svg>
