<?xml version="1.0" encoding="UTF-8" standalone="no"?>
<!-- Created with Inkscape (http://www.inkscape.org/) -->

<svg
   xmlns:dc="http://purl.org/dc/elements/1.1/"
   xmlns:cc="http://creativecommons.org/ns#"
   xmlns:rdf="http://www.w3.org/1999/02/22-rdf-syntax-ns#"
   xmlns:svg="http://www.w3.org/2000/svg"
   xmlns="http://www.w3.org/2000/svg"
   xmlns:inkscape="http://www.inkscape.org/namespaces/inkscape"
   version="1.0"
   width="22"
   height="22"
   id="svg2">
  <defs
     id="defs4" />
  <metadata
     id="metadata7">
    <rdf:RDF>
      <cc:Work
         rdf:about="">
        <dc:format>image/svg+xml</dc:format>
        <dc:type
           rdf:resource="http://purl.org/dc/dcmitype/StillImage" />
        <dc:title />
      </cc:Work>
    </rdf:RDF>
  </metadata>
  <g
     transform="translate(0,6)"
     id="layer1">
    <path
       d="m 6,18 a 3,3 0 1 1 -6,0 3,3 0 1 1 6,0 z"
       transform="translate(30,4)"
       id="path3115"
       style="color:#000000;fill:#ff0000;fill-opacity:1;fill-rule:nonzero;stroke:none;stroke-width:1;marker:none;visibility:visible;display:inline;overflow:visible;enable-background:accumulate" />
    <path
       d="m 10,16 a 4,4 0 1 1 -8,0 4,4 0 1 1 8,0 z"
       transform="translate(31,3)"
       id="path3117"
       style="color:#000000;fill:#ff0000;fill-opacity:1;fill-rule:nonzero;stroke:none;stroke-width:1;marker:none;visibility:visible;display:inline;overflow:visible;enable-background:accumulate" />
    <path
       d="m 12,16 a 2,2 0 1 1 -4,0 2,2 0 1 1 4,0 z"
       transform="translate(32,3)"
       id="path3119"
       style="color:#000000;fill:#ff0000;fill-opacity:1;fill-rule:nonzero;stroke:none;stroke-width:1;marker:none;visibility:visible;display:inline;overflow:visible;enable-background:accumulate" />
    <path
       d="m 6,18 a 3,3 0 1 1 -6,0 3,3 0 1 1 6,0 z"
       transform="translate(41,4)"
       id="path3121"
       style="color:#000000;fill:#ff0000;fill-opacity:1;fill-rule:nonzero;stroke:none;stroke-width:1;marker:none;visibility:visible;display:inline;overflow:visible;enable-background:accumulate" />
    <rect
       width="11"
       height="5"
       x="33"
       y="20"
       id="rect3123"
       style="color:#000000;fill:#ff0000;fill-opacity:1;fill-rule:nonzero;stroke:none;stroke-width:1;marker:none;visibility:visible;display:inline;overflow:visible;enable-background:accumulate" />
    <path
       d="M 10,3 C 7.790861,3 6,4.790861 6,7 4.343146,7 3,8.343146 3,10 c 0,1.656854 1.343146,3 3,3 l 2.84375,0 2.34375,-3.53125 a 0.97531486,0.97531486 0 0 1 0.625,-0.4375 0.97531486,0.97531486 0 0 1 1.125,1.21875 L 12.25,13 17,13 c 1.656854,0 3,-1.343146 3,-3 C 20,8.343146 18.656854,7 17,7 17,5.895431 16.104569,5 15,5 14.504848,5 14.068026,5.201946 13.71875,5.5 13.126975,4.030662 11.681155,3 10,3 z m 2,7 -4,6 3,0 -1,4 4,-6 -3,0 1,-4 z"
       inkscape:connector-curvature="0"
       transform="translate(0,-6)"
       id="path3893"
       style="opacity:0.3;color:#000000;fill:#000000;fill-opacity:1;fill-rule:nonzero;stroke:none;stroke-width:1;marker:none;visibility:visible;display:inline;overflow:visible;enable-background:accumulate" />
  </g>
</svg>
