<?xml version="1.0" encoding="UTF-8" standalone="no"?>
<!-- Created with Inkscape (http://www.inkscape.org/) -->

<svg
   xmlns:dc="http://purl.org/dc/elements/1.1/"
   xmlns:cc="http://creativecommons.org/ns#"
   xmlns:rdf="http://www.w3.org/1999/02/22-rdf-syntax-ns#"
   xmlns:svg="http://www.w3.org/2000/svg"
   xmlns="http://www.w3.org/2000/svg"
   xmlns:inkscape="http://www.inkscape.org/namespaces/inkscape"
   version="1.0"
   width="22"
   height="22"
   id="svg2">
  <defs
     id="defs4" />
  <metadata
     id="metadata7">
    <rdf:RDF>
      <cc:Work
         rdf:about="">
        <dc:format>image/svg+xml</dc:format>
        <dc:type
           rdf:resource="http://purl.org/dc/dcmitype/StillImage" />
        <dc:title />
      </cc:Work>
    </rdf:RDF>
  </metadata>
  <g
     transform="translate(0,6)"
     id="layer1">
    <path
       d="m 6,18 a 3,3 0 1 1 -6,0 3,3 0 1 1 6,0 z"
       transform="translate(30,4)"
       id="path3115"
       style="color:#000000;fill:#ff0000;fill-opacity:1;fill-rule:nonzero;stroke:none;stroke-width:1;marker:none;visibility:visible;display:inline;overflow:visible;enable-background:accumulate" />
    <path
       d="m 10,16 a 4,4 0 1 1 -8,0 4,4 0 1 1 8,0 z"
       transform="translate(31,3)"
       id="path3117"
       style="color:#000000;fill:#ff0000;fill-opacity:1;fill-rule:nonzero;stroke:none;stroke-width:1;marker:none;visibility:visible;display:inline;overflow:visible;enable-background:accumulate" />
    <path
       d="m 12,16 a 2,2 0 1 1 -4,0 2,2 0 1 1 4,0 z"
       transform="translate(32,3)"
       id="path3119"
       style="color:#000000;fill:#ff0000;fill-opacity:1;fill-rule:nonzero;stroke:none;stroke-width:1;marker:none;visibility:visible;display:inline;overflow:visible;enable-background:accumulate" />
    <path
       d="m 6,18 a 3,3 0 1 1 -6,0 3,3 0 1 1 6,0 z"
       transform="translate(41,4)"
       id="path3121"
       style="color:#000000;fill:#ff0000;fill-opacity:1;fill-rule:nonzero;stroke:none;stroke-width:1;marker:none;visibility:visible;display:inline;overflow:visible;enable-background:accumulate" />
    <rect
       width="11"
       height="5"
       x="33"
       y="20"
       id="rect3123"
       style="color:#000000;fill:#ff0000;fill-opacity:1;fill-rule:nonzero;stroke:none;stroke-width:1;marker:none;visibility:visible;display:inline;overflow:visible;enable-background:accumulate" />
    <path
       d="M 13,13 10.162632,11.679169 9.330127,14.696153 7.5333097,12.133596 5.3038475,14.330127 5.0290365,11.212479 1.9999999,12 3.3208307,9.1626321 0.30384745,8.330127 2.8664044,6.5333097 0.66987286,4.3038475 3.787521,4.0290365 2.9999999,0.9999999 5.8373679,2.3208307 6.669873,-0.69615255 8.4666903,1.8664044 10.696152,-0.33012714 10.970963,2.787521 14,1.9999999 l -1.320831,2.837368 3.016984,0.8325051 -2.562557,1.7968173 2.196531,2.2294622 -3.117648,0.274811 z"
       transform="matrix(1.1666667,0,0,1.1666667,-28.333334,-3.1666662)"
       id="path3913"
       style="opacity:0.35;color:#000000;fill:#000000;fill-opacity:1;fill-rule:nonzero;stroke:none;stroke-width:1;marker:none;visibility:visible;display:inline;overflow:visible;enable-background:accumulate" />
    <path
       d="m 9.4375,26.03125 -0.96875,3.5 L 5.15625,28 6.09375,31.53125 2.4375,31.84375 5,34.46875 2.03125,36.5625 l 3.5,0.96875 L 4,40.84375 l 3.53125,-0.9375 0.3125,3.65625 2.625,-2.5625 2.09375,2.96875 0.96875,-3.5 L 16.84375,42 15.90625,38.46875 19.5625,38.15625 17,35.53125 19.96875,33.4375 16.46875,32.46875 18,29.15625 14.46875,30.09375 14.15625,26.4375 11.53125,29 9.4375,26.03125 z M 11,30 c 2.761424,0 5,2.238576 5,5 0,2.761424 -2.238576,5 -5,5 -2.7614237,0 -5,-2.238576 -5,-5 0,-2.761424 2.2385763,-5 5,-5 z"
       inkscape:connector-curvature="0"
       id="path3920"
       style="opacity:0.35;color:#000000;fill:#000000;fill-opacity:1;fill-rule:nonzero;stroke:none;stroke-width:1;marker:none;visibility:visible;display:inline;overflow:visible;enable-background:accumulate" />
    <path
       d="M 16,11 A 5,5 0 1 1 6,11 5,5 0 1 1 16,11 z"
       transform="matrix(0.8,0,0,0.8,2.2,26.2)"
       id="path3922"
       style="opacity:0.35;color:#000000;fill:#000000;fill-opacity:1;fill-rule:nonzero;stroke:none;stroke-width:1;marker:none;visibility:visible;display:inline;overflow:visible;enable-background:accumulate" />
    <path
       d="m 39.4375,-3.96875 -0.96875,3.5 L 35.15625,-2 36.09375,1.53125 32.4375,1.84375 35,4.46875 32.03125,6.5625 l 3.5,0.96875 -1.53125,3.3125 3.53125,-0.9375 0.3125,3.65625 2.625,-2.5625 2.09375,2.96875 0.96875,-3.5 L 46.84375,12 45.90625,8.46875 49.5625,8.15625 47,5.53125 49.96875,3.4375 46.46875,2.46875 48,-0.84375 44.46875,0.09375 44.15625,-3.5625 41.53125,-1 39.4375,-3.96875 z M 41,-1 c 3.313708,0 6,2.6862915 6,6 0,3.313708 -2.686292,6 -6,6 -3.313709,0 -6,-2.686292 -6,-6 0,-3.3137085 2.686291,-6 6,-6 z m 0,1 c -2.761424,0 -5,2.2385763 -5,5 0,2.761424 2.238576,5 5,5 2.761424,0 5,-2.238576 5,-5 0,-2.7614237 -2.238576,-5 -5,-5 z"
       inkscape:connector-curvature="0"
       id="path3947"
       style="opacity:0.35;color:#000000;fill:#000000;fill-opacity:1;fill-rule:nonzero;stroke:none;stroke-width:1;marker:none;visibility:visible;display:inline;overflow:visible;enable-background:accumulate" />
    <path
       d="m 6,18 a 3,3 0 1 1 -6,0 3,3 0 1 1 6,0 z"
       transform="matrix(0.66666667,0,0,0.66666667,-10,11)"
       id="path3987"
       style="opacity:0.40485828;color:#000000;fill:#ff0000;fill-opacity:1;fill-rule:nonzero;stroke:none;stroke-width:1;marker:none;visibility:visible;display:inline;overflow:visible;enable-background:accumulate" />
    <path
       d="m 10,16 a 4,4 0 1 1 -8,0 4,4 0 1 1 8,0 z"
       transform="matrix(0.75,0,0,0.75,-9.5,9)"
       id="path3989"
       style="opacity:0.40485828;color:#000000;fill:#ff0000;fill-opacity:1;fill-rule:nonzero;stroke:none;stroke-width:1;marker:none;visibility:visible;display:inline;overflow:visible;enable-background:accumulate" />
    <path
       d="m 12,16 a 2,2 0 1 1 -4,0 2,2 0 1 1 4,0 z"
       transform="matrix(0.75,0,0,0.75,-9,8.5)"
       id="path3991"
       style="opacity:0.40485828;color:#000000;fill:#ff0000;fill-opacity:1;fill-rule:nonzero;stroke:none;stroke-width:1;marker:none;visibility:visible;display:inline;overflow:visible;enable-background:accumulate" />
    <path
       d="m 6,18 a 3,3 0 1 1 -6,0 3,3 0 1 1 6,0 z"
       transform="matrix(0.66666667,0,0,0.66666667,-2,11)"
       id="path3993"
       style="opacity:0.40485828;color:#000000;fill:#ff0000;fill-opacity:1;fill-rule:nonzero;stroke:none;stroke-width:1;marker:none;visibility:visible;display:inline;overflow:visible;enable-background:accumulate" />
    <rect
       width="8"
       height="4"
       x="-8"
       y="21"
       id="rect3995"
       style="opacity:0.40485828;color:#000000;fill:#ff0000;fill-opacity:1;fill-rule:nonzero;stroke:none;stroke-width:1;marker:none;visibility:visible;display:inline;overflow:visible;enable-background:accumulate" />
    <path
       d="M 7,6 C 5.343146,6 4,7.343146 4,9 2.895431,9 2,9.89543 2,11 c 0,1.10457 0.895431,2 2,2 l 8,0 c 1.10457,0 2,-0.89543 2,-2 C 14,9.89543 13.10457,9 12,9 L 11.90625,9 C 11.959892,8.845681 12,8.672589 12,8.5 12,7.671573 11.328427,7 10.5,7 10.125989,7 9.793953,7.148597 9.53125,7.375 8.997662,6.544833 8.060175,6 7,6 z"
       inkscape:connector-curvature="0"
       id="path3997"
       style="opacity:0.2;color:#000000;fill:#000000;fill-opacity:1;fill-rule:nonzero;stroke:none;stroke-width:1;marker:none;visibility:visible;display:inline;overflow:visible;enable-background:accumulate" />
    <path
       d="M 12,3 C 8.1340068,3 5,6.1340068 5,10 5,10.516953 5.0811677,11.014967 5.1875,11.5 5.7267784,11.206045 6.3391631,11.03125 7,11.03125 c 1.1120838,0 2.0553158,0.535049 2.78125,1.28125 0.1863637,-0.06727 0.347361,-0.19192 0.53125,-0.25 C 9.4940299,11.102303 9,9.8605766 9,8.5 9,5.8657829 10.870849,3.6945121 13.34375,3.15625 12.906768,3.07084 12.461986,3 12,3 z m 6.6875,9.09375 C 17.678826,13.267594 16.16908,14 14.5,14 c -0.60284,0 -1.175968,-0.102027 -1.71875,-0.28125 0.07856,0.230578 0.148534,0.464993 0.15625,0.71875 0.914854,0.348269 1.684115,0.99313 1.9375,1.90625 1.803432,-0.815783 3.217348,-2.336528 3.8125,-4.25 z"
       inkscape:connector-curvature="0"
       transform="translate(0,-6)"
       id="path2931"
       style="opacity:0.3;color:#000000;fill:#000000;fill-opacity:1;fill-rule:nonzero;stroke:none;stroke-width:1;marker:none;visibility:visible;display:inline;overflow:visible;enable-background:accumulate" />
  </g>
</svg>
