<?xml version="1.0" encoding="UTF-8" standalone="no"?>
<!-- Created with Inkscape (http://www.inkscape.org/) -->

<svg
   xmlns:dc="http://purl.org/dc/elements/1.1/"
   xmlns:cc="http://creativecommons.org/ns#"
   xmlns:rdf="http://www.w3.org/1999/02/22-rdf-syntax-ns#"
   xmlns:svg="http://www.w3.org/2000/svg"
   xmlns="http://www.w3.org/2000/svg"
   xmlns:xlink="http://www.w3.org/1999/xlink"
   xmlns:inkscape="http://www.inkscape.org/namespaces/inkscape"
   version="1.0"
   width="22"
   height="22"
   id="svg2">
  <defs
     id="defs4">
    <linearGradient
       x1="10.761708"
       y1="3.9999998"
       x2="10.761708"
       y2="18.011395"
       id="SpecificGradient"
       gradientUnits="userSpaceOnUse">
      <stop
         id="stop3292"
         style="stop-color:#ad0707;stop-opacity:1"
         offset="0" />
      <stop
         id="stop3294"
         style="stop-color:#f75535;stop-opacity:1"
         offset="1" />
    </linearGradient>
    <linearGradient
       x1="10"
       y1="6"
       x2="10"
       y2="15"
       id="linearGradient3940"
       xlink:href="#SpecificGradient"
       gradientUnits="userSpaceOnUse"
       gradientTransform="translate(-16,-2)" />
    <linearGradient
       x1="14.614752"
       y1="4.391439"
       x2="6.6437206"
       y2="12.362471"
       id="linearGradient3997"
       xlink:href="#SpecificGradient"
       gradientUnits="userSpaceOnUse" />
    <linearGradient
       x1="14.614752"
       y1="4.391439"
       x2="6.6437206"
       y2="12.362471"
       id="linearGradient4004"
       xlink:href="#SpecificGradient"
       gradientUnits="userSpaceOnUse" />
    <linearGradient
       x1="10.406627"
       y1="2"
       x2="10.406627"
       y2="18.000771"
       id="SpecificGradient-6"
       gradientUnits="userSpaceOnUse">
      <stop
         id="stop3292-8"
         style="stop-color:#e64b36;stop-opacity:1"
         offset="0" />
      <stop
         id="stop3294-0"
         style="stop-color:#a31414;stop-opacity:1"
         offset="1" />
    </linearGradient>
    <radialGradient
       cx="13"
       cy="7.9564033"
       r="5.9864154"
       fx="13"
       fy="7.9564033"
       id="radialGradient3910"
       xlink:href="#SpecificGradient-6"
       gradientUnits="userSpaceOnUse"
       gradientTransform="matrix(2.5056731,5.971737e-8,-3.9811579e-8,1.6704487,-19.57375,-5.2907646)" />
  </defs>
  <metadata
     id="metadata7">
    <rdf:RDF>
      <cc:Work
         rdf:about="">
        <dc:format>image/svg+xml</dc:format>
        <dc:type
           rdf:resource="http://purl.org/dc/dcmitype/StillImage" />
        <dc:title />
      </cc:Work>
    </rdf:RDF>
  </metadata>
  <g
     transform="translate(0,6)"
     id="layer1">
    <path
       d="m 6,18 a 3,3 0 1 1 -6,0 3,3 0 1 1 6,0 z"
       transform="translate(30,4)"
       id="path3115"
       style="color:#000000;fill:#ff0000;fill-opacity:1;fill-rule:nonzero;stroke:none;stroke-width:1;marker:none;visibility:visible;display:inline;overflow:visible;enable-background:accumulate" />
    <path
       d="m 10,16 a 4,4 0 1 1 -8,0 4,4 0 1 1 8,0 z"
       transform="translate(31,3)"
       id="path3117"
       style="color:#000000;fill:#ff0000;fill-opacity:1;fill-rule:nonzero;stroke:none;stroke-width:1;marker:none;visibility:visible;display:inline;overflow:visible;enable-background:accumulate" />
    <path
       d="m 12,16 a 2,2 0 1 1 -4,0 2,2 0 1 1 4,0 z"
       transform="translate(32,3)"
       id="path3119"
       style="color:#000000;fill:#ff0000;fill-opacity:1;fill-rule:nonzero;stroke:none;stroke-width:1;marker:none;visibility:visible;display:inline;overflow:visible;enable-background:accumulate" />
    <path
       d="m 6,18 a 3,3 0 1 1 -6,0 3,3 0 1 1 6,0 z"
       transform="translate(41,4)"
       id="path3121"
       style="color:#000000;fill:#ff0000;fill-opacity:1;fill-rule:nonzero;stroke:none;stroke-width:1;marker:none;visibility:visible;display:inline;overflow:visible;enable-background:accumulate" />
    <rect
       width="11"
       height="5"
       x="33"
       y="20"
       id="rect3123"
       style="color:#000000;fill:#ff0000;fill-opacity:1;fill-rule:nonzero;stroke:none;stroke-width:1;marker:none;visibility:visible;display:inline;overflow:visible;enable-background:accumulate" />
    <path
       d="M 10,3 C 7.790861,3 6,4.790861 6,7 4.343146,7 3,8.343146 3,10 c 0,1.656854 1.343146,3 3,3 l 7,0 0,-2 2,0 0,2 2,0 c 1.656854,0 3,-1.343146 3,-3 C 20,8.343146 18.656854,7 17,7 17,5.895431 16.104569,5 15,5 14.504848,5 14.068026,5.201946 13.71875,5.5 13.126975,4.030662 11.681155,3 10,3 z"
       inkscape:connector-curvature="0"
       transform="translate(0,-6)"
       id="path3893"
       style="opacity:0.3;color:#000000;fill:#000000;fill-opacity:1;fill-rule:nonzero;stroke:none;stroke-width:1;marker:none;visibility:visible;display:inline;overflow:visible;enable-background:accumulate" />
    <path
       d="M 13.75,2 A 0.99332561,0.99332561 0 0 0 13.71875,2.03125 C 13.72405,2.0304303 13.557448,2.063787 13.5625,2.0625 13.5676,2.06121 13.370231,2.095458 13.375,2.09375 13.3798,2.09204 13.21433,2.15832 13.21875,2.15625 13.22315,2.15418 13.058479,2.252365 13.0625,2.25 c 0.004,-0.00237 -0.128589,0.096339 -0.125,0.09375 0.0036,-0.00259 -0.128143,0.096493 -0.125,0.09375 0.0031,-0.00274 -0.127699,0.1278329 -0.125,0.125 0.0027,-0.00283 -0.127269,0.1278669 -0.125,0.125 A 0.99332561,0.99332561 0 0 0 12.5,2.8125 c 0.0015,-0.00248 -0.09497,0.1274416 -0.09375,0.125 2.87e-4,-5.745e-4 0.0052,0.01979 0,0.03125 C 12.38947,3.005995 12.37426,3.064331 12.375,3.0625 L 7.25,12.21875 c 0.00109,-0.002 -0.063421,0.0957 -0.0625,0.09375 9.213e-4,-0.002 -0.032012,0.126923 -0.03125,0.125 7.622e-4,-0.0019 -0.031865,0.09564 -0.03125,0.09375 6.149e-4,-0.0019 -0.031728,0.12686 -0.03125,0.125 4.782e-4,-0.0019 -0.031601,0.09558 -0.03125,0.09375 3.507e-4,-0.0018 -0.03148,0.126813 -0.03125,0.125 2.304e-4,-0.0018 -1.152e-4,0.1268 0,0.125 1.152e-4,-0.0018 -2.6e-6,0.126795 0,0.125 2.6e-6,-0.0018 1.1e-4,0.1268 0,0.125 -1.1e-4,-0.0018 2.25e-4,0.09556 0,0.09375 -2.25e-4,-0.0018 0.031595,0.126832 0.03125,0.125 -3.45e-4,-0.0018 0.031722,0.126858 0.03125,0.125 -4.721e-4,-0.0019 0.031858,0.126889 0.03125,0.125 -6.084e-4,-0.0019 0.032005,0.09567 0.03125,0.09375 -7.552e-4,-0.0019 0.032164,0.126953 0.03125,0.125 -9.138e-4,-0.002 0.063585,0.09573 0.0625,0.09375 -0.00108,-0.002 0.063768,0.09575 0.0625,0.09375 -0.00127,-0.002 0.063962,0.09576 0.0625,0.09375 -0.00146,-0.002 0.095416,0.09576 0.09375,0.09375 -0.00167,-0.002 0.064379,0.09574 0.0625,0.09375 -0.00188,-0.002 0.095847,0.0957 0.09375,0.09375 -0.0021,-0.002 0.096068,0.09564 0.09375,0.09375 -0.00232,-0.0019 0.096287,0.06431 0.09375,0.0625 -0.00254,-0.0018 0.096501,0.0642 0.09375,0.0625 -0.00275,-0.0017 0.096705,0.06407 0.09375,0.0625 -0.00295,-0.0016 0.1281449,0.06391 0.125,0.0625 -0.00314,-0.0014 0.097067,0.03249 0.09375,0.03125 -0.00332,-0.0012 0.1284662,0.03229 0.125,0.03125 -0.00347,-10e-4 0.1285896,0.03207 0.125,0.03125 -0.00359,-8.18e-4 0.1286838,0.03183 0.125,0.03125 C 8.59007,14.968165 8.691247,15.00034 8.6875,15 c -0.00375,-3.42e-4 0.1287759,9.2e-5 0.125,0 a 0.99332561,0.99332561 0 0 0 0.03125,0 l 10.3125,0 a 0.99332561,0.99332561 0 0 0 0.03125,0 c -0.0038,9.2e-5 0.128746,-3.42e-4 0.125,0 -0.0037,3.42e-4 0.09743,-0.03183 0.09375,-0.03125 -0.0037,5.85e-4 0.12859,-0.03207 0.125,-0.03125 -0.0036,8.18e-4 0.128466,-0.03229 0.125,-0.03125 -0.0035,10e-4 0.128317,-0.03249 0.125,-0.03125 -0.0033,0.0012 0.09689,-0.03266 0.09375,-0.03125 -0.0031,0.0014 0.127955,-0.06407 0.125,-0.0625 -0.003,0.0016 0.0965,-0.0642 0.09375,-0.0625 -0.0028,0.0017 0.09629,-0.06431 0.09375,-0.0625 -0.0025,0.0018 0.09607,-0.06439 0.09375,-0.0625 -0.0023,0.0019 0.09585,-0.0957 0.09375,-0.09375 -0.0021,0.002 0.09563,-0.09574 0.09375,-0.09375 -0.0019,0.002 0.06417,-0.09576 0.0625,-0.09375 -0.0017,0.002 0.09521,-0.09576 0.09375,-0.09375 -0.0015,0.002 0.06377,-0.09575 0.0625,-0.09375 -0.0013,0.002 0.06358,-0.09573 0.0625,-0.09375 -0.0011,0.002 0.06341,-0.0957 0.0625,-0.09375 -9.14e-4,0.002 0.03201,-0.126921 0.03125,-0.125 -7.55e-4,0.0019 0.03186,-0.09564 0.03125,-0.09375 -6.08e-4,0.0019 0.03172,-0.126858 0.03125,-0.125 -4.72e-4,0.0019 0.03159,-0.126832 0.03125,-0.125 -3.45e-4,0.0018 0.03148,-0.126812 0.03125,-0.125 -2.25e-4,0.0018 1.1e-4,-0.09555 0,-0.09375 -1.1e-4,0.0018 -3e-6,-0.126795 0,-0.125 3e-6,0.0018 -1.15e-4,-0.1268 0,-0.125 1.15e-4,0.0018 -2.3e-4,-0.126813 0,-0.125 2.3e-4,0.0018 -0.0316,-0.126833 -0.03125,-0.125 3.51e-4,0.0018 -0.03173,-0.09561 -0.03125,-0.09375 4.78e-4,0.0019 -0.03186,-0.12689 -0.03125,-0.125 6.15e-4,0.0019 -0.03201,-0.09567 -0.03125,-0.09375 7.62e-4,0.0019 -0.03217,-0.126954 -0.03125,-0.125 9.21e-4,0.002 -0.06359,-0.09573 -0.0625,-0.09375 l -5.15625,-9.25 c 0.0012,0.00226 -0.06398,-0.1272851 -0.0625,-0.125 0.0015,0.00229 -0.09549,-0.1272951 -0.09375,-0.125 C 15.4392,2.72105 15.34174,2.622716 15.34375,2.625 15.34575,2.62728 15.24771,2.529004 15.25,2.53125 15.2523,2.5335 15.15367,2.435322 15.15625,2.4375 15.15885,2.43968 15.05964,2.341674 15.0625,2.34375 15.0654,2.34583 14.93436,2.279311 14.9375,2.28125 14.9406,2.28319 14.809096,2.216985 14.8125,2.21875 14.8159,2.22051 14.683854,2.154695 14.6875,2.15625 14.6911,2.15781 14.558641,2.092437 14.5625,2.09375 14.5664,2.09506 14.433463,2.061459 14.4375,2.0625 14.4415,2.06354 14.308327,2.030506 14.3125,2.03125 14.3167,2.0319942 14.151986,1.99957 14.15625,2 c 0.0043,4.302e-4 -0.129305,-1.058e-4 -0.125,0 0.0043,1.058e-4 -0.160546,2.211e-4 -0.15625,0 0.0043,-2.211e-4 -0.129237,5.427e-4 -0.125,0 z m 0.125,1 a 0.85021518,0.87815485 0 0 1 0.84375,0.4375 l 5.15625,9.25 A 0.85021518,0.87815485 0 0 1 19.15625,14 L 8.84375,14 A 0.85021518,0.87815485 0 0 1 8.125,12.6875 l 5.15625,-9.25 A 0.85021518,0.87815485 0 0 1 13.34375,3.3125 0.85021518,0.87815485 0 0 1 13.875,3 z M 13,6 l 0,4 2,0 0,-4 -2,0 z m 0,5 0,2 2,0 0,-2 -2,0 z"
       inkscape:connector-curvature="0"
       id="path4046"
       style="opacity:0.05;color:#000000;fill:#ffffff;fill-opacity:1;fill-rule:nonzero;stroke:none;stroke-width:1;marker:none;visibility:visible;display:inline;overflow:visible;enable-background:accumulate" />
    <path
       d="M -7.1875,3.0625 A 0.94029208,0.94029208 0 0 0 -7.9375,4 l 0,6 a 0.94029208,0.94029208 0 0 0 0.15625,0.5 0.94029208,0.94029208 0 0 0 0,0.03125 A 0.94029208,0.94029208 0 0 0 -7.9375,11 l 0,2 A 0.94029208,0.94029208 0 0 0 -7,13.9375 l 2,0 A 0.94029208,0.94029208 0 0 0 -4.0625,13 l 0,-2 a 0.94029208,0.94029208 0 0 0 -0.15625,-0.5 0.94029208,0.94029208 0 0 0 0,-0.03125 A 0.94029208,0.94029208 0 0 0 -4.0625,10 l 0,-6 A 0.94029208,0.94029208 0 0 0 -5,3.0625 l -2,0 a 0.94029208,0.94029208 0 0 0 -0.09375,0 0.94029208,0.94029208 0 0 0 -0.09375,0 z M -7,4 l 2,0 0,6 -2,0 0,-6 z m 0,7 2,0 0,2 -2,0 0,-2 z"
       inkscape:connector-curvature="0"
       id="path3917"
       style="opacity:0.15;color:#000000;fill:#ffffff;fill-opacity:1;fill-rule:nonzero;stroke:none;stroke-width:1;marker:none;visibility:visible;display:inline;overflow:visible;enable-background:accumulate" />
    <path
       d="m -7,4 0,6 2,0 0,-6 -2,0 z m 0,7 0,2 2,0 0,-2 -2,0 z"
       inkscape:connector-curvature="0"
       id="rect2988"
       style="color:#000000;fill:url(#linearGradient3940);fill-opacity:1;fill-rule:nonzero;stroke:none;stroke-width:1;marker:none;visibility:visible;display:inline;overflow:visible;enable-background:accumulate" />
    <path
       d="m -7,4 0,1 2,0 0,-1 -2,0 z m 0,7 0,1 2,0 0,-1 -2,0 z"
       inkscape:connector-curvature="0"
       id="path3811"
       style="opacity:0.5;color:#000000;fill:#550000;fill-opacity:1;fill-rule:nonzero;stroke:none;stroke-width:1;marker:none;visibility:visible;display:inline;overflow:visible;enable-background:accumulate" />
    <path
       d="m -7,10 0,1 2,0 0,-1 -2,0 z m 0,3 0,1 2,0 0,-1 -2,0 z"
       inkscape:connector-curvature="0"
       id="path3822"
       style="opacity:0.3;color:#000000;fill:#ffffff;fill-opacity:1;fill-rule:nonzero;stroke:none;stroke-width:1;marker:none;visibility:visible;display:inline;overflow:visible;enable-background:accumulate" />
    <path
       d="M 15.40625,5.625 A 0.89992837,0.89992837 0 0 0 15.25,5.65625 L 4.6875,8.5 A 0.89992837,0.89992837 0 0 0 4.28125,10 L 12,17.71875 A 0.89992837,0.89992837 0 0 0 13.5,17.3125 L 16.34375,6.75 a 0.89992837,0.89992837 0 0 0 -0.9375,-1.125 z"
       transform="matrix(0.50423542,-0.51612904,0.50423542,0.51612904,21.463246,10.048387)"
       id="path3948"
       style="color:#000000;fill:url(#linearGradient4004);fill-opacity:1;fill-rule:nonzero;stroke:none;stroke-width:1;marker:none;visibility:visible;display:inline;overflow:visible;enable-background:accumulate" />
    <path
       d="m 32,7 0,3 1,0 0,-3 z m 0,4 0,1 1,0 0,-1 z"
       inkscape:connector-curvature="0"
       id="path3942"
       style="color:#000000;fill:#ffffff;fill-opacity:1;fill-rule:nonzero;stroke:none;stroke-width:1;marker:none;visibility:visible;display:inline;overflow:visible;enable-background:accumulate" />
    <path
       d="m 13.9375,21 c 0.002,-5.9e-5 -0.09577,0.03143 -0.09375,0.03125 0.002,-1.83e-4 -0.09575,3.06e-4 -0.09375,0 0.002,-3.06e-4 -0.09573,0.03168 -0.09375,0.03125 0.002,-4.28e-4 -0.126953,0.0318 -0.125,0.03125 0.002,-5.49e-4 -0.126918,0.03192 -0.125,0.03125 0.0019,-6.68e-4 -0.06438,0.03203 -0.0625,0.03125 0.0019,-7.84e-4 -0.126828,0.03215 -0.125,0.03125 0.0018,-8.98e-4 -0.09552,0.06351 -0.09375,0.0625 0.0018,-0.001 -0.09546,0.03237 -0.09375,0.03125 0.0017,-0.0011 -0.09539,0.06372 -0.09375,0.0625 0.0016,-0.0012 -0.09532,0.09507 -0.09375,0.09375 0.0016,-0.0013 -0.06399,0.06391 -0.0625,0.0625 0.0011,-0.0011 -0.04074,0.04072 -0.0625,0.0625 4.4e-4,-4.09e-4 0.01023,0.02121 0,0.03125 9.4e-4,-0.001 -0.04078,0.0067 -0.0625,0.03125 3.14e-4,-3.24e-4 0.0061,0.02461 0,0.03125 -0.01829,0.01993 -0.06339,0.06352 -0.0625,0.0625 a 0.95255827,0.98386114 0 0 0 -0.0625,0.0625 0.95255827,0.98386114 0 0 0 -0.0625,0.15625 0.95255827,0.98386114 0 0 0 -0.0625,0.09375 L 7.3125,31.1875 c 0.00111,-0.002 -0.063477,0.09581 -0.0625,0.09375 9.774e-4,-0.0021 -0.063346,0.12712 -0.0625,0.125 8.457e-4,-0.0021 -0.06321,0.127172 -0.0625,0.125 7.103e-4,-0.0022 -5.719e-4,0.127215 0,0.125 5.719e-4,-0.0022 -0.031681,0.096 -0.03125,0.09375 4.312e-4,-0.0022 -0.031538,0.127273 -0.03125,0.125 2.885e-4,-0.0023 -1.447e-4,0.127288 0,0.125 1.447e-4,-0.0023 -2e-7,0.127293 0,0.125 2e-7,-0.0023 1.442e-4,0.127288 0,0.125 -1.442e-4,-0.0023 2.881e-4,0.127273 0,0.125 -2.881e-4,-0.0023 0.031681,0.096 0.03125,0.09375 -4.307e-4,-0.0022 0.031821,0.127215 0.03125,0.125 -5.714e-4,-0.0022 0.03196,0.127172 0.03125,0.125 -7.099e-4,-0.0022 0.032095,0.09587 0.03125,0.09375 -8.453e-4,-0.0021 0.063477,0.127059 0.0625,0.125 -9.77e-4,-0.0021 0.063605,0.09574 0.0625,0.09375 -0.0011,-0.002 0.063728,0.12691 0.0625,0.125 -0.00123,-0.0019 0.063845,0.09557 0.0625,0.09375 -0.00135,-0.0018 0.063957,0.09548 0.0625,0.09375 -0.00146,-0.0017 0.064063,0.09538 0.0625,0.09375 -0.00156,-0.0016 0.1266626,0.09527 0.125,0.09375 -0.00166,-0.0015 0.064255,0.0639 0.0625,0.0625 -0.00175,-0.0014 0.095589,0.06378 0.09375,0.0625 -0.00184,-0.0013 0.095666,0.06366 0.09375,0.0625 -0.00192,-0.0012 0.1269852,0.06353 0.125,0.0625 -0.00199,-10e-4 0.095796,0.06339 0.09375,0.0625 -0.00205,-8.9e-4 0.095848,0.032 0.09375,0.03125 -0.0021,-7.51e-4 0.1271399,0.06311 0.125,0.0625 -0.00214,-6.08e-4 0.1271737,4.62e-4 0.125,0 -0.00217,-4.62e-4 0.1271984,0.03157 0.125,0.03125 -0.0022,-3.15e-4 0.095964,0.03142 0.09375,0.03125 -0.00221,-1.67e-4 0.1272194,1.8e-5 0.125,0 l 10.3125,0 c -0.0022,1.8e-5 0.127214,-1.67e-4 0.125,0 -0.0022,1.67e-4 0.09595,-0.03157 0.09375,-0.03125 -0.0022,3.15e-4 0.127174,-0.03171 0.125,-0.03125 -0.0022,4.62e-4 0.12714,-6.08e-4 0.125,0 -0.0021,6.08e-4 0.127098,-0.06325 0.125,-0.0625 -0.0021,7.51e-4 0.0958,-0.03214 0.09375,-0.03125 -0.002,8.9e-4 0.09574,-0.06352 0.09375,-0.0625 -0.002,10e-4 0.126917,-0.06366 0.125,-0.0625 -0.0019,0.0012 0.09559,-0.06378 0.09375,-0.0625 -0.0018,0.0013 0.0955,-0.0639 0.09375,-0.0625 -0.0018,0.0014 0.06416,-0.06402 0.0625,-0.0625 -0.0017,0.0015 0.126563,-0.09538 0.125,-0.09375 -0.0016,0.0016 0.06396,-0.09548 0.0625,-0.09375 -0.0015,0.0017 0.06385,-0.09557 0.0625,-0.09375 -0.0013,0.0018 0.06373,-0.09566 0.0625,-0.09375 -0.0012,0.0019 0.0636,-0.126989 0.0625,-0.125 -0.0011,0.002 0.06348,-0.09581 0.0625,-0.09375 -9.77e-4,0.0021 0.06335,-0.12712 0.0625,-0.125 -8.45e-4,0.0021 0.03196,-0.09592 0.03125,-0.09375 -7.09e-4,0.0022 0.03182,-0.127216 0.03125,-0.125 -5.71e-4,0.0022 0.03168,-0.127249 0.03125,-0.125 -4.31e-4,0.0022 0.03154,-0.09602 0.03125,-0.09375 -2.88e-4,0.0023 1.44e-4,-0.127288 0,-0.125 -1.44e-4,0.0023 0,-0.127292 0,-0.125 0,0.0023 -1.45e-4,-0.127287 0,-0.125 1.45e-4,0.0023 -2.89e-4,-0.127273 0,-0.125 2.89e-4,0.0023 -0.03168,-0.127249 -0.03125,-0.125 4.31e-4,0.0022 -0.03182,-0.09596 -0.03125,-0.09375 5.72e-4,0.0022 -7.11e-4,-0.127172 0,-0.125 7.11e-4,0.0022 -0.06335,-0.12712 -0.0625,-0.125 8.46e-4,0.0021 -0.06348,-0.127058 -0.0625,-0.125 9.77e-4,0.0021 -0.0636,-0.09574 -0.0625,-0.09375 l -5.15625,-9.25 c 10e-4,0.0018 -0.03238,-0.09549 -0.03125,-0.09375 0.0011,0.0017 -0.06372,-0.09542 -0.0625,-0.09375 0.0012,0.0017 -0.09507,-0.09534 -0.09375,-0.09375 0.0013,0.0016 -0.06391,-0.064 -0.0625,-0.0625 0.0014,0.0015 -0.06399,-0.09517 -0.0625,-0.09375 0.0015,0.0014 -0.06407,-0.06382 -0.0625,-0.0625 0.0016,0.0013 -0.126642,-0.06372 -0.125,-0.0625 0.0016,0.0012 -0.06421,-0.09487 -0.0625,-0.09375 0.0017,0.0011 -0.09552,-0.03226 -0.09375,-0.03125 0.0018,0.001 -0.09558,-0.0634 -0.09375,-0.0625 0.0018,9.04e-4 -0.126874,-0.03204 -0.125,-0.03125 0.0019,7.9e-4 -0.06442,-0.03192 -0.0625,-0.03125 0.0019,6.74e-4 -0.126952,-0.03181 -0.125,-0.03125 0.002,5.56e-4 -0.12698,-0.03168 -0.125,-0.03125 0.002,4.35e-4 -0.09575,-0.03156 -0.09375,-0.03125 0.002,3.12e-4 -0.09577,-1.89e-4 -0.09375,0 0.002,1.89e-4 -0.09577,-0.03131 -0.09375,-0.03125 0.002,6.5e-5 -0.127024,5.9e-5 -0.125,0 z m -0.0625,1 a 0.85021518,0.87815485 0 0 1 0.84375,0.4375 l 5.15625,9.25 A 0.85021518,0.87815485 0 0 1 19.15625,33 L 8.84375,33 A 0.85021518,0.87815485 0 0 1 8.125,31.6875 l 5.15625,-9.25 a 0.85021518,0.87815485 0 0 1 0.0625,-0.125 A 0.85021518,0.87815485 0 0 1 13.875,22 z"
       inkscape:connector-curvature="0"
       id="path3987"
       style="opacity:0.15;color:#000000;fill:#ffffff;fill-opacity:1;fill-rule:nonzero;stroke:none;stroke-width:1;marker:none;visibility:visible;display:inline;overflow:visible;enable-background:accumulate" />
    <path
       d="M 15.40625,5.625 A 0.89992837,0.89992837 0 0 0 15.25,5.65625 L 4.6875,8.5 A 0.89992837,0.89992837 0 0 0 4.28125,10 L 12,17.71875 A 0.89992837,0.89992837 0 0 0 13.5,17.3125 L 16.34375,6.75 a 0.89992837,0.89992837 0 0 0 -0.9375,-1.125 z"
       transform="matrix(0.6680453,-0.68999853,0.6680453,0.68999853,-0.69699661,29.054071)"
       id="path3989"
       style="color:#000000;fill:url(#linearGradient3997);fill-opacity:1;fill-rule:nonzero;stroke:none;stroke-width:1;marker:none;visibility:visible;display:inline;overflow:visible;enable-background:accumulate" />
    <path
       d="m 13,25 0,4 2,0 0,-4 z m 0,5 0,2 2,0 0,-2 z"
       inkscape:connector-curvature="0"
       id="path3991"
       style="color:#000000;fill:#ffffff;fill-opacity:1;fill-rule:nonzero;stroke:none;stroke-width:1;marker:none;visibility:visible;display:inline;overflow:visible;enable-background:accumulate" />
    <path
       d="m 13.875,22 a 0.85021518,0.87815485 0 0 0 -0.53125,0.3125 0.85021518,0.87815485 0 0 0 -0.0625,0.125 l -5.15625,9.25 a 0.85021518,0.87815485 0 0 0 0.03125,0.9375 l 5.125,-9.1875 a 0.85021518,0.87815485 0 0 1 0.0625,-0.125 0.85021518,0.87815485 0 0 1 1.375,0.125 l 5.125,9.1875 A 0.85021518,0.87815485 0 0 0 19.875,31.6875 l -5.15625,-9.25 A 0.85021518,0.87815485 0 0 0 13.875,22 z"
       inkscape:connector-curvature="0"
       id="path3993"
       style="opacity:0.5;color:#000000;fill:#2b0000;fill-opacity:1;fill-rule:nonzero;stroke:none;stroke-width:1;marker:none;visibility:visible;display:inline;overflow:visible;enable-background:accumulate" />
    <path
       d="M 8.15625,32.625 8.125,32.6875 A 0.85021518,0.87815485 0 0 0 8.84375,34 l 10.3125,0 A 0.85021518,0.87815485 0 0 0 19.875,32.6875 L 19.84375,32.625 A 0.85021518,0.87815485 0 0 1 19.15625,33 l -10.3125,0 a 0.85021518,0.87815485 0 0 1 -0.6875,-0.375 z"
       inkscape:connector-curvature="0"
       id="path3995"
       style="opacity:0.3;color:#000000;fill:#ffffff;fill-opacity:1;fill-rule:nonzero;stroke:none;stroke-width:1;marker:none;visibility:visible;display:inline;overflow:visible;enable-background:accumulate" />
    <path
       d="m 13.875,3 a 0.85021518,0.87815485 0 0 0 -0.53125,0.3125 0.85021518,0.87815485 0 0 0 -0.0625,0.125 L 8.125,12.6875 A 0.85021518,0.87815485 0 0 0 8.84375,14 l 10.3125,0 A 0.85021518,0.87815485 0 0 0 19.875,12.6875 l -5.15625,-9.25 A 0.85021518,0.87815485 0 0 0 13.875,3 z M 13,6 l 2,0 0,4 -2,0 0,-4 z m 0,5 2,0 0,2 -2,0 0,-2 z"
       inkscape:connector-curvature="0"
       id="path4008"
       style="color:#000000;fill:url(#radialGradient3910);fill-opacity:1;fill-rule:nonzero;stroke:none;stroke-width:1;marker:none;visibility:visible;display:inline;overflow:visible;enable-background:accumulate" />
    <path
       d="m 13.875,3 a 0.85021518,0.87815485 0 0 0 -0.53125,0.3125 0.85021518,0.87815485 0 0 0 -0.0625,0.125 l -5.15625,9.25 a 0.85021518,0.87815485 0 0 0 0.03125,0.90625 l 5.125,-9.15625 A 0.85021518,0.87815485 0 0 1 13.34375,4.3125 0.85021518,0.87815485 0 0 1 13.875,4 0.85021518,0.87815485 0 0 1 14.71875,4.4375 l 5.125,9.1875 A 0.85021518,0.87815485 0 0 0 19.875,12.6875 l -5.15625,-9.25 A 0.85021518,0.87815485 0 0 0 13.875,3 z M 13,10 l 0,1 2,0 0,-1 -2,0 z m 0,3 0,1 2,0 0,-1 -2,0 z"
       inkscape:connector-curvature="0"
       id="path4022"
       style="opacity:0.25;color:#000000;fill:#000000;fill-opacity:1;fill-rule:nonzero;stroke:none;stroke-width:1;marker:none;visibility:visible;display:inline;overflow:visible;enable-background:accumulate" />
    <path
       d="m 13,6 0,1 2,0 0,-1 -2,0 z m 0,5 0,1 2,0 0,-1 -2,0 z M 8.15625,13.625 8.125,13.6875 A 0.85021518,0.87815485 0 0 0 8.84375,15 l 10.3125,0 A 0.85021518,0.87815485 0 0 0 19.875,13.6875 L 19.84375,13.625 A 0.85021518,0.87815485 0 0 1 19.15625,14 L 15,14 13,14 8.84375,14 a 0.85021518,0.87815485 0 0 1 -0.6875,-0.375 z"
       inkscape:connector-curvature="0"
       id="path4031"
       style="opacity:0.2;color:#000000;fill:#ffffff;fill-opacity:1;fill-rule:nonzero;stroke:none;stroke-width:1;marker:none;visibility:visible;display:inline;overflow:visible;enable-background:accumulate" />
    <path
       d="m 13.875,9 a 0.85021518,0.87815485 0 0 0 -0.53125,0.3125 0.85021518,0.87815485 0 0 0 -0.0625,0.125 L 8.125,18.6875 A 0.85021518,0.87815485 0 0 0 8.84375,20 l 10.3125,0 A 0.85021518,0.87815485 0 0 0 19.875,18.6875 l -5.15625,-9.25 A 0.85021518,0.87815485 0 0 0 13.875,9 z m 0.0625,0.5 c 0.0169,-0.00152 0.0143,8.721e-4 0.03125,0 0.01697,-2.277e-4 0.01428,-4.171e-4 0.03125,0 0.01688,0.0017 0.01444,-0.00234 0.03125,0 0.0167,0.00298 -0.01658,0.027641 0,0.03125 0.01658,0.00361 0.01482,-0.00423 0.03125,0 0.01625,0.00485 0.01519,-0.00546 0.03125,0 0.0156,0.00665 0.01591,-0.00723 0.03125,0 0.01505,0.0078 -0.01475,0.022889 0,0.03125 0.01475,0.00836 0.01683,-0.00891 0.03125,0 0.01371,0.00995 0.01792,0.020798 0.03125,0.03125 0.01252,0.011406 0.01916,-0.011858 0.03125,0 0.01209,0.011858 -0.01164,0.018958 0,0.03125 0.01071,0.013109 0.02103,0.017761 0.03125,0.03125 0.0092,0.014193 -0.0087,0.016734 0,0.03125 0.0087,0.014516 0.02309,-0.01482 0.03125,0 l 1.0625,1.90625 A 0.5167666,0.5167666 0 0 0 15,11.46875 l -2,0 a 0.5167666,0.5167666 0 0 0 -0.3125,0.125 L 13.71875,9.6875 A 0.5167666,0.5167666 0 0 0 13.75,9.625 c 0.01387,-0.01597 0.01666,-0.01593 0.03125,-0.03125 0.01595,-0.013917 0.01467,-0.018083 0.03125,-0.03125 0.01717,-0.012387 0.01352,0.011577 0.03125,0 0.01826,-0.010739 -0.01874,-0.021374 0,-0.03125 0.01874,-0.00988 0.01206,0.00899 0.03125,0 0.01959,-0.00808 0.0113,0.00715 0.03125,0 0.02027,-0.0062 0.01071,0.00523 0.03125,0 0.02054,-0.00523 -0.02077,-0.026993 0,-0.03125 z m -1.46875,2.5 0,4 a 0.5167666,0.5167666 0 0 0 0.375,0.5 0.5167666,0.5167666 0 0 0 -0.375,0.5 l 0,2 A 0.5167666,0.5167666 0 0 0 12.75,19.46875 l -3.90625,0 c -0.029643,-0.0027 -0.00186,0.0047 -0.03125,0 -0.029395,-0.0047 -0.00223,0.0066 -0.03125,0 -0.028509,-0.0085 -0.00337,0.01039 -0.03125,0 -0.027125,-0.0122 -0.00499,-0.01729 -0.03125,-0.03125 -0.026257,-0.01396 -0.00597,0.01564 -0.03125,0 -0.024197,-0.01726 -0.00823,-0.01246 -0.03125,-0.03125 -0.021745,-0.02024 -0.010861,-0.0097 -0.03125,-0.03125 -0.018954,-0.02285 -0.013801,-0.0072 -0.03125,-0.03125 -0.017449,-0.02401 0.015879,-0.0062 0,-0.03125 -0.015879,-0.02507 -0.016998,0.02603 -0.03125,0 -0.014252,-0.02603 0.012574,-0.0044 0,-0.03125 -0.012574,-0.02687 0.010852,-0.0036 0,-0.03125 -0.00909,-0.02823 -0.023948,-0.0025 -0.03125,-0.03125 -0.0073,-0.02874 0.00549,-0.0021 0,-0.03125 -0.00549,-0.02914 0.00365,-0.0018 0,-0.03125 -0.00181,-0.0296 -4.24e-5,-0.0016 0,-0.03125 4.24e-5,-0.02965 -0.00189,-0.0017 0,-0.03125 0.00189,-0.02959 -0.00374,-0.0018 0,-0.03125 0.00557,-0.02913 -0.00739,-0.0025 0,-0.03125 0.00739,-0.02872 0.022076,-0.003 0.03125,-0.03125 0.00917,-0.0282 -0.010932,-0.0037 0,-0.03125 0.012652,-0.02683 -0.014327,-0.0053 0,-0.03125 L 12.46875,12 z M 13,12 l 2,0 0,4 -2,0 0,-4 z m 2.53125,0 3.90625,6.9375 c 0.01433,0.02598 -0.01265,0.0044 0,0.03125 0.01093,0.02757 -0.0092,0.003 0,0.03125 0.0092,0.0282 0.02387,0.0025 0.03125,0.03125 0.0074,0.02872 -0.0056,0.0021 0,0.03125 0.0037,0.02941 -0.0019,0.0017 0,0.03125 0.0019,0.02959 -4.2e-5,0.0016 0,0.03125 4.2e-5,0.02965 0.0018,0.0017 0,0.03125 -0.0037,0.02942 0.0055,0.0021 0,0.03125 -0.0055,0.02914 0.0073,0.0025 0,0.03125 -0.0073,0.02874 -0.02216,0.003 -0.03125,0.03125 -0.01085,0.02761 0.01257,0.0044 0,0.03125 -0.01257,0.02687 0.01425,0.0052 0,0.03125 -0.01425,0.02603 -0.01537,-0.02507 -0.03125,0 -0.01588,0.02507 0.01745,0.0072 0,0.03125 -0.01745,0.02401 -0.0123,0.0084 -0.03125,0.03125 -0.02039,0.02159 -0.0095,0.01101 -0.03125,0.03125 -0.02302,0.01879 -0.0071,0.01399 -0.03125,0.03125 -0.02528,0.01564 -0.005,-0.01396 -0.03125,0 -0.02626,0.01396 -0.0041,0.01905 -0.03125,0.03125 -0.02788,0.01039 -0.0027,-0.0085 -0.03125,0 -0.02902,0.0066 -0.0019,-0.0047 -0.03125,0 -0.0294,0.0047 -0.0016,-0.0027 -0.03125,0 l -3.90625,0 A 0.5167666,0.5167666 0 0 0 15.53125,19 l 0,-2 a 0.5167666,0.5167666 0 0 0 -0.375,-0.5 0.5167666,0.5167666 0 0 0 0.375,-0.5 l 0,-4 z M 13,17 l 2,0 0,2 -2,0 0,-2 z"
       inkscape:connector-curvature="0"
       transform="translate(0,-6)"
       id="path3912"
       style="opacity:0.25;color:#000000;fill:#000000;fill-opacity:1;fill-rule:nonzero;stroke:none;stroke-width:1;marker:none;visibility:visible;display:inline;overflow:visible;enable-background:accumulate" />
  </g>
</svg>
