<?xml version="1.0" encoding="UTF-8" standalone="no"?>
<!-- Created with Inkscape (http://www.inkscape.org/) -->

<svg
   xmlns:dc="http://purl.org/dc/elements/1.1/"
   xmlns:cc="http://creativecommons.org/ns#"
   xmlns:rdf="http://www.w3.org/1999/02/22-rdf-syntax-ns#"
   xmlns:svg="http://www.w3.org/2000/svg"
   xmlns="http://www.w3.org/2000/svg"
   xmlns:xlink="http://www.w3.org/1999/xlink"
   xmlns:inkscape="http://www.inkscape.org/namespaces/inkscape"
   version="1.0"
   width="96"
   height="96"
   id="svg2408">
  <defs
     id="defs2410">
    <linearGradient
       id="linearGradient4384">
      <stop
         id="stop4386"
         style="stop-color:#ffffff;stop-opacity:1"
         offset="0" />
      <stop
         id="stop4388"
         style="stop-color:#ffffff;stop-opacity:0"
         offset="1" />
    </linearGradient>
    <linearGradient
       id="linearGradient4367">
      <stop
         id="stop4369"
         style="stop-color:#ffffff;stop-opacity:0.71755725"
         offset="0" />
      <stop
         id="stop4371"
         style="stop-color:#ffffff;stop-opacity:1"
         offset="1" />
    </linearGradient>
    <linearGradient
       x1="45.447727"
       y1="92.539597"
       x2="45.447727"
       y2="7.0165396"
       id="ButtonShadow"
       gradientUnits="userSpaceOnUse"
       gradientTransform="scale(1.0058652,0.994169)">
      <stop
         id="stop3750"
         style="stop-color:#000000;stop-opacity:1"
         offset="0" />
      <stop
         id="stop3752"
         style="stop-color:#000000;stop-opacity:0.58823532"
         offset="1" />
    </linearGradient>
    <linearGradient
       id="linearGradient3737">
      <stop
         id="stop3739"
         style="stop-color:#ffffff;stop-opacity:1"
         offset="0" />
      <stop
         id="stop3741"
         style="stop-color:#ffffff;stop-opacity:0"
         offset="1" />
    </linearGradient>
    <linearGradient
       id="linearGradient3700">
      <stop
         id="stop3702"
         style="stop-color:#2276c5;stop-opacity:1"
         offset="0" />
      <stop
         id="stop3704"
         style="stop-color:#68baf4;stop-opacity:1"
         offset="1" />
    </linearGradient>
    <filter
       color-interpolation-filters="sRGB"
       id="filter3174">
      <feGaussianBlur
         id="feGaussianBlur3176"
         stdDeviation="1.71" />
    </filter>
    <filter
       x="-0.192"
       y="-0.192"
       width="1.3839999"
       height="1.3839999"
       color-interpolation-filters="sRGB"
       id="filter3794">
      <feGaussianBlur
         id="feGaussianBlur3796"
         stdDeviation="5.28" />
    </filter>
    <linearGradient
       x1="48"
       y1="20.220806"
       x2="48"
       y2="138.66119"
       id="linearGradient3613"
       xlink:href="#linearGradient3737"
       gradientUnits="userSpaceOnUse" />
    <linearGradient
       x1="48"
       y1="90"
       x2="48"
       y2="5.9877172"
       id="linearGradient3617"
       xlink:href="#linearGradient3700"
       gradientUnits="userSpaceOnUse"
       gradientTransform="translate(110,0)" />
    <linearGradient
       x1="45.447727"
       y1="92.539597"
       x2="45.447727"
       y2="7.0165396"
       id="ButtonShadow-0"
       gradientUnits="userSpaceOnUse"
       gradientTransform="matrix(1.0058652,0,0,0.994169,100,0)">
      <stop
         id="stop3750-8"
         style="stop-color:#000000;stop-opacity:1"
         offset="0" />
      <stop
         id="stop3752-5"
         style="stop-color:#000000;stop-opacity:0.58823532"
         offset="1" />
    </linearGradient>
    <linearGradient
       x1="32.251034"
       y1="6.1317081"
       x2="32.251034"
       y2="90.238609"
       id="linearGradient3780"
       xlink:href="#ButtonShadow-0"
       gradientUnits="userSpaceOnUse"
       gradientTransform="matrix(1.0238095,0,0,1.0119048,-1.1428571,-98.071429)" />
    <linearGradient
       x1="32.251034"
       y1="6.1317081"
       x2="32.251034"
       y2="90.238609"
       id="linearGradient3772"
       xlink:href="#ButtonShadow-0"
       gradientUnits="userSpaceOnUse"
       gradientTransform="matrix(1.0238095,0,0,1.0119048,-1.1428571,-98.071429)" />
    <linearGradient
       x1="32.251034"
       y1="6.1317081"
       x2="32.251034"
       y2="90.238609"
       id="linearGradient3725"
       xlink:href="#ButtonShadow-0"
       gradientUnits="userSpaceOnUse"
       gradientTransform="matrix(1.0238095,0,0,1.0119048,-1.1428571,-98.071429)" />
    <linearGradient
       x1="32.251034"
       y1="6.1317081"
       x2="32.251034"
       y2="90.238609"
       id="linearGradient3721"
       xlink:href="#ButtonShadow-0"
       gradientUnits="userSpaceOnUse"
       gradientTransform="translate(0,-97)" />
    <linearGradient
       x1="32.251034"
       y1="6.1317081"
       x2="32.251034"
       y2="90.238609"
       id="linearGradient3026"
       xlink:href="#ButtonShadow-0"
       gradientUnits="userSpaceOnUse"
       gradientTransform="matrix(1.0238095,0,0,1.0119048,-1.1428571,-98.071429)" />
    <clipPath
       id="clipPath4355">
      <rect
         width="84"
         height="80"
         rx="6"
         ry="6"
         x="6"
         y="6"
         id="rect4357"
         style="fill:#ffffff;fill-opacity:1;fill-rule:nonzero;stroke:none" />
    </clipPath>
    <radialGradient
       cx="48"
       cy="87.792389"
       r="42"
       fx="48"
       fy="87.792389"
       id="radialGradient4375"
       xlink:href="#linearGradient4367"
       gradientUnits="userSpaceOnUse"
       gradientTransform="matrix(1,-6.7114942e-8,8.4282233e-8,1.2557894,109.99999,-24.505592)" />
    <linearGradient
       x1="48"
       y1="88"
       x2="48"
       y2="-40"
       id="linearGradient4390"
       xlink:href="#linearGradient4384"
       gradientUnits="userSpaceOnUse"
       gradientTransform="matrix(1,0,0,-1,0,92)" />
    <linearGradient
       x1="48"
       y1="82"
       x2="112.12357"
       y2="82.454597"
       id="linearGradient4429"
       xlink:href="#linearGradient4384"
       gradientUnits="userSpaceOnUse"
       spreadMethod="reflect" />
    <linearGradient
       id="linearGradient3892">
      <stop
         id="stop3894"
         style="stop-color:#000000;stop-opacity:0.58823532"
         offset="0" />
      <stop
         id="stop3896"
         style="stop-color:#000000;stop-opacity:0.47058824"
         offset="0.11780351" />
      <stop
         id="stop3898"
         style="stop-color:#000000;stop-opacity:0.39215687"
         offset="0.23809524" />
      <stop
         id="stop3900"
         style="stop-color:#000000;stop-opacity:0.3137255"
         offset="1" />
    </linearGradient>
    <linearGradient
       x1="90"
       y1="88"
       x2="48"
       y2="88"
       id="linearGradient3228"
       xlink:href="#linearGradient3892"
       gradientUnits="userSpaceOnUse"
       spreadMethod="reflect" />
    <linearGradient
       id="linearGradient3535">
      <stop
         id="stop3537"
         style="stop-color:#828282;stop-opacity:1"
         offset="0" />
      <stop
         id="stop3539"
         style="stop-color:#5a5a5a;stop-opacity:1"
         offset="1" />
    </linearGradient>
    <linearGradient
       id="linearGradient7155">
      <stop
         id="stop7157"
         style="stop-color:#ffffff;stop-opacity:1"
         offset="0" />
      <stop
         id="stop7159"
         style="stop-color:#ffffff;stop-opacity:0"
         offset="1" />
    </linearGradient>
    <linearGradient
       id="linearGradient7175">
      <stop
         id="stop7177"
         style="stop-color:#000000;stop-opacity:1"
         offset="0" />
      <stop
         id="stop7179"
         style="stop-color:#000000;stop-opacity:0"
         offset="1" />
    </linearGradient>
    <linearGradient
       x1="48"
       y1="90"
       x2="48"
       y2="5.9877172"
       id="linearGradient3536"
       xlink:href="#ButtonColor"
       gradientUnits="userSpaceOnUse" />
    <linearGradient
       x1="58.650177"
       y1="122"
       x2="58.650177"
       y2="5.4252338"
       id="ButtonColor"
       gradientUnits="userSpaceOnUse"
       gradientTransform="matrix(1.0172414,0,0,1.0172414,-1.1034483,-1.1034483)">
      <stop
         id="stop3189"
         style="stop-color:#000000;stop-opacity:0.27450982"
         offset="0" />
      <stop
         id="stop3191"
         style="stop-color:#ffffff;stop-opacity:0"
         offset="1" />
    </linearGradient>
    <linearGradient
       x1="48"
       y1="90"
       x2="48"
       y2="5.9877172"
       id="linearGradient3706"
       xlink:href="#linearGradient3172"
       gradientUnits="userSpaceOnUse"
       gradientTransform="matrix(0,1,-1,0,96,0)" />
    <linearGradient
       id="linearGradient3172">
      <stop
         id="stop3174"
         style="stop-color:#a0a0a0;stop-opacity:1"
         offset="0" />
      <stop
         id="stop3188"
         style="stop-color:#dcdcdc;stop-opacity:1"
         offset="0.1362071" />
      <stop
         id="stop3180"
         style="stop-color:#f5f5f5;stop-opacity:1"
         offset="0.3023597" />
      <stop
         id="stop3190"
         style="stop-color:#dcdcdc;stop-opacity:1"
         offset="0.61225069" />
      <stop
         id="stop3176"
         style="stop-color:#aaaaaa;stop-opacity:1"
         offset="1" />
    </linearGradient>
    <linearGradient
       id="linearGradient7105">
      <stop
         id="stop7107"
         style="stop-color:#515151;stop-opacity:1"
         offset="0" />
      <stop
         id="stop7113"
         style="stop-color:#272727;stop-opacity:1"
         offset="1" />
    </linearGradient>
    <radialGradient
       cx="65.547707"
       cy="32.811893"
       r="51.413425"
       fx="65.547707"
       fy="32.811893"
       id="radialGradient3649"
       xlink:href="#linearGradient7105"
       gradientUnits="userSpaceOnUse"
       gradientTransform="matrix(0.4586549,-2.5902411e-8,1.2820624e-8,0.2816917,17.66593,51.191203)" />
    <linearGradient
       x1="26.98472"
       y1="5"
       x2="26.98472"
       y2="110.74494"
       id="linearGradient4064"
       xlink:href="#linearGradient7155"
       gradientUnits="userSpaceOnUse"
       gradientTransform="matrix(0.709739,0,0,0.709739,-80.811689,2.4513075)" />
    <linearGradient
       x1="27.728868"
       y1="118.42435"
       x2="27.728868"
       y2="22.060555"
       id="linearGradient4066"
       xlink:href="#linearGradient7155"
       gradientUnits="userSpaceOnUse"
       gradientTransform="matrix(0.287119,0,0,-0.709739,-93.48336,93.297899)"
       spreadMethod="reflect" />
    <linearGradient
       x1="26.98472"
       y1="10.146635"
       x2="26.98472"
       y2="120.63893"
       id="linearGradient4072"
       xlink:href="#linearGradient7175"
       gradientUnits="userSpaceOnUse"
       gradientTransform="matrix(0.7757734,0,0,-0.709739,-96.763304,93.548693)" />
    <linearGradient
       x1="26.98472"
       y1="5"
       x2="26.98472"
       y2="68.695473"
       id="linearGradient4074"
       xlink:href="#linearGradient7155"
       gradientUnits="userSpaceOnUse"
       gradientTransform="matrix(0.1418434,0,0,0.709739,-51.849164,2.4513075)" />
    <linearGradient
       x1="26.98472"
       y1="5"
       x2="26.98472"
       y2="176.64893"
       id="linearGradient4076"
       xlink:href="#linearGradient7175"
       gradientUnits="userSpaceOnUse"
       gradientTransform="matrix(0.2808238,0,0,0.709739,-59.899152,2.7021052)" />
    <linearGradient
       x1="26.98472"
       y1="5"
       x2="26.98472"
       y2="110.67213"
       id="linearGradient4078"
       xlink:href="#linearGradient7155"
       gradientUnits="userSpaceOnUse"
       gradientTransform="matrix(0.08901589,0,0,0.709739,-118.05699,2.4513075)" />
    <radialGradient
       cx="63.997692"
       cy="82.090881"
       r="28.997686"
       fx="63.997692"
       fy="82.090881"
       id="radialGradient4366"
       xlink:href="#linearGradient3535"
       gradientUnits="userSpaceOnUse"
       gradientTransform="matrix(1.2330155,-6.0718862e-8,4.8575091e-8,0.98641236,-30.908876,-34.115839)" />
    <linearGradient
       x1="39.639946"
       y1="20.5"
       x2="90"
       y2="20.5"
       id="linearGradient3952"
       xlink:href="#linearGradient7155"
       gradientUnits="userSpaceOnUse"
       spreadMethod="reflect" />
    <linearGradient
       x1="39.639946"
       y1="20.5"
       x2="90"
       y2="20.5"
       id="linearGradient3956"
       xlink:href="#linearGradient7155"
       gradientUnits="userSpaceOnUse"
       gradientTransform="translate(0,2)"
       spreadMethod="reflect" />
    <linearGradient
       id="linearGradient3833">
      <stop
         id="stop3835"
         style="stop-color:#ffffff;stop-opacity:1"
         offset="0" />
      <stop
         id="stop3837"
         style="stop-color:#ffffff;stop-opacity:0"
         offset="1" />
    </linearGradient>
    <clipPath
       id="clipPath4021">
      <rect
         width="80"
         height="76.421654"
         x="41.1749"
         y="7.8937817"
         transform="scale(-1,1)"
         id="rect4023"
         style="opacity:0.6;color:#000000;fill:#000000;fill-opacity:1;fill-rule:nonzero;stroke:none;stroke-width:1;marker:none;visibility:visible;display:inline;overflow:visible;enable-background:accumulate" />
    </clipPath>
    <linearGradient
       x1="26"
       y1="6"
       x2="26"
       y2="72.022263"
       id="linearGradient4027"
       xlink:href="#linearGradient3833"
       gradientUnits="userSpaceOnUse"
       gradientTransform="matrix(0.23809524,0,0,0.95238087,39.190476,0.285714)" />
    <linearGradient
       x1="26"
       y1="6"
       x2="26"
       y2="92.100006"
       id="linearGradient4030"
       xlink:href="#linearGradient3833"
       gradientUnits="userSpaceOnUse"
       gradientTransform="matrix(0.57142857,0,0,0.95238087,54.857143,0.2857148)" />
    <linearGradient
       x1="26"
       y1="6"
       x2="26"
       y2="120.01754"
       id="linearGradient4033"
       xlink:href="#linearGradient3833"
       gradientUnits="userSpaceOnUse"
       gradientTransform="matrix(1,0,0,0.95238087,-2,0.2857148)" />
  </defs>
  <metadata
     id="metadata2413">
    <rdf:RDF>
      <cc:Work
         rdf:about="">
        <dc:format>image/svg+xml</dc:format>
        <dc:type
           rdf:resource="http://purl.org/dc/dcmitype/StillImage" />
        <dc:title />
      </cc:Work>
    </rdf:RDF>
  </metadata>
  <g
     id="layer2"
     style="display:none">
    <rect
       width="86"
       height="85"
       rx="6"
       ry="6"
       x="5"
       y="7"
       id="rect3745"
       style="opacity:0.9;fill:url(#ButtonShadow);fill-opacity:1;fill-rule:nonzero;stroke:none;filter:url(#filter3174)" />
  </g>
  <g
     id="layer3"
     style="display:inline">
    <path
       d="m 12,-95.03125 c -5.5110903,0 -10.03125,4.52016 -10.03125,10.03125 l 0,71 c 0,5.5110902 4.5201598,10.03125 10.03125,10.03125 l 72,0 c 5.51109,0 10.03125,-4.5201597 10.03125,-10.03125 l 0,-71 c 0,-5.51109 -4.52016,-10.03125 -10.03125,-10.03125 l -72,0 z"
       transform="scale(1,-1)"
       id="path3786"
       style="opacity:0.07999998;fill:url(#linearGradient3026);fill-opacity:1;fill-rule:nonzero;stroke:none;display:inline" />
    <path
       d="m 12,-94.03125 c -4.971633,0 -9.03125,4.059617 -9.03125,9.03125 l 0,71 c 0,4.9716329 4.0596171,9.03125 9.03125,9.03125 l 72,0 c 4.971633,0 9.03125,-4.059617 9.03125,-9.03125 l 0,-71 c 0,-4.971633 -4.059617,-9.03125 -9.03125,-9.03125 l -72,0 z"
       transform="scale(1,-1)"
       id="path3778"
       style="opacity:0.1;fill:url(#linearGradient3780);fill-opacity:1;fill-rule:nonzero;stroke:none;display:inline" />
    <path
       d="m 12,-93 c -4.4091333,0 -8,3.590867 -8,8 l 0,71 c 0,4.4091333 3.5908667,8 8,8 l 72,0 c 4.409133,0 8,-3.5908667 8,-8 l 0,-71 c 0,-4.409133 -3.590867,-8 -8,-8 l -72,0 z"
       transform="scale(1,-1)"
       id="path3770"
       style="opacity:0.2;fill:url(#linearGradient3772);fill-opacity:1;fill-rule:nonzero;stroke:none;display:inline" />
    <rect
       width="86"
       height="85"
       rx="7"
       ry="7"
       x="5"
       y="-92"
       transform="scale(1,-1)"
       id="rect3723"
       style="opacity:0.3;fill:url(#linearGradient3725);fill-opacity:1;fill-rule:nonzero;stroke:none;display:inline" />
    <rect
       width="84"
       height="84"
       rx="6"
       ry="6"
       x="6"
       y="-91"
       transform="scale(1,-1)"
       id="rect3716"
       style="opacity:0.45;fill:url(#linearGradient3721);fill-opacity:1;fill-rule:nonzero;stroke:none;display:inline" />
  </g>
  <g
     id="layer1">
    <rect
       width="74.184616"
       height="51.115532"
       x="10.63739"
       y="38"
       id="rect3344"
       style="fill:url(#radialGradient3649);fill-opacity:1;fill-rule:evenodd;stroke:none;display:inline" />
    <path
       d="M 12,6 C 8.676,6 6,8.676 6,12 l 0,72 c 0,3.324 2.676,6 6,6 l 72,0 c 3.324,0 6,-2.676 6,-6 L 90,12 C 90,8.676 87.324,6 84,6 z"
       inkscape:connector-curvature="0"
       id="rect2419-7"
       style="fill:url(#linearGradient3706);fill-opacity:1;fill-rule:nonzero;stroke:none;display:inline" />
    <path
       d="M 12,6 C 8.676,6 6,8.676 6,12 l 0,72 c 0,3.324 2.676,6 6,6 l 72,0 c 3.324,0 6,-2.676 6,-6 L 90,12 C 90,8.676 87.324,6 84,6 z"
       inkscape:connector-curvature="0"
       id="rect3480"
       style="fill:url(#linearGradient3536);fill-opacity:1;fill-rule:nonzero;stroke:none;display:inline" />
    <rect
       width="84"
       height="84"
       rx="6"
       ry="6"
       x="116"
       y="6"
       id="rect2419"
       style="fill:url(#linearGradient3617);fill-opacity:1;fill-rule:nonzero;stroke:none" />
    <path
       d="M 120.78125,6.125 C 118.04223,6.6826484 116,9.0915 116,12 l 0,68 c 0,3.324 2.676,6 6,6 l 72,0 c 3.324,0 6,-2.676 6,-6 l 0,-68 c 0,-2.9085 -2.04223,-5.3173516 -4.78125,-5.875 2.20512,0.5362071 3.8125,2.4908437 3.8125,4.875 l 0,68 c 0,2.80489 -2.22636,5.03125 -5.03125,5.03125 l -72,0 c -2.80489,0 -5.03125,-2.22636 -5.03125,-5.03125 l 0,-68 c 0,-2.3841563 1.60738,-4.3387929 3.8125,-4.875 z"
       inkscape:connector-curvature="0"
       id="rect4359"
       style="opacity:0.2;fill:url(#radialGradient4375);fill-opacity:1;fill-rule:nonzero;stroke:none" />
    <path
       d="M 12,86 C 8.676,86 6,83.324 6,80 L 6,12 C 6,8.676 8.676,6 12,6 l 72,0 c 3.324,0 6,2.676 6,6 l 0,68 c 0,3.324 -2.676,6 -6,6 z m 0,-0.96875 72,0 c 2.80489,0 5.03125,-2.22636 5.03125,-5.03125 l 0,-68 C 89.03125,9.19511 86.80489,6.96875 84,6.96875 l -72,0 C 9.1951102,6.96875 6.96875,9.19511 6.96875,12 l 0,68 c 0,2.80489 2.2263602,5.03125 5.03125,5.03125 z"
       inkscape:connector-curvature="0"
       id="rect4377"
       style="opacity:0.5;fill:url(#linearGradient4390);fill-opacity:1;fill-rule:nonzero;stroke:none" />
    <path
       d="m 6,78 0,2 c 0,3.324 2.676,6 6,6 l 72,0 c 3.324,0 6,-2.676 6,-6 l 0,-2 c 0,3.324 -2.676,6 -6,6 L 12,84 C 8.676,84 6,81.324 6,78 z"
       inkscape:connector-curvature="0"
       id="rect4414"
       style="opacity:0.15;fill:url(#linearGradient4429);fill-opacity:1;fill-rule:nonzero;stroke:none" />
    <path
       d="m 6,100 0,1 c 0,3.324 2.676,6 6,6 l 72,0 c 3.324,0 6,-2.676 6,-6 l 0,-1 c 0,3.324 -2.676,6 -6,6 l -72,0 c -3.324,0 -6,-2.676 -6,-6 z"
       inkscape:connector-curvature="0"
       id="path4412"
       style="opacity:0.15;fill:#000000;fill-opacity:1;fill-rule:nonzero;stroke:none" />
    <g
       transform="matrix(-1,0,0,1.0468237,-33.1749,-2.2633978)"
       clip-path="url(#clipPath4021)"
       id="g4054">
      <path
         d="m -68.40625,6 0,7.96875 0,24.03125 0,15.75 0,24.03125 0,7.96875 13.5,0 0,-13.25 0,-13.46875 0,-26.3125 0,-13.46875 0,-13.25 -13.5,0 z"
         inkscape:connector-curvature="0"
         id="rect7153"
         style="opacity:0.6;fill:url(#linearGradient4064);fill-opacity:1;fill-rule:evenodd;stroke:none" />
      <path
         d="m -88.46875,6 0,6.9375 0,26.09375 0,13.6875 0,26.09375 0,6.9375 5.46875,0 0,-6.6875 0,-26.625 0,-13.125 0,-26.625 L -83,6 -88.46875,6 z"
         inkscape:connector-curvature="0"
         id="rect7163"
         style="opacity:0.3;fill:url(#linearGradient4066);fill-opacity:1;fill-rule:evenodd;stroke:none" />
      <path
         d="m -83.1875,6.25 0,6.78125 0,25.9375 0,14.3125 0,25.9375 0,6.78125 14.71875,0 0,-8.0625 0,-23.375 0,-16.875 0,-23.375 0,-8.0625 -14.71875,0 z"
         inkscape:connector-curvature="0"
         id="rect7185"
         style="opacity:0.1;fill:url(#linearGradient4072);fill-opacity:1;fill-rule:evenodd;stroke:none" />
      <rect
         width="2.6935267"
         height="83.749199"
         x="-49.368324"
         y="6.0000024"
         id="rect7189"
         style="opacity:0.4;fill:url(#linearGradient4074);fill-opacity:1;fill-rule:evenodd;stroke:none" />
      <path
         d="m -55,6.25 0,13.375 0,12.75 0,27.5 0,12.75 0,13.375 5.34375,0 0,-79.75 -5.34375,0 z"
         inkscape:connector-curvature="0"
         id="rect7193"
         style="opacity:0.1;fill:url(#linearGradient4076);fill-opacity:1;fill-rule:evenodd;stroke:none" />
      <rect
         width="1.6903621"
         height="83.749199"
         x="-116.5001"
         y="6.0000024"
         id="rect7197"
         style="opacity:0.4;fill:url(#linearGradient4078);fill-opacity:1;fill-rule:evenodd;stroke:none" />
    </g>
    <rect
       width="21"
       height="80"
       x="14"
       y="6"
       id="rect3831"
       style="opacity:0.6;fill:url(#linearGradient4033);fill-opacity:1;stroke:none;display:inline" />
    <rect
       width="12"
       height="80"
       x="64"
       y="6"
       id="rect3841"
       style="opacity:0.4;fill:url(#linearGradient4030);fill-opacity:1;stroke:none;display:inline" />
    <rect
       width="5"
       height="80"
       x="43"
       y="6"
       id="rect3920"
       style="opacity:0.2;fill:url(#linearGradient4027);fill-opacity:1;stroke:none;display:inline" />
    <rect
       width="84"
       height="1"
       x="6"
       y="21"
       id="rect3982"
       style="opacity:0.6;color:#000000;fill:#000000;fill-opacity:1;fill-rule:nonzero;stroke:none;stroke-width:1;marker:none;visibility:visible;display:inline;overflow:visible;enable-background:accumulate" />
    <rect
       width="84"
       height="1"
       x="6"
       y="20"
       id="rect4021"
       style="opacity:0.6;color:#000000;fill:url(#linearGradient3952);fill-opacity:1;fill-rule:nonzero;stroke:none;stroke-width:1;marker:none;visibility:visible;display:inline;overflow:visible;enable-background:accumulate" />
    <rect
       width="84"
       height="1"
       x="6"
       y="22"
       id="rect3954"
       style="color:#000000;fill:url(#linearGradient3956);fill-opacity:1;fill-rule:nonzero;stroke:none;stroke-width:1;marker:none;visibility:visible;display:inline;overflow:visible;enable-background:accumulate" />
  </g>
  <g
     id="layer4"
     style="display:inline">
    <path
       d="m 6,80 0,4 c 0,3.324 2.676,6 6,6 l 72,0 c 3.324,0 6,-2.676 6,-6 l 0,-4 c 0,3.324 -2.676,6 -6,6 L 12,86 C 8.676,86 6,83.324 6,80 z"
       inkscape:connector-curvature="0"
       id="path3888"
       style="fill:url(#linearGradient3228);fill-opacity:1;fill-rule:nonzero;stroke:none;display:inline" />
    <path
       d="m 6,82 0,2 c 0,3.324 2.676,6 6,6 l 72,0 c 3.324,0 6,-2.676 6,-6 l 0,-2 c 0,3.324 -2.676,6 -6,6 L 12,88 C 8.676,88 6,85.324 6,82 z"
       inkscape:connector-curvature="0"
       id="rect4345"
       style="opacity:0.1;color:#000000;fill:#000000;fill-opacity:1;fill-rule:nonzero;stroke:none;stroke-width:1.5;marker:none;visibility:visible;display:inline;overflow:visible;enable-background:accumulate" />
    <path
       d="m 6,83 0,1 c 0,3.324 2.676,6 6,6 l 72,0 c 3.324,0 6,-2.676 6,-6 l 0,-1 c 0,3.324 -2.676,6 -6,6 L 12,89 C 8.676,89 6,86.324 6,83 z"
       inkscape:connector-curvature="0"
       id="rect4336"
       style="opacity:0.15;color:#000000;fill:#000000;fill-opacity:1;fill-rule:nonzero;stroke:none;stroke-width:1.5;marker:none;visibility:visible;display:inline;overflow:visible;enable-background:accumulate" />
  </g>
  <g
     id="layer5"
     style="display:none">
    <rect
       width="66"
       height="62"
       rx="12"
       ry="12"
       x="15"
       y="15"
       clip-path="url(#clipPath4355)"
       id="rect3171"
       style="opacity:0.1;fill:url(#linearGradient3613);fill-opacity:1;fill-rule:nonzero;stroke:#ffffff;stroke-width:0.5;stroke-linecap:round;stroke-linejoin:miter;stroke-miterlimit:4;stroke-opacity:1;stroke-dasharray:none;stroke-dashoffset:0;filter:url(#filter3794)" />
  </g>
  <g
     id="layer6">
    <path
       d="m 56.59375,27.25 c -4.631607,0.04621 -9.321387,-0.07628 -14,0.0625 a 0.91573532,0.91573532 0 0 0 -0.625,0.25 C 41.513401,28.026639 41.16674,28.030106 40.4375,27.96875 39.755813,27.911395 38.801715,27.777916 37.75,28 l 0,-0.03125 c -0.03342,0.0018 -0.06037,0.02886 -0.09375,0.03125 -0.037,0.0088 -0.05644,-0.0099 -0.09375,0 l 0,0.03125 C 35.978645,28.173979 34.491005,28.990572 33.75,30.5 l -0.03125,-0.03125 c -0.02469,0.03831 -0.03773,0.0867 -0.0625,0.125 -1.610789,2.49072 -3.377617,4.952659 -4.9375,7.5625 a 0.91573532,0.91573532 0 0 0 -0.09375,0.1875 c -0.3651,1.073269 0.05854,2.108141 0.65625,2.75 0.586614,0.629945 1.307764,1.032694 1.875,1.34375 0.01208,0.0074 0.01917,0.02388 0.03125,0.03125 0.882418,0.538203 1.805689,1.066102 2.6875,1.625 -0.31621,-0.02843 -0.651858,-0.0514 -0.9375,-0.03125 -0.819341,0.05781 -1.540952,0.193573 -2.0625,0.15625 a 0.91573532,0.91573532 0 0 0 -0.125,0 c -2.935914,0.198056 -5.955975,0.229223 -8.96875,0.53125 a 0.91573532,0.91573532 0 0 0 -0.125,0.03125 c -2.515727,0.664592 -2.583441,4.326028 -0.3125,5.3125 L 21.3125,50.125 c 0.140625,0.109987 0.180462,0.08385 0.3125,0.15625 0.27992,0.153491 0.481186,0.285698 0.65625,0.34375 -2.314548,4.336167 -2.064138,9.787683 0.78125,13.84375 0.0046,0.0071 -0.0046,0.02418 0,0.03125 2.080225,3.166554 4.549348,6.015314 6.875,8.84375 a 0.91573532,0.91573532 0 0 0 0.6875,0.3125 c 0.788959,0.03975 1.139835,0.296724 1.6875,0.78125 0.547665,0.484526 1.188318,1.216702 2.21875,1.8125 a 0.91573532,0.91573532 0 0 0 0.28125,0.125 c 2.141609,0.411378 4.252324,0.06552 6.09375,0.15625 a 0.91573532,0.91573532 0 0 0 0.0625,0 c 2.175379,-0.05187 4.455484,0.138586 6.78125,-0.0625 a 0.91573532,0.91573532 0 0 0 0.15625,-0.03125 c 0.618504,-0.166825 1.136489,-0.522643 1.46875,-0.96875 0.332261,-0.446107 0.483179,-0.933677 0.5625,-1.40625 0.05223,-0.311164 0.0219,-0.517431 0.03125,-0.8125 1.273908,2.247183 2.475916,4.53618 3.90625,6.75 a 0.91573532,0.91573532 0 0 0 0.09375,0.125 c 1.761954,1.918258 5.108918,0.232914 4.84375,-2.28125 l 0.03125,0 c 7.78e-4,-0.07624 -3.14e-4,-0.08181 0,-0.15625 0.0017,-0.402344 0.0247,-0.671307 0.03125,-0.84375 0.02542,0.0068 7.72e-4,-0.0099 0.03125,0 A 0.91573532,0.91573532 0 0 0 59.1875,76.875 c 4.814891,0.06457 9.409749,-2.609546 11.71875,-6.84375 0.0071,-0.01217 0.02419,-0.01907 0.03125,-0.03125 1.90628,-3.289156 3.377798,-6.773961 4.875,-10.15625 a 0.91573532,0.91573532 0 0 0 0,-0.6875 c -0.265564,-0.702059 -0.249602,-1.141012 -0.125,-1.71875 0.124602,-0.577738 0.415672,-1.297644 0.6875,-2.25 a 0.91573532,0.91573532 0 0 0 0.03125,-0.25 c -0.02282,-2.020483 -1.354621,-3.412711 -1.8125,-4.59375 a 0.91573532,0.91573532 0 0 0 -0.03125,-0.0625 c -1.293447,-2.493769 -2.479587,-5.085612 -3.875,-7.59375 a 0.91573532,0.91573532 0 0 0 -0.125,-0.15625 C 69.909777,41.792388 68.936855,41.524639 68.125,41.625 67.362559,41.719253 66.709574,42.066538 66.15625,42.5 L 66.125,42.53125 c -0.02504,0.01996 -0.06924,0.0109 -0.09375,0.03125 l -0.59375,0.375 c 1.27173,-2.244445 2.546945,-4.478571 3.78125,-6.75 A 0.91573532,0.91573532 0 0 0 69.25,36.0625 c 0.963259,-2.525148 -2.277545,-4.92448 -4.375,-3.21875 a 0.91573532,0.91573532 0 0 0 -0.09375,0.0625 c -0.247725,0.245759 -0.219795,0.232589 -0.21875,0.25 -0.03494,-0.06802 -0.08101,-0.102009 -0.125,-0.25 A 0.91573532,0.91573532 0 0 0 64.34375,32.6875 c -1.577922,-2.688362 -4.078864,-5.412465 -7.75,-5.4375 z M 47.8125,40.28125 c 0.284303,0.416037 0.590441,0.925884 0.75,1.25 0.175691,0.356886 0.147762,0.557034 0.15625,0.53125 0.0085,-0.02578 0.03842,0.08706 -0.5,0.21875 a 0.91573532,0.91573532 0 0 0 -0.0625,0 c -0.840662,0.278194 -1.562546,0.846076 -2,1.625 -0.437454,0.778924 -0.530492,1.866736 0,2.78125 0.651766,1.098905 1.827434,1.432348 2.78125,1.46875 0.953816,0.0364 1.85518,-0.09338 2.40625,-0.03125 a 0.91573532,0.91573532 0 0 0 0.09375,0 L 57,48.09375 c -0.459716,0.308037 -0.935537,0.5852 -1.34375,1.03125 a 0.91573532,0.91573532 0 0 0 -0.09375,0.15625 c -0.643786,1.109034 -0.391506,2.322377 0.03125,3.1875 0.422756,0.865123 0.974142,1.594894 1.1875,2.125 a 0.91573532,0.91573532 0 0 0 0.03125,0.09375 l 0.625,1.15625 c -0.172354,-0.111923 -0.290735,-0.272755 -0.5,-0.34375 -0.0062,-0.0021 0.0063,-0.02918 0,-0.03125 -0.01048,-0.0038 -0.02076,0.0037 -0.03125,0 -0.937933,-0.329664 -1.90025,-0.05726 -2.5625,0.4375 -0.637578,0.476324 -1.04124,1.136344 -1.3125,1.8125 L 53,57.6875 49.96875,63.15625 c 0.005,-0.864415 0.08438,-1.664349 -0.0625,-2.5625 a 0.91573532,0.91573532 0 0 0 -0.0625,-0.1875 c -0.25321,-0.602113 -0.696954,-1.09907 -1.1875,-1.375 -0.490546,-0.27593 -0.985705,-0.342922 -1.46875,-0.375 -0.96609,-0.06416 -1.899424,0.08931 -2.46875,0.0625 a 0.91573532,0.91573532 0 0 0 -0.0625,0 L 41.4375,58.8125 c 0.249409,-0.119553 0.504767,-0.193517 0.71875,-0.40625 l 0.03125,0.03125 c 0.01893,-0.01706 0.013,-0.04506 0.03125,-0.0625 0.781557,-0.746905 0.95729,-1.842044 0.75,-2.6875 -0.206046,-0.840384 -0.685679,-1.510083 -1.15625,-2.0625 l 0.03125,0 c -0.01646,-0.02352 -0.04605,-0.03896 -0.0625,-0.0625 -1.831194,-2.62058 -3.594563,-5.339993 -5.5,-7.96875 1.514746,0.956761 3.001414,1.925341 4.5625,2.8125 A 0.91573532,0.91573532 0 0 0 41.03125,48.5 c 1.145273,0.322885 2.228117,-0.19636 2.84375,-0.875 0.604815,-0.666715 0.9433,-1.455329 1.21875,-2.0625 l 0.03125,-0.03125 2.6875,-5.25 z m 11,18.0625 0.375,0.6875 -0.34375,0 c 0.0011,-0.224538 -0.01371,-0.44016 -0.03125,-0.6875 z M 38.25,58.5625 c 0.231497,0.119785 0.449146,0.206999 0.71875,0.3125 l -0.875,0.03125 L 38.25,58.5625 z"
       id="path4019"
       style="opacity:0.05;fill:#ffffff;fill-opacity:1;stroke:none;display:inline" />
    <path
       d="m 56.604725,28.144321 c -4.65368,0.04643 -9.322186,-0.05397 -13.966639,0.0838 -1.35944,1.385682 -3.059776,0.176408 -4.837625,0.649078 -1.427696,0.07567 -2.699042,0.793317 -3.290238,2.104353 -1.647584,2.55638 -3.443863,5.032874 -5.000778,7.637749 -0.52067,1.530591 0.993994,2.419677 2.119851,3.037543 3.223201,1.964223 6.368636,4.097834 9.640059,5.956972 1.649355,0.465 2.448285,-1.23887 3.000827,-2.454549 1.159898,-2.235855 2.319796,-4.471711 3.479694,-6.707566 0.630436,1.584568 3.480553,4.034015 0.694645,4.715411 -1.232226,0.407772 -2.237929,1.786045 -1.50471,3.05004 0.937565,1.580774 2.98677,0.83037 4.482351,0.998974 2.919341,-0.0071 5.838682,-0.01421 8.758022,-0.02131 -1.251295,0.887252 -2.789198,1.436019 -3.826859,2.569861 -0.930164,1.60237 0.71572,3.06207 1.286895,4.4812 1.023566,1.886193 2.047131,3.772387 3.070697,5.65858 -0.912487,0.0093 -1.824975,0.01862 -2.737462,0.02793 -0.0093,-1.279955 0.209623,-3.080726 -1.340797,-3.57546 -1.309299,-0.478955 -2.389369,0.634093 -2.816283,1.7703 -1.565923,2.808449 -3.131846,5.616898 -4.697769,8.425346 -0.0747,-1.931557 0.199078,-3.9096 -0.111733,-5.810121 -0.737876,-1.754609 -2.849377,-1.061178 -4.318484,-1.130362 -2.69463,0.07883 -5.38926,0.157664 -8.083891,0.236497 0.409688,-0.828687 0.819376,-1.657375 1.229064,-2.486062 1.12763,0.583423 2.629005,1.565681 3.743059,0.391066 1.165463,-1.050786 0.345787,-2.646596 -0.488765,-3.609945 -2.021413,-2.888436 -3.930991,-5.888583 -6.019688,-8.708631 -1.219779,-0.938803 -2.859961,-0.218351 -4.26625,-0.318987 -2.970343,0.200379 -5.95982,0.245874 -8.918257,0.542454 -1.770801,0.467801 -1.77829,3.241748 -0.0088,3.738678 0.579732,0.453425 2.196287,0.551927 1.293693,1.512778 -2.233831,4.056479 -2.04131,9.25245 0.638579,13.054214 2.037133,3.105053 4.505373,5.941088 6.84754,8.789609 2.043279,0.102959 2.58378,1.683906 4.357591,2.709528 1.931114,0.370944 3.956017,0.0706 5.924752,0.1676 2.239887,-0.05341 4.505939,0.108408 6.729023,-0.0838 1.793076,-0.483634 1.356212,-2.584003 1.412349,-3.989021 -0.04285,-1.14597 -0.05479,-2.173381 0.610847,-0.601909 1.676687,2.835706 3.17731,5.798081 4.960123,8.557455 1.205578,1.312525 3.595896,0.08572 3.298199,-1.659636 0.01059,-1.037982 -0.303164,-2.393285 1.233075,-1.893751 4.478112,0.06005 8.803982,-2.441421 10.937158,-6.386145 1.87774,-3.232993 3.332008,-6.712019 4.839061,-10.116561 -0.647692,-1.712275 0.02182,-2.713897 0.533102,-4.505186 -0.01768,-1.565609 -1.197317,-2.82824 -1.748509,-4.249968 -1.305806,-2.517597 -2.494842,-5.11687 -3.868449,-7.585814 -0.901021,-1.019927 -2.330053,-0.592664 -3.236321,0.15965 -1.230377,0.738226 -2.460755,1.476453 -3.691132,2.214679 1.815872,-3.252799 3.699918,-6.482263 5.474922,-9.748714 0.643221,-1.68618 -1.594331,-3.31288 -2.98886,-2.178796 -0.864388,0.85753 -1.516273,0.829092 -1.880817,-0.397324 -1.503296,-2.561219 -3.730872,-4.999806 -6.946099,-5.021732 z"
       inkscape:connector-curvature="0"
       id="path4009"
       style="opacity:0.1;fill:#ffffff;fill-opacity:1;stroke:none;display:inline" />
    <path
       d="m 57.6875,21.25 -15.09375,0.03125 a 0.99173502,0.99173502 0 0 0 -0.8125,1.5625 c -1.009471,-0.50055 -2.102527,-0.880893 -3.375,-0.90625 -1.041237,-0.02075 -2.175963,0.147255 -3.375,0.59375 a 0.99173502,0.99173502 0 0 0 -0.46875,0.375 L 28.59375,31.875 A 0.99173502,0.99173502 0 0 0 28.875,33.28125 L 40.5,40.5625 a 0.99173502,0.99173502 0 0 0 1.40625,-0.375 l 5.625,-10.8125 A 0.99173502,0.99173502 0 0 0 47.65625,29 c 1.638147,2.379133 3.013742,5.021726 4.09375,7.46875 l -3.46875,1.875 a 0.99173502,0.99173502 0 0 0 0.46875,1.875 L 62.375,40.1875 a 0.99173502,0.99173502 0 0 0 0.875,-0.5 l 6.34375,-11.25 A 0.99173502,0.99173502 0 0 0 68.1875,27.09375 L 65.71875,28.65625 64.0625,25.75 A 0.99173502,0.99173502 0 0 0 64,25.6875 c -0.736818,-1.107898 -1.480223,-2.130028 -2.46875,-2.9375 -0.988527,-0.807472 -2.215491,-1.362261 -3.75,-1.5 a 0.99173502,0.99173502 0 0 0 -0.09375,0 z M 70.78125,37.3125 A 0.99173502,0.99173502 0 0 0 70.375,37.46875 L 58.6875,44.5625 a 0.99173502,0.99173502 0 0 0 -0.375,1.3125 l 5.78125,10.65625 a 0.99173502,0.99173502 0 0 0 0.1875,0.25 L 57.96875,56.8125 57.9375,53.71875 A 0.99173502,0.99173502 0 0 0 56.0625,53.25 l -6.25,11.1875 a 0.99173502,0.99173502 0 0 0 0,0.96875 l 6.25,11 a 0.99173502,0.99173502 0 0 0 1.875,-0.5 L 57.96875,72.375 60,72.375 c 5.159903,-0.0022 8.388676,-1.949296 10.6875,-5.0625 2.298824,-3.113204 3.835726,-7.28379 6.1875,-12.09375 A 0.99173502,0.99173502 0 0 0 75.5,53.90625 c 1.196506,-1.260947 2.16389,-2.707206 2.0625,-4.3125 a 0.99173502,0.99173502 0 0 0 -0.125,-0.375 L 71.75,37.875 a 0.99173502,0.99173502 0 0 0 -0.96875,-0.5625 z m -38.75,2.75 L 19.375,40.75 A 0.99173502,0.99173502 0 0 0 19,42.625 l 3.1875,1.59375 -0.90625,1.84375 c -2.299386,4.618594 -2.007823,8.39104 -0.25,11.84375 1.757823,3.45271 4.805063,6.655785 8.0625,10.90625 a 0.99173502,0.99173502 0 0 0 1.6875,-1 c -0.05874,-0.133158 -0.04366,-0.272053 -0.09375,-0.40625 0.575773,1.943577 1.560999,3.774368 3.28125,4.5 A 0.99173502,0.99173502 0 0 0 34.34375,72 L 47,72 a 0.99173502,0.99173502 0 0 0 1,-1 l 0.09375,-13.625 a 0.99173502,0.99173502 0 0 0 -1.03125,-1 l -13.34375,0.40625 a 0.99173502,0.99173502 0 0 0 -0.5,0.15625 l 2.875,-5.78125 2.78125,1.375 a 0.99173502,0.99173502 0 0 0 1.25,-1.4375 L 32.90625,40.5 a 0.99173502,0.99173502 0 0 0 -0.875,-0.4375 z m -1.8125,24.5625 c 0.03423,0.69184 0.1434,1.395159 0.3125,2.09375 -0.182174,-0.692944 -0.34188,-1.380684 -0.3125,-2.09375 z"
       transform="matrix(0.89386489,0,0,0.89386489,5.0957606,10.211157)"
       id="path4385"
       style="opacity:0.2;fill:#ffffff;fill-opacity:1;stroke:none;display:inline" />
    <path
       d="m 56.660591,30.099652 -13.491772,0.02793 c 1.471541,0.879277 3.3924,2.856093 5.000057,5.111791 1.795685,2.519528 3.25492,5.427682 4.329658,7.960982 l -3.82686,2.067063 12.178909,-0.02794 5.670456,-10.055978 -3.016795,1.899463 -1.927395,-3.40786 c -1.287209,-1.93548 -2.489112,-3.357598 -4.916258,-3.57546 z m -17.262765,0.614532 c -0.82551,-0.01645 -1.709838,0.113004 -2.681595,0.474866 l -5.335255,8.016849 10.391178,6.508453 5.027991,-9.664912 c -1.539488,-2.133882 -3.825108,-5.263972 -7.402319,-5.335256 z m 29.050609,13.743171 -10.447045,6.340854 5.167655,9.525248 4.162059,0.05587 c 2.431975,0.02626 6.35444,-3.355755 6.201187,-5.782189 L 68.448435,44.457355 z m -34.665198,2.458129 -11.312978,0.614532 3.631326,1.815663 -1.201131,2.430195 c -3.927105,7.888064 1.017281,11.738191 6.89952,19.413628 -0.84057,-1.905471 -0.791863,-3.947005 -0.05586,-5.921854 l 5.223523,-10.502913 3.268194,1.62013 -6.452588,-9.469381 z m 22.206956,11.312978 -5.586655,10.000113 5.586655,9.832514 0.02794,-4.050325 2.709528,0 c 8.812725,-0.0037 10.026423,-6.14542 14.273904,-14.832571 -1.330856,1.602042 -3.155341,2.459449 -5.251455,2.681594 l -11.731977,0.02794 -0.02794,-3.659259 z m -8.798983,3.268192 -11.927509,0.363133 -1.899463,3.687194 c -1.108158,2.164625 0.189746,7.183522 2.430195,8.128583 l 11.312977,0 0.0838,-12.17891 z"
       inkscape:connector-curvature="0"
       id="path3292"
       style="opacity:0.5;fill:url(#radialGradient4366);fill-opacity:1;stroke:none;display:inline" />
    <path
       d="m 56.660591,30.099652 -13.491772,0.02793 c 1.471541,0.879277 3.3924,2.856093 5.000057,5.111791 1.795685,2.519528 3.25492,5.427682 4.329658,7.960982 l -3.82686,2.067063 12.178909,-0.02794 5.670456,-10.055978 -3.016795,1.899463 -1.927395,-3.40786 c -1.287209,-1.93548 -2.489112,-3.357598 -4.916258,-3.57546 z m -17.262765,0.614532 c -0.82551,-0.01645 -1.709838,0.113004 -2.681595,0.474866 l -5.335255,8.016849 10.391178,6.508453 5.027991,-9.664912 c -1.539488,-2.133882 -3.825108,-5.263972 -7.402319,-5.335256 z m 17.123099,1.089398 c 0.909719,0.08165 1.419002,0.316102 1.955329,0.754197 0.536328,0.438097 1.061249,1.142711 1.675998,2.067063 l 1.871529,3.296127 a 1.7040449,1.7040449 0 0 0 0.642466,0.642465 l -2.821262,4.972124 -5.670455,0.02794 a 1.7040449,1.7040449 0 0 0 -0.111733,-1.033532 c -1.1082,-2.612173 -2.595128,-5.59937 -4.497258,-8.268249 -0.634151,-0.889776 -1.32958,-1.66221 -2.011196,-2.430195 l 8.966582,-0.02794 z m -17.151032,0.614532 c 2.270397,0.04525 3.961168,1.963326 5.391122,3.854792 L 41.12969,43.284157 33.783237,38.7031 37.777696,32.697446 c 0.558824,-0.156735 1.112138,-0.288897 1.592197,-0.279332 z m 29.078542,12.039241 -10.447045,6.340854 5.167655,9.525248 4.162059,0.05587 c 2.431975,0.02626 6.35444,-3.355755 6.201187,-5.782189 L 68.448435,44.457361 z m -0.698332,2.430195 4.022392,7.988918 c -0.07291,0.376192 -0.551844,1.396699 -1.508398,2.262596 -1.046325,0.947162 -2.488654,1.540826 -2.90506,1.53633 l -3.15646,-0.05587 -3.910659,-7.206786 7.458185,-4.525191 z m -33.966866,0.02794 -11.312978,0.614533 3.631326,1.815662 -1.201131,2.430195 c -3.927105,7.888064 1.017281,11.738191 6.89952,19.413628 -0.84057,-1.905471 -0.791863,-3.947005 -0.05586,-5.921854 l 5.223523,-10.502913 3.268194,1.62013 -6.452588,-9.469381 z m -0.837999,1.759797 3.156461,4.636923 a 1.7040449,1.7040449 0 0 0 -0.670398,0.698333 l -5.223523,10.50291 a 1.7040449,1.7040449 0 0 0 -0.05586,0.167599 c -0.164801,0.442199 -0.1463,0.912025 -0.251401,1.368731 -1.556096,-1.943406 -2.924898,-3.699296 -3.715125,-5.251456 -1.306007,-2.565255 -1.535711,-4.678621 0.2514,-8.26825 l 1.201131,-2.430195 a 1.7040449,1.7040449 0 0 0 0.139666,-1.145264 l 5.167656,-0.279333 z m 23.044955,9.553181 -5.586655,10.000113 5.586655,9.832514 0.02794,-4.050325 2.709528,0 c 8.812725,-0.0037 10.026423,-6.14542 14.273904,-14.832571 -1.330856,1.602042 -3.155341,2.459449 -5.251455,2.681595 l -11.731977,0.02794 -0.02794,-3.65926 z m -8.798983,3.268193 -11.927509,0.363133 -1.899463,3.687193 c -1.108158,2.164625 0.189746,7.183522 2.430195,8.128584 l 11.312977,0 0.0838,-12.17891 z m 22.06729,1.675997 c -1.042643,2.258186 -2.012229,4.272185 -3.044728,5.670455 -1.707416,2.312285 -3.475536,3.462018 -7.486118,3.463727 l -2.709528,0 a 1.7040449,1.7040449 0 0 0 -1.117331,0.418999 l -2.541928,-4.497258 2.737461,-4.916256 a 1.7040449,1.7040449 0 0 0 0.921798,0.279331 l 11.731977,-0.02794 a 1.7040449,1.7040449 0 0 0 0.1676,0 c 0.467398,-0.04954 0.887727,-0.282186 1.340797,-0.391065 z m -23.77122,0.0838 -0.0838,8.715183 -9.050382,0 c -0.306107,-0.233303 -1.044073,-1.130883 -1.396664,-2.374328 -0.385415,-1.359205 -0.271504,-2.901542 -0.0838,-3.268194 l 1.452531,-2.793328 9.162115,-0.279333 z"
       inkscape:connector-curvature="0"
       id="path3907"
       style="opacity:0.1;fill:#000000;fill-opacity:1;stroke:none;display:inline" />
    <path
       d="m 56.660591,30.099652 -13.491772,0.02793 c 1.471541,0.879277 3.3924,2.856093 5.000057,5.111791 1.795685,2.519528 3.25492,5.427682 4.329658,7.960982 l -3.82686,2.067063 12.178909,-0.02794 5.670456,-10.055978 -3.016795,1.899463 -1.927395,-3.40786 c -1.287209,-1.93548 -2.489112,-3.357598 -4.916258,-3.57546 z m -17.262765,0.614532 c -0.82551,-0.01645 -1.709838,0.113004 -2.681595,0.474866 l -5.335255,8.016849 10.391178,6.508453 5.027991,-9.664912 c -1.539488,-2.133882 -3.825108,-5.263972 -7.402319,-5.335256 z m 17.178966,0.251399 c 1.056779,0.09485 1.755371,0.421324 2.402262,0.949731 0.633404,0.517392 1.229961,1.260577 1.843596,2.178796 l 0.02794,0.05586 1.899463,3.351993 a 0.8793163,0.8793163 0 0 0 1.229064,0.335199 l 0.0838,-0.05587 -3.715126,6.592253 -8.18445,0.02794 0.754199,-0.418999 a 0.8793163,0.8793163 0 0 0 0.391066,-1.117332 C 52.216594,40.29115 50.745753,37.333162 48.89514,34.736566 47.849693,33.269703 46.70033,32.04012 45.57108,30.993508 l 11.005712,-0.02794 z m -17.206899,0.614532 c 2.886365,0.05752 4.859885,2.517716 6.368787,4.581057 l -4.301725,8.296183 -8.826916,-5.530788 4.636925,-6.955386 c 0.772126,-0.258137 1.469828,-0.404078 2.122929,-0.391066 z m 29.078542,12.87724 -10.447045,6.340854 5.167655,9.525248 4.162059,0.05587 c 2.431975,0.02626 6.35444,-3.355755 6.201187,-5.782189 L 68.448435,44.457361 z m -0.363132,1.229065 4.553123,9.078315 c -0.01347,0.734041 -0.707343,1.98558 -1.815663,2.988861 -1.152381,1.043167 -2.688269,1.768472 -3.491659,1.759796 l -3.631327,-0.05587 -4.525191,-8.35205 8.910717,-5.419056 z m -34.302066,1.229064 -11.312978,0.614532 3.631326,1.815663 -1.201131,2.430195 c -3.927105,7.888064 1.017281,11.738191 6.89952,19.413628 -0.84057,-1.905471 -0.791863,-3.947005 -0.05586,-5.921854 l 5.223523,-10.502913 3.268194,1.62013 -6.452588,-9.469381 z m -0.446932,0.893864 4.273792,6.312921 -0.251401,-0.139666 a 0.8793163,0.8793163 0 0 0 -1.173197,0.391066 l -5.223523,10.502912 a 0.8793163,0.8793163 0 0 0 -0.02794,0.0838 c -0.36317,0.974471 -0.551549,1.980901 -0.586598,2.988861 -2.0295,-2.519082 -3.862256,-4.772388 -4.888324,-6.787787 -1.390453,-2.731123 -1.649039,-5.233362 0.223467,-8.994515 l 1.20113,-2.430195 A 0.8793163,0.8793163 0 0 0 26.492648,48.56355 l -0.698332,-0.335199 7.541985,-0.419 z m 22.653888,10.419114 -5.586655,10.000113 5.586655,9.832514 0.02794,-4.050325 2.709528,0 c 8.812725,-0.0037 10.026423,-6.14542 14.273904,-14.832571 -1.330856,1.602042 -3.155341,2.459449 -5.251455,2.681594 l -11.731977,0.02794 -0.02794,-3.659259 z m -8.798983,3.268192 -11.927509,0.363133 -1.899463,3.687194 c -1.108158,2.164625 0.189746,7.183522 2.430195,8.128583 l 11.312977,0 0.0838,-12.17891 z m 7.960985,0 0,0.391067 a 0.8793163,0.8793163 0 0 0 0.865931,0.865932 l 11.731977,-0.02794 a 0.8793163,0.8793163 0 0 0 0.0838,0 c 1.039945,-0.110212 2.015409,-0.416945 2.932995,-0.837998 -1.356777,2.958914 -2.562541,5.60455 -3.910659,7.430252 -1.818022,2.462075 -3.926451,3.825068 -8.128584,3.826858 l -2.709528,0 a 0.8793163,0.8793163 0 0 0 -0.865931,0.865933 l 0,0.782131 -3.74306,-6.592254 3.74306,-6.703987 z m -8.826916,0.893866 -0.0838,10.419112 -10.167713,0 C 35.417847,72.487685 34.587561,71.27815 34.174306,69.820771 33.749883,68.324004 33.78135,66.651066 34.14637,65.938046 l 1.675996,-3.24026 10.502913,-0.307266 z"
       inkscape:connector-curvature="0"
       id="path3890"
       style="opacity:0.25;fill:#000000;fill-opacity:1;stroke:none;display:inline" />
  </g>
</svg>
