#define close_width 15
#define close_height 15
static unsigned char close_bits[] = {
   0x00, 0x00, 0x00, 0x00, 0x00, 0x00, 0x00, 0x00, 0x26, 0x38, 0x29, 0x04,
   0x21, 0x04, 0x21, 0x18, 0x21, 0x20, 0x29, 0x20, 0xc6, 0x1d, 0x00, 0x00,
   0x00, 0x00, 0x00, 0x00, 0x00, 0x00 };
