#define iconify_width 15
#define iconify_height 15
static unsigned char iconify_bits[] = {
   0x00, 0x00, 0x00, 0x00, 0x00, 0x00, 0x00, 0x00, 0xd1, 0x45, 0x9b, 0x44,
   0x9f, 0x4c, 0x95, 0x54, 0x91, 0x64, 0x91, 0x44, 0xd1, 0x45, 0x00, 0x00,
   0x00, 0x00, 0x00, 0x00, 0x00, 0x00 };
