#define max_width 15
#define max_height 15
static unsigned char max_bits[] = {
   0x00, 0x00, 0x00, 0x00, 0x00, 0x00, 0x00, 0x00, 0x91, 0x49, 0x5b, 0x4a,
   0x5f, 0x4a, 0xd5, 0x33, 0x51, 0x4a, 0x51, 0x4a, 0x51, 0x4a, 0x00, 0x00,
   0x00, 0x00, 0x00, 0x00, 0x00, 0x00 };
