#define max_toggled_width 15
#define max_toggled_height 15
static unsigned char max_toggled_bits[] = {
   0x00, 0x00, 0x00, 0x00, 0x00, 0x00, 0x00, 0x00, 0xc7, 0x7d, 0x29, 0x10,
   0x29, 0x10, 0xc7, 0x10, 0x09, 0x11, 0x09, 0x11, 0xe9, 0x10, 0x00, 0x00,
   0x00, 0x00, 0x00, 0x00, 0x00, 0x00 };
