<?xml version="1.0" encoding="UTF-8" standalone="no"?>
<!-- Created with Inkscape (http://www.inkscape.org/) -->

<svg
   xmlns:dc="http://purl.org/dc/elements/1.1/"
   xmlns:cc="http://creativecommons.org/ns#"
   xmlns:rdf="http://www.w3.org/1999/02/22-rdf-syntax-ns#"
   xmlns:svg="http://www.w3.org/2000/svg"
   xmlns="http://www.w3.org/2000/svg"
   xmlns:xlink="http://www.w3.org/1999/xlink"
   xmlns:inkscape="http://www.inkscape.org/namespaces/inkscape"
   version="1.0"
   width="96"
   height="96"
   id="svg2408">
  <defs
     id="defs2410">
    <linearGradient
       id="linearGradient4384">
      <stop
         id="stop4386"
         style="stop-color:#ffffff;stop-opacity:1"
         offset="0" />
      <stop
         id="stop4388"
         style="stop-color:#ffffff;stop-opacity:0"
         offset="1" />
    </linearGradient>
    <linearGradient
       id="linearGradient4367">
      <stop
         id="stop4369"
         style="stop-color:#ffffff;stop-opacity:0.71755725"
         offset="0" />
      <stop
         id="stop4371"
         style="stop-color:#ffffff;stop-opacity:1"
         offset="1" />
    </linearGradient>
    <linearGradient
       x1="45.447727"
       y1="92.539597"
       x2="45.447727"
       y2="7.0165396"
       id="ButtonShadow"
       gradientUnits="userSpaceOnUse"
       gradientTransform="scale(1.0058652,0.994169)">
      <stop
         id="stop3750"
         style="stop-color:#000000;stop-opacity:1"
         offset="0" />
      <stop
         id="stop3752"
         style="stop-color:#000000;stop-opacity:0.58823532"
         offset="1" />
    </linearGradient>
    <linearGradient
       id="linearGradient3737">
      <stop
         id="stop3739"
         style="stop-color:#ffffff;stop-opacity:1"
         offset="0" />
      <stop
         id="stop3741"
         style="stop-color:#ffffff;stop-opacity:0"
         offset="1" />
    </linearGradient>
    <filter
       color-interpolation-filters="sRGB"
       id="filter3174">
      <feGaussianBlur
         id="feGaussianBlur3176"
         stdDeviation="1.71" />
    </filter>
    <filter
       x="-0.192"
       y="-0.192"
       width="1.3839999"
       height="1.3839999"
       color-interpolation-filters="sRGB"
       id="filter3794">
      <feGaussianBlur
         id="feGaussianBlur3796"
         stdDeviation="5.28" />
    </filter>
    <linearGradient
       x1="48"
       y1="20.220806"
       x2="48"
       y2="138.66119"
       id="linearGradient3613"
       xlink:href="#linearGradient3737"
       gradientUnits="userSpaceOnUse" />
    <linearGradient
       x1="45.447727"
       y1="92.539597"
       x2="45.447727"
       y2="7.0165396"
       id="ButtonShadow-0"
       gradientUnits="userSpaceOnUse"
       gradientTransform="matrix(1.0058652,0,0,0.994169,100,0)">
      <stop
         id="stop3750-8"
         style="stop-color:#000000;stop-opacity:1"
         offset="0" />
      <stop
         id="stop3752-5"
         style="stop-color:#000000;stop-opacity:0.58823532"
         offset="1" />
    </linearGradient>
    <linearGradient
       x1="32.251034"
       y1="6.1317081"
       x2="32.251034"
       y2="90.238609"
       id="linearGradient3780"
       xlink:href="#ButtonShadow-0"
       gradientUnits="userSpaceOnUse"
       gradientTransform="matrix(1.0238095,0,0,1.0119048,-1.1428571,-98.071429)" />
    <linearGradient
       x1="32.251034"
       y1="6.1317081"
       x2="32.251034"
       y2="90.238609"
       id="linearGradient3772"
       xlink:href="#ButtonShadow-0"
       gradientUnits="userSpaceOnUse"
       gradientTransform="matrix(1.0238095,0,0,1.0119048,-1.1428571,-98.071429)" />
    <linearGradient
       x1="32.251034"
       y1="6.1317081"
       x2="32.251034"
       y2="90.238609"
       id="linearGradient3725"
       xlink:href="#ButtonShadow-0"
       gradientUnits="userSpaceOnUse"
       gradientTransform="matrix(1.0238095,0,0,1.0119048,-111.14286,-98.071429)" />
    <linearGradient
       x1="32.251034"
       y1="6.1317081"
       x2="32.251034"
       y2="90.238609"
       id="linearGradient3721"
       xlink:href="#ButtonShadow-0"
       gradientUnits="userSpaceOnUse"
       gradientTransform="translate(-110,-97)" />
    <linearGradient
       x1="32.251034"
       y1="6.1317081"
       x2="32.251034"
       y2="90.238609"
       id="linearGradient3026"
       xlink:href="#ButtonShadow-0"
       gradientUnits="userSpaceOnUse"
       gradientTransform="matrix(1.0238095,0,0,1.0119048,-1.1428571,-98.071429)" />
    <clipPath
       id="clipPath4355">
      <rect
         width="84"
         height="80"
         rx="6"
         ry="6"
         x="6"
         y="6"
         id="rect4357"
         style="fill:#ffffff;fill-opacity:1;fill-rule:nonzero;stroke:none" />
    </clipPath>
    <radialGradient
       cx="48"
       cy="87.792389"
       r="42"
       fx="48"
       fy="87.792389"
       id="radialGradient4375"
       xlink:href="#linearGradient4367"
       gradientUnits="userSpaceOnUse"
       gradientTransform="matrix(1,-6.7114942e-8,8.4282233e-8,1.2557894,109.99999,-24.505592)" />
    <linearGradient
       x1="48"
       y1="82"
       x2="112.12357"
       y2="82.454597"
       id="linearGradient4429"
       xlink:href="#linearGradient4384"
       gradientUnits="userSpaceOnUse"
       spreadMethod="reflect" />
    <linearGradient
       id="linearGradient3892">
      <stop
         id="stop3894"
         style="stop-color:#000000;stop-opacity:0.58823532"
         offset="0" />
      <stop
         id="stop3896"
         style="stop-color:#000000;stop-opacity:0.47058824"
         offset="0.11780351" />
      <stop
         id="stop3898"
         style="stop-color:#000000;stop-opacity:0.39215687"
         offset="0.23809524" />
      <stop
         id="stop3900"
         style="stop-color:#000000;stop-opacity:0.3137255"
         offset="1" />
    </linearGradient>
    <linearGradient
       x1="90"
       y1="88"
       x2="48"
       y2="88"
       id="linearGradient3228"
       xlink:href="#linearGradient3892"
       gradientUnits="userSpaceOnUse"
       spreadMethod="reflect" />
    <linearGradient
       id="linearGradient4101">
      <stop
         id="stop4103"
         style="stop-color:#000000;stop-opacity:1"
         offset="0" />
      <stop
         id="stop4105"
         style="stop-color:#000000;stop-opacity:0"
         offset="1" />
    </linearGradient>
    <filter
       color-interpolation-filters="sRGB"
       id="filter4117">
      <feGaussianBlur
         id="feGaussianBlur4119"
         stdDeviation="0.24925597" />
    </filter>
    <linearGradient
       x1="40"
       y1="64"
       x2="66.009178"
       y2="18.950783"
       id="linearGradient4111"
       xlink:href="#linearGradient4101"
       gradientUnits="userSpaceOnUse"
       gradientTransform="matrix(0.79335334,0.60876143,-0.60876143,0.79335334,47.167905,-11.24319)" />
    <filter
       color-interpolation-filters="sRGB"
       id="filter4121">
      <feGaussianBlur
         id="feGaussianBlur4123"
         stdDeviation="0.46576014" />
    </filter>
    <linearGradient
       x1="33"
       y1="15.5"
       x2="35"
       y2="15.5"
       id="linearGradient4063"
       xlink:href="#linearGradient4038"
       gradientUnits="userSpaceOnUse" />
    <linearGradient
       id="linearGradient4038">
      <stop
         id="stop4040"
         style="stop-color:#60607c;stop-opacity:1"
         offset="0" />
      <stop
         id="stop4048"
         style="stop-color:#9d9db2;stop-opacity:1"
         offset="0.40000001" />
      <stop
         id="stop4046"
         style="stop-color:#60607c;stop-opacity:1"
         offset="0.60000002" />
      <stop
         id="stop4042"
         style="stop-color:#3d3d4f;stop-opacity:1"
         offset="1" />
    </linearGradient>
    <linearGradient
       x1="31.999853"
       y1="41.5"
       x2="36.000145"
       y2="41.5"
       id="linearGradient4065"
       xlink:href="#linearGradient4025"
       gradientUnits="userSpaceOnUse" />
    <linearGradient
       id="linearGradient4025">
      <stop
         id="stop4027"
         style="stop-color:#d4d4d4;stop-opacity:1"
         offset="0" />
      <stop
         id="stop4035"
         style="stop-color:#ffffff;stop-opacity:1"
         offset="0.40000001" />
      <stop
         id="stop4033"
         style="stop-color:#e0e0e0;stop-opacity:1"
         offset="0.60000002" />
      <stop
         id="stop4029"
         style="stop-color:#868686;stop-opacity:1"
         offset="1" />
    </linearGradient>
    <linearGradient
       x1="31.5"
       y1="52.5"
       x2="36.5"
       y2="52.5"
       id="linearGradient4067"
       xlink:href="#linearGradient4038"
       gradientUnits="userSpaceOnUse" />
    <linearGradient
       x1="40"
       y1="64"
       x2="72.331612"
       y2="8"
       id="linearGradient3146"
       xlink:href="#linearGradient4101"
       gradientUnits="userSpaceOnUse"
       gradientTransform="matrix(0.99144486,0.13052619,-0.13052619,0.99144486,8.678126,-4.6936419)" />
    <linearGradient
       x1="12"
       y1="48"
       x2="12"
       y2="90"
       id="linearGradient3997"
       xlink:href="#linearGradient3987"
       gradientUnits="userSpaceOnUse"
       gradientTransform="translate(71,0)"
       spreadMethod="reflect" />
    <linearGradient
       id="linearGradient3987">
      <stop
         id="stop3989"
         style="stop-color:#000000;stop-opacity:1"
         offset="0" />
      <stop
         id="stop3991"
         style="stop-color:#000000;stop-opacity:0"
         offset="1" />
    </linearGradient>
    <linearGradient
       id="linearGradient3939">
      <stop
         id="stop3941"
         style="stop-color:#6f6f91;stop-opacity:1"
         offset="0" />
      <stop
         id="stop3943"
         style="stop-color:#6f6f91;stop-opacity:0"
         offset="1" />
    </linearGradient>
    <linearGradient
       x1="12"
       y1="48"
       x2="12"
       y2="90"
       id="linearGradient3993"
       xlink:href="#linearGradient3987"
       gradientUnits="userSpaceOnUse"
       spreadMethod="reflect" />
    <linearGradient
       x1="48"
       y1="88"
       x2="48"
       y2="-96"
       id="linearGradient3176"
       xlink:href="#linearGradient3939"
       gradientUnits="userSpaceOnUse" />
    <linearGradient
       id="linearGradient3700-5">
      <stop
         id="stop3702-6"
         style="stop-color:#bebebe;stop-opacity:1"
         offset="0" />
      <stop
         id="stop3704-1"
         style="stop-color:#e6e6e6;stop-opacity:1"
         offset="1" />
    </linearGradient>
    <linearGradient
       x1="48"
       y1="90"
       x2="48"
       y2="5.9877172"
       id="linearGradient3193"
       xlink:href="#linearGradient3700-5"
       gradientUnits="userSpaceOnUse" />
    <linearGradient
       x1="24"
       y1="8"
       x2="24"
       y2="136"
       id="linearGradient4021"
       xlink:href="#linearGradient4384"
       gradientUnits="userSpaceOnUse" />
    <linearGradient
       x1="48"
       y1="90"
       x2="48"
       y2="5.9877172"
       id="linearGradient3882"
       xlink:href="#ButtonShadow-0-3"
       gradientUnits="userSpaceOnUse"
       gradientTransform="translate(0,1)" />
    <linearGradient
       x1="45.447727"
       y1="92.539597"
       x2="45.447727"
       y2="7.0165396"
       id="ButtonShadow-0-3"
       gradientUnits="userSpaceOnUse"
       gradientTransform="matrix(1.0058652,0,0,0.994169,100,0)">
      <stop
         id="stop3750-8-7"
         style="stop-color:#000000;stop-opacity:1"
         offset="0" />
      <stop
         id="stop3752-5-1"
         style="stop-color:#000000;stop-opacity:0.58823532"
         offset="1" />
    </linearGradient>
    <linearGradient
       x1="32.251034"
       y1="6.1317081"
       x2="32.251034"
       y2="90.238609"
       id="linearGradient3905"
       xlink:href="#ButtonShadow-0-3"
       gradientUnits="userSpaceOnUse"
       gradientTransform="matrix(1.0238095,0,0,-1.0119048,-1.14286,98.071429)" />
    <linearGradient
       x1="32.251034"
       y1="6.1317081"
       x2="32.251034"
       y2="90.238609"
       id="linearGradient3919"
       xlink:href="#ButtonShadow-0-3"
       gradientUnits="userSpaceOnUse"
       gradientTransform="matrix(1.0238095,0,0,-1.0119048,-1.14286,98.071429)" />
    <linearGradient
       x1="32.251034"
       y1="6.1317081"
       x2="32.251034"
       y2="90.238609"
       id="linearGradient3927"
       xlink:href="#ButtonShadow-0-3"
       gradientUnits="userSpaceOnUse"
       gradientTransform="matrix(1.0238095,0,0,-1.0119048,-1.14286,98.071429)" />
    <linearGradient
       x1="32.251034"
       y1="6.1317081"
       x2="32.251034"
       y2="90.238609"
       id="linearGradient3266"
       xlink:href="#ButtonShadow-0-3"
       gradientUnits="userSpaceOnUse"
       gradientTransform="matrix(1.0238095,0,0,-1.0119048,-1.14286,98.071429)" />
  </defs>
  <metadata
     id="metadata2413">
    <rdf:RDF>
      <cc:Work
         rdf:about="">
        <dc:format>image/svg+xml</dc:format>
        <dc:type
           rdf:resource="http://purl.org/dc/dcmitype/StillImage" />
        <dc:title />
      </cc:Work>
    </rdf:RDF>
  </metadata>
  <g
     id="layer2"
     style="display:none">
    <rect
       width="86"
       height="85"
       rx="6"
       ry="6"
       x="5"
       y="7"
       id="rect3745"
       style="opacity:0.9;fill:url(#ButtonShadow);fill-opacity:1;fill-rule:nonzero;stroke:none;filter:url(#filter3174)" />
  </g>
  <g
     id="layer3"
     style="display:inline">
    <path
       d="m 12,-95.03125 c -5.5110903,0 -10.03125,4.52016 -10.03125,10.03125 l 0,71 c 0,5.5110902 4.5201598,10.03125 10.03125,10.03125 l 72,0 c 5.51109,0 10.03125,-4.5201597 10.03125,-10.03125 l 0,-71 c 0,-5.51109 -4.52016,-10.03125 -10.03125,-10.03125 l -72,0 z"
       transform="matrix(1,0,0,-1,-110,0)"
       id="path3786"
       style="opacity:0.07999998;fill:url(#linearGradient3026);fill-opacity:1;fill-rule:nonzero;stroke:none;display:inline" />
    <path
       d="m 12,-94.03125 c -4.971633,0 -9.03125,4.059617 -9.03125,9.03125 l 0,71 c 0,4.9716329 4.0596171,9.03125 9.03125,9.03125 l 72,0 c 4.971633,0 9.03125,-4.059617 9.03125,-9.03125 l 0,-71 c 0,-4.971633 -4.059617,-9.03125 -9.03125,-9.03125 l -72,0 z"
       transform="matrix(1,0,0,-1,-110,0)"
       id="path3778"
       style="opacity:0.1;fill:url(#linearGradient3780);fill-opacity:1;fill-rule:nonzero;stroke:none;display:inline" />
    <path
       d="m 12,-93 c -4.4091333,0 -8,3.590867 -8,8 l 0,71 c 0,4.4091333 3.5908667,8 8,8 l 72,0 c 4.409133,0 8,-3.5908667 8,-8 l 0,-71 c 0,-4.409133 -3.590867,-8 -8,-8 l -72,0 z"
       transform="matrix(1,0,0,-1,-110,0)"
       id="path3770"
       style="opacity:0.2;fill:url(#linearGradient3772);fill-opacity:1;fill-rule:nonzero;stroke:none;display:inline" />
    <rect
       width="86"
       height="85"
       rx="7"
       ry="7"
       x="-105"
       y="-92"
       transform="scale(1,-1)"
       id="rect3723"
       style="opacity:0.3;fill:url(#linearGradient3725);fill-opacity:1;fill-rule:nonzero;stroke:none;display:inline" />
    <rect
       width="84"
       height="84"
       rx="6"
       ry="6"
       x="-104"
       y="-91"
       transform="scale(1,-1)"
       id="rect3716"
       style="opacity:0.45;fill:url(#linearGradient3721);fill-opacity:1;fill-rule:nonzero;stroke:none;display:inline" />
    <path
       d="M 12,4 C 6.5050093,4 2,8.5050093 2,14 c 0,2.053295 1.099406,3.533874 1.59375,4.25 0.2500961,0.362299 0.4028603,0.591319 0.46875,0.71875 0.06589,0.127431 0.03125,0.09423 0.03125,0.09375 l 0,56.875 c 0,-4.8e-4 0.03464,-0.03368 -0.03125,0.09375 C 3.9966103,76.158681 3.8438461,76.387701 3.59375,76.75 3.099406,77.466126 2,78.946705 2,81 l 0,4 c 0,5.494991 4.5050092,10 10,10 l 72,0 c 5.494991,0 10,-4.505009 10,-10 l 0,-4 C 94,78.946705 92.900593,77.466125 92.40625,76.75 92.156154,76.387701 92.00339,76.158681 91.9375,76.03125 91.87161,75.903819 91.90625,75.93702 91.90625,75.9375 l 0,-56.875 c 0,4.82e-4 -0.03464,0.03368 0.03125,-0.09375 C 92.00339,18.841319 92.156154,18.612299 92.40625,18.25 92.900593,17.533875 94,16.053295 94,14 94,8.5050092 89.494991,4 84,4 z"
       inkscape:connector-curvature="0"
       id="path3933"
       style="opacity:0.07999998;fill:url(#linearGradient3266);fill-opacity:1;fill-rule:nonzero;stroke:none;display:inline" />
    <path
       d="m 12,4.96875 c -4.9674861,0 -9.03125,4.0637639 -9.03125,9.03125 0,1.716493 0.8965646,2.94915 1.40625,3.6875 0.5096856,0.738351 0.6875,1.036869 0.6875,1.375 l 0,56.875 c 0,0.338131 -0.1778144,0.636649 -0.6875,1.375 C 3.8653146,78.05085 2.96875,79.283507 2.96875,81 l 0,4 c 0,4.967486 4.0637638,9.03125 9.03125,9.03125 l 72,0 c 4.967486,0 9.03125,-4.063764 9.03125,-9.03125 l 0,-4 c 0,-1.716493 -0.896565,-2.94915 -1.40625,-3.6875 -0.509685,-0.738351 -0.6875,-1.03687 -0.6875,-1.375 l 0,-56.875 c 0,-0.33813 0.177815,-0.636649 0.6875,-1.375 C 92.134685,16.94915 93.03125,15.716493 93.03125,14 93.03125,9.0325138 88.967486,4.96875 84,4.96875 z"
       inkscape:connector-curvature="0"
       id="path3925"
       style="opacity:0.1;fill:url(#linearGradient3927);fill-opacity:1;fill-rule:nonzero;stroke:none;display:inline" />
    <path
       d="m 12,5.9375 c -4.4402022,0 -8.0625,3.6222978 -8.0625,8.0625 0,1.374946 0.7265625,2.366728 1.25,3.125 0.5234375,0.758272 0.84375,1.283033 0.84375,1.9375 l 0,56.875 c 0,0.654467 -0.3203125,1.179228 -0.84375,1.9375 -0.5234375,0.758272 -1.25,1.750054 -1.25,3.125 l 0,4 c 0,4.440202 3.6222978,8.0625 8.0625,8.0625 l 72,0 c 4.440202,0 8.0625,-3.622298 8.0625,-8.0625 l 0,-4 c 0,-1.374946 -0.726563,-2.366728 -1.25,-3.125 -0.523437,-0.758272 -0.84375,-1.283033 -0.84375,-1.9375 l 0,-56.875 c 0,-0.654467 0.320313,-1.179228 0.84375,-1.9375 0.523437,-0.758272 1.25,-1.750054 1.25,-3.125 0,-4.4402022 -3.622298,-8.0625 -8.0625,-8.0625 z"
       inkscape:connector-curvature="0"
       id="path3917"
       style="opacity:0.2;fill:url(#linearGradient3919);fill-opacity:1;fill-rule:nonzero;stroke:none;display:inline" />
    <path
       d="m 12,7 c -3.878,0 -7,3.122 -7,7 0,2.029412 2.09375,3.033087 2.09375,5.0625 l 0,56.875 C 7.09375,77.966913 5,78.970588 5,81 l 0,4 c 0,3.878 3.122,7 7,7 l 72,0 c 3.878,0 7,-3.122 7,-7 l 0,-4 c 0,-2.029412 -2.09375,-3.033087 -2.09375,-5.0625 l 0,-56.875 C 88.90625,17.033087 91,16.029412 91,14 91,10.122 87.878,7 84,7 z"
       inkscape:connector-curvature="0"
       id="rect3903"
       style="opacity:0.3;fill:url(#linearGradient3905);fill-opacity:1;fill-rule:nonzero;stroke:none;display:inline" />
    <path
       d="M 12,7 C 8.676,7 6,9.676 6,13 l 0,2 c 0,2 2,3 2,5 l 0,55 c 0,2 -2,3 -2,5 l 0,5 c 0,3.324 2.676,6 6,6 l 72,0 c 3.324,0 6,-2.676 6,-6 l 0,-5 c 0,-2 -2,-3 -2,-5 l 0,-55 c 0,-2 2,-3 2,-5 l 0,-2 C 90,9.676 87.324,7 84,7 z"
       inkscape:connector-curvature="0"
       id="rect3050-0"
       style="opacity:0.45;fill:url(#linearGradient3882);fill-opacity:1;fill-rule:nonzero;stroke:none" />
  </g>
  <g
     id="layer1">
    <path
       d="m 12,6 c -3.324,0 -6,2.676 -6,6 0,2 2,3 2,5 l 0,58 c 0,2 -2,3 -2,5 l 0,4 c 0,3.324 2.676,6 6,6 l 72,0 c 3.324,0 6,-2.676 6,-6 l 0,-4 c 0,-2 -2,-3 -2,-5 l 0,-58 c 0,-2 2,-3 2,-5 C 90,8.676 87.324,6 84,6 L 12,6 z"
       inkscape:connector-curvature="0"
       id="rect3050"
       style="fill:url(#linearGradient3193);fill-opacity:1;fill-rule:nonzero;stroke:none" />
    <rect
       width="72"
       height="84"
       x="12"
       y="6"
       id="rect3937"
       style="color:#000000;fill:url(#linearGradient3176);fill-opacity:1;fill-rule:nonzero;stroke:none;stroke-width:1.5;marker:none;visibility:visible;display:inline;overflow:visible;enable-background:accumulate" />
    <path
       d="M 120.78125,6.125 C 118.04223,6.6826484 116,9.0915 116,12 l 0,68 c 0,3.324 2.676,6 6,6 l 72,0 c 3.324,0 6,-2.676 6,-6 l 0,-68 c 0,-2.9085 -2.04223,-5.3173516 -4.78125,-5.875 2.20512,0.5362071 3.8125,2.4908437 3.8125,4.875 l 0,68 c 0,2.80489 -2.22636,5.03125 -5.03125,5.03125 l -72,0 c -2.80489,0 -5.03125,-2.22636 -5.03125,-5.03125 l 0,-68 c 0,-2.3841563 1.60738,-4.3387929 3.8125,-4.875 z"
       inkscape:connector-curvature="0"
       id="rect4359"
       style="opacity:0.2;fill:url(#radialGradient4375);fill-opacity:1;fill-rule:nonzero;stroke:none" />
    <rect
       width="1"
       height="84"
       x="12"
       y="6"
       id="rect3983"
       style="opacity:0.2;color:#000000;fill:url(#linearGradient3993);fill-opacity:1;fill-rule:nonzero;stroke:none;stroke-width:1.5;marker:none;visibility:visible;display:inline;overflow:visible;enable-background:accumulate" />
    <path
       d="m 6,78 0,2 c 0,3.324 2.676,6 6,6 l 72,0 c 3.324,0 6,-2.676 6,-6 l 0,-2 c 0,3.324 -2.676,6 -6,6 L 12,84 C 8.676,84 6,81.324 6,78 z"
       inkscape:connector-curvature="0"
       id="rect4414"
       style="opacity:0.1;fill:url(#linearGradient4429);fill-opacity:1;fill-rule:nonzero;stroke:none" />
    <rect
       width="1"
       height="84"
       x="83"
       y="6"
       id="rect3995"
       style="opacity:0.2;color:#000000;fill:url(#linearGradient3997);fill-opacity:1;fill-rule:nonzero;stroke:none;stroke-width:1.5;marker:none;visibility:visible;display:inline;overflow:visible;enable-background:accumulate" />
    <path
       d="m 6,100 0,1 c 0,3.324 2.676,6 6,6 l 72,0 c 3.324,0 6,-2.676 6,-6 l 0,-1 c 0,3.324 -2.676,6 -6,6 l -72,0 c -3.324,0 -6,-2.676 -6,-6 z"
       inkscape:connector-curvature="0"
       id="path4412"
       style="opacity:0.15;fill:#000000;fill-opacity:1;fill-rule:nonzero;stroke:none" />
    <path
       d="m 20,22 0,48 56,0 0,-48 -56,0 z m 1,1 54,0 0,46 -54,0 0,-46 z"
       inkscape:connector-curvature="0"
       id="rect3999"
       style="opacity:0.3;color:#000000;fill:#ffffff;fill-opacity:1;fill-rule:nonzero;stroke:none;stroke-width:1.5;marker:none;visibility:visible;display:inline;overflow:visible;enable-background:accumulate" />
    <rect
       width="54"
       height="46"
       x="21"
       y="23"
       id="rect4004"
       style="opacity:0.1;color:#000000;fill:#54547e;fill-opacity:1;fill-rule:nonzero;stroke:none;stroke-width:1.5;marker:none;visibility:visible;display:inline;overflow:visible;enable-background:accumulate" />
    <path
       d="m 40,74 0,4 16,0 0,-4 -16,0 z m 5.40625,0.90625 0.21875,0 L 46.78125,77 46.21875,77 46,76.59375 l -0.96875,0 -0.1875,0.40625 -0.5625,0 1.125,-2.09375 z m 2.84375,0 c 0.326641,2e-6 0.585522,0.02755 0.78125,0.125 l -0.21875,0.3125 c -0.112771,-0.08231 -0.281085,-0.124998 -0.53125,-0.125 -0.237206,2e-6 -0.442096,0.07305 -0.59375,0.21875 -0.151656,0.144754 -0.218751,0.340169 -0.21875,0.5625 -10e-7,0.222333 0.07876,0.40069 0.21875,0.53125 0.141285,0.130561 0.327886,0.1875 0.5625,0.1875 0.268312,0 0.473343,-0.07873 0.625,-0.21875 l 0.21875,0.3125 c -0.206098,0.15989 -0.508318,0.21875 -0.90625,0.21875 -0.397935,0 -0.685897,-0.09014 -0.90625,-0.28125 -0.220354,-0.191111 -0.34375,-0.451063 -0.34375,-0.78125 0,-0.307479 0.131314,-0.54375 0.375,-0.75 0.244981,-0.207193 0.556416,-0.312498 0.9375,-0.3125 z m 2.34375,0 c 0.409598,2e-6 0.721032,0.09582 0.9375,0.28125 0.216463,0.185436 0.343747,0.446334 0.34375,0.78125 -3e-6,0.334918 -0.116917,0.584463 -0.34375,0.78125 -0.225541,0.196788 -0.552671,0.28125 -0.96875,0.28125 -0.38238,0 -0.670201,-0.08635 -0.875,-0.28125 -0.203504,-0.194895 -0.3125,-0.442548 -0.3125,-0.78125 0,-0.296126 0.122099,-0.545642 0.34375,-0.75 0.222946,-0.2053 0.502989,-0.312498 0.875,-0.3125 z m -9.625,0.03125 0.53125,0 0.53125,1.25 0.5625,-1.25 0.21875,0 0.59375,1.25 0.53125,-1.25 0.53125,0 -0.9375,2.09375 -0.1875,0 -0.625,-1.3125 -0.59375,1.3125 -0.21875,0 -0.9375,-2.09375 z m 11.65625,0 0.28125,0 0.59375,1.40625 0.625,-1.40625 0.25,0 0.59375,2.0625 -0.5,0 -0.28125,-1.09375 -0.59375,1.125 -0.15625,0 -0.59375,-1.125 L 52.53125,77 52.0625,77 52.625,74.9375 z m -2.03125,0.28125 c -0.22554,2e-6 -0.379454,0.05505 -0.5,0.1875 -0.120547,0.131509 -0.187501,0.339223 -0.1875,0.5625 -10e-7,0.243147 0.04348,0.429101 0.15625,0.5625 0.112769,0.1334 0.28483,0.1875 0.5,0.1875 0.252758,0 0.430286,-0.05694 0.5625,-0.1875 0.133507,-0.13056 0.218748,-0.313676 0.21875,-0.5625 -2e-6,-0.487237 -0.257446,-0.749998 -0.75,-0.75 z m -5.0625,0.3125 -0.34375,0.78125 0.6875,0 -0.34375,-0.78125 z"
       inkscape:connector-curvature="0"
       id="rect4006"
       style="opacity:0.4;color:#000000;fill:#ffffff;fill-opacity:1;fill-rule:nonzero;stroke:none;stroke-width:1.5;marker:none;visibility:visible;display:inline;overflow:visible;enable-background:accumulate" />
    <path
       d="m 116,12 0,68 c 0,-2 2,-3 2,-5 l 0,-58 c 0,-2 -2,-3 -2,-5 z m 84,0 c 0,2 -2,3 -2,5 l 0,58 c 0,2 2,3 2,5 l 0,-68 z"
       inkscape:connector-curvature="0"
       id="path3209"
       style="fill:#ff00ff;stroke:none" />
    <path
       d="m 12,6 c -3.324,0 -6,2.676 -6,6 0,2 2,3 2,5 l 0,58 c 0,2 -2,3 -2,5 0,3.324 2.676,6 6,6 l 72,0 c 3.324,0 6,-2.676 6,-6 0,-2 -2,-3 -2,-5 l 0,-58 c 0,-2 2,-3 2,-5 C 90,8.676 87.324,6 84,6 L 12,6 z m 0,1 72,0 c 2.792209,0 5,2.2077914 5,5 0,0.669717 -0.3125,1.1875 -0.8125,1.9375 C 87.6875,14.6875 87,15.669717 87,17 l 0,58 c 0,1.330283 0.6875,2.3125 1.1875,3.0625 0.5,0.75 0.8125,1.267783 0.8125,1.9375 0,2.792209 -2.207791,5 -5,5 L 12,85 C 9.2077914,85 7,82.792209 7,80 7,79.330283 7.3125,78.8125 7.8125,78.0625 8.3125,77.3125 9,76.330283 9,75 L 9,17 C 9,15.669717 8.3125,14.6875 7.8125,13.9375 7.3125,13.1875 7,12.669717 7,12 7,9.2077914 9.2077914,7 12,7 z"
       inkscape:connector-curvature="0"
       id="path4005"
       style="opacity:0.3;fill:url(#linearGradient4021);fill-opacity:1;fill-rule:nonzero;stroke:none" />
  </g>
  <g
     id="layer4"
     style="display:inline">
    <path
       d="m 6,80 0,4 c 0,3.324 2.676,6 6,6 l 72,0 c 3.324,0 6,-2.676 6,-6 l 0,-4 c 0,3.324 -2.676,6 -6,6 L 12,86 C 8.676,86 6,83.324 6,80 z"
       inkscape:connector-curvature="0"
       id="path3888"
       style="fill:url(#linearGradient3228);fill-opacity:1;fill-rule:nonzero;stroke:none;display:inline" />
    <path
       d="m 6,82 0,2 c 0,3.324 2.676,6 6,6 l 72,0 c 3.324,0 6,-2.676 6,-6 l 0,-2 c 0,3.324 -2.676,6 -6,6 L 12,88 C 8.676,88 6,85.324 6,82 z"
       inkscape:connector-curvature="0"
       id="rect4345"
       style="opacity:0.1;color:#000000;fill:#000000;fill-opacity:1;fill-rule:nonzero;stroke:none;stroke-width:1.5;marker:none;visibility:visible;display:inline;overflow:visible;enable-background:accumulate" />
    <path
       d="m 6,83 0,1 c 0,3.324 2.676,6 6,6 l 72,0 c 3.324,0 6,-2.676 6,-6 l 0,-1 c 0,3.324 -2.676,6 -6,6 L 12,89 C 8.676,89 6,86.324 6,83 z"
       inkscape:connector-curvature="0"
       id="rect4336"
       style="opacity:0.15;color:#000000;fill:#000000;fill-opacity:1;fill-rule:nonzero;stroke:none;stroke-width:1.5;marker:none;visibility:visible;display:inline;overflow:visible;enable-background:accumulate" />
  </g>
  <g
     id="layer5"
     style="display:inline">
    <rect
       width="66"
       height="62"
       rx="12"
       ry="12"
       x="15"
       y="15"
       clip-path="url(#clipPath4355)"
       id="rect3171"
       style="opacity:0.1;fill:url(#linearGradient3613);fill-opacity:1;fill-rule:nonzero;stroke:#ffffff;stroke-width:0.5;stroke-linecap:round;stroke-linejoin:miter;stroke-miterlimit:4;stroke-opacity:1;stroke-dasharray:none;stroke-dashoffset:0;filter:url(#filter3794)" />
  </g>
  <g
     id="layer6"
     style="display:inline">
    <path
       d="M 81.991846,7.7635418 C 81.824486,7.7855758 81.65964,7.8752182 81.548282,8.020342 L 80.219153,9.7365381 C 79.77794,9.6892681 79.317088,9.8642419 79.01812,10.240332 l -23.008563,28.963314 -0.0269,-0.03506 c -0.290247,-0.222716 -0.708413,-0.160672 -0.931128,0.129571 0,0 -4.687031,7.205946 -7.099105,10.349422 -1.34004,1.746375 -4.164258,4.337312 -4.164258,4.337312 -0.222714,0.290248 -0.156592,0.677432 0.133651,0.900145 0,0 -4.591128,8.153867 -3.543303,8.957892 1.047825,0.804025 7.72006,-5.72884 7.72006,-5.72884 0.290247,0.222714 0.708414,0.160671 0.931128,-0.129572 0,0 1.759438,-3.36151 3.099479,-5.107886 2.412074,-3.143475 8.159805,-9.547865 8.159805,-9.547865 0.222714,-0.290247 0.160671,-0.708414 -0.129572,-0.931128 l -0.03098,-0.0041 22.04081,-29.752634 c 0.289236,-0.390632 0.303066,-0.8573 0.136254,-1.274368 L 83.6387,9.6193763 C 83.861416,9.3291287 83.795293,8.9419446 83.50505,8.7192305 L 82.479411,7.8907702 C 82.334287,7.7794131 82.159207,7.7415082 81.991846,7.7635418 z"
       inkscape:connector-curvature="0"
       id="rect4071"
       style="opacity:0.15;color:#000000;fill:url(#linearGradient3146);fill-opacity:1;fill-rule:nonzero;stroke:none;stroke-width:1.5;marker:none;visibility:visible;display:inline;overflow:visible;filter:url(#filter4117);enable-background:accumulate" />
    <path
       d="m 104.43086,36.201907 c -0.15596,-0.0646 -0.34354,-0.06939 -0.51254,6.14e-4 l -2.00916,0.821704 c -0.35847,-0.261543 -0.84506,-0.340437 -1.29202,-0.164218 l -34.407658,13.578685 -0.0058,-0.04381 c -0.140003,-0.338001 -0.533168,-0.493352 -0.871166,-0.353352 0,0 -7.662061,3.897017 -11.322716,5.41331 -2.033697,0.842385 -5.77501,1.674093 -5.77501,1.674093 -0.338,0.140006 -0.474328,0.508378 -0.334327,0.846374 0,0 -8.052967,4.765892 -7.547536,5.986111 0.50543,1.220218 9.550188,-1.101291 9.550188,-1.101291 0.140004,0.337999 0.533169,0.493352 0.871166,0.353351 0,0 3.204473,-2.031434 5.238171,-2.873819 3.660655,-1.516293 11.840531,-4.188791 11.840531,-4.188791 0.337999,-0.140005 0.493352,-0.533169 0.353351,-0.871167 l -0.02478,-0.01904 33.964226,-14.746132 c 0.4458,-0.19368 0.69111,-0.590911 0.75518,-1.035508 l 2.02817,-0.846483 c 0.338,-0.140004 0.47433,-0.508377 0.33433,-0.846374 l -0.474,-1.230287 c -0.07,-0.169 -0.20268,-0.289367 -0.35863,-0.353966 z"
       inkscape:connector-curvature="0"
       id="path4109"
       style="opacity:0.2;color:#000000;fill:url(#linearGradient4111);fill-opacity:1;fill-rule:nonzero;stroke:none;stroke-width:1.5;marker:none;visibility:visible;display:inline;overflow:visible;filter:url(#filter4121);enable-background:accumulate" />
    <g
       transform="matrix(1.1438071,0.66037735,-0.66037735,1.1438071,45.736674,-35.279902)"
       id="g4058"
       style="display:inline">
      <rect
         width="2"
         height="3"
         ry="0.5"
         x="33"
         y="14"
         id="rect4016"
         style="color:#000000;fill:url(#linearGradient4063);fill-opacity:1;fill-rule:nonzero;stroke:none;stroke-width:1.5;marker:none;visibility:visible;display:inline;overflow:visible;enable-background:accumulate" />
      <path
         d="m 33.5,16 c -0.554,0 -0.9905,0.446082 -1,1 L 32,46 c -0.0096,0.553918 0.446,1 1,1 l 2,0 c 0.554,0 1.0095,-0.446082 1,-1 L 35.5,17 c -0.0095,-0.553918 -0.446,-1 -1,-1 l -1,0 z M 32,60 c 0,0 1,7 2,7 1,0 2,-7 2,-7 l -4,0 z"
         inkscape:connector-curvature="0"
         id="rect4014"
         style="color:#000000;fill:url(#linearGradient4065);fill-opacity:1;fill-rule:nonzero;stroke:#8f8f8f;stroke-width:0.22714287;stroke-miterlimit:4;stroke-opacity:1;stroke-dasharray:none;marker:none;visibility:visible;display:inline;overflow:visible;enable-background:accumulate" />
      <path
         d="m 32,45 4,0 c 0.277,0 0.5,0.223 0.5,0.5 0,0 -0.5,6.5 -0.5,9.5 0,1.666667 0.5,4.5 0.5,4.5 0,0.277 -0.223,0.5 -0.5,0.5 l -4,0 c -0.277,0 -0.5,-0.223 -0.5,-0.5 0,0 0.5,-2.833333 0.5,-4.5 0,-3 -0.5,-9.5 -0.5,-9.5 0,-0.277 0.223,-0.5 0.5,-0.5 z"
         inkscape:connector-curvature="0"
         id="rect4018"
         style="color:#000000;fill:url(#linearGradient4067);fill-opacity:1;fill-rule:nonzero;stroke:#424255;stroke-width:0.22714287;stroke-miterlimit:4;stroke-opacity:1;stroke-dasharray:none;marker:none;visibility:visible;display:inline;overflow:visible;enable-background:accumulate" />
    </g>
  </g>
</svg>
