<?xml version="1.0" encoding="UTF-8" standalone="no"?>
<!-- Created with Inkscape (http://www.inkscape.org/) -->

<svg
   xmlns:dc="http://purl.org/dc/elements/1.1/"
   xmlns:cc="http://creativecommons.org/ns#"
   xmlns:rdf="http://www.w3.org/1999/02/22-rdf-syntax-ns#"
   xmlns:svg="http://www.w3.org/2000/svg"
   xmlns="http://www.w3.org/2000/svg"
   xmlns:xlink="http://www.w3.org/1999/xlink"
   xmlns:inkscape="http://www.inkscape.org/namespaces/inkscape"
   version="1.0"
   width="96"
   height="96"
   id="svg2408">
  <defs
     id="defs2410">
    <linearGradient
       id="linearGradient4384">
      <stop
         id="stop4386"
         style="stop-color:#ffffff;stop-opacity:1"
         offset="0" />
      <stop
         id="stop4388"
         style="stop-color:#ffffff;stop-opacity:0"
         offset="1" />
    </linearGradient>
    <linearGradient
       id="linearGradient4367">
      <stop
         id="stop4369"
         style="stop-color:#ffffff;stop-opacity:0.71755725"
         offset="0" />
      <stop
         id="stop4371"
         style="stop-color:#ffffff;stop-opacity:1"
         offset="1" />
    </linearGradient>
    <linearGradient
       x1="45.447727"
       y1="92.539597"
       x2="45.447727"
       y2="7.0165396"
       id="ButtonShadow"
       gradientUnits="userSpaceOnUse"
       gradientTransform="scale(1.0058652,0.994169)">
      <stop
         id="stop3750"
         style="stop-color:#000000;stop-opacity:1"
         offset="0" />
      <stop
         id="stop3752"
         style="stop-color:#000000;stop-opacity:0.58823532"
         offset="1" />
    </linearGradient>
    <linearGradient
       id="linearGradient3737">
      <stop
         id="stop3739"
         style="stop-color:#ffffff;stop-opacity:1"
         offset="0" />
      <stop
         id="stop3741"
         style="stop-color:#ffffff;stop-opacity:0"
         offset="1" />
    </linearGradient>
    <filter
       color-interpolation-filters="sRGB"
       id="filter3174">
      <feGaussianBlur
         id="feGaussianBlur3176"
         stdDeviation="1.71" />
    </filter>
    <filter
       x="-0.192"
       y="-0.192"
       width="1.3839999"
       height="1.3839999"
       color-interpolation-filters="sRGB"
       id="filter3794">
      <feGaussianBlur
         id="feGaussianBlur3796"
         stdDeviation="5.28" />
    </filter>
    <linearGradient
       x1="48"
       y1="20.220806"
       x2="48"
       y2="138.66119"
       id="linearGradient3613"
       xlink:href="#linearGradient3737"
       gradientUnits="userSpaceOnUse" />
    <linearGradient
       x1="45.447727"
       y1="92.539597"
       x2="45.447727"
       y2="7.0165396"
       id="ButtonShadow-0"
       gradientUnits="userSpaceOnUse"
       gradientTransform="matrix(1.0058652,0,0,0.994169,100,0)">
      <stop
         id="stop3750-8"
         style="stop-color:#000000;stop-opacity:1"
         offset="0" />
      <stop
         id="stop3752-5"
         style="stop-color:#000000;stop-opacity:0.58823532"
         offset="1" />
    </linearGradient>
    <linearGradient
       x1="32.251034"
       y1="6.1317081"
       x2="32.251034"
       y2="90.238609"
       id="linearGradient3780"
       xlink:href="#ButtonShadow-0"
       gradientUnits="userSpaceOnUse"
       gradientTransform="matrix(1.0238095,0,0,1.0119048,-1.1428571,-98.071429)" />
    <linearGradient
       x1="32.251034"
       y1="6.1317081"
       x2="32.251034"
       y2="90.238609"
       id="linearGradient3772"
       xlink:href="#ButtonShadow-0"
       gradientUnits="userSpaceOnUse"
       gradientTransform="matrix(1.0238095,0,0,1.0119048,-1.1428571,-98.071429)" />
    <linearGradient
       x1="32.251034"
       y1="6.1317081"
       x2="32.251034"
       y2="90.238609"
       id="linearGradient3725"
       xlink:href="#ButtonShadow-0"
       gradientUnits="userSpaceOnUse"
       gradientTransform="matrix(1.0238095,0,0,1.0119048,-1.1428571,-98.071429)" />
    <linearGradient
       x1="32.251034"
       y1="6.1317081"
       x2="32.251034"
       y2="90.238609"
       id="linearGradient3721"
       xlink:href="#ButtonShadow-0"
       gradientUnits="userSpaceOnUse"
       gradientTransform="translate(0,-97)" />
    <linearGradient
       x1="32.251034"
       y1="6.1317081"
       x2="32.251034"
       y2="90.238609"
       id="linearGradient3026"
       xlink:href="#ButtonShadow-0"
       gradientUnits="userSpaceOnUse"
       gradientTransform="matrix(1.0238095,0,0,1.0119048,-1.1428571,-98.071429)" />
    <clipPath
       id="clipPath4355">
      <rect
         width="84"
         height="80"
         rx="6"
         ry="6"
         x="6"
         y="6"
         id="rect4357"
         style="fill:#ffffff;fill-opacity:1;fill-rule:nonzero;stroke:none" />
    </clipPath>
    <radialGradient
       cx="48"
       cy="87.792389"
       r="42"
       fx="48"
       fy="87.792389"
       id="radialGradient4375"
       xlink:href="#linearGradient4367"
       gradientUnits="userSpaceOnUse"
       gradientTransform="matrix(1,-6.7114942e-8,8.4282233e-8,1.2557894,109.99999,-24.505592)" />
    <linearGradient
       x1="48"
       y1="88"
       x2="48"
       y2="-40"
       id="linearGradient4390"
       xlink:href="#linearGradient4384"
       gradientUnits="userSpaceOnUse"
       gradientTransform="matrix(1,0,0,-1,0,92)" />
    <linearGradient
       x1="48"
       y1="82"
       x2="112.12357"
       y2="82.454597"
       id="linearGradient4429"
       xlink:href="#linearGradient4384"
       gradientUnits="userSpaceOnUse"
       spreadMethod="reflect" />
    <linearGradient
       id="linearGradient3892">
      <stop
         id="stop3894"
         style="stop-color:#000000;stop-opacity:0.58823532"
         offset="0" />
      <stop
         id="stop3896"
         style="stop-color:#000000;stop-opacity:0.47058824"
         offset="0.11780351" />
      <stop
         id="stop3898"
         style="stop-color:#000000;stop-opacity:0.39215687"
         offset="0.23809524" />
      <stop
         id="stop3900"
         style="stop-color:#000000;stop-opacity:0.3137255"
         offset="1" />
    </linearGradient>
    <linearGradient
       x1="90"
       y1="88"
       x2="48"
       y2="88"
       id="linearGradient3228"
       xlink:href="#linearGradient3892"
       gradientUnits="userSpaceOnUse"
       spreadMethod="reflect" />
    <linearGradient
       x1="11"
       y1="11.015625"
       x2="19"
       y2="11.015625"
       id="linearGradient2927-4-6"
       xlink:href="#linearGradient3183-0-7"
       gradientUnits="userSpaceOnUse"
       gradientTransform="matrix(0,-3.0000004,2.9652505,0,39.335916,115.00001)" />
    <linearGradient
       id="linearGradient3183-0-7">
      <stop
         id="stop3185-9-3"
         style="stop-color:#c80000;stop-opacity:1"
         offset="0" />
      <stop
         id="stop3187-6-6"
         style="stop-color:#f3604d;stop-opacity:1"
         offset="1" />
    </linearGradient>
    <linearGradient
       x1="33"
       y1="68"
       x2="33"
       y2="61"
       id="linearGradient4340"
       xlink:href="#linearGradient4236"
       gradientUnits="userSpaceOnUse"
       gradientTransform="matrix(0.5,0,0,1,46,-2)" />
    <linearGradient
       id="linearGradient4236">
      <stop
         id="stop4238"
         style="stop-color:#ffdf39;stop-opacity:1"
         offset="0" />
      <stop
         id="stop4240"
         style="stop-color:#eb9c00;stop-opacity:0"
         offset="1" />
    </linearGradient>
    <linearGradient
       x1="33"
       y1="68"
       x2="33"
       y2="61"
       id="linearGradient4336"
       xlink:href="#linearGradient4236"
       gradientUnits="userSpaceOnUse"
       gradientTransform="matrix(0.5,0,0,1,42,-2)" />
    <linearGradient
       x1="33"
       y1="68"
       x2="33"
       y2="61"
       id="linearGradient4332"
       xlink:href="#linearGradient4236"
       gradientUnits="userSpaceOnUse"
       gradientTransform="matrix(0.5,0,0,1,38,-2)" />
    <linearGradient
       x1="33"
       y1="68"
       x2="33"
       y2="61"
       id="linearGradient4328"
       xlink:href="#linearGradient4236"
       gradientUnits="userSpaceOnUse"
       gradientTransform="matrix(0.5,0,0,1,34,-2)" />
    <linearGradient
       x1="33"
       y1="68"
       x2="33"
       y2="61"
       id="linearGradient4324"
       xlink:href="#linearGradient4236"
       gradientUnits="userSpaceOnUse"
       gradientTransform="matrix(0.5,0,0,1,30,-2)" />
    <linearGradient
       x1="33"
       y1="68"
       x2="33"
       y2="61"
       id="linearGradient4320"
       xlink:href="#linearGradient4236"
       gradientUnits="userSpaceOnUse"
       gradientTransform="matrix(0.5,0,0,1,26,-2)" />
    <linearGradient
       x1="33"
       y1="68"
       x2="33"
       y2="61"
       id="linearGradient4316"
       xlink:href="#linearGradient4236"
       gradientUnits="userSpaceOnUse"
       gradientTransform="matrix(0.5,0,0,1,22,-2)" />
    <linearGradient
       x1="33"
       y1="68"
       x2="33"
       y2="61"
       id="linearGradient4242"
       xlink:href="#linearGradient4236"
       gradientUnits="userSpaceOnUse"
       gradientTransform="matrix(0.5,0,0,1,18,-2)" />
    <radialGradient
       cx="48"
       cy="70"
       r="16"
       fx="48"
       fy="70"
       id="radialGradient4232"
       xlink:href="#linearGradient4192"
       gradientUnits="userSpaceOnUse"
       gradientTransform="matrix(1.1875,0,0,0.5625,-9,25)" />
    <linearGradient
       id="linearGradient4192">
      <stop
         id="stop4194"
         style="stop-color:#ffffff;stop-opacity:1"
         offset="0" />
      <stop
         id="stop4196"
         style="stop-color:#ffffff;stop-opacity:0"
         offset="1" />
    </linearGradient>
    <linearGradient
       x1="48"
       y1="72"
       x2="48"
       y2="24"
       id="linearGradient4222"
       xlink:href="#linearGradient4192"
       gradientUnits="userSpaceOnUse"
       gradientTransform="translate(0,-2)" />
    <linearGradient
       x1="48"
       y1="24"
       x2="48"
       y2="72"
       id="linearGradient4182"
       xlink:href="#linearGradient4176"
       gradientUnits="userSpaceOnUse"
       gradientTransform="translate(0,-2)" />
    <linearGradient
       id="linearGradient4176">
      <stop
         id="stop4178"
         style="stop-color:#000000;stop-opacity:1"
         offset="0" />
      <stop
         id="stop4180"
         style="stop-color:#393939;stop-opacity:1"
         offset="1" />
    </linearGradient>
    <linearGradient
       x1="53"
       y1="74"
       x2="53"
       y2="32.987808"
       id="linearGradient3241"
       xlink:href="#linearGradient4192"
       gradientUnits="userSpaceOnUse" />
    <linearGradient
       id="linearGradient4156">
      <stop
         id="stop4158"
         style="stop-color:#c6c6c6;stop-opacity:1"
         offset="0" />
      <stop
         id="stop4160"
         style="stop-color:#e7e7e7;stop-opacity:1"
         offset="1" />
    </linearGradient>
    <linearGradient
       x1="48"
       y1="90"
       x2="48"
       y2="5.9877172"
       id="linearGradient3258"
       xlink:href="#linearGradient4156"
       gradientUnits="userSpaceOnUse" />
  </defs>
  <metadata
     id="metadata2413">
    <rdf:RDF>
      <cc:Work
         rdf:about="">
        <dc:format>image/svg+xml</dc:format>
        <dc:type
           rdf:resource="http://purl.org/dc/dcmitype/StillImage" />
        <dc:title />
      </cc:Work>
    </rdf:RDF>
  </metadata>
  <g
     id="layer2"
     style="display:none">
    <rect
       width="86"
       height="85"
       rx="6"
       ry="6"
       x="5"
       y="7"
       id="rect3745"
       style="opacity:0.9;fill:url(#ButtonShadow);fill-opacity:1;fill-rule:nonzero;stroke:none;filter:url(#filter3174)" />
  </g>
  <g
     id="layer3"
     style="display:inline">
    <path
       d="m 12,-95.03125 c -5.5110903,0 -10.03125,4.52016 -10.03125,10.03125 l 0,71 c 0,5.5110902 4.5201598,10.03125 10.03125,10.03125 l 72,0 c 5.51109,0 10.03125,-4.5201597 10.03125,-10.03125 l 0,-71 c 0,-5.51109 -4.52016,-10.03125 -10.03125,-10.03125 l -72,0 z"
       transform="scale(1,-1)"
       id="path3786"
       style="opacity:0.07999998;fill:url(#linearGradient3026);fill-opacity:1;fill-rule:nonzero;stroke:none;display:inline" />
    <path
       d="m 12,-94.03125 c -4.971633,0 -9.03125,4.059617 -9.03125,9.03125 l 0,71 c 0,4.9716329 4.0596171,9.03125 9.03125,9.03125 l 72,0 c 4.971633,0 9.03125,-4.059617 9.03125,-9.03125 l 0,-71 c 0,-4.971633 -4.059617,-9.03125 -9.03125,-9.03125 l -72,0 z"
       transform="scale(1,-1)"
       id="path3778"
       style="opacity:0.1;fill:url(#linearGradient3780);fill-opacity:1;fill-rule:nonzero;stroke:none;display:inline" />
    <path
       d="m 12,-93 c -4.4091333,0 -8,3.590867 -8,8 l 0,71 c 0,4.4091333 3.5908667,8 8,8 l 72,0 c 4.409133,0 8,-3.5908667 8,-8 l 0,-71 c 0,-4.409133 -3.590867,-8 -8,-8 l -72,0 z"
       transform="scale(1,-1)"
       id="path3770"
       style="opacity:0.2;fill:url(#linearGradient3772);fill-opacity:1;fill-rule:nonzero;stroke:none;display:inline" />
    <rect
       width="86"
       height="85"
       rx="7"
       ry="7"
       x="5"
       y="-92"
       transform="scale(1,-1)"
       id="rect3723"
       style="opacity:0.3;fill:url(#linearGradient3725);fill-opacity:1;fill-rule:nonzero;stroke:none;display:inline" />
    <rect
       width="84"
       height="84"
       rx="6"
       ry="6"
       x="6"
       y="-91"
       transform="scale(1,-1)"
       id="rect3716"
       style="opacity:0.45;fill:url(#linearGradient3721);fill-opacity:1;fill-rule:nonzero;stroke:none;display:inline" />
  </g>
  <g
     id="layer1">
    <rect
       width="84"
       height="84"
       rx="6"
       ry="6"
       x="6"
       y="6"
       id="rect2419"
       style="fill:url(#linearGradient3258);fill-opacity:1;fill-rule:nonzero;stroke:none" />
    <path
       d="M 120.78125,6.125 C 118.04223,6.6826484 116,9.0915 116,12 l 0,68 c 0,3.324 2.676,6 6,6 l 72,0 c 3.324,0 6,-2.676 6,-6 l 0,-68 c 0,-2.9085 -2.04223,-5.3173516 -4.78125,-5.875 2.20512,0.5362071 3.8125,2.4908437 3.8125,4.875 l 0,68 c 0,2.80489 -2.22636,5.03125 -5.03125,5.03125 l -72,0 c -2.80489,0 -5.03125,-2.22636 -5.03125,-5.03125 l 0,-68 c 0,-2.3841563 1.60738,-4.3387929 3.8125,-4.875 z"
       inkscape:connector-curvature="0"
       id="rect4359"
       style="opacity:0.2;fill:url(#radialGradient4375);fill-opacity:1;fill-rule:nonzero;stroke:none" />
    <path
       d="M 12,86 C 8.676,86 6,83.324 6,80 L 6,12 C 6,8.676 8.676,6 12,6 l 72,0 c 3.324,0 6,2.676 6,6 l 0,68 c 0,3.324 -2.676,6 -6,6 z m 0,-0.96875 72,0 c 2.80489,0 5.03125,-2.22636 5.03125,-5.03125 l 0,-68 C 89.03125,9.19511 86.80489,6.96875 84,6.96875 l -72,0 C 9.1951102,6.96875 6.96875,9.19511 6.96875,12 l 0,68 c 0,2.80489 2.2263602,5.03125 5.03125,5.03125 z"
       inkscape:connector-curvature="0"
       id="rect4377"
       style="opacity:0.6;fill:url(#linearGradient4390);fill-opacity:1;fill-rule:nonzero;stroke:none" />
    <path
       d="m 6,78 0,2 c 0,3.324 2.676,6 6,6 l 72,0 c 3.324,0 6,-2.676 6,-6 l 0,-2 c 0,3.324 -2.676,6 -6,6 L 12,84 C 8.676,84 6,81.324 6,78 z"
       inkscape:connector-curvature="0"
       id="rect4414"
       style="opacity:0.2;fill:url(#linearGradient4429);fill-opacity:1;fill-rule:nonzero;stroke:none" />
    <path
       d="m 6,100 0,1 c 0,3.324 2.676,6 6,6 l 72,0 c 3.324,0 6,-2.676 6,-6 l 0,-1 c 0,3.324 -2.676,6 -6,6 l -72,0 c -3.324,0 -6,-2.676 -6,-6 z"
       inkscape:connector-curvature="0"
       id="path4412"
       style="opacity:0.15;fill:#000000;fill-opacity:1;fill-rule:nonzero;stroke:none" />
  </g>
  <g
     id="layer4"
     style="display:inline">
    <path
       d="m 6,80 0,4 c 0,3.324 2.676,6 6,6 l 72,0 c 3.324,0 6,-2.676 6,-6 l 0,-4 c 0,3.324 -2.676,6 -6,6 L 12,86 C 8.676,86 6,83.324 6,80 z"
       inkscape:connector-curvature="0"
       id="path3888"
       style="fill:url(#linearGradient3228);fill-opacity:1;fill-rule:nonzero;stroke:none;display:inline" />
    <path
       d="m 6,82 0,2 c 0,3.324 2.676,6 6,6 l 72,0 c 3.324,0 6,-2.676 6,-6 l 0,-2 c 0,3.324 -2.676,6 -6,6 L 12,88 C 8.676,88 6,85.324 6,82 z"
       inkscape:connector-curvature="0"
       id="rect4345"
       style="opacity:0.1;color:#000000;fill:#000000;fill-opacity:1;fill-rule:nonzero;stroke:none;stroke-width:1.5;marker:none;visibility:visible;display:inline;overflow:visible;enable-background:accumulate" />
    <path
       d="m 6,83 0,1 c 0,3.324 2.676,6 6,6 l 72,0 c 3.324,0 6,-2.676 6,-6 l 0,-1 c 0,3.324 -2.676,6 -6,6 L 12,89 C 8.676,89 6,86.324 6,83 z"
       inkscape:connector-curvature="0"
       id="rect4336"
       style="opacity:0.15;color:#000000;fill:#000000;fill-opacity:1;fill-rule:nonzero;stroke:none;stroke-width:1.5;marker:none;visibility:visible;display:inline;overflow:visible;enable-background:accumulate" />
  </g>
  <g
     id="layer5"
     style="display:inline">
    <rect
       width="66"
       height="62"
       rx="12"
       ry="12"
       x="15"
       y="15"
       clip-path="url(#clipPath4355)"
       id="rect3171"
       style="opacity:0.1;fill:url(#linearGradient3613);fill-opacity:1;fill-rule:nonzero;stroke:#ffffff;stroke-width:0.5;stroke-linecap:round;stroke-linejoin:miter;stroke-miterlimit:4;stroke-opacity:1;stroke-dasharray:none;stroke-dashoffset:0;filter:url(#filter3794)" />
  </g>
  <g
     id="layer6">
    <path
       d="M 39.8125,22.03125 A 1.9843903,1.9843903 0 0 0 38.03125,24 l 0,2.03125 -2.03125,0 A 1.9843903,1.9843903 0 0 0 34.03125,28 l 0,2.03125 -7.03125,0 c -2.726921,0 -4.96875,2.241829 -4.96875,4.96875 l 0,34 c 0,2.726921 2.241829,4.96875 4.96875,4.96875 l 42,0 c 2.726921,0 4.96875,-2.241829 4.96875,-4.96875 l 0,-34 c 0,-2.726921 -2.241829,-4.96875 -4.96875,-4.96875 l -7.03125,0 0,-2.03125 A 1.9843903,1.9843903 0 0 0 60,26.03125 l -2.03125,0 0,-2.03125 A 1.9843903,1.9843903 0 0 0 56,22.03125 l -16,0 a 1.9843903,1.9843903 0 0 0 -0.1875,0 z"
       transform="translate(0,-2)"
       id="path4188"
       style="opacity:0.8;color:#000000;fill:url(#linearGradient3241);fill-opacity:1;fill-rule:nonzero;stroke:none;stroke-width:1;marker:none;visibility:visible;display:inline;overflow:visible;enable-background:accumulate" />
    <path
       d="m 40,22 0,4 -4,0 0,4 -9,0 c -1.662,0 -3,1.338 -3,3 l 0,34 c 0,1.662 1.338,3 3,3 l 42,0 c 1.662,0 3,-1.338 3,-3 l 0,-34 c 0,-1.662 -1.338,-3 -3,-3 l -9,0 0,-4 -4,0 0,-4 -16,0 z"
       inkscape:connector-curvature="0"
       id="rect4162"
       style="color:#000000;fill:url(#linearGradient4182);fill-opacity:1;fill-rule:nonzero;stroke:none;stroke-width:1;marker:none;visibility:visible;display:inline;overflow:visible;enable-background:accumulate" />
    <path
       d="m 40,20 0,2 16,0 0,-2 -16,0 z m -4,4 0,2 4,0 0,-2 -4,0 z m 20,0 0,2 4,0 0,-2 -4,0 z m -29,4 c -1.662,0 -3,1.338 -3,3 l 0,2 c 0,-1.662 1.338,-3 3,-3 l 9,0 0,-2 -9,0 z m 33,0 0,2 9,0 c 1.662,0 3,1.338 3,3 l 0,-2 c 0,-1.662 -1.338,-3 -3,-3 l -9,0 z"
       inkscape:connector-curvature="0"
       id="path4200"
       style="opacity:0.15;color:#000000;fill:#000000;fill-opacity:1;fill-rule:nonzero;stroke:none;stroke-width:1;marker:none;visibility:visible;display:inline;overflow:visible;enable-background:accumulate" />
    <path
       d="m 40,22 0,4 -4,0 0,4 -9,0 c -1.662,0 -3,1.338 -3,3 l 0,34 c 0,1.662 1.338,3 3,3 l 42,0 c 1.662,0 3,-1.338 3,-3 l 0,-34 c 0,-1.662 -1.338,-3 -3,-3 l -9,0 0,-4 -4,0 0,-4 -16,0 z m 1.96875,1.96875 12.0625,0 0,2.03125 A 1.9749666,1.9749666 0 0 0 56,27.96875 l 2.03125,0 0,2.03125 A 1.9749666,1.9749666 0 0 0 60,31.96875 l 9,0 c 0.602136,0 1.03125,0.429114 1.03125,1.03125 l 0,34 c 0,0.602136 -0.429114,1.03125 -1.03125,1.03125 l -42,0 c -0.602136,0 -1.03125,-0.429114 -1.03125,-1.03125 l 0,-34 c 0,-0.602136 0.429114,-1.03125 1.03125,-1.03125 l 9,0 A 1.9749666,1.9749666 0 0 0 37.96875,30 l 0,-2.03125 2.03125,0 A 1.9749666,1.9749666 0 0 0 41.96875,26 l 0,-2.03125 z"
       inkscape:connector-curvature="0"
       id="path4209"
       style="opacity:0.2;color:#000000;fill:url(#linearGradient4222);fill-opacity:1;fill-rule:nonzero;stroke:none;stroke-width:1;marker:none;visibility:visible;display:inline;overflow:visible;enable-background:accumulate" />
    <rect
       width="38"
       height="18"
       x="29"
       y="52"
       id="rect4224"
       style="opacity:0.2;color:#000000;fill:url(#radialGradient4232);fill-opacity:1;fill-rule:nonzero;stroke:none;stroke-width:1;marker:none;visibility:visible;display:inline;overflow:visible;enable-background:accumulate" />
    <rect
       width="1"
       height="7"
       x="34"
       y="59"
       id="rect4234"
       style="color:#000000;fill:url(#linearGradient4242);fill-opacity:1;fill-rule:nonzero;stroke:none;stroke-width:1;marker:none;visibility:visible;display:inline;overflow:visible;enable-background:accumulate" />
    <path
       d="m 40,21 0,1 16,0 0,-1 -16,0 z m -4,4 0,1 4,0 0,-1 -4,0 z m 20,0 0,1 4,0 0,-1 -4,0 z m -29,4 c -1.662,0 -3,1.338 -3,3 l 0,1 c 0,-1.662 1.338,-3 3,-3 l 9,0 0,-1 -9,0 z m 33,0 0,1 9,0 c 1.662,0 3,1.338 3,3 l 0,-1 c 0,-1.662 -1.338,-3 -3,-3 l -9,0 z"
       inkscape:connector-curvature="0"
       id="path4276"
       style="opacity:0.3;color:#000000;fill:#000000;fill-opacity:1;fill-rule:nonzero;stroke:none;stroke-width:1;marker:none;visibility:visible;display:inline;overflow:visible;enable-background:accumulate" />
    <rect
       width="1"
       height="7"
       x="38"
       y="59"
       id="rect4314"
       style="color:#000000;fill:url(#linearGradient4316);fill-opacity:1;fill-rule:nonzero;stroke:none;stroke-width:1;marker:none;visibility:visible;display:inline;overflow:visible;enable-background:accumulate" />
    <rect
       width="1"
       height="7"
       x="42"
       y="59"
       id="rect4318"
       style="color:#000000;fill:url(#linearGradient4320);fill-opacity:1;fill-rule:nonzero;stroke:none;stroke-width:1;marker:none;visibility:visible;display:inline;overflow:visible;enable-background:accumulate" />
    <rect
       width="1"
       height="7"
       x="46"
       y="59"
       id="rect4322"
       style="color:#000000;fill:url(#linearGradient4324);fill-opacity:1;fill-rule:nonzero;stroke:none;stroke-width:1;marker:none;visibility:visible;display:inline;overflow:visible;enable-background:accumulate" />
    <rect
       width="1"
       height="7"
       x="50"
       y="59"
       id="rect4326"
       style="color:#000000;fill:url(#linearGradient4328);fill-opacity:1;fill-rule:nonzero;stroke:none;stroke-width:1;marker:none;visibility:visible;display:inline;overflow:visible;enable-background:accumulate" />
    <rect
       width="1"
       height="7"
       x="54"
       y="59"
       id="rect4330"
       style="color:#000000;fill:url(#linearGradient4332);fill-opacity:1;fill-rule:nonzero;stroke:none;stroke-width:1;marker:none;visibility:visible;display:inline;overflow:visible;enable-background:accumulate" />
    <rect
       width="1"
       height="7"
       x="58"
       y="59"
       id="rect4334"
       style="color:#000000;fill:url(#linearGradient4336);fill-opacity:1;fill-rule:nonzero;stroke:none;stroke-width:1;marker:none;visibility:visible;display:inline;overflow:visible;enable-background:accumulate" />
    <rect
       width="1"
       height="7"
       x="62"
       y="59"
       id="rect4338"
       style="color:#000000;fill:url(#linearGradient4340);fill-opacity:1;fill-rule:nonzero;stroke:none;stroke-width:1;marker:none;visibility:visible;display:inline;overflow:visible;enable-background:accumulate" />
    <path
       d="m 53.84375,-38.96875 c 7.23e-4,-8.4e-5 -0.09447,0.03137 -0.09375,0.03125 7.18e-4,-1.2e-4 -0.09446,1.55e-4 -0.09375,0 7.11e-4,-1.55e-4 -0.09445,0.03144 -0.09375,0.03125 0.001,-2.62e-4 -0.126005,0.03158 -0.125,0.03125 0.001,-3.35e-4 -0.125978,0.06291 -0.125,0.0625 9.78e-4,-4.08e-4 -0.157196,0.06298 -0.15625,0.0625 9.46e-4,-4.78e-4 -0.125908,0.06305 -0.125,0.0625 9.08e-4,-5.45e-4 -0.09462,0.09436 -0.09375,0.09375 8.66e-4,-6.1e-4 -0.12582,0.06317 -0.125,0.0625 8.2e-4,-6.71e-4 -0.09452,0.09448 -0.09375,0.09375 5.77e-4,-5.47e-4 -0.06575,0.06523 -0.09375,0.09375 -0.0093,0.0095 -0.03143,0.03145 -0.03125,0.03125 l -6,6.0625 c 9.53e-4,-0.001 -0.125853,0.157339 -0.125,0.15625 8.53e-4,-0.0011 -0.0945,0.126165 -0.09375,0.125 7.46e-4,-0.0012 -0.09438,0.15748 -0.09375,0.15625 6.32e-4,-0.0012 -0.09426,0.188785 -0.09375,0.1875 5.13e-4,-0.0013 -0.06289,0.157577 -0.0625,0.15625 3.89e-4,-0.0013 -0.03151,0.188858 -0.03125,0.1875 2.61e-4,-0.0014 -0.03138,0.188877 -0.03125,0.1875 1.31e-4,-0.0014 0,0.188883 0,0.1875 0,-0.0014 1.31e-4,0.188877 0,0.1875 -1.31e-4,-0.0014 0.03151,0.188858 0.03125,0.1875 -2.61e-4,-0.0014 0.03164,0.188827 0.03125,0.1875 -3.89e-4,-0.0013 0.06301,0.157535 0.0625,0.15625 -5.13e-4,-0.0013 0.09438,0.18873 0.09375,0.1875 -6.32e-4,-0.0012 0.0945,0.157415 0.09375,0.15625 -7.46e-4,-0.0012 0.0946,0.126089 0.09375,0.125 -8.53e-4,-0.0011 0.125953,0.157253 0.125,0.15625 l 4.5,4.5625 -4.5,4.5625 c 9.53e-4,-0.001 -0.125853,0.157339 -0.125,0.15625 8.53e-4,-0.0011 -0.0945,0.126165 -0.09375,0.125 7.46e-4,-0.0012 -0.09438,0.15748 -0.09375,0.15625 6.32e-4,-0.0012 -0.09426,0.188785 -0.09375,0.1875 5.13e-4,-0.0013 -0.06289,0.157577 -0.0625,0.15625 3.89e-4,-0.0013 -0.03151,0.188858 -0.03125,0.1875 2.61e-4,-0.0014 -0.03138,0.188877 -0.03125,0.1875 1.31e-4,-0.0014 0,0.188883 0,0.1875 0,-0.0014 1.31e-4,0.188877 0,0.1875 -1.31e-4,-0.0014 0.03151,0.188858 0.03125,0.1875 -2.61e-4,-0.0014 0.03164,0.188827 0.03125,0.1875 -3.89e-4,-0.0013 0.06301,0.157535 0.0625,0.15625 -5.13e-4,-0.0013 0.09438,0.18873 0.09375,0.1875 -6.32e-4,-0.0012 0.0945,0.157415 0.09375,0.15625 -7.46e-4,-0.0012 0.0946,0.126089 0.09375,0.125 -8.53e-4,-0.0011 0.125953,0.157253 0.125,0.15625 l 6.03125,6.09375 c -9.87e-4,-0.001 0.126082,0.125927 0.125,0.125 -0.0011,-9.27e-4 0.157418,0.125817 0.15625,0.125 -0.0012,-8.17e-4 0.157492,0.09445 0.15625,0.09375 -0.0012,-6.99e-4 0.188805,0.09432 0.1875,0.09375 -0.0013,-5.74e-4 0.188854,0.06294 0.1875,0.0625 -0.0014,-4.44e-4 0.157641,0.06281 0.15625,0.0625 -0.0014,-3.1e-4 0.188915,0.03142 0.1875,0.03125 -0.0014,-1.72e-4 0.220175,3.3e-5 0.21875,0 -0.0014,-3.3e-5 0.188921,-1.06e-4 0.1875,0 -0.0014,1.06e-4 0.188904,-0.03149 0.1875,-0.03125 -0.0014,2.45e-4 0.188874,-0.03163 0.1875,-0.03125 -0.0014,3.81e-4 0.15758,-0.06301 0.15625,-0.0625 -0.0013,5.13e-4 0.188773,-0.06314 0.1875,-0.0625 -0.0013,6.41e-4 0.157455,-0.09451 0.15625,-0.09375 -0.0012,7.62e-4 0.157374,-0.125876 0.15625,-0.125 -0.0011,8.76e-4 0.157283,-0.125982 0.15625,-0.125 l 4.59375,-4.5625 4.40625,4.5 c -5.08e-4,-5.29e-4 0.06303,0.063 0.0625,0.0625 -5.34e-4,-5.03e-4 0.09431,0.06298 0.09375,0.0625 -5.59e-4,-4.76e-4 0.06308,0.06295 0.0625,0.0625 -5.82e-4,-4.47e-4 0.09435,0.06292 0.09375,0.0625 -6.04e-4,-4.17e-4 0.06312,0.06289 0.0625,0.0625 -6.24e-4,-3.86e-4 0.09439,0.06285 0.09375,0.0625 -6.43e-4,-3.54e-4 0.09441,0.03157 0.09375,0.03125 -6.6e-4,-3.21e-4 0.09443,0.03154 0.09375,0.03125 -6.75e-4,-2.88e-4 0.06319,0.0315 0.0625,0.03125 -6.89e-4,-2.53e-4 0.09445,0.03147 0.09375,0.03125 -7e-4,-2.18e-4 0.09446,0.03143 0.09375,0.03125 -7.11e-4,-1.83e-4 0.125719,0.0314 0.125,0.03125 -7.19e-4,-1.47e-4 0.09448,0.03136 0.09375,0.03125 -7.25e-4,-1.1e-4 0.09448,7.4e-5 0.09375,0 -7.3e-4,-7.4e-5 0.09448,3.7e-5 0.09375,0 -7.33e-4,-3.7e-5 0.09448,0 0.09375,0 -7.34e-4,0 0.09448,-3.7e-5 0.09375,0 -7.33e-4,3.7e-5 0.09448,-7.4e-5 0.09375,0 -7.3e-4,7.4e-5 0.09448,-1.1e-4 0.09375,0 -7.25e-4,1.1e-4 0.09447,-0.0314 0.09375,-0.03125 -7.19e-4,1.47e-4 0.125711,-0.03143 0.125,-0.03125 -7.11e-4,1.83e-4 0.09445,-0.03147 0.09375,-0.03125 -7e-4,2.18e-4 0.09444,-0.0315 0.09375,-0.03125 -6.89e-4,2.53e-4 0.06318,-0.03154 0.0625,-0.03125 -6.75e-4,2.88e-4 0.09441,-0.03157 0.09375,-0.03125 -6.6e-4,3.21e-4 0.09439,-0.0316 0.09375,-0.03125 -6.43e-4,3.54e-4 0.09437,-0.06289 0.09375,-0.0625 -6.24e-4,3.86e-4 0.0631,-0.06292 0.0625,-0.0625 -6.04e-4,4.17e-4 0.09433,-0.06295 0.09375,-0.0625 -5.82e-4,4.47e-4 0.06306,-0.06298 0.0625,-0.0625 -5.59e-4,4.76e-4 0.09428,-0.063 0.09375,-0.0625 -5.34e-4,5.03e-4 0.06301,-0.06303 0.0625,-0.0625 l 6.21875,-6.28125 c -9.82e-4,0.001 0.125876,-0.157374 0.125,-0.15625 -8.76e-4,0.0011 0.125762,-0.157455 0.125,-0.15625 -7.62e-4,0.0012 0.09439,-0.157523 0.09375,-0.15625 -6.41e-4,0.0013 0.06301,-0.18883 0.0625,-0.1875 -5.13e-4,0.0013 0.06288,-0.157624 0.0625,-0.15625 -3.81e-4,0.0014 0.0315,-0.188904 0.03125,-0.1875 -2.45e-4,0.0014 0.03136,-0.188921 0.03125,-0.1875 -1.06e-4,0.0014 -3.3e-5,-0.188925 0,-0.1875 3.3e-5,0.0014 -1.72e-4,-0.220165 0,-0.21875 1.72e-4,0.0014 -0.03156,-0.188891 -0.03125,-0.1875 3.1e-4,0.0014 -0.06294,-0.157604 -0.0625,-0.15625 4.44e-4,0.0014 -0.06307,-0.188805 -0.0625,-0.1875 5.74e-4,0.0013 -0.09445,-0.188742 -0.09375,-0.1875 6.99e-4,0.0012 -0.09457,-0.157418 -0.09375,-0.15625 8.17e-4,0.0012 -0.125927,-0.157332 -0.125,-0.15625 9.27e-4,0.0011 -0.126029,-0.125987 -0.125,-0.125 L 68.9375,-25 l 4.40625,-4.3125 c -0.001,9.87e-4 0.125927,-0.126082 0.125,-0.125 -9.27e-4,0.0011 0.125817,-0.157418 0.125,-0.15625 -8.17e-4,0.0012 0.09445,-0.157492 0.09375,-0.15625 -6.99e-4,0.0012 0.09432,-0.188805 0.09375,-0.1875 -5.74e-4,0.0013 0.06294,-0.188854 0.0625,-0.1875 -4.44e-4,0.0014 0.06281,-0.157641 0.0625,-0.15625 -3.1e-4,0.0014 0.03142,-0.188915 0.03125,-0.1875 -1.72e-4,0.0014 3.3e-5,-0.220175 0,-0.21875 -3.3e-5,0.0014 -1.06e-4,-0.188921 0,-0.1875 1.06e-4,0.0014 -0.0315,-0.188904 -0.03125,-0.1875 2.45e-4,0.0014 -0.03163,-0.188874 -0.03125,-0.1875 3.81e-4,0.0014 -0.06301,-0.15758 -0.0625,-0.15625 5.13e-4,0.0013 -0.06314,-0.188773 -0.0625,-0.1875 6.41e-4,0.0013 -0.09451,-0.157455 -0.09375,-0.15625 7.62e-4,0.0012 -0.125876,-0.157374 -0.125,-0.15625 8.76e-4,0.0011 -0.125982,-0.157283 -0.125,-0.15625 l -6.21875,-6.28125 c 5.08e-4,5.29e-4 -0.06303,-0.063 -0.0625,-0.0625 5.34e-4,5.03e-4 -0.09431,-0.06298 -0.09375,-0.0625 5.59e-4,4.76e-4 -0.06308,-0.06295 -0.0625,-0.0625 5.82e-4,4.47e-4 -0.09435,-0.06292 -0.09375,-0.0625 6.04e-4,4.17e-4 -0.06312,-0.06289 -0.0625,-0.0625 6.24e-4,3.86e-4 -0.09439,-0.06285 -0.09375,-0.0625 6.43e-4,3.54e-4 -0.09441,-0.03157 -0.09375,-0.03125 6.6e-4,3.21e-4 -0.09443,-0.03154 -0.09375,-0.03125 6.75e-4,2.88e-4 -0.06319,-0.0315 -0.0625,-0.03125 6.89e-4,2.53e-4 -0.09445,-0.03147 -0.09375,-0.03125 7e-4,2.18e-4 -0.09446,-0.03143 -0.09375,-0.03125 7.11e-4,1.83e-4 -0.125719,-0.0314 -0.125,-0.03125 7.19e-4,1.47e-4 -0.09448,-0.03136 -0.09375,-0.03125 7.25e-4,1.1e-4 -0.09448,-7.4e-5 -0.09375,0 7.3e-4,7.4e-5 -0.09448,-3.7e-5 -0.09375,0 7.33e-4,3.7e-5 -0.09448,0 -0.09375,0 7.34e-4,0 -0.09448,3.7e-5 -0.09375,0 7.33e-4,-3.7e-5 -0.09448,7.4e-5 -0.09375,0 7.3e-4,-7.4e-5 -0.09448,1.1e-4 -0.09375,0 7.25e-4,-1.1e-4 -0.09447,0.0314 -0.09375,0.03125 7.19e-4,-1.47e-4 -0.125711,0.03143 -0.125,0.03125 7.11e-4,-1.83e-4 -0.09445,0.03147 -0.09375,0.03125 7e-4,-2.18e-4 -0.09444,0.0315 -0.09375,0.03125 6.89e-4,-2.53e-4 -0.06318,0.03154 -0.0625,0.03125 6.75e-4,-2.88e-4 -0.09441,0.03157 -0.09375,0.03125 6.6e-4,-3.21e-4 -0.09439,0.0316 -0.09375,0.03125 6.43e-4,-3.54e-4 -0.09437,0.06289 -0.09375,0.0625 6.24e-4,-3.86e-4 -0.0631,0.06292 -0.0625,0.0625 6.04e-4,-4.17e-4 -0.09433,0.06295 -0.09375,0.0625 5.82e-4,-4.47e-4 -0.06306,0.06298 -0.0625,0.0625 5.59e-4,-4.76e-4 -0.09428,0.063 -0.09375,0.0625 5.34e-4,-5.03e-4 -0.06301,0.06303 -0.0625,0.0625 l -4.40625,4.5 -4.5625,-4.53125 c 1.71e-4,1.72e-4 -0.02075,-0.0212 -0.03125,-0.03125 -0.021,-0.0201 -0.06286,-0.06283 -0.0625,-0.0625 5.39e-4,4.91e-4 -0.06306,-0.06296 -0.0625,-0.0625 5.63e-4,4.63e-4 -0.06309,-0.06294 -0.0625,-0.0625 5.85e-4,4.35e-4 -0.09436,-0.03166 -0.09375,-0.03125 6.06e-4,4.05e-4 -0.09438,-0.06287 -0.09375,-0.0625 6.26e-4,3.74e-4 -0.06314,-0.06284 -0.0625,-0.0625 6.44e-4,3.42e-4 -0.09441,-0.03156 -0.09375,-0.03125 6.6e-4,3.09e-4 -0.09443,-0.03153 -0.09375,-0.03125 6.75e-4,2.76e-4 -0.09444,-0.03149 -0.09375,-0.03125 6.88e-4,2.42e-4 -0.09445,-0.03146 -0.09375,-0.03125 6.99e-4,2.07e-4 -0.09446,-0.03142 -0.09375,-0.03125 7.08e-4,1.72e-4 -0.09447,-0.03139 -0.09375,-0.03125 7.16e-4,1.36e-4 -0.09447,-1e-4 -0.09375,0 7.22e-4,1e-4 -0.09448,-0.03131 -0.09375,-0.03125 7.26e-4,6.4e-5 -0.09448,-2.8e-5 -0.09375,0 7.28e-4,2.8e-5 -0.09448,9e-6 -0.09375,0 a 0.9965754,0.9965754 0 0 0 -0.0625,0 c 7.26e-4,-4.7e-5 -0.09447,8.4e-5 -0.09375,0 z"
       transform="translate(12,96)"
       id="path3761"
       style="opacity:0.1;fill:#000000;fill-opacity:1;fill-rule:evenodd;stroke:none;display:inline" />
    <path
       d="m 53.8125,-37.9375 a 0.95278301,0.95278301 0 0 0 -0.46875,0.28125 l -6.03125,6.09375 a 0.95278301,0.95278301 0 0 0 0,1.3125 L 52.5,-25 l -5.1875,5.25 a 0.95278301,0.95278301 0 0 0 0,1.3125 l 6.03125,6.09375 a 0.95278301,0.95278301 0 0 0 1.34375,0.03125 l 5.28125,-5.25 5.125,5.21875 a 0.95278301,0.95278301 0 0 0 1.375,0 L 72.6875,-18.625 a 0.95278301,0.95278301 0 0 0 -0.03125,-1.34375 L 67.5,-25 72.65625,-30.03125 A 0.95278301,0.95278301 0 0 0 72.6875,-31.375 l -6.21875,-6.28125 a 0.95278301,0.95278301 0 0 0 -1.375,0 l -5.125,5.21875 -5.28125,-5.25 a 0.95278301,0.95278301 0 0 0 -0.875,-0.25 z"
       transform="translate(12,96)"
       id="path3757"
       style="opacity:0.15;fill:#000000;fill-opacity:1;fill-rule:evenodd;stroke:none;display:inline" />
    <path
       d="M 60.000006,76.906252 66.023171,83 71.953669,77.093752 77.791502,83 84,76.718752 78.16216,71.000002 84,65.281252 77.791502,59 71.953669,64.90625 66.023171,59 l -6.023165,6.093751 5.837841,5.906251 -5.837841,5.90625 z"
       inkscape:connector-curvature="0"
       id="path3751"
       style="opacity:0.3;fill:#000000;fill-opacity:1;fill-rule:evenodd;stroke:none;display:inline" />
    <path
       d="M 60.000006,75.906252 66.023171,82 71.953669,76.093752 77.791502,82 84,75.718752 78.16216,70.000002 84,64.281252 77.791502,58 71.953669,63.90625 66.023171,58 l -6.023165,6.093751 5.837841,5.906251 -5.837841,5.90625 z"
       inkscape:connector-curvature="0"
       id="path7165"
       style="fill:url(#linearGradient2927-4-6);fill-opacity:1;fill-rule:evenodd;stroke:none;display:inline" />
    <path
       d="m 66.031256,58 -6.03125,6.09375 1,1 L 66.031256,60 71.96875,65.90625 77.78125,60 83,65.25 84,64.28125 77.78125,58 71.96875,63.90625 66.031256,58 z m -0.194826,11.975812 -5.836424,5.930438 1,1 L 65.843756,72 65.836456,69.975812 z M 78.179069,70.023082 78.156249,72 l 4.84375,4.75 1,-1.03125 -5.820931,-5.695668 z"
       inkscape:connector-curvature="0"
       id="path2970"
       style="opacity:0.2;fill:#ffffff;fill-opacity:1;fill-rule:evenodd;stroke:none;display:inline" />
  </g>
</svg>
