<?xml version="1.0" encoding="UTF-8" standalone="no"?>
<!-- Created with Inkscape (http://www.inkscape.org/) -->

<svg
   xmlns:dc="http://purl.org/dc/elements/1.1/"
   xmlns:cc="http://creativecommons.org/ns#"
   xmlns:rdf="http://www.w3.org/1999/02/22-rdf-syntax-ns#"
   xmlns:svg="http://www.w3.org/2000/svg"
   xmlns="http://www.w3.org/2000/svg"
   xmlns:xlink="http://www.w3.org/1999/xlink"
   xmlns:inkscape="http://www.inkscape.org/namespaces/inkscape"
   version="1.0"
   width="96"
   height="96"
   id="svg2408">
  <defs
     id="defs2410">
    <linearGradient
       id="linearGradient4384">
      <stop
         id="stop4386"
         style="stop-color:#ffffff;stop-opacity:1"
         offset="0" />
      <stop
         id="stop4388"
         style="stop-color:#ffffff;stop-opacity:0"
         offset="1" />
    </linearGradient>
    <linearGradient
       id="linearGradient4367">
      <stop
         id="stop4369"
         style="stop-color:#ffffff;stop-opacity:0.71755725"
         offset="0" />
      <stop
         id="stop4371"
         style="stop-color:#ffffff;stop-opacity:1"
         offset="1" />
    </linearGradient>
    <linearGradient
       x1="45.447727"
       y1="92.539597"
       x2="45.447727"
       y2="7.0165396"
       id="ButtonShadow"
       gradientUnits="userSpaceOnUse"
       gradientTransform="scale(1.0058652,0.994169)">
      <stop
         id="stop3750"
         style="stop-color:#000000;stop-opacity:1"
         offset="0" />
      <stop
         id="stop3752"
         style="stop-color:#000000;stop-opacity:0.58823532"
         offset="1" />
    </linearGradient>
    <linearGradient
       id="linearGradient3737">
      <stop
         id="stop3739"
         style="stop-color:#ffffff;stop-opacity:1"
         offset="0" />
      <stop
         id="stop3741"
         style="stop-color:#ffffff;stop-opacity:0"
         offset="1" />
    </linearGradient>
    <filter
       color-interpolation-filters="sRGB"
       id="filter3174">
      <feGaussianBlur
         id="feGaussianBlur3176"
         stdDeviation="1.71" />
    </filter>
    <filter
       x="-0.192"
       y="-0.192"
       width="1.3839999"
       height="1.3839999"
       color-interpolation-filters="sRGB"
       id="filter3794">
      <feGaussianBlur
         id="feGaussianBlur3796"
         stdDeviation="5.28" />
    </filter>
    <linearGradient
       x1="48"
       y1="20.220806"
       x2="48"
       y2="138.66119"
       id="linearGradient3613"
       xlink:href="#linearGradient3737"
       gradientUnits="userSpaceOnUse" />
    <linearGradient
       x1="45.447727"
       y1="92.539597"
       x2="45.447727"
       y2="7.0165396"
       id="ButtonShadow-0"
       gradientUnits="userSpaceOnUse"
       gradientTransform="matrix(1.0058652,0,0,0.994169,100,0)">
      <stop
         id="stop3750-8"
         style="stop-color:#000000;stop-opacity:1"
         offset="0" />
      <stop
         id="stop3752-5"
         style="stop-color:#000000;stop-opacity:0.58823532"
         offset="1" />
    </linearGradient>
    <linearGradient
       x1="32.251034"
       y1="6.1317081"
       x2="32.251034"
       y2="90.238609"
       id="linearGradient3780"
       xlink:href="#ButtonShadow-0"
       gradientUnits="userSpaceOnUse"
       gradientTransform="matrix(1.0238095,0,0,1.0119048,-1.1428571,-98.071429)" />
    <linearGradient
       x1="32.251034"
       y1="6.1317081"
       x2="32.251034"
       y2="90.238609"
       id="linearGradient3772"
       xlink:href="#ButtonShadow-0"
       gradientUnits="userSpaceOnUse"
       gradientTransform="matrix(1.0238095,0,0,1.0119048,-1.1428571,-98.071429)" />
    <linearGradient
       x1="32.251034"
       y1="6.1317081"
       x2="32.251034"
       y2="90.238609"
       id="linearGradient3725"
       xlink:href="#ButtonShadow-0"
       gradientUnits="userSpaceOnUse"
       gradientTransform="matrix(1.0238095,0,0,1.0119048,-1.1428571,-98.071429)" />
    <linearGradient
       x1="32.251034"
       y1="6.1317081"
       x2="32.251034"
       y2="90.238609"
       id="linearGradient3721"
       xlink:href="#ButtonShadow-0"
       gradientUnits="userSpaceOnUse"
       gradientTransform="translate(0,-97)" />
    <linearGradient
       x1="32.251034"
       y1="6.1317081"
       x2="32.251034"
       y2="90.238609"
       id="linearGradient3026"
       xlink:href="#ButtonShadow-0"
       gradientUnits="userSpaceOnUse"
       gradientTransform="matrix(1.0238095,0,0,1.0119048,-1.1428571,-98.071429)" />
    <clipPath
       id="clipPath4355">
      <rect
         width="84"
         height="80"
         rx="6"
         ry="6"
         x="6"
         y="6"
         id="rect4357"
         style="fill:#ffffff;fill-opacity:1;fill-rule:nonzero;stroke:none" />
    </clipPath>
    <radialGradient
       cx="48"
       cy="87.792389"
       r="42"
       fx="48"
       fy="87.792389"
       id="radialGradient4375"
       xlink:href="#linearGradient4367"
       gradientUnits="userSpaceOnUse"
       gradientTransform="matrix(1,-6.7114942e-8,8.4282233e-8,1.2557894,109.99999,-24.505592)" />
    <linearGradient
       x1="48"
       y1="88"
       x2="48"
       y2="-40"
       id="linearGradient4390"
       xlink:href="#linearGradient4384"
       gradientUnits="userSpaceOnUse"
       gradientTransform="matrix(1,0,0,-1,0,92)" />
    <linearGradient
       x1="48"
       y1="82"
       x2="112.12357"
       y2="82.454597"
       id="linearGradient4429"
       xlink:href="#linearGradient4384"
       gradientUnits="userSpaceOnUse"
       spreadMethod="reflect" />
    <linearGradient
       id="linearGradient3892">
      <stop
         id="stop3894"
         style="stop-color:#000000;stop-opacity:0.58823532"
         offset="0" />
      <stop
         id="stop3896"
         style="stop-color:#000000;stop-opacity:0.47058824"
         offset="0.11780351" />
      <stop
         id="stop3898"
         style="stop-color:#000000;stop-opacity:0.39215687"
         offset="0.23809524" />
      <stop
         id="stop3900"
         style="stop-color:#000000;stop-opacity:0.3137255"
         offset="1" />
    </linearGradient>
    <linearGradient
       x1="90"
       y1="88"
       x2="48"
       y2="88"
       id="linearGradient3228"
       xlink:href="#linearGradient3892"
       gradientUnits="userSpaceOnUse"
       spreadMethod="reflect" />
    <linearGradient
       id="linearGradient3700-5-1">
      <stop
         id="stop3702-0-2"
         style="stop-color:#285178;stop-opacity:1"
         offset="0" />
      <stop
         id="stop3704-4-9"
         style="stop-color:#4f759a;stop-opacity:1"
         offset="1" />
    </linearGradient>
    <linearGradient
       x1="48"
       y1="90"
       x2="48"
       y2="5.9877172"
       id="linearGradient3390"
       xlink:href="#linearGradient3700-5-1"
       gradientUnits="userSpaceOnUse" />
    <radialGradient
       cx="49.233551"
       cy="70.608253"
       r="25.483549"
       fx="49.233551"
       fy="70.608253"
       id="radialGradient4246"
       xlink:href="#linearGradient5226-0"
       gradientUnits="userSpaceOnUse"
       gradientTransform="matrix(0.46811249,-0.52911558,1.7948202,1.5821666,-112.03757,-37.344561)" />
    <linearGradient
       id="linearGradient5226-0">
      <stop
         id="stop5228-7"
         style="stop-color:#ffffff;stop-opacity:1"
         offset="0" />
      <stop
         id="stop5230-6"
         style="stop-color:#ffffff;stop-opacity:0"
         offset="1" />
    </linearGradient>
    <radialGradient
       cx="64.230392"
       cy="68.449158"
       r="43.769611"
       fx="64.230392"
       fy="68.449158"
       id="radialGradient4252"
       xlink:href="#linearGradient5226-0"
       gradientUnits="userSpaceOnUse"
       gradientTransform="matrix(1.4544425,0,0,0.92610887,-45.079796,-12.6013)" />
    <radialGradient
       cx="74.375"
       cy="67.125"
       r="3.125"
       fx="74.375"
       fy="67.125"
       id="radialGradient3216"
       xlink:href="#linearGradient3543"
       gradientUnits="userSpaceOnUse" />
    <linearGradient
       id="linearGradient3543">
      <stop
         id="stop3545"
         style="stop-color:#ffffff;stop-opacity:1"
         offset="0" />
      <stop
         id="stop3555"
         style="stop-color:#ffffff;stop-opacity:1"
         offset="0.30645162" />
      <stop
         id="stop3551"
         style="stop-color:#ffffff;stop-opacity:0.640625"
         offset="0.51899064" />
      <stop
         id="stop3547"
         style="stop-color:#ffffff;stop-opacity:0"
         offset="1" />
    </linearGradient>
    <radialGradient
       cx="74.375"
       cy="67.125"
       r="3.125"
       fx="74.375"
       fy="67.125"
       id="radialGradient3443"
       xlink:href="#linearGradient3543"
       gradientUnits="userSpaceOnUse" />
    <radialGradient
       cx="74.375"
       cy="67.125"
       r="3.125"
       fx="74.375"
       fy="67.125"
       id="radialGradient3445"
       xlink:href="#linearGradient3543"
       gradientUnits="userSpaceOnUse" />
    <radialGradient
       cx="74.375"
       cy="67.125"
       r="3.125"
       fx="74.375"
       fy="67.125"
       id="radialGradient3447"
       xlink:href="#linearGradient3543"
       gradientUnits="userSpaceOnUse" />
    <radialGradient
       cx="74.375"
       cy="67.125"
       r="3.125"
       fx="74.375"
       fy="67.125"
       id="radialGradient3449"
       xlink:href="#linearGradient3543"
       gradientUnits="userSpaceOnUse" />
    <radialGradient
       cx="74.375"
       cy="67.125"
       r="3.125"
       fx="74.375"
       fy="67.125"
       id="radialGradient3451"
       xlink:href="#linearGradient3543"
       gradientUnits="userSpaceOnUse" />
    <radialGradient
       cx="63.875"
       cy="2.2173476"
       r="58.375"
       fx="63.875"
       fy="2.2173476"
       id="radialGradient4248"
       xlink:href="#linearGradient5226-0"
       gradientUnits="userSpaceOnUse"
       gradientTransform="matrix(1.0948456,0,0,0.33117465,-21.844872,32.792567)" />
    <radialGradient
       cx="69.75"
       cy="75.973572"
       r="58.5"
       fx="69.75"
       fy="75.973572"
       id="radialGradient4250"
       xlink:href="#linearGradient5226-0"
       gradientUnits="userSpaceOnUse"
       gradientTransform="matrix(2.2604205,-5.0775197e-8,0,0.34433104,-105.42292,27.98331)" />
    <radialGradient
       cx="74.375"
       cy="67.125"
       r="3.125"
       fx="74.375"
       fy="67.125"
       id="radialGradient3511"
       xlink:href="#linearGradient3543"
       gradientUnits="userSpaceOnUse" />
    <linearGradient
       id="linearGradient3875">
      <stop
         id="stop3877"
         style="stop-color:#ffffff;stop-opacity:1"
         offset="0" />
      <stop
         id="stop3879"
         style="stop-color:#ffffff;stop-opacity:0.42635658"
         offset="1" />
    </linearGradient>
    <radialGradient
       cx="63.98003"
       cy="61.948856"
       r="58.01997"
       fx="63.98003"
       fy="61.948856"
       id="radialGradient3528"
       xlink:href="#linearGradient3875"
       gradientUnits="userSpaceOnUse"
       gradientTransform="matrix(1.090012,0,0,0.84044811,-21.739002,-7.487817)" />
    <clipPath
       id="clipPath3286">
      <rect
         width="84"
         height="80"
         rx="6"
         ry="6"
         x="6"
         y="6"
         id="rect3288"
         style="fill:#ff00ff;fill-opacity:1;fill-rule:nonzero;stroke:none;display:inline" />
    </clipPath>
    <linearGradient
       x1="48"
       y1="36"
       x2="56.96875"
       y2="36"
       id="linearGradient3983"
       xlink:href="#linearGradient3977"
       gradientUnits="userSpaceOnUse"
       gradientTransform="matrix(1.5,0,0,1.5,-24,-16)"
       spreadMethod="reflect" />
    <linearGradient
       id="linearGradient3977">
      <stop
         id="stop3979"
         style="stop-color:#cbcbcb;stop-opacity:1"
         offset="0" />
      <stop
         id="stop3981"
         style="stop-color:#efefef;stop-opacity:1"
         offset="1" />
    </linearGradient>
    <linearGradient
       x1="39.03125"
       y1="35.984375"
       x2="47.230457"
       y2="24.974846"
       id="linearGradient4011"
       xlink:href="#linearGradient4005"
       gradientUnits="userSpaceOnUse"
       gradientTransform="matrix(1.5,0,0,1.5,-24,-16)" />
    <linearGradient
       id="linearGradient4005">
      <stop
         id="stop4007"
         style="stop-color:#000000;stop-opacity:1"
         offset="0" />
      <stop
         id="stop4009"
         style="stop-color:#000000;stop-opacity:0"
         offset="1" />
    </linearGradient>
    <linearGradient
       x1="56.727566"
       y1="37.282234"
       x2="48.758419"
       y2="23.479269"
       id="linearGradient4039"
       xlink:href="#linearGradient4033"
       gradientUnits="userSpaceOnUse"
       gradientTransform="matrix(1.5,0,0,1.5,-24,-16)" />
    <linearGradient
       id="linearGradient4033">
      <stop
         id="stop4035"
         style="stop-color:#000000;stop-opacity:1"
         offset="0" />
      <stop
         id="stop4037"
         style="stop-color:#000000;stop-opacity:0"
         offset="1" />
    </linearGradient>
    <linearGradient
       x1="48"
       y1="41"
       x2="60"
       y2="41"
       id="linearGradient3933"
       xlink:href="#linearGradient3956"
       gradientUnits="userSpaceOnUse"
       gradientTransform="matrix(1.5,0,0,1.5,-24,-16)"
       spreadMethod="reflect" />
    <linearGradient
       id="linearGradient3956">
      <stop
         id="stop3958"
         style="stop-color:#e6c94c;stop-opacity:1"
         offset="0" />
      <stop
         id="stop3966"
         style="stop-color:#e7ce5f;stop-opacity:1"
         offset="0.57832253" />
      <stop
         id="stop3960"
         style="stop-color:#f0de93;stop-opacity:1"
         offset="0.83333331" />
      <stop
         id="stop3962"
         style="stop-color:#d0b64c;stop-opacity:1"
         offset="0.91666669" />
      <stop
         id="stop3964"
         style="stop-color:#907d2e;stop-opacity:1"
         offset="1" />
    </linearGradient>
    <linearGradient
       x1="48"
       y1="41"
       x2="60"
       y2="41"
       id="linearGradient3945"
       xlink:href="#linearGradient3956"
       gradientUnits="userSpaceOnUse"
       gradientTransform="matrix(1.5,0,0,1.5,-24,-7)"
       spreadMethod="reflect" />
    <linearGradient
       x1="48"
       y1="41"
       x2="60"
       y2="41"
       id="linearGradient3954"
       xlink:href="#linearGradient3956"
       gradientUnits="userSpaceOnUse"
       gradientTransform="matrix(1.5,0,0,1.5,-24,2)"
       spreadMethod="reflect" />
  </defs>
  <metadata
     id="metadata2413">
    <rdf:RDF>
      <cc:Work
         rdf:about="">
        <dc:format>image/svg+xml</dc:format>
        <dc:type
           rdf:resource="http://purl.org/dc/dcmitype/StillImage" />
        <dc:title />
      </cc:Work>
    </rdf:RDF>
  </metadata>
  <g
     id="layer2"
     style="display:none">
    <rect
       width="86"
       height="85"
       rx="6"
       ry="6"
       x="5"
       y="7"
       id="rect3745"
       style="opacity:0.9;fill:url(#ButtonShadow);fill-opacity:1;fill-rule:nonzero;stroke:none;filter:url(#filter3174)" />
  </g>
  <g
     id="layer3"
     style="display:inline">
    <path
       d="m 12,-95.03125 c -5.5110903,0 -10.03125,4.52016 -10.03125,10.03125 l 0,71 c 0,5.5110902 4.5201598,10.03125 10.03125,10.03125 l 72,0 c 5.51109,0 10.03125,-4.5201597 10.03125,-10.03125 l 0,-71 c 0,-5.51109 -4.52016,-10.03125 -10.03125,-10.03125 l -72,0 z"
       transform="scale(1,-1)"
       id="path3786"
       style="opacity:0.07999998;fill:url(#linearGradient3026);fill-opacity:1;fill-rule:nonzero;stroke:none;display:inline" />
    <path
       d="m 12,-94.03125 c -4.971633,0 -9.03125,4.059617 -9.03125,9.03125 l 0,71 c 0,4.9716329 4.0596171,9.03125 9.03125,9.03125 l 72,0 c 4.971633,0 9.03125,-4.059617 9.03125,-9.03125 l 0,-71 c 0,-4.971633 -4.059617,-9.03125 -9.03125,-9.03125 l -72,0 z"
       transform="scale(1,-1)"
       id="path3778"
       style="opacity:0.1;fill:url(#linearGradient3780);fill-opacity:1;fill-rule:nonzero;stroke:none;display:inline" />
    <path
       d="m 12,-93 c -4.4091333,0 -8,3.590867 -8,8 l 0,71 c 0,4.4091333 3.5908667,8 8,8 l 72,0 c 4.409133,0 8,-3.5908667 8,-8 l 0,-71 c 0,-4.409133 -3.590867,-8 -8,-8 l -72,0 z"
       transform="scale(1,-1)"
       id="path3770"
       style="opacity:0.2;fill:url(#linearGradient3772);fill-opacity:1;fill-rule:nonzero;stroke:none;display:inline" />
    <rect
       width="86"
       height="85"
       rx="7"
       ry="7"
       x="5"
       y="-92"
       transform="scale(1,-1)"
       id="rect3723"
       style="opacity:0.3;fill:url(#linearGradient3725);fill-opacity:1;fill-rule:nonzero;stroke:none;display:inline" />
    <rect
       width="84"
       height="84"
       rx="6"
       ry="6"
       x="6"
       y="-91"
       transform="scale(1,-1)"
       id="rect3716"
       style="opacity:0.45;fill:url(#linearGradient3721);fill-opacity:1;fill-rule:nonzero;stroke:none;display:inline" />
  </g>
  <g
     id="layer1">
    <rect
       width="84"
       height="84"
       rx="6"
       ry="6"
       x="6"
       y="6"
       id="rect2419-8"
       style="fill:url(#linearGradient3390);fill-opacity:1;fill-rule:nonzero;stroke:none;display:inline" />
    <path
       d="m 36.27388,4.096377 c 1.65012,2.2155912 0.11259,5.915398 2.60148,5.878671 1.2119,1.713164 -2.41545,0.511042 0.2036,1.831432 1.5061,1.185988 -1.5934,1.863613 0.27178,2.927919 -2.14968,1.109114 0.34844,5.801103 1.94512,6.97538 2.62795,2.212061 1.1622,-4.683394 4.0945,-5.04209 1.59336,-1.818795 4.39184,-2.986327 6.37927,-4.815989 -1.9423,-0.15766 -3.07647,-1.366454 -1.23702,-2.115252 3.38545,3.468671 0.8489,-1.642711 -1.02514,-2.452023 1.81336,-0.5767594 3.57698,-0.154404 3.32537,-1.6505493 1.91632,-1.4018192 -1.84226,-1.8544226 -3.18394,-1.5374987 -4.45834,0 -8.91667,0 -13.37502,0 z M 8.472035,5.5434349 C 6.022275,6.2412831 5.851393,12.095058 8.313685,8.844535 8.918028,7.50983 11.710762,5.901324 8.472035,5.5434349 z M 19.918529,5.746927 C 18.506269,7.961168 20.12344,9.736445 21.29844,7.035713 22.13015,5.9079304 20.680509,5.7882479 19.918529,5.746927 z m 3.528951,0.4974263 c -2.728751,1.2645837 -0.6726,4.2134717 -0.60506,4.8693197 2.87457,0.994334 4.47323,-0.650114 5.56069,2.160413 2.73516,1.576152 -0.0538,4.314918 -1.08054,5.028176 1.84934,-1.610389 5.40416,4.378304 4.47226,1.214321 -1.11179,-0.811673 2.98515,1.303915 0.85962,-1.334006 -1.95607,-3.151091 0.15527,-1.410713 0.97995,-0.675273 2.80488,-2.514847 -3.1736,-2.818813 -1.68123,-5.40689 C 30.64542,11.041357 28.93028,7.83304 26.6145,8.46016 25.06426,10.464727 26.40035,4.0923691 24.12589,7.281181 c -0.11789,1.782531 -0.0429,4.044447 -0.70571,0.956351 -0.44407,-0.540606 0.764,-1.7974072 0.0273,-1.9931787 z m -5.56489,0.022612 C 16.050988,6.8775146 16.149361,9.351938 18.401546,9.617212 19.17298,8.738016 18.70804,6.4334551 17.88259,6.2669652 z M 10.734187,7.058325 c -2.379078,0.563598 -1.407992,2.481632 -0.679572,3.02182 -2.944918,0.737557 4.49569,0.942657 0.79268,1.409793 -3.08079,1.230224 2.966663,2.67961 3.958767,1.220954 C 18.61045,13.641165 14.94297,9.665861 14.609021,7.510944 12.996269,5.7803225 14.545371,11.500495 13.087153,7.69526 12.578366,8.825243 10.960625,7.861775 10.734187,7.058325 z M 86.33531,7.307037 C 83.14287,8.55628 88.31949,13.270509 87.03296,8.981701 86.90479,8.463833 87.32115,7.095532 86.33531,7.307037 z M 19.66969,9.2063 c -2.294083,2.155636 2.91599,3.938244 -0.658894,5.54415 -0.53602,-2.001942 -1.458276,1.001608 -3.503467,-0.615111 -3.515899,1.46374 -5.313868,-0.762449 -8.257534,-2.288432 -1.768029,-0.220055 -1.103781,1.679698 -1.220884,3.458474 0,4.915862 0,9.831727 0,14.74759 1.733489,1.823574 0.676329,0.804576 0,0.301602 0.951467,3.240031 -0.419572,7.976266 3.330851,9.860928 0.637563,1.182446 3.312882,6.219986 3.43622,4.712704 -1.341214,-1.404368 -2.717353,-5.614596 -0.447896,-1.862098 2.032756,3.567022 4.774753,5.880584 8.780474,6.729415 2.19006,0.744855 3.99117,3.305322 5.91712,2.741963 1.08905,2.870539 -3.22741,5.627088 0.14491,8.30447 1.76052,2.71045 4.71618,4.488168 3.11596,8.29345 -1.11907,3.716413 -0.63993,7.765882 -1.60779,11.228513 -0.30039,2.107681 2.93804,7.457302 2.65747,3.173531 0.94557,-2.976918 0.92064,-6.252508 3.14759,-8.360679 3.04711,0.02412 0.58237,-3.276114 3.607,-2.844995 1.84565,-2.418872 2.38023,-5.304486 5.49491,-6.264978 0.37205,-2.936144 5.17882,-7.4329 0.21314,-8.576056 -1.34961,-0.665119 -4.8245,-0.904282 -4.55894,-1.232465 0.53803,-2.913429 -4.49347,-3.742841 -6.63424,-4.934817 -2.81075,-1.994856 -7.03423,3.313948 -8.02451,-1.260398 -0.59088,-1.439233 -2.75133,-1.462574 -1.75843,-3.683379 -1.78939,1.779441 -5.28934,1.238624 -4.373028,-2.197824 1.391566,-2.894156 6.735638,-3.031092 7.646258,0.450058 -1.26435,-3.839294 2.44394,-6.828036 4.50253,-9.559465 0.41916,-1.305551 2.90974,-2.427219 2.05268,-0.692077 1.46015,-0.05266 3.67328,-2.687302 1.07941,-1.471281 -0.0367,-2.402702 -2.27298,-1.719417 -2.998,-1.378249 1.34377,-2.132514 8.24498,-0.966646 5.35509,-4.452373 -2.2393,-0.907229 -2.05302,-6.201368 -4.318,-3.251981 0.1906,-1.817243 -4.61001,-5.374474 -4.50525,-2.327163 0.58599,2.726773 0.10714,5.867952 -1.13992,7.655308 -0.26025,-3.995633 -7.075686,-3.112538 -6.199431,-7.370332 1.269451,-2.029282 2.752851,-4.835506 2.894181,-4.583059 2.27505,-0.868509 4.10459,-3.394824 1.46783,-5.055609 -0.14092,1.447483 -1.98303,4.433935 -1.72366,0.821917 -1.705794,2.022175 -1.3162,-3.217808 -2.91375,-3.761252 z m 54.45,1.401837 c -3.99594,0.977352 -5.58007,4.793453 -7.55681,7.954209 -2.91386,1.313584 -2.80294,6.954861 0.45241,5.153113 0.87128,1.52152 -0.60951,3.919724 1.92831,1.930256 2.047,-2.708555 0.35794,-7.089232 3.84142,-8.797142 0.25374,1.32799 -3.21334,6.286746 0.83699,5.471685 3.66156,0.13814 -2.66185,0.364788 -0.88099,2.703385 -1.85027,-1.097665 -0.88884,2.997843 -3.30399,2.044772 -2.09232,1.137967 -3.46433,-0.528366 -2.98503,-2.353789 -1.64596,0.960095 0.5177,3.668626 -2.33958,3.831405 -0.64005,2.272529 -5.90338,1.930002 -2.9102,4.244049 1.3289,3.443647 -4.95154,0.215879 -3.16854,4.348369 1.52545,4.086407 4.7224,-1.354049 6.01943,-2.405153 2.50248,-1.940907 6.21066,3.309444 3.95877,3.504593 2.52508,-0.338743 2.00619,-2.739888 -0.0169,-3.669477 -1.09268,-2.833524 3.45903,1.389634 3.2066,2.810286 1.60595,3.006852 0.94462,-3.078557 2.57885,-0.384373 -0.1908,2.841965 6.57418,0.668223 3.34439,4.290282 -2.77688,0.559235 -5.51013,-0.715787 -7.90083,0.100876 -2.22511,-0.01969 -2.11347,-2.396773 -2.92358,-2.992055 -2.83037,0.229926 -6.32794,0.203926 -8.22277,2.490166 -2.04902,2.810946 -5.00383,6.740445 -2.77053,10.329674 2.23487,5.318818 7.77718,0.27589 10.96298,3.417068 0.94693,1.309731 -0.8206,2.86661 1.2967,4.285291 0.79672,3.022035 -0.90448,5.891404 1.05227,8.780282 1.01184,2.716843 1.63978,6.783262 5.40576,4.300665 3.98577,-2.398255 2.92416,-6.819304 6.21294,-9.268036 -2.60227,-5.035562 3.18363,-7.243505 4.62722,-11.33147 -3.15395,0.461678 -5.96377,-2.682428 -6.72579,-5.847035 -1.32494,-1.53712 -0.98368,-3.80361 0.49633,-0.916013 2.03426,1.970926 2.07821,7.819175 5.84127,4.810628 1.72035,-0.719477 6.4186,-3.464001 2.67511,-4.712977 -2.41304,1.747528 -5.07525,-5.221667 -1.53182,-1.179385 2.57602,1.092759 4.37996,1.743838 4.37996,-1.879216 0,-9.761273 0,-19.654809 0,-29.482214 -0.8024,0.819872 -2.8638,2.334082 -3.90428,1.32791 -1.79037,0.249281 -4.15389,3.732429 -3.59125,0.365356 -1.55624,-0.103042 -0.27858,3.019034 -2.41664,3.106347 -0.21529,1.605089 -2.15987,0.29723 -1.42943,1.821464 -1.50065,-1.064346 -2.77067,-4.424842 0.18614,-2.315577 4.39103,-1.31719 -2.8956,-4.288275 -3.45804,-5.006418 0.94545,-0.226501 -1.02861,-1.211646 -1.26681,-0.881801 z m -36.23968,0.881801 c -1.4615,1.217596 2.77854,1.446893 0,0 z m -19.522371,0.655697 c -1.634647,1.709655 2.603281,1.571667 0,0 z m 9.478421,1.69577 c -1.23786,2.027571 1.82903,0.748571 0,0 z m 27.10058,2.39669 c -1.44923,1.668248 -3.36205,-0.439045 -3.39323,0.994852 0.26265,0.433258 1.31467,3.52554 3.61945,1.243565 1.23698,-0.521451 0.74995,-1.835967 -0.22622,-2.238417 z m -30.85575,0.994852 c -2.74881,2.400285 4.6683,2.621438 0.58232,0.275289 l -0.58232,-0.27529 z m 36.2623,6.647418 c -1.97909,1.2904 0.94943,4.030804 -0.0431,5.318079 -1.2401,2.160392 4.60832,-0.152179 1.48461,-1.875826 -0.22257,-1.48088 -1.83002,-3.287723 -1.44154,-3.442253 z m -1.33468,2.600181 c -2.75739,0.779471 -0.62595,4.803849 0.35067,1.013493 0.0549,-0.219748 0.12936,-1.020842 -0.35067,-1.013493 z m -22.0786,2.916726 c -2.56522,1.748962 -0.39843,3.494707 1.48156,2.707775 -0.38596,-1.055239 -1.46417,-1.720102 -1.48156,-2.707775 z m 48.4553,2.939335 c 1.27995,0.645878 -2.34554,1.749213 -0.0498,2.885924 1.33598,1.570889 0.83231,4.942999 -1.3392,2.556372 0.40344,-2.664667 -2.94356,-4.654664 1.38903,-5.442296 z m -6.58287,0.02261 c -0.17366,1.711943 3.69395,4.372967 -0.47504,3.504593 -2.20475,0.258597 -5.50697,-0.06736 -2.72943,-2.814283 0.87765,-0.526822 3.18206,1.817596 1.98292,-0.373765 0.42513,-0.02712 0.82107,-0.18758 1.22155,-0.316545 z M 66.06643,36.0673 c -1.60811,1.035898 1.11199,1.830212 0,0 z m -40.37941,9.654585 c -0.27111,0.904354 5.08598,1.82085 1.38929,0.371963 l -0.55107,-0.193949 -0.83822,-0.178014 z m 4.16235,1.288785 c -1.62491,1.649392 3.34782,0.492772 0,0 z m 54.3369,15.126272 c -3.53072,0.09109 -3.06133,9.197024 -0.60013,3.808943 0.2334,-1.169216 1.1689,-2.712425 0.60013,-3.808943 z"
       inkscape:connector-curvature="0"
       clip-path="url(#clipPath3286)"
       id="path3522-9"
       style="opacity:0.4;fill:url(#radialGradient3528);fill-opacity:1;stroke:none;display:inline" />
    <path
       d="M 120.78125,6.125 C 118.04223,6.6826484 116,9.0915 116,12 l 0,68 c 0,3.324 2.676,6 6,6 l 72,0 c 3.324,0 6,-2.676 6,-6 l 0,-68 c 0,-2.9085 -2.04223,-5.3173516 -4.78125,-5.875 2.20512,0.5362071 3.8125,2.4908437 3.8125,4.875 l 0,68 c 0,2.80489 -2.22636,5.03125 -5.03125,5.03125 l -72,0 c -2.80489,0 -5.03125,-2.22636 -5.03125,-5.03125 l 0,-68 c 0,-2.3841563 1.60738,-4.3387929 3.8125,-4.875 z"
       inkscape:connector-curvature="0"
       id="rect4359"
       style="opacity:0.2;fill:url(#radialGradient4375);fill-opacity:1;fill-rule:nonzero;stroke:none" />
    <path
       d="M 12,86 C 8.676,86 6,83.324 6,80 L 6,12 C 6,8.676 8.676,6 12,6 l 72,0 c 3.324,0 6,2.676 6,6 l 0,68 c 0,3.324 -2.676,6 -6,6 z m 0,-0.96875 72,0 c 2.80489,0 5.03125,-2.22636 5.03125,-5.03125 l 0,-68 C 89.03125,9.19511 86.80489,6.96875 84,6.96875 l -72,0 C 9.1951102,6.96875 6.96875,9.19511 6.96875,12 l 0,68 c 0,2.80489 2.2263602,5.03125 5.03125,5.03125 z"
       inkscape:connector-curvature="0"
       id="rect4377"
       style="opacity:0.25;fill:url(#linearGradient4390);fill-opacity:1;fill-rule:nonzero;stroke:none" />
    <path
       d="m 6,78 0,2 c 0,3.324 2.676,6 6,6 l 72,0 c 3.324,0 6,-2.676 6,-6 l 0,-2 c 0,3.324 -2.676,6 -6,6 L 12,84 C 8.676,84 6,81.324 6,78 z"
       inkscape:connector-curvature="0"
       id="rect4414"
       style="opacity:0.1;fill:url(#linearGradient4429);fill-opacity:1;fill-rule:nonzero;stroke:none" />
    <path
       d="m 6,100 0,1 c 0,3.324 2.676,6 6,6 l 72,0 c 3.324,0 6,-2.676 6,-6 l 0,-1 c 0,3.324 -2.676,6 -6,6 l -72,0 c -3.324,0 -6,-2.676 -6,-6 z"
       inkscape:connector-curvature="0"
       id="path4412"
       style="opacity:0.15;fill:#000000;fill-opacity:1;fill-rule:nonzero;stroke:none" />
  </g>
  <g
     id="layer4"
     style="display:inline">
    <path
       d="m 6,80 0,4 c 0,3.324 2.676,6 6,6 l 72,0 c 3.324,0 6,-2.676 6,-6 l 0,-4 c 0,3.324 -2.676,6 -6,6 L 12,86 C 8.676,86 6,83.324 6,80 z"
       inkscape:connector-curvature="0"
       id="path3888"
       style="fill:url(#linearGradient3228);fill-opacity:1;fill-rule:nonzero;stroke:none;display:inline" />
    <path
       d="m 6,82 0,2 c 0,3.324 2.676,6 6,6 l 72,0 c 3.324,0 6,-2.676 6,-6 l 0,-2 c 0,3.324 -2.676,6 -6,6 L 12,88 C 8.676,88 6,85.324 6,82 z"
       inkscape:connector-curvature="0"
       id="rect4345"
       style="opacity:0.1;color:#000000;fill:#000000;fill-opacity:1;fill-rule:nonzero;stroke:none;stroke-width:1.5;marker:none;visibility:visible;display:inline;overflow:visible;enable-background:accumulate" />
    <path
       d="m 6,83 0,1 c 0,3.324 2.676,6 6,6 l 72,0 c 3.324,0 6,-2.676 6,-6 l 0,-1 c 0,3.324 -2.676,6 -6,6 L 12,89 C 8.676,89 6,86.324 6,83 z"
       inkscape:connector-curvature="0"
       id="rect4336"
       style="opacity:0.15;color:#000000;fill:#000000;fill-opacity:1;fill-rule:nonzero;stroke:none;stroke-width:1.5;marker:none;visibility:visible;display:inline;overflow:visible;enable-background:accumulate" />
  </g>
  <g
     id="layer5"
     style="display:inline">
    <rect
       width="66"
       height="62"
       rx="12"
       ry="12"
       x="15"
       y="15"
       clip-path="url(#clipPath4355)"
       id="rect3171"
       style="opacity:0.1;fill:url(#linearGradient3613);fill-opacity:1;fill-rule:nonzero;stroke:#ffffff;stroke-width:0.5;stroke-linecap:round;stroke-linejoin:miter;stroke-miterlimit:4;stroke-opacity:1;stroke-dasharray:none;stroke-dashoffset:0;filter:url(#filter3794)" />
  </g>
  <g
     id="layer7">
    <g
       transform="translate(0,-2)"
       id="g4234"
       style="display:inline">
      <path
         d="M 7,29.523112 C 58.250036,38.347576 38.633643,89 38.633643,89"
         inkscape:connector-curvature="0"
         id="path3583"
         style="fill:none;stroke:url(#radialGradient4246);stroke-width:2;stroke-linecap:butt;stroke-linejoin:miter;stroke-miterlimit:4;stroke-opacity:1;stroke-dasharray:none;display:inline" />
      <path
         d="M 27.676739,88.823511 C 26.616393,73.292454 56.129343,28.640665 88.823332,20.875137"
         inkscape:connector-curvature="0"
         id="path3581"
         style="fill:none;stroke:url(#radialGradient4252);stroke-width:2;stroke-linecap:butt;stroke-linejoin:miter;stroke-miterlimit:4;stroke-opacity:1;stroke-dasharray:none;display:inline" />
      <path
         d="m 77.5,67.125 a 3.125,3.125 0 1 1 -6.25,0 3.125,3.125 0 1 1 6.25,0 z"
         transform="matrix(1.3572422,0,0,1.3554377,-73.268157,-53.871603)"
         id="path3537"
         style="fill:url(#radialGradient3216);fill-opacity:1;fill-rule:evenodd;stroke:none;display:inline" />
      <path
         d="m 77.5,67.125 a 3.125,3.125 0 1 1 -6.25,0 3.125,3.125 0 1 1 6.25,0 z"
         transform="matrix(1.0744835,0,0,1.0730548,-39.513825,-14.090919)"
         id="path3557"
         style="fill:url(#radialGradient3443);fill-opacity:1;fill-rule:evenodd;stroke:none;display:inline" />
      <path
         d="m 77.5,67.125 a 3.125,3.125 0 1 1 -6.25,0 3.125,3.125 0 1 1 6.25,0 z"
         transform="matrix(1.5834493,0,0,1.581344,-53.333661,-72.388859)"
         id="path3561"
         style="fill:url(#radialGradient3445);fill-opacity:1;fill-rule:evenodd;stroke:none;display:inline" />
      <path
         d="m 77.5,67.125 a 3.125,3.125 0 1 1 -6.25,0 3.125,3.125 0 1 1 6.25,0 z"
         transform="matrix(1.0219348,0,0,1.020576,-15.635673,-16.92189)"
         id="path3565"
         style="opacity:0.6;fill:url(#radialGradient3447);fill-opacity:1;fill-rule:evenodd;stroke:none;display:inline" />
      <path
         d="m 77.5,67.125 a 3.125,3.125 0 1 1 -6.25,0 3.125,3.125 0 1 1 6.25,0 z"
         transform="matrix(0.89260147,0,0,0.89141463,-51.611367,-28.371713)"
         id="path3569"
         style="opacity:0.7;fill:url(#radialGradient3449);fill-opacity:1;fill-rule:evenodd;stroke:none;display:inline" />
      <path
         d="m 77.5,67.125 a 3.125,3.125 0 1 1 -6.25,0 3.125,3.125 0 1 1 6.25,0 z"
         transform="matrix(0.56551763,0,0,0.5647657,38.456917,3.261507)"
         id="path3573"
         style="opacity:0.6;fill:url(#radialGradient3451);fill-opacity:1;fill-rule:evenodd;stroke:none;display:inline" />
      <path
         d="M 7.1767242,47.701508 C 35.275882,28.287687 72.387975,27.228751 89.000056,49.289911"
         inkscape:connector-curvature="0"
         id="path3577"
         style="fill:none;stroke:url(#radialGradient4248);stroke-width:2;stroke-linecap:butt;stroke-linejoin:miter;stroke-miterlimit:4;stroke-opacity:1;stroke-dasharray:none;display:inline" />
      <path
         d="M 7.1767242,67.821286 C 58.42676,56.349483 89.17678,37.641619 89.17678,37.641619"
         inkscape:connector-curvature="0"
         id="path3585"
         style="opacity:0.6;fill:none;stroke:url(#radialGradient4250);stroke-width:1.5;stroke-linecap:butt;stroke-linejoin:miter;stroke-miterlimit:4;stroke-opacity:1;stroke-dasharray:none;display:inline" />
      <path
         d="m 77.5,67.125 a 3.125,3.125 0 1 1 -6.25,0 3.125,3.125 0 1 1 6.25,0 z"
         transform="matrix(0.84547158,0,0,0.84434747,15.553432,-31.917967)"
         id="path3352"
         style="opacity:0.6;fill:url(#radialGradient3511);fill-opacity:1;fill-rule:evenodd;stroke:none;display:inline" />
    </g>
  </g>
  <g
     id="layer6">
    <path
       d="m 47.4375,18.59375 c -7.608917,0.152838 -14.454169,6.096802 -15.625,13.625 a 0.97694939,0.97694939 0 0 0 0,0.03125 c -0.388018,3.012166 -0.204892,5.948071 -0.21875,8.8125 -0.739363,0.04411 -1.480847,0.161141 -2.15625,0.5 -1.008439,0.505948 -1.876336,1.418577 -2.21875,2.65625 a 0.97694939,0.97694939 0 0 0 -0.03125,0.125 c -0.349928,2.476355 -0.08315,4.872506 -0.15625,7.125 a 0.97694939,0.97694939 0 0 0 0.0625,0.4375 c 0.222672,0.496555 0.226177,0.972957 0.125,1.65625 -0.09745,0.658124 -0.285984,1.480817 -0.1875,2.4375 9.98e-4,0.02879 -8.41e-4,0.06486 0,0.09375 0.04824,1.657091 -0.163923,3.478753 0.125,5.375 a 0.97694939,0.97694939 0 0 0 0.0625,0.1875 c 0.101489,0.276065 0.05064,0.686387 -0.0625,1.3125 -0.10712,0.592815 -0.255199,1.369297 -0.125,2.21875 0.0073,0.04771 -0.0093,0.07662 0,0.125 0.07335,1.72224 -0.284688,3.725987 0.3125,5.8125 a 0.97694939,0.97694939 0 0 0 0.03125,0.0625 c 0.454124,1.205754 1.412484,2.002601 2.4375,2.40625 0.994702,0.391712 2.049532,0.458795 3.03125,0.375 0.02992,-0.0026 0.064,0.0029 0.09375,0 10.639748,-0.01192 21.261007,0.0112 31.90625,-0.03125 a 0.97694939,0.97694939 0 0 0 0.0625,0 c 1.403448,-0.104043 2.554775,-0.898779 3.25,-1.9375 0.672077,-1.004135 0.963432,-2.248628 0.8125,-3.46875 -0.0013,-0.03904 0.001,-0.08583 0,-0.125 -0.04796,-1.832143 0.162213,-3.793144 -0.125,-5.84375 A 0.97694939,0.97694939 0 0 0 68.8125,62.375 c -0.102172,-0.297946 -0.08011,-0.785262 0.03125,-1.4375 0.105519,-0.618004 0.254109,-1.391544 0.125,-2.25 -0.0022,-0.03886 0.0017,-0.08583 0,-0.125 -0.06525,-1.529762 0.170094,-3.296233 -0.28125,-5.15625 4.54e-4,-0.0075 -4.95e-4,-0.02368 0,-0.03125 0.06072,-0.928192 0.432012,-2.328127 0.28125,-3.8125 -5.19e-4,-0.0097 4.88e-4,-0.02151 0,-0.03125 -0.08353,-1.665692 0.287502,-3.610784 -0.3125,-5.65625 A 0.97694939,0.97694939 0 0 0 68.625,43.8125 c -0.429697,-1.12429 -1.284531,-1.913523 -2.25,-2.34375 -0.626927,-0.279368 -1.302913,-0.241574 -1.96875,-0.28125 -0.03487,-3.250416 0.284978,-6.674932 -0.46875,-10.125 a 0.97694939,0.97694939 0 0 0 -0.03125,0 C 62.244087,24.296816 56.123176,18.965212 49.09375,18.625 c -0.01108,-8.52e-4 -0.02019,8.12e-4 -0.03125,0 -0.564318,-0.04144 -1.097324,-0.03154 -1.59375,-0.03125 a 0.97694939,0.97694939 0 0 0 -0.03125,0 z m 0.28125,10.4375 a 0.97694939,0.97694939 0 0 0 0.03125,0 c 2.684691,-0.199492 5.217882,1.657932 5.96875,4.21875 0.431717,2.212488 0.157629,4.655014 0.25,7.21875 3.86e-4,0.01073 -4e-4,0.02052 0,0.03125 0.0014,0.280682 -0.0035,0.358069 0,0.53125 l -11.9375,0 c 0.0087,-2.461746 -0.08199,-4.885752 0.09375,-7.21875 0.03599,-0.112639 0.07226,-0.263697 0.125,-0.4375 0.10548,-0.347605 0.29944,-0.847108 0.28125,-0.8125 A 0.97694939,0.97694939 0 0 0 42.5625,32.5 c 0.910358,-2.037595 2.904587,-3.426788 5.15625,-3.46875 z"
       transform="translate(0,-2)"
       id="path4310"
       style="opacity:0.05;color:#000000;fill:#000000;fill-opacity:1;fill-rule:nonzero;stroke:none;stroke-width:2;marker:none;visibility:visible;display:inline;overflow:visible;enable-background:accumulate" />
    <path
       d="M 47.46875,17.5625 C 40.364942,17.705192 33.880493,23.337564 32.787727,30.363819 32.376527,33.555943 32.635269,36.788387 32.562499,40 30.751736,39.779534 28.687168,40.554711 28.15868,42.46496 27.8312,44.782457 28.07602,47.157515 27.999999,49.5 c 0.667323,1.488121 -0.199729,2.874708 0,4.468506 0.06166,1.777951 -0.138015,3.582411 0.129763,5.33988 0.424642,1.155095 -0.384449,2.498209 -0.129763,3.825115 0.104414,1.904469 -0.251508,3.874978 0.277226,5.722321 0.701623,1.862892 2.786206,2.314036 4.55778,2.144178 10.673277,-0.01216 21.3478,0.02432 32.020297,-0.01824 C 67.027536,70.820724 68.301245,68.580995 68,66.565496 67.93669,64.609673 68.141285,62.626807 67.870237,60.691614 67.464185,59.507521 68.254335,58.123448 68,56.764492 67.899274,54.95648 68.244598,53.080061 67.73097,51.33226 67.79707,50.238684 68.134775,48.887785 68,47.630992 67.90239,45.804308 68.241912,43.913969 67.722774,42.144178 67.061811,40.414786 65.133397,39.817785 63.4375,40 63.32825,36.430473 63.749966,32.809284 62.982186,29.294895 61.42308,22.948696 55.587316,17.902176 49.015883,17.597973 48.501051,17.558382 47.984653,17.562195 47.46875,17.5625 z m 0.21875,8.5 c 3.196257,-0.237505 6.149492,1.95665 7,5 0.473419,2.426205 0.158004,4.943315 0.25,7.411024 0.0034,0.823698 0.27193,1.912584 -0.934504,1.526476 -4.313499,0 -8.626997,0 -12.940496,0 0.06004,-2.824495 -0.125761,-5.670615 0.105235,-8.481494 -0.06318,0.350932 0.289112,-1.045367 0.488515,-1.424756 1.060922,-2.374591 3.393626,-3.982095 6.03125,-4.03125 z"
       inkscape:connector-curvature="0"
       id="path4304"
       style="opacity:0.1;color:#000000;fill:#000000;fill-opacity:1;fill-rule:nonzero;stroke:none;stroke-width:2;marker:none;visibility:visible;display:inline;overflow:visible;enable-background:accumulate" />
    <path
       d="m 47.5625,20.625 c -0.144589,0.01166 -0.28346,0.02613 -0.375,0.03125 C 39.626321,21.074377 33.625,27.338463 33.625,35 l 0,8.0625 -2.125,0 c -1.330704,0 -2.4375,1.106796 -2.4375,2.4375 l 0,1.5 0,4.5 c 0,0.580358 0.278578,1.079441 0.625,1.5 -0.346422,0.420559 -0.625,0.919642 -0.625,1.5 l 0,1.5 0,4.5 c 0,0.580358 0.278578,1.079441 0.625,1.5 -0.346422,0.420559 -0.625,0.919642 -0.625,1.5 l 0,1.5 0,3 0,1.5 c 0,1.330704 1.106796,2.4375 2.4375,2.4375 l 33,0 c 1.330704,0 2.4375,-1.106796 2.4375,-2.4375 l 0,-1.5 0,-4.5 c 0,-0.580358 -0.278578,-1.079441 -0.625,-1.5 0.346422,-0.420559 0.625,-0.919642 0.625,-1.5 l 0,-6 c 0,-0.580358 -0.278578,-1.079441 -0.625,-1.5 0.346422,-0.420559 0.625,-0.919642 0.625,-1.5 l 0,-6 c 0,-1.330704 -1.106796,-2.4375 -2.4375,-2.4375 l -2.125,0 0,-8.0625 c 0,-4.879169 -2.429929,-9.182321 -6.15625,-11.78125 0.05998,0.04162 0.02056,-0.03731 -0.15625,-0.15625 -0.271047,-0.18312 -0.552957,-0.33417 -0.78125,-0.46875 -0.01208,-0.01155 -0.01549,-0.01826 -0.03125,-0.03125 -0.124754,-0.07299 -0.145314,-0.07918 -0.0625,-0.03125 -0.02227,-0.01471 -0.0041,-0.01573 -0.03125,-0.03125 -0.102137,-0.05866 -0.216747,-0.104232 -0.3125,-0.15625 -1.329299,-0.722142 -2.776558,-1.226784 -4.3125,-1.5 C 49.683866,20.690541 48.848823,20.625 48,20.625 c -0.06616,0 -0.129154,1.17e-4 -0.1875,0 -0.02464,-0.001 -0.01203,3.78e-4 -0.03125,0 -0.07689,-0.0015 -0.134233,-2.83e-4 -0.125,0 a 0.93115575,0.93115575 0 0 0 -0.09375,0 z M 47.65625,27 c 0.07485,-0.003 0.194043,0 0.34375,0 1.704717,0 3.225137,0.489808 4.5,1.34375 l 0.03125,0 c 0.03852,0.02047 0.155792,0.09357 0.15625,0.09375 0.0893,0.06597 0.176158,0.136331 0.28125,0.21875 1.273513,1.023382 2.22856,2.431828 2.71875,4.09375 0.04677,0.168152 0.09971,0.292213 0.125,0.40625 a 0.93115575,0.93115575 0 0 0 0,0.03125 c -0.02158,-0.08938 -0.01609,-0.03012 0.03125,0.1875 0.06246,0.317177 0.10788,0.530888 0.125,0.6875 C 55.996736,34.319471 56,34.643535 56,35 l 0,8.0625 -16,0 L 40,35 c 0,-0.285978 0.009,-0.541573 0.03125,-0.78125 0.01677,-0.182264 0.01564,-0.195089 0,-0.03125 0.01794,-0.186897 0.016,-0.197613 0,-0.03125 0.01824,-0.185284 0.02808,-0.362623 0.0625,-0.5625 0.0019,-0.01098 -0.0019,-0.02008 0,-0.03125 a 0.93115575,0.93115575 0 0 0 0,-0.03125 c -0.04161,0.23649 -0.02361,0.199539 0.03125,-0.09375 0.04228,-0.227235 0.119179,-0.443478 0.1875,-0.6875 0.0065,-0.02181 -0.0048,-0.0112 0,-0.03125 -0.01184,0.04179 0.0019,0.0055 0.03125,-0.09375 0.07196,-0.243068 0.123996,-0.429235 0.1875,-0.59375 0.01215,-0.02599 0.01953,-0.0013 0.03125,-0.03125 0.05718,-0.141917 0.06702,-0.179934 0.03125,-0.09375 0.07596,-0.188077 0.159641,-0.380463 0.25,-0.5625 -0.06396,0.128808 -0.02145,0.03361 0.03125,-0.0625 0.362788,-0.698586 0.831422,-1.335003 1.34375,-1.875 0.0067,-0.0064 0.0026,-0.03329 0.03125,-0.0625 0.100028,-0.103418 0.197476,-0.202662 0.28125,-0.28125 -0.09019,0.0829 -0.03633,0.04932 0.125,-0.09375 -0.0092,0.0082 0.02317,-0.0075 0.125,-0.09375 a 0.93115575,0.93115575 0 0 0 0.03125,0 c 0.141108,-0.12233 0.145735,-0.163802 0.0625,-0.09375 0.04252,-0.03494 0.07596,-0.08651 0.125,-0.125 a 0.93115575,0.93115575 0 0 0 0.03125,0 c -0.06985,0.05613 -0.0037,0.01797 0.0625,-0.03125 l 0,-0.03125 c 0.172968,-0.135162 0.266359,-0.221063 0.21875,-0.1875 0.0092,-0.0065 0.136429,-0.05576 0.34375,-0.1875 0.07467,-0.04734 0.110912,-0.07307 0.09375,-0.0625 0.119209,-0.07363 0.233379,-0.142136 0.375,-0.21875 0.260159,-0.139517 0.50618,-0.244556 0.75,-0.34375 0.05035,-0.02051 0.121558,-0.05751 0.21875,-0.09375 0.158072,-0.05921 0.355363,-0.103344 0.53125,-0.15625 0.169233,-0.05067 0.249233,-0.09355 0.25,-0.09375 -0.101269,0.02691 -0.05262,0.01965 0.15625,-0.03125 0.06525,-0.01581 0.05091,-0.01388 0.09375,-0.03125 -0.0387,0.01342 -0.0206,0.01163 0.1875,-0.03125 0.04692,-0.0097 0.02603,-0.01957 0.0625,-0.03125 -0.336808,0.06553 -0.325713,0.06938 0.03125,0 0.255388,-0.04998 0.444861,-0.07073 0.65625,-0.09375 0.143054,-0.01559 0.34834,-0.02165 0.59375,-0.03125 z"
       transform="translate(0,-2)"
       id="path4300"
       style="opacity:0.15;color:#000000;fill:#000000;fill-opacity:1;fill-rule:nonzero;stroke:none;stroke-width:2;marker:none;visibility:visible;display:inline;overflow:visible;enable-background:accumulate" />
    <path
       d="m 47.625,19.5625 c -0.124058,0.01 -0.24832,0.02416 -0.375,0.03125 C 40.171363,19.985193 34.562499,25.82359 34.562499,33 l 0,9 -3.0625,0 c -0.831,0 -1.5,0.669 -1.5,1.5 l 0,1.5 0,4.5 c 0,0.831 0.669,1.5 1.5,1.5 -0.831,0 -1.5,0.669 -1.5,1.5 l 0,1.5 0,4.5 c 0,0.831 0.669,1.5 1.5,1.5 -0.831,0 -1.5,0.669 -1.5,1.5 l 0,1.5 0,3 0,1.5 c 0,0.831 0.669,1.5 1.5,1.5 L 64.5,69 C 65.331,69 66,68.331 66,67.5 L 66,66 66,61.5 C 66,60.669 65.331,60 64.5,60 65.331,60 66,59.331 66,58.5 l 0,-6 C 66,51.669 65.331,51 64.5,51 65.331,51 66,50.331 66,49.5 l 0,-6 C 66,42.669 65.331,42 64.5,42 l -3.0625,0 0,-9 c 0,-4.571738 -2.264337,-8.600168 -5.75,-11.03125 -0.0537,-0.03726 -0.101975,-0.08849 -0.15625,-0.125 -0.228385,-0.154297 -0.480674,-0.297153 -0.71875,-0.4375 -0.01215,-0.0072 -0.01907,-0.02412 -0.03125,-0.03125 -0.01974,-0.01155 -0.0427,-0.01979 -0.0625,-0.03125 C 54.70679,21.33685 54.69948,21.31936 54.6875,21.3125 54.59589,21.25989 54.499205,21.206748 54.40625,21.15625 53.16443,20.481631 51.814023,20.005976 50.375,19.75 49.600116,19.609899 48.812618,19.5625 48,19.5625 c -0.07464,0 -0.146549,3.06e-4 -0.21875,0 -0.05214,-0.0022 -0.103957,0.0016 -0.15625,0 z m 0,4.5 c 0.124055,-0.0049 0.249534,0 0.375,0 1.884076,0 3.604652,0.544421 5.03125,1.5 0.0074,0.0051 0.02382,-0.0052 0.03125,0 0.174421,0.117569 0.334986,0.245626 0.5,0.375 1.422781,1.143333 2.488397,2.722033 3.03125,4.5625 0.0432,0.155332 0.08979,0.309954 0.125,0.46875 0.01707,0.07071 0.01572,0.147364 0.03125,0.21875 0.05097,0.258813 0.127093,0.514519 0.15625,0.78125 C 56.9428,32.304352 56.9375,32.653016 56.9375,33 l 0,9 -17.875,0 0,-9 c 0,-0.295636 0.0046,-0.587476 0.03125,-0.875 9.55e-4,-0.01038 -9.89e-4,-0.02089 0,-0.03125 9.99e-4,-0.01041 -10e-4,-0.02085 0,-0.03125 0.0225,-0.228573 0.05505,-0.43356 0.09375,-0.65625 0.0019,-0.0099 -0.0019,-0.02133 0,-0.03125 0.0056,-0.03183 0.02532,-0.06205 0.03125,-0.09375 0.04967,-0.266928 0.115458,-0.523938 0.1875,-0.78125 0.0029,-0.0098 -0.0029,-0.0215 0,-0.03125 0.0091,-0.03212 0.0218,-0.06179 0.03125,-0.09375 0.06858,-0.231639 0.132728,-0.464649 0.21875,-0.6875 0.005,-0.01281 0.02624,-0.01847 0.03125,-0.03125 0.01237,-0.0307 0.01858,-0.06322 0.03125,-0.09375 0.08547,-0.211617 0.18061,-0.422251 0.28125,-0.625 0.01664,-0.03351 0.04546,-0.06049 0.0625,-0.09375 0.397564,-0.76555 0.88712,-1.480709 1.46875,-2.09375 0.02078,-0.02164 0.0415,-0.04108 0.0625,-0.0625 0.100973,-0.104395 0.206713,-0.213261 0.3125,-0.3125 0.03832,-0.03522 0.08605,-0.05921 0.125,-0.09375 0.05046,-0.04479 0.104742,-0.08137 0.15625,-0.125 0.03299,-0.0286 0.06035,-0.06564 0.09375,-0.09375 0.05091,-0.04184 0.104379,-0.08429 0.15625,-0.125 0.02933,-0.02357 0.06412,-0.03931 0.09375,-0.0625 0.08731,-0.06661 0.160101,-0.155374 0.25,-0.21875 0.117441,-0.08301 0.253293,-0.141414 0.375,-0.21875 0.03207,-0.02033 0.06139,-0.04257 0.09375,-0.0625 0.142892,-0.08826 0.28915,-0.169746 0.4375,-0.25 0.273537,-0.146692 0.553121,-0.288013 0.84375,-0.40625 0.08184,-0.03334 0.166888,-0.06276 0.25,-0.09375 0.183647,-0.06879 0.372946,-0.130483 0.5625,-0.1875 0.09432,-0.02824 0.185541,-0.0685 0.28125,-0.09375 0.05992,-0.01592 0.127054,-0.01652 0.1875,-0.03125 0.02187,-0.0053 0.04056,-0.02608 0.0625,-0.03125 0.0829,-0.01955 0.166149,-0.01397 0.25,-0.03125 0.02218,-0.0046 0.04026,-0.02682 0.0625,-0.03125 0.01028,-0.002 0.02096,0.002 0.03125,0 0.253317,-0.04958 0.488782,-0.09656 0.75,-0.125 0.214133,-0.02333 0.437342,-0.02269 0.65625,-0.03125 z"
       inkscape:connector-curvature="0"
       id="path3488"
       style="opacity:0.3;color:#000000;fill:#000000;fill-opacity:1;fill-rule:nonzero;stroke:none;stroke-width:2;marker:none;visibility:visible;display:inline;overflow:visible;enable-background:accumulate" />
    <path
       d="M 48,18.546875 C 40.57035,18.546875 34.546874,24.57035 34.546874,32 l 0,12 c 0,7.42965 6.023476,13.453125 13.453126,13.453125 7.42965,0 13.453125,-6.023475 13.453125,-13.453125 l 0,-12 C 61.453125,24.57035 55.42965,18.546875 48,18.546875 z m 0,4.5 c 5.024202,0 8.953125,3.928923 8.953125,8.953125 l 0,12 c 0,5.024202 -3.928923,8.953125 -8.953125,8.953125 -5.024202,0 -8.953125,-3.928923 -8.953125,-8.953125 l 0,-12 c 0,-5.024202 3.928923,-8.953125 8.953125,-8.953125 z"
       inkscape:connector-curvature="0"
       id="path3974"
       style="color:#000000;fill:url(#linearGradient3983);fill-opacity:1;fill-rule:nonzero;stroke:none;stroke-width:2;marker:none;visibility:visible;display:inline;overflow:visible;enable-background:accumulate" />
    <path
       d="m 48,21.5 c -5.817,0 -10.5,4.683 -10.5,10.5 l 0,18 c 0,0.992833 0.16668,1.950256 0.421875,2.859375 2.465784,2.811147 6.04518,4.59375 10.078125,4.59375 4.032945,0 7.612341,-1.782603 10.078125,-4.59375 C 58.33332,51.950256 58.5,50.992833 58.5,50 l 0,-18 C 58.5,26.183 53.817,21.5 48,21.5 z m 0,1.546875 c 5.024202,0 8.953125,3.928923 8.953125,8.953125 l 0,12 c 0,5.024202 -3.928923,8.953125 -8.953125,8.953125 -5.024202,0 -8.953125,-3.928923 -8.953125,-8.953125 l 0,-12 c 0,-5.024202 3.928923,-8.953125 8.953125,-8.953125 z"
       inkscape:connector-curvature="0"
       id="rect3985"
       style="opacity:0.1;color:#000000;fill:#000000;fill-opacity:1;fill-rule:nonzero;stroke:none;stroke-width:2;marker:none;visibility:visible;display:inline;overflow:visible;enable-background:accumulate" />
    <path
       d="m 48,25.3125 c -3.70276,0 -6.6875,2.98474 -6.6875,6.6875 l 0,12 c 0,0.59376 0.131289,1.161696 0.28125,1.71875 1.583964,1.778496 3.838102,2.9375 6.40625,2.9375 2.568148,0 4.822286,-1.159004 6.40625,-2.9375 C 54.556211,45.161696 54.6875,44.59376 54.6875,44 l 0,-12 c 0,-3.70276 -2.98474,-6.6875 -6.6875,-6.6875 z m 0,0.40625 c 3.51969,0 6.28125,2.76156 6.28125,6.28125 l 0,8 c 0,3.51969 -2.76156,6.28125 -6.28125,6.28125 -3.51969,0 -6.28125,-2.76156 -6.28125,-6.28125 l 0,-8 c 0,-3.51969 2.76156,-6.28125 6.28125,-6.28125 z"
       transform="matrix(1.4328358,0,0,1.4813934,-20.776119,-15.094672)"
       id="path3993"
       style="opacity:0.2;color:#000000;fill:#000000;fill-opacity:1;fill-rule:nonzero;stroke:none;stroke-width:2;marker:none;visibility:visible;display:inline;overflow:visible;enable-background:accumulate" />
    <path
       d="M 48,18.546875 C 40.57035,18.546875 34.546874,24.57035 34.546874,32 l 0,12 c 0,7.205194 5.678165,13.057384 12.796876,13.40625 C 40.560149,56.727852 35.249999,51.045935 35.249999,44.1875 l 0,-11.8125 c 0,-7.315665 6.023476,-13.21875 13.453126,-13.21875 2.942283,0 5.660553,0.906397 7.875,2.484375 C 54.252609,19.721417 51.250472,18.546875 48,18.546875 z m 5.765625,6.515625 c 1.966135,1.628968 3.1875,4.124316 3.1875,6.9375 l 0,12 c 0,5.024202 -3.928923,8.953125 -8.953125,8.953125 -0.267028,0 -0.53646,-0.02511 -0.796875,-0.04687 0.486792,0.07758 0.987396,0.09375 1.5,0.09375 5.024202,0 8.953125,-3.86538 8.953125,-8.8125 l 0,-11.8125 c 0,-3.091952 -1.512962,-5.744303 -3.890625,-7.3125 z"
       inkscape:connector-curvature="0"
       id="path3995"
       style="opacity:0.2;color:#000000;fill:url(#linearGradient4011);fill-opacity:1;fill-rule:nonzero;stroke:none;stroke-width:2;marker:none;visibility:visible;display:inline;overflow:visible;enable-background:accumulate" />
    <path
       d="M 48,18.546875 C 40.57035,18.546875 34.546874,24.57035 34.546874,32 l 0,12 1.171875,0 0,-12 c 0,-7.22174 5.702025,-13.128953 12.843751,-13.453125 -0.189961,-0.008 -0.370582,0 -0.5625,0 z"
       inkscape:connector-curvature="0"
       id="path4013"
       style="opacity:0.1;color:#000000;fill:#000000;fill-opacity:1;fill-rule:nonzero;stroke:none;stroke-width:2;marker:none;visibility:visible;display:inline;overflow:visible;enable-background:accumulate" />
    <path
       d="m 48,18.546875 c -0.256441,0 -0.497099,0.03271 -0.75,0.04687 C 54.324177,18.9899 59.953125,24.826791 59.953125,32 l 0,12 c 0,7.173208 -5.628948,13.0101 -12.703125,13.40625 0.252901,0.0141 0.493559,0.04687 0.75,0.04687 7.42965,0 13.453125,-6.023475 13.453125,-13.453125 l 0,-12 C 61.453125,24.57035 55.42965,18.546875 48,18.546875 z m -1.5,4.5 c -5.024202,0 -8.953125,3.928923 -8.953125,8.953125 l 0,12 c 0,5.024202 3.928923,8.953125 8.953125,8.953125 0.188721,0 0.37702,-0.03594 0.5625,-0.04687 C 42.49104,52.456206 39.046875,48.710189 39.046875,44 l 0,-12 c 0,-4.710189 3.444165,-8.456207 8.015625,-8.90625 C 46.87702,23.0828 46.688721,23.04688 46.5,23.04688 z"
       inkscape:connector-curvature="0"
       id="path4024"
       style="opacity:0.15;color:#000000;fill:url(#linearGradient4039);fill-opacity:1;fill-rule:nonzero;stroke:none;stroke-width:2;marker:none;visibility:visible;display:inline;overflow:visible;enable-background:accumulate" />
    <path
       d="M 47.625,18.546875 C 54.855582,18.774045 60.65625,24.714288 60.65625,32 l 0,12 c 0,7.285711 -5.800668,13.225954 -13.03125,13.453125 0.12708,0.0036 0.247054,0 0.375,0 7.42965,0 13.453125,-6.023475 13.453125,-13.453125 l 0,-12 C 61.453125,24.57035 55.42965,18.546875 48,18.546875 c -0.12795,0 -0.247912,-0.0036 -0.375,0 z m -0.421875,4.5 C 42.178923,23.046875 38.25,26.975798 38.25,32 l 0,12 c 0,5.024202 3.928923,8.953125 8.953125,8.953125 0.140955,0 0.282708,0.0062 0.421875,0 C 42.781072,52.763774 39.046875,48.89891 39.046875,44 l 0,-12 c 0,-4.89891 3.734197,-8.763774 8.578125,-8.953125 -0.13917,-0.0061 -0.280921,0 -0.421875,0 z"
       inkscape:connector-curvature="0"
       id="path4041"
       style="opacity:0.2;color:#000000;fill:#000000;fill-opacity:1;fill-rule:nonzero;stroke:none;stroke-width:2;marker:none;visibility:visible;display:inline;overflow:visible;enable-background:accumulate" />
    <path
       d="m 47.953125,20.75 1.171875,0.04687 0.04687,0 1.078125,0.1875 0.04687,0 1.03125,0.28125 0.04687,0 0.984375,0.328125 0.04687,0.04687 0.9375,0.421875 0.04687,0.04687 0.890625,0.515625 0.04687,0.04687 0.234375,0.1875 L 55.265625,23 55.734375,22.484375 55.59375,21.78125 55.453125,21.6875 55.171875,21.453125 55.125005,21.40625 54.14063,20.796875 54.04688,20.75 l -1.03125,-0.46875 -0.09375,-0.04687 -1.078125,-0.421875 -0.09375,0 -1.125,-0.28125 -0.09375,-0.04687 -1.171875,-0.1875 -0.09375,0 -1.21875,-0.04687 c -1.434468,-0.10008 -1.728376,1.633438 -0.09375,1.5 z m -6,0 -0.09375,0.04687 -0.984375,0.609375 -0.04687,0.04687 -0.9375,0.65625 -0.04687,0.04687 L 39,22.953125 38.95313,23 l -0.796875,0.84375 -0.04687,0.04687 -0.65625,0.9375 -0.04687,0.04687 -0.609376,0.984375 -0.04687,0.09375 -0.421875,0.9375 0,0.703125 0.609375,0.375 0.656251,-0.28125 0.09375,-0.1875 0.375,-0.84375 0.04687,-0.04687 0.515625,-0.890625 0.04687,-0.04687 0.609375,-0.796875 0.04687,-0.04687 0.703125,-0.75 0.04687,0 0,-0.04687 0.75,-0.703125 0.04687,-0.04687 0.796875,-0.609375 0.04687,-0.04687 0.890625,-0.515625 0.04687,-0.04687 0.890625,-0.375 C 44.614391,20.986946 43.5,20 42.89063,20.328125 z"
       inkscape:connector-curvature="0"
       id="rect4052"
       style="font-size:medium;font-style:normal;font-variant:normal;font-weight:normal;font-stretch:normal;text-indent:0;text-align:start;text-decoration:none;line-height:normal;letter-spacing:normal;word-spacing:normal;text-transform:none;direction:ltr;block-progression:tb;writing-mode:lr-tb;text-anchor:start;baseline-shift:baseline;opacity:0.3;color:#000000;fill:#ffffff;fill-opacity:1;stroke:none;stroke-width:1;marker:none;visibility:visible;display:inline;overflow:visible;enable-background:accumulate;font-family:Sans;-inkscape-font-specification:Sans" />
    <path
       d="m 48.03125,23.6875 c -0.399301,-0.02786 -0.575897,0.194836 -0.59375,0.34375 -0.0089,0.07446 -0.0071,0.132508 0.0625,0.1875 0.06958,0.05499 0.198694,0.113244 0.4375,0.09375 a 0.19490146,0.19490146 0 0 1 0.03125,0 l 0.78125,0.03125 0.03125,0 a 0.19490146,0.19490146 0 0 1 0.03125,0 l 0.6875,0.125 0.03125,0 a 0.19490146,0.19490146 0 0 1 0.03125,0 0.19490146,0.19490146 0 0 1 0.03125,0 l 0.625,0.1875 0.0625,0 a 0.19490146,0.19490146 0 0 1 0.03125,0 l 0.65625,0.21875 a 0.19490146,0.19490146 0 0 1 0.0625,0.03125 l 0.625,0.28125 a 0.19490146,0.19490146 0 0 1 0.03125,0.03125 0.19490146,0.19490146 0 0 1 0,0.03125 l 0.03125,0.03125 0.5625,0.3125 a 0.19490146,0.19490146 0 0 1 0.03125,0 0.19490146,0.19490146 0 0 1 0,0.03125 l 0.03125,0 0.125,0.09375 L 52.5,25.75 l 0.25,0.03125 0.1875,-0.1875 -0.0625,-0.3125 a 0.19490146,0.19490146 0 0 1 -0.03125,0 L 52.65625,25.125 a 0.19490146,0.19490146 0 0 1 0,-0.03125 L 52.625,25.0625 52,24.6875 52,24.71875 51.9375,24.6875 51.25,24.375 l -0.03125,-0.03125 -0.03125,0 L 50.5,24.0625 a 0.19490146,0.19490146 0 0 1 -0.03125,0 0.19490146,0.19490146 0 0 1 -0.03125,0 l -0.75,-0.1875 a 0.19490146,0.19490146 0 0 1 -0.03125,0 l -0.0625,-0.03125 -0.6875,-0.125 -0.03125,0 -0.03125,0 -0.8125,-0.03125 z M 44.6875,24.375 a 0.19490146,0.19490146 0 0 1 0,0.03125 L 44.0625,24.6875 44,24.71875 l 0,-0.03125 -0.625,0.375 -0.03125,0.03125 a 0.19490146,0.19490146 0 0 1 0,0.03125 l -0.625,0.4375 -0.03125,0 a 0.19490146,0.19490146 0 0 1 0,0.03125 L 42.125,26.125 41.59375,26.6875 a 0.19490146,0.19490146 0 0 1 -0.03125,0 l 0,0.03125 -0.4375,0.625 a 0.19490146,0.19490146 0 0 1 -0.03125,0 L 41.0625,27.375 40.6875,28 l 0.03125,0 -0.03125,0.0625 -0.28125,0.625 0,0.28125 0.21875,0.125 0.28125,-0.125 0.03125,-0.0625 0.25,-0.5625 a 0.19490146,0.19490146 0 0 1 0.03125,-0.03125 0.19490146,0.19490146 0 0 1 0.03125,0 l 0.03125,-0.03125 0.3125,-0.5625 a 0.19490146,0.19490146 0 0 1 0,-0.03125 0.19490146,0.19490146 0 0 1 0.03125,0 l 0,-0.03125 0.40625,-0.53125 a 0.19490146,0.19490146 0 0 1 0.03125,0 l 0,-0.03125 0.46875,-0.46875 a 0.19490146,0.19490146 0 0 1 0,-0.03125 0.19490146,0.19490146 0 0 1 0.03125,-0.03125 0.19490146,0.19490146 0 0 1 0.03125,0 0.19490146,0.19490146 0 0 1 0,-0.03125 l 0.03125,0 0.46875,-0.46875 0.03125,0 a 0.19490146,0.19490146 0 0 1 0,-0.03125 l 0.53125,-0.40625 0.03125,0 a 0.19490146,0.19490146 0 0 1 0.03125,-0.03125 l 0.5625,-0.3125 L 44.3125,25.25 a 0.19490146,0.19490146 0 0 1 0.0625,-0.0625 l 0.5625,-0.21875 c 0.02063,-0.01354 0.01444,-0.01822 0.03125,-0.03125 0.103282,-0.08006 0.145812,-0.16503 0.15625,-0.21875 0.01214,-0.06247 -0.01479,-0.124279 -0.0625,-0.1875 -0.04771,-0.06322 -0.110698,-0.13087 -0.1875,-0.15625 -0.0768,-0.02538 -0.143675,-0.0236 -0.1875,0 z"
       transform="matrix(1.5,0,0,1.5,-24,-16)"
       id="path4061"
       style="font-size:medium;font-style:normal;font-variant:normal;font-weight:normal;font-stretch:normal;text-indent:0;text-align:start;text-decoration:none;line-height:normal;letter-spacing:normal;word-spacing:normal;text-transform:none;direction:ltr;block-progression:tb;writing-mode:lr-tb;text-anchor:start;baseline-shift:baseline;opacity:0.6;color:#000000;fill:#ffffff;fill-opacity:1;stroke:none;stroke-width:1;marker:none;visibility:visible;display:inline;overflow:visible;enable-background:accumulate;font-family:Sans;-inkscape-font-specification:Sans" />
    <rect
       width="36"
       height="9"
       rx="1.5"
       ry="1.5"
       x="29.999998"
       y="41"
       id="rect3138"
       style="color:#000000;fill:url(#linearGradient3933);fill-opacity:1;fill-rule:nonzero;stroke:none;stroke-width:2;marker:none;visibility:visible;display:inline;overflow:visible;enable-background:accumulate" />
    <path
       d="m 31.499999,41 c -0.831,0 -1.5,0.669 -1.5,1.5 l 0,1.5 c 0,-0.831 0.669,-1.5 1.5,-1.5 L 64.5,42.5 c 0.831,0 1.5,0.669 1.5,1.5 l 0,-1.5 C 66,41.669 65.331,41 64.5,41 l -33.000001,0 z"
       inkscape:connector-curvature="0"
       id="rect3148"
       style="opacity:0.3;color:#000000;fill:#ffffff;fill-opacity:1;fill-rule:nonzero;stroke:none;stroke-width:2;marker:none;visibility:visible;display:inline;overflow:visible;enable-background:accumulate" />
    <path
       d="m 29.999999,47 0,1.5 c 0,0.831 0.669,1.5 1.5,1.5 L 64.5,50 C 65.331,50 66,49.331 66,48.5 L 66,47 c 0,0.831 -0.669,1.5 -1.5,1.5 l -33.000001,0 c -0.831,0 -1.5,-0.669 -1.5,-1.5 z"
       inkscape:connector-curvature="0"
       id="rect3921"
       style="opacity:0.15;color:#000000;fill:#a05a2c;fill-opacity:1;fill-rule:nonzero;stroke:none;stroke-width:2;marker:none;visibility:visible;display:inline;overflow:visible;enable-background:accumulate" />
    <rect
       width="36"
       height="9"
       rx="1.5"
       ry="1.5"
       x="29.999998"
       y="50"
       id="rect3939"
       style="color:#000000;fill:url(#linearGradient3945);fill-opacity:1;fill-rule:nonzero;stroke:none;stroke-width:2;marker:none;visibility:visible;display:inline;overflow:visible;enable-background:accumulate" />
    <path
       d="m 31.499999,50 c -0.831,0 -1.5,0.669 -1.5,1.5 l 0,1.5 c 0,-0.831 0.669,-1.5 1.5,-1.5 L 64.5,51.5 c 0.831,0 1.5,0.669 1.5,1.5 l 0,-1.5 C 66,50.669 65.331,50 64.5,50 l -33.000001,0 z"
       inkscape:connector-curvature="0"
       id="path3941"
       style="opacity:0.3;color:#000000;fill:#ffffff;fill-opacity:1;fill-rule:nonzero;stroke:none;stroke-width:2;marker:none;visibility:visible;display:inline;overflow:visible;enable-background:accumulate" />
    <path
       d="m 29.999999,56 0,1.5 c 0,0.831 0.669,1.5 1.5,1.5 L 64.5,59 C 65.331,59 66,58.331 66,57.5 L 66,56 c 0,0.831 -0.669,1.5 -1.5,1.5 l -33.000001,0 c -0.831,0 -1.5,-0.669 -1.5,-1.5 z"
       inkscape:connector-curvature="0"
       id="path3943"
       style="opacity:0.15;color:#000000;fill:#a05a2c;fill-opacity:1;fill-rule:nonzero;stroke:none;stroke-width:2;marker:none;visibility:visible;display:inline;overflow:visible;enable-background:accumulate" />
    <rect
       width="36"
       height="9"
       rx="1.5"
       ry="1.5"
       x="29.999998"
       y="59"
       id="rect3947"
       style="color:#000000;fill:url(#linearGradient3954);fill-opacity:1;fill-rule:nonzero;stroke:none;stroke-width:2;marker:none;visibility:visible;display:inline;overflow:visible;enable-background:accumulate" />
    <path
       d="m 31.499999,59 c -0.831,0 -1.5,0.669 -1.5,1.5 l 0,1.5 c 0,-0.831 0.669,-1.5 1.5,-1.5 L 64.5,60.5 c 0.831,0 1.5,0.669 1.5,1.5 l 0,-1.5 C 66,59.669 65.331,59 64.5,59 l -33.000001,0 z"
       inkscape:connector-curvature="0"
       id="path3949"
       style="opacity:0.3;color:#000000;fill:#ffffff;fill-opacity:1;fill-rule:nonzero;stroke:none;stroke-width:2;marker:none;visibility:visible;display:inline;overflow:visible;enable-background:accumulate" />
    <path
       d="m 29.999999,65 0,1.5 c 0,0.831 0.669,1.5 1.5,1.5 L 64.5,68 C 65.331,68 66,67.331 66,66.5 L 66,65 c 0,0.831 -0.669,1.5 -1.5,1.5 l -33.000001,0 c -0.831,0 -1.5,-0.669 -1.5,-1.5 z"
       inkscape:connector-curvature="0"
       id="path3952"
       style="opacity:0.15;color:#000000;fill:#a05a2c;fill-opacity:1;fill-rule:nonzero;stroke:none;stroke-width:2;marker:none;visibility:visible;display:inline;overflow:visible;enable-background:accumulate" />
  </g>
</svg>
