/* XPM */
static char *gnome_term[] = {
/* columns rows colors chars-per-pixel */
"48 48 54 1",
"  c #010101",
". c #070708",
"X c #080709",
"o c #0B0A0C",
"O c #0F0D11",
"+ c #100F12",
"@ c #121014",
"# c #161419",
"$ c #19161D",
"% c #1B181F",
"& c #1E1A22",
"* c #211D25",
"= c #241F28",
"- c #232026",
"; c #26212B",
": c #29232E",
"> c #2C2632",
", c #2F2835",
"< c #302A36",
"1 c #342D3B",
"2 c #37323D",
"3 c #38303F",
"4 c #3B3B3B",
"5 c #393141",
"6 c #403F41",
"7 c #4F4F4F",
"8 c #535353",
"9 c #5D5D5D",
"0 c #646464",
"q c #6D6D6D",
"w c #6F6D70",
"e c #737373",
"r c #7A7A7A",
"t c #818181",
"y c #888789",
"u c #8C8A8C",
"i c #929292",
"p c #969598",
"a c #9D9D9D",
"s c #A3A3A3",
"d c #ACACAC",
"f c #B4B4B4",
"g c #BABABA",
"h c #C4C4C4",
"j c #CBCBCB",
"k c #CFCFD0",
"l c #D3D3D3",
"z c #DBDBDB",
"x c #E3E3E3",
"c c #EDEDED",
"v c #EFEFF0",
"b c #F3F3F3",
"n c #FFFFFF",
"m c None",
/* pixels */
"mmmmmmmmmmmmmmmmmmmmmmmmmmmmmmmmmmmmmmmmmmmmmmmm",
"mmmmmmmmmmmmmmmmmmmmmmmmmmmmmmmmmmmmmmmmmmmmmmmm",
"mmmmmmmmmmmmmmmmmmmmmmmmmmmmmmmmmmmmmmmmmmmmmmmm",
"mmmmhzcccccccccccccccccccccccccccccccccccczhmmmm",
"mmmfxxxxxxxxxxxxxxxxxxxxxxxxxxxxxxxxxxxxxxxxfmmm",
"mmmlxxxxxxxxxxxxxxxxxxxxxxxxxxxxxxxxxxxxxxxxzmmm",
"mmmcxxzdiiiiiiiiiiiiiiiiiiiiiiiiiiiiiiiidlxxxmmm",
"mmmxxzd9+..............................+9dxxxmmm",
"mmmxzxpOO+++++++++++++++OO++++++++++++++@pzxxmmm",
"mmmxxza.++++@++@++@+@+@@@@+@+@@+@++@@+@+.azzxmmm",
"mmmxzza.++++++++@@+@+@@+@+@+@++@+@@+@@++.axzxmmm",
"mmmxzzsX+@+@j0#+@+@+@+@@@@+@@@@+@@+@+@@+.szzxmmm",
"mmmxzzsX+@@+nnxt-@@@@@@++@@@@@+@@+@++@@+.szzxmmm",
"mmmxlzs.++@+6avnba+@@@@@@@@@+@+@+@+@@+@+.szzxmmm",
"mmmzzld.++@@@+%snn@@@@@@@@@@@@@+@+@+@+@+.slzzmmm",
"mmmxlzd.+@+@<yxnng#@#######@##@@@@+@+@@@.dzlxmmm",
"mmmzzld.+@@@nnvp2###$##%#######@#@@@@@@OXdllzmmm",
"mmmzllf.++@@kw&#@##%$$$$%%$%%#%%###@@+@OXfllzmmm",
"mmmzllf.+@#####$%%nnnnnn%&%&%%%######@@@Xflzzmmm",
"mmmzklg.@#%##$&&%%nnnnnn&&&&&%%%&$##@@@O.gkkzmmm",
"mmmzlkg.##$%&$&&%*********--%%@@OoooXXX  glklmmm",
"mmmzkkgo##$%&&&&*-----**&$#@@@@@OOooXXX. gkkzmmm",
"mmmlkkgo#$&&****--;-*$$######@@@@@OOoooX.hjklmmm",
"mmmzkkho$&&-**==--%$$$$$$$#%####@@@OOOoo hkjlmmm",
"mmmljjho$***===*$$$$&&&&$&&$$$$###@@OOOo hjjlmmm",
"mmmljjj+&**=*&$$$$&&&&&&&&&&&%$$$##@@OOO.jjjlmmm",
"mmmkjjjo&=*$#$$$&&**&*****&&&&&&$####OOO.jjjlmmm",
"mmmlhjko&$#$$$$*******======**&&*$$####O.jjhlmmm",
"mmmkjjlX@#$$$&&***======>=====**&&$#$##+.khjlmmm",
"mmmkhhlX@$$$&*&====:>=>>>=>====***&&$$#+.lhhjmmm",
"mmmjhhlo#$$&&*==;:::>>>>>>>>>====*&&&##+olhjjmmm",
"mmmjhhzX$$$&&==;::>>>>,,>>>>>>::=**&&$$#Xlhhjmmm",
"mmmjhhzo#&&**=:::>,,,,,<<,,,>>>:===*$$$#ozhhjmmm",
"mmmjhgzX#&***=:::,,,111111<<,,>=>==**$$$ozghjmmm",
"mmmjhhxo$&&*=;:>,,,111315111<,>>>:==**$#ozhhjmmm",
"mmmhhgxo$&**=::>,,11133551311<,>:===*$*#oxghhmmm",
"mmmhghxo&&*=;::>,<11355555331<<>>:===**#oxhghmmm",
"mmmhggx##&**=::>,,11155555111,>:>===**$#$xghhmmm",
"mmmhggly#oOOO@#@@###$%$%$$$###+#++++ooo#ulgghmmm",
"mmmhghhlcvvvvvvvvvvvvvvcvvvvvvvvvvvvcvvclggghmmm",
"mmmdggggfgggggggggggggggggggggggggggggggggggdmmm",
"mmmrggffgfgggffgggfggfgffgfggfggfggggfgfggggrmmm",
"mmm7tdhhhhhhjhhjjhjhjjjjjjjhhjjhhhhhhhhhhhdt7mmm",
"mmm4700qwweweeeeererrrrrrrrrrreereeeweeqq0984mmm",
"mmmX478999999909000000q0q0000000990999999874Xmmm",
"mmmmm                                      mmmmm",
"mmmmmmmmmmmmmmmmmmmmmmmmmmmmmmmmmmmmmmmmmmmmmmmm",
"mmmmmmmmmmmmmmmmmmmmmmmmmmmmmmmmmmmmmmmmmmmmmmmm"
};
