/* XPM */
static char * close_prelight_xpm[] = {
"22 25 171 2",
"  	c None",
". 	c #666666",
"+ 	c #454444",
"@ 	c #454545",
"# 	c #444545",
"$ 	c #454544",
"% 	c #444544",
"& 	c #444444",
"* 	c #454445",
"= 	c #444445",
"- 	c #434444",
"; 	c #444443",
"> 	c #434343",
", 	c #444344",
"' 	c #434443",
") 	c #434344",
"! 	c #444343",
"~ 	c #434342",
"{ 	c #424343",
"] 	c #434243",
"^ 	c #434242",
"/ 	c #424242",
"( 	c #424243",
"_ 	c #424342",
": 	c #3F3F3F",
"< 	c #303030",
"[ 	c #222222",
"} 	c #202020",
"| 	c #272727",
"1 	c #343434",
"2 	c #2E2E2E",
"3 	c #3D3D3E",
"4 	c #373737",
"5 	c #292929",
"6 	c #2A2A2A",
"7 	c #3E3E3E",
"8 	c #2D2E2E",
"9 	c #888888",
"0 	c #F0F0F0",
"a 	c #FFFFFF",
"b 	c #D2D2D2",
"c 	c #4D4D4D",
"d 	c #979797",
"e 	c #2F2F2F",
"f 	c #414242",
"g 	c #C3C4C4",
"h 	c #C4C4C4",
"i 	c #424141",
"j 	c #302F2F",
"k 	c #878787",
"l 	c #FBFBFB",
"m 	c #F9F9F9",
"n 	c #FAFAFA",
"o 	c #868686",
"p 	c #4C4C4C",
"q 	c #959595",
"r 	c #414142",
"s 	c #282929",
"t 	c #C1C1C1",
"u 	c #DDDDDD",
"v 	c #252424",
"w 	c #E6E6E6",
"x 	c #D3D3D3",
"y 	c #494949",
"z 	c #727272",
"A 	c #747474",
"B 	c #4B4B4B",
"C 	c #909090",
"D 	c #414141",
"E 	c #E4E4E4",
"F 	c #D1D1D1",
"G 	c #242424",
"H 	c #313131",
"I 	c #393A3A",
"J 	c #4B4A4A",
"K 	c #E8E8E8",
"L 	c #898989",
"M 	c #403F3F",
"N 	c #333332",
"O 	c #333333",
"P 	c #4A4A49",
"Q 	c #8C8C8C",
"R 	c #414140",
"S 	c #404141",
"T 	c #A5A5A5",
"U 	c #E1E1E1",
"V 	c #E7E7E7",
"W 	c #EDEDED",
"X 	c #828382",
"Y 	c #2D2C2D",
"Z 	c #414041",
"` 	c #393939",
" .	c #DBDBDB",
"..	c #323233",
"+.	c #323232",
"@.	c #484848",
"#.	c #2E2F2E",
"$.	c #3F3F40",
"%.	c #403F40",
"&.	c #373837",
"*.	c #818181",
"=.	c #D5D5D5",
"-.	c #DADADA",
";.	c #676767",
">.	c #343435",
",.	c #404040",
"'.	c #212121",
").	c #BFBFBF",
"!.	c #3C3C3C",
"~.	c #1F1F1F",
"{.	c #767676",
"].	c #757575",
"^.	c #474747",
"/.	c #D0D0D0",
"(.	c #838383",
"_.	c #2C2C2C",
":.	c #989898",
"<.	c #626262",
"[.	c #CDCDCD",
"}.	c #C3C3C3",
"|.	c #E0E0E0",
"1.	c #7B7B7B",
"2.	c #C9C9C9",
"3.	c #E2E2E2",
"4.	c #EAEAEA",
"5.	c #EFEFEF",
"6.	c #2D2D2D",
"7.	c #C2C2C2",
"8.	c #BDBDBD",
"9.	c #686868",
"0.	c #313231",
"a.	c #3F4040",
"b.	c #363636",
"c.	c #292A29",
"d.	c #787878",
"e.	c #B2B2B2",
"f.	c #B5B5B5",
"g.	c #939394",
"h.	c #B4B4B4",
"i.	c #AAAAAA",
"j.	c #B3B3B3",
"k.	c #B6B6B6",
"l.	c #C7C7C7",
"m.	c #2B2B2B",
"n.	c #6D6D6D",
"o.	c #ABABAB",
"p.	c #AEAEAE",
"q.	c #707070",
"r.	c #3F3F3E",
"s.	c #383838",
"t.	c #1F1F1E",
"u.	c #262727",
"v.	c #2E2D2E",
"w.	c #39393A",
"x.	c #3F3E3F",
"y.	c #3E3F3F",
"z.	c #3E3F3E",
"A.	c #3F3E3E",
"B.	c #3E3E3F",
"C.	c #3E3E3D",
"D.	c #3D3D3D",
"E.	c #3E3D3E",
"F.	c #3D3E3D",
"G.	c #3E3D3D",
"H.	c #3D3E3E",
"I.	c #3D3C3D",
"J.	c #3C3D3D",
"K.	c #3C3D3C",
"L.	c #3D3D3C",
"M.	c #3C3C3D",
"N.	c #3D3C3C",
". . . . . . . . . . . . . . . . . . . . . . ",
"+ @ # $ @ $ $ $ % @ % & @ @ $ * * $ * * * = ",
"# $ & $ + & @ = # $ & & # $ $ + & * & = & & ",
"& & & & & & & & - & & & & & & & & & & ; & & ",
"> , ; - ' & ) , & ; ! , > > ; ; ; ! , ; & ' ",
"> ; ! - > ! > ; > ' ! ! ) ; > > > > ' > ) > ",
"~ > { { { > > > > > > > > > ~ { > > ] ] ~ > ",
"^ ] / ^ ( ( ~ / ( > ^ _ _ { ] / ^ ^ { > ( _ ",
"/ / : < [ } | 1 2 } 2 3 _ ^ / 4 5 } } 6 4 / ",
"/ 7 8 9 0 a b c c a d e f / 4 7 g a a h 5 / ",
"i j k l m m n o p n q e r / s t n m m u v f ",
"r [ w x y } z A B 0 C e i D [ E F y } G H D ",
"I J K L e M N O P w Q e R S 6 T U V W X Y Z ",
"` y  .o 2 : ..+.@. .9 #.$.%.&.6 *.=.-.V ;.>.",
",.'.h ).!.~.{.].^./.(.~.~.~._.:.& ~.<.[.L 2 ",
"%.6 C }. .E |.1.@ }.2.3.4.5.6.F =.F 7.8.9.0.",
"a.b.c.d.e.f.g.- ! h.i.j.k.l.m.n.o.j.p.q._.: ",
": r.s.m.t.~.u.1 _.~.~.~.~.~._.v.'.~.~._.w.: ",
"x.: y.: r.z.: x.A.B.r.: B.A.7 z.B.x.7 7 7 y.",
"7 x.7 7 7 7 7 7 B.7 B.7 z.B.A.7 7 7 7 r.7 A.",
"C.C.C.D.C.7 7 3 7 7 7 7 7 7 E.7 7 C.7 C.C.3 ",
"F.E.7 E.D.3 7 G.C.3 D.H.D.G.C.7 D.H.C.H.3 E.",
"D.D.D.D.G.D.D.D.D.F.D.D.D.G.D.F.D.3 D.3 D.D.",
"D.I.I.D.D.D.D.I.I.D.J.K.!.L.D.D.J.D.J.I.D.D.",
"K.I.M.L.J.!.N.!.K.J.L.L.N.J.M.J.N.!.K.!.K.L."};
