/* XPM */
static char * close_pressed_xpm[] = {
"22 25 166 2",
"  	c None",
". 	c #666666",
"+ 	c #454444",
"@ 	c #454545",
"# 	c #444545",
"$ 	c #454544",
"% 	c #444544",
"& 	c #444444",
"* 	c #454445",
"= 	c #444445",
"- 	c #434444",
"; 	c #444443",
"> 	c #434343",
", 	c #444344",
"' 	c #434443",
") 	c #434344",
"! 	c #444343",
"~ 	c #434342",
"{ 	c #424343",
"] 	c #434243",
"^ 	c #434242",
"/ 	c #424242",
"( 	c #424243",
"_ 	c #424342",
": 	c #3F3F3F",
"< 	c #2D2D2D",
"[ 	c #1C1C1C",
"} 	c #1A1A1A",
"| 	c #222221",
"1 	c #323232",
"2 	c #2A2A2A",
"3 	c #3C3C3D",
"4 	c #353535",
"5 	c #242424",
"6 	c #252525",
"7 	c #3E3E3E",
"8 	c #292A2A",
"9 	c #595959",
"0 	c #919191",
"a 	c #989898",
"b 	c #828282",
"c 	c #363636",
"d 	c #9D9D9D",
"e 	c #626262",
"f 	c #2C2C2C",
"g 	c #414242",
"h 	c #2D2D2C",
"i 	c #7A7A7A",
"j 	c #7B7B7B",
"k 	c #424141",
"l 	c #2D2C2C",
"m 	c #585858",
"n 	c #8A8A8A",
"o 	c #797979",
"p 	c #757575",
"q 	c #818181",
"r 	c #535354",
"s 	c #323233",
"t 	c #858585",
"u 	c #2B2C2C",
"v 	c #414142",
"w 	c #767676",
"x 	c #1F1E1E",
"y 	c #888888",
"z 	c #6F6F6F",
"A 	c #494949",
"B 	c #7F7F7F",
"C 	c #565656",
"D 	c #2C2B2B",
"E 	c #414141",
"F 	c #838383",
"G 	c #696969",
"H 	c #2B2B2B",
"I 	c #1E1E1E",
"J 	c #2F2F2F",
"K 	c #373838",
"L 	c #363535",
"M 	c #8C8B8B",
"N 	c #545353",
"O 	c #403F3F",
"P 	c #303030",
"Q 	c #333333",
"R 	c #898888",
"S 	c #5B5B5B",
"T 	c #414140",
"U 	c #404141",
"V 	c #262625",
"W 	c #656565",
"X 	c #7F7E7E",
"Y 	c #969696",
"Z 	c #5A5A5A",
"` 	c #292929",
" .	c #414041",
"..	c #373737",
"+.	c #929292",
"@.	c #5E5E5E",
"#.	c #5F5F5F",
"$.	c #3F3F40",
"%.	c #403F40",
"&.	c #353635",
"*.	c #A1A1A1",
"=.	c #4D4D4D",
"-.	c #404040",
";.	c #1B1B1B",
">.	c #909090",
",.	c #2E2E2E",
"'.	c #191919",
").	c #9B9B9B",
"!.	c #646464",
"~.	c #282828",
"{.	c #747474",
"].	c #999999",
"^.	c #777676",
"/.	c #A3A2A2",
"(.	c #B2B2B2",
"_.	c #B8B7B7",
":.	c #B5B5B5",
"<.	c #636262",
"[.	c #A6A6A6",
"}.	c #B6B5B5",
"|.	c #BCBBBB",
"1.	c #BFBEBE",
"2.	c #A9A9A9",
"3.	c #AEADAD",
"4.	c #ACABAB",
"5.	c #A2A1A1",
"6.	c #9E9E9E",
"7.	c #555555",
"8.	c #2F302F",
"9.	c #3F4040",
"0.	c #6D6D6D",
"a.	c #A6A5A5",
"b.	c #A8A7A7",
"c.	c #848383",
"d.	c #383939",
"e.	c #393838",
"f.	c #A7A6A6",
"g.	c #A8A8A8",
"h.	c #B1B0B0",
"i.	c #605F5F",
"j.	c #9E9D9D",
"k.	c #A5A4A4",
"l.	c #282829",
"m.	c #3F3F3E",
"n.	c #272828",
"o.	c #191918",
"p.	c #222323",
"q.	c #39393A",
"r.	c #3F3E3F",
"s.	c #3E3F3F",
"t.	c #3E3F3E",
"u.	c #3F3E3E",
"v.	c #3E3E3F",
"w.	c #3E3E3D",
"x.	c #3D3D3D",
"y.	c #3D3D3E",
"z.	c #3E3D3E",
"A.	c #3D3E3D",
"B.	c #3E3D3D",
"C.	c #3D3E3E",
"D.	c #3D3C3D",
"E.	c #3C3D3D",
"F.	c #3C3D3C",
"G.	c #3C3C3C",
"H.	c #3D3D3C",
"I.	c #3D3C3C",
". . . . . . . . . . . . . . . . . . . . . . ",
"+ @ # $ @ $ $ $ % @ % & @ @ $ * * $ * * * = ",
"# $ & $ + & @ = # $ & & # $ $ + & * & = & & ",
"& & & & & & & & - & & & & & & & & & & ; & & ",
"> , ; - ' & ) , & ; ! , > > ; ; ; ! , ; & ' ",
"> ; ! - > ! > ; > ' ! ! ) ; > > > > ' > ) > ",
"~ > { { { > > > > > > > > > ~ { > > ] ] ~ > ",
"^ ] / ^ ( ( ~ / ( > ^ _ _ { ] / ^ ^ { > ( _ ",
"/ / : < [ } | 1 2 } 2 3 _ ^ / 4 5 } } 6 4 / ",
"/ 7 8 9 0 a b c 4 d e f g / 4 h i a a j 5 / ",
"k l m n o p q r s t m u v / 5 w b p p o x g ",
"v [ y z f } / A 1 B C D k E [ F G H } I J E ",
"K L M N H O P P Q R S H T U V W X n Y Z `  .",
"..c +.@.H : P P 4 +.#.H $.%.&.6 C n 0 *.=.s ",
"-.;.+.>.,.'.S Z ..).!.'.'.'.~.{.4 '.A ].G H ",
"%.6 ^./.(._.:.<.../.[.}.|.1.5 2.3.4.5.6.7.8.",
"9.4 6 0.a.b.c.d.e.f.5.f.g.h.5 i.j.f.k.W l.: ",
": m...n.o.'.p.1 ~.'.'.'.'.'.~.2 ;.'.'.~.q.: ",
"r.: s.: m.t.: r.u.v.m.: v.u.7 t.v.r.7 7 7 s.",
"7 r.7 7 7 7 7 7 v.7 v.7 t.v.u.7 7 7 7 m.7 u.",
"w.w.w.x.w.7 7 y.7 7 7 7 7 7 z.7 7 w.7 w.w.y.",
"A.z.7 z.x.y.7 B.w.y.x.C.x.B.w.7 x.C.w.C.y.z.",
"x.x.x.x.B.x.x.x.x.A.x.x.x.B.x.A.x.y.x.y.x.x.",
"x.D.D.x.x.x.x.D.D.x.E.F.G.H.x.x.E.x.E.D.x.x.",
"F.D.3 H.E.G.I.G.F.E.H.H.I.E.3 E.I.G.F.G.F.H."};
