/* XPM */
static char * close_inactive_xpm[] = {
"22 25 169 2",
"  	c None",
". 	c #666666",
"+ 	c #454444",
"@ 	c #454545",
"# 	c #444545",
"$ 	c #454544",
"% 	c #444544",
"& 	c #444444",
"* 	c #454445",
"= 	c #444445",
"- 	c #434444",
"; 	c #444443",
"> 	c #434343",
", 	c #444344",
"' 	c #434443",
") 	c #434344",
"! 	c #444343",
"~ 	c #434342",
"{ 	c #424343",
"] 	c #434243",
"^ 	c #434242",
"/ 	c #424242",
"( 	c #424243",
"_ 	c #424342",
": 	c #3F3F3F",
"< 	c #303030",
"[ 	c #222222",
"} 	c #202020",
"| 	c #272727",
"1 	c #343434",
"2 	c #2E2E2E",
"3 	c #3D3D3E",
"4 	c #373737",
"5 	c #292929",
"6 	c #2A2A2A",
"7 	c #3E3E3E",
"8 	c #2D2E2E",
"9 	c #818080",
"0 	c #DEDEDE",
"a 	c #EBEBEB",
"b 	c #C3C3C3",
"c 	c #4B4B4B",
"d 	c #4A4A4A",
"e 	c #EEEEEE",
"f 	c #8F8F8F",
"g 	c #2F2F2F",
"h 	c #414242",
"i 	c #3C3C3C",
"j 	c #B7B7B7",
"k 	c #424141",
"l 	c #302F2F",
"m 	c #7E7E7E",
"n 	c #DCDCDC",
"o 	c #D0D0D0",
"p 	c #CDCDCD",
"q 	c #D5D5D5",
"r 	c #7B7B7B",
"s 	c #474748",
"t 	c #D8D8D8",
"u 	c #868686",
"v 	c #414142",
"w 	c #282929",
"x 	c #B1B1B1",
"y 	c #D6D6D6",
"z 	c #C1C1C1",
"A 	c #252424",
"B 	c #CACACA",
"C 	c #AEAEAE",
"D 	c #404040",
"E 	c #626262",
"F 	c #696969",
"G 	c #C7C7C7",
"H 	c #7F7F7F",
"I 	c #414141",
"J 	c #C4C4C4",
"K 	c #AAAAAA",
"L 	c #242424",
"M 	c #313131",
"N 	c #393A3A",
"O 	c #474646",
"P 	c #C2C2C2",
"Q 	c #727272",
"R 	c #403F3F",
"S 	c #333332",
"T 	c #333333",
"U 	c #BEBEBE",
"V 	c #414140",
"W 	c #404141",
"X 	c #8B8B8B",
"Y 	c #B4B4B4",
"Z 	c #C0C0C0",
"` 	c #777877",
" .	c #2D2C2D",
"..	c #414041",
"+.	c #393939",
"@.	c #747474",
"#.	c #323233",
"$.	c #323232",
"%.	c #767676",
"&.	c #2E2F2E",
"*.	c #3F3F40",
"=.	c #403F40",
"-.	c #373837",
";.	c #6B6B6B",
">.	c #A9A9A9",
",.	c #B3B3B3",
"'.	c #C8C8C8",
").	c #606061",
"!.	c #343435",
"~.	c #212121",
"{.	c #A0A0A0",
"].	c #A2A2A2",
"^.	c #1F1F1F",
"/.	c #6F6F6F",
"(.	c #6C6C6C",
"_.	c #2C2C2C",
":.	c #898989",
"<.	c #515151",
"[.	c #A6A6A6",
"}.	c #7A7A7A",
"|.	c #777777",
"1.	c #9F9F9F",
"2.	c #C9C9C9",
"3.	c #6E6E6E",
"4.	c #9E9E9E",
"5.	c #C6C6C6",
"6.	c #D1D1D1",
"7.	c #D7D7D7",
"8.	c #2C2C2B",
"9.	c #B6B6B6",
"0.	c #9D9D9D",
"a.	c #969696",
"b.	c #5C5C5C",
"c.	c #313231",
"d.	c #3F4040",
"e.	c #363636",
"f.	c #292A29",
"g.	c #8C8C8C",
"h.	c #909090",
"i.	c #79797A",
"j.	c #3D3E3E",
"k.	c #3D3D3D",
"l.	c #828282",
"m.	c #8E8E8E",
"n.	c #919191",
"o.	c #5E5D5D",
"p.	c #888888",
"q.	c #3F3F3E",
"r.	c #383838",
"s.	c #2B2B2B",
"t.	c #1F1F1E",
"u.	c #262727",
"v.	c #2E2D2E",
"w.	c #39393A",
"x.	c #3F3E3F",
"y.	c #3E3F3F",
"z.	c #3E3F3E",
"A.	c #3F3E3E",
"B.	c #3E3E3F",
"C.	c #3E3E3D",
"D.	c #3E3D3E",
"E.	c #3D3E3D",
"F.	c #3E3D3D",
"G.	c #3D3C3D",
"H.	c #3C3D3D",
"I.	c #3C3D3C",
"J.	c #3D3D3C",
"K.	c #3C3C3D",
"L.	c #3D3C3C",
". . . . . . . . . . . . . . . . . . . . . . ",
"+ @ # $ @ $ $ $ % @ % & @ @ $ * * $ * * * = ",
"# $ & $ + & @ = # $ & & # $ $ + & * & = & & ",
"& & & & & & & & - & & & & & & & & & & ; & & ",
"> , ; - ' & ) , & ; ! , > > ; ; ; ! , ; & ' ",
"> ; ! - > ! > ; > ' ! ! ) ; > > > > ' > ) > ",
"~ > { { { > > > > > > > > > ~ { > > ] ] ~ > ",
"^ ] / ^ ( ( ~ / ( > ^ _ _ { ] / ^ ^ { > ( _ ",
"/ / : < [ } | 1 2 } 2 3 _ ^ / 4 5 } } 6 4 / ",
"/ 7 8 9 0 a b c d e f g h / 4 i j a a j 5 / ",
"k l m n o p q r s t u g v / w x y p p z A h ",
"v [ B C D } E F + G H g k I [ J K : } L M I ",
"N O P Q g R S T ; U r g V W 6 X Y Z p `  ...",
"+.! Y @.2 : #.$.> Y %.&.*.=.-.6 ;.>.,.'.).!.",
"D ~.{.].+.^./.(.I K Q ^.^.^._.:.7 ^.<.[.}.2 ",
"=.6 |.1.U 2.J 3.: 4.[.5.6.7.8.9.9.x 0.a.b.c.",
"d.e.f.E g.h.i.j.k.f l.m.n.[.5 o.p.m.p.b._.: ",
": q.r.s.t.^.u.1 _.^.^.^.^.^._.v.~.^.^._.w.: ",
"x.: y.: q.z.: x.A.B.q.: B.A.7 z.B.x.7 7 7 y.",
"7 x.7 7 7 7 7 7 B.7 B.7 z.B.A.7 7 7 7 q.7 A.",
"C.C.C.k.C.7 7 3 7 7 7 7 7 7 D.7 7 C.7 C.C.3 ",
"E.D.7 D.k.3 7 F.C.3 k.j.k.F.C.7 k.j.C.j.3 D.",
"k.k.k.k.F.k.k.k.k.E.k.k.k.F.k.E.k.3 k.3 k.k.",
"k.G.G.k.k.k.k.G.G.k.H.I.i J.k.k.H.k.H.G.k.k.",
"I.G.K.J.H.i L.i I.H.J.J.L.H.K.H.L.i I.i I.J."};
