/* XPM */
static char * hide_prelight_xpm[] = {
"22 25 174 2",
"  	c None",
". 	c #666666",
"+ 	c #454444",
"@ 	c #454545",
"# 	c #444545",
"$ 	c #454544",
"% 	c #444544",
"& 	c #444444",
"* 	c #454445",
"= 	c #444445",
"- 	c #434444",
"; 	c #444443",
"> 	c #434343",
", 	c #444344",
"' 	c #434443",
") 	c #434344",
"! 	c #444343",
"~ 	c #434342",
"{ 	c #424343",
"] 	c #434243",
"^ 	c #434242",
"/ 	c #424242",
"( 	c #424243",
"_ 	c #424342",
": 	c #393939",
"< 	c #2B2B2B",
"[ 	c #202020",
"} 	c #2D2D2D",
"| 	c #303030",
"1 	c #222222",
"2 	c #212120",
"3 	c #2E2E2E",
"4 	c #202021",
"5 	c #202120",
"6 	c #2F2E2E",
"7 	c #212121",
"8 	c #3F3F3F",
"9 	c #B5B5B5",
"0 	c #FFFFFF",
"a 	c #A6A5A5",
"b 	c #F0F0F0",
"c 	c #6B6B6B",
"d 	c #888888",
"e 	c #979797",
"f 	c #323232",
"g 	c #2B2A2A",
"h 	c #B2B2B2",
"i 	c #F9F9F9",
"j 	c #DDDDDD",
"k 	c #5B5B5B",
"l 	c #FAFAFA",
"m 	c #69696A",
"n 	c #2D2D2E",
"o 	c #CDCDCD",
"p 	c #EAEAEA",
"q 	c #696A6A",
"r 	c #6A6A69",
"s 	c #868686",
"t 	c #313232",
"u 	c #2A2A2B",
"v 	c #ACACAC",
"w 	c #ECECEC",
"x 	c #D3D3D3",
"y 	c #9D9D9D",
"z 	c #D1D1D1",
"A 	c #EDEDED",
"B 	c #676767",
"C 	c #363535",
"D 	c #262626",
"E 	c #C5C5C5",
"F 	c #E1E1E1",
"G 	c #353535",
"H 	c #DFDFDF",
"I 	c #9F9F9F",
"J 	c #828282",
"K 	c #EFEFEF",
"L 	c #838383",
"M 	c #313131",
"N 	c #2A2A2A",
"O 	c #DEDEDE",
"P 	c #B9B9B9",
"Q 	c #D7D7D7",
"R 	c #ADADAD",
"S 	c #656565",
"T 	c #353534",
"U 	c #262525",
"V 	c #C0C0C0",
"W 	c #D9D9D9",
"X 	c #222221",
"Y 	c #343535",
"Z 	c #DADADA",
"` 	c #7D7D7D",
" .	c #E4E4E4",
"..	c #807F80",
"+.	c #313031",
"@.	c #A0A0A0",
"#.	c #D2D2D2",
"$.	c #7F7F7F",
"%.	c #D5D5D5",
"&.	c #636363",
"*.	c #343434",
"=.	c #252525",
"-.	c #B7B8B7",
";.	c #CFCFCF",
">.	c #212122",
",.	c #353435",
"'.	c #D6D6D6",
").	c #BFBFBF",
"!.	c #A8A8A8",
"~.	c #7B7B7B",
"{.	c #303031",
"].	c #9A9A9A",
"^.	c #C9C9C9",
"/.	c #1F1F1F",
"(.	c #707070",
"_.	c #606060",
":.	c #AEAEAE",
"<.	c #BBBBBB",
"[.	c #C8C8C8",
"}.	c #787878",
"|.	c #2A292A",
"1.	c #949494",
"2.	c #C3C3C3",
"3.	c #2C2C2C",
"4.	c #2F2F30",
"5.	c #727272",
"6.	c #C4C4C4",
"7.	c #5E5E5E",
"8.	c #A7A7A7",
"9.	c #797979",
"0.	c #4C4D4D",
"a.	c #B8B8B8",
"b.	c #747474",
"c.	c #2F302F",
"d.	c #292A2A",
"e.	c #8E8E8E",
"f.	c #BDBDBD",
"g.	c #717171",
"h.	c #5B5C5C",
"i.	c #7E7E7E",
"j.	c #DCDCDC",
"k.	c #B6B6B6",
"l.	c #8B8B8B",
"m.	c #777777",
"n.	c #232323",
"o.	c #9E9E9E",
"p.	c #2F2F2F",
"q.	c #363636",
"r.	c #292928",
"s.	c #2B2C2C",
"t.	c #3D3D3C",
"u.	c #1E1F1F",
"v.	c #1F1E1F",
"w.	c #2B2B2C",
"x.	c #3D3D3D",
"y.	c #3F3E3F",
"z.	c #3E3F3F",
"A.	c #3F3F3E",
"B.	c #3E3F3E",
"C.	c #3F3E3E",
"D.	c #3E3E3F",
"E.	c #3E3E3E",
"F.	c #3E3E3D",
"G.	c #3D3D3E",
"H.	c #3E3D3E",
"I.	c #3D3E3D",
"J.	c #3E3D3D",
"K.	c #3D3E3E",
"L.	c #3D3C3D",
"M.	c #3C3D3D",
"N.	c #3C3D3C",
"O.	c #3C3C3C",
"P.	c #3C3C3D",
"Q.	c #3D3C3C",
". . . . . . . . . . . . . . . . . . . . . . ",
"+ @ # $ @ $ $ $ % @ % & @ @ $ * * $ * * * = ",
"# $ & $ + & @ = # $ & & # $ $ + & * & = & & ",
"& & & & & & & & - & & & & & & & & & & ; & & ",
"> , ; - ' & ) , & ; ! , > > ; ; ; ! , ; & ' ",
"> ; ! - > ! > ; > ' ! ! ) ; > > > > ' > ) > ",
"~ > { { { > > > > > > > > > ~ { > > ] ] ~ > ",
"^ ] / ^ ( ( ~ / ( > ^ _ _ { ] / ^ ^ { > ( _ ",
": < [ } | 1 2 3 3 [ [ 4 5 6 3 [ 1 | 3 7 6 8 ",
"< 9 0 a 1 b 0 c d 0 0 0 0 e c 0 b 1 d 0 d f ",
"g h i j k l i m n [ o p [ 3 q i l r s l s t ",
"u v w x y z A B C D E F 1 G B A H I J K L M ",
"N a O P Q R F S T U V W X Y S F v Z `  ...+.",
"N @.#.$.%.$.Q &.*.=.-.;.>.,.&.'.$.).!.Q ~.{.",
"N ].^.< /.(.o _.*.=.:.E 7 *._.o ~.~.<.[.}.| ",
"|.1.2.3.4.5.6.7.3./.8.<./.3.7.2.9.0.P a.b.c.",
"d.e.f.3.| g.<.h.i.j.P k.W l.k P m.n.o.v g.p.",
"q.r./.s.t.3.u.3.3././././.3.3.v.3.| n./.w.x.",
"y.8 z.8 A.B.8 y.C.D.A.8 D.C.E.B.D.y.E.E.E.z.",
"E.y.E.E.E.E.E.E.D.E.D.E.B.D.C.E.E.E.E.A.E.C.",
"F.F.F.x.F.E.E.G.E.E.E.E.E.E.H.E.E.F.E.F.F.G.",
"I.H.E.H.x.G.E.J.F.G.x.K.x.J.F.E.x.K.F.K.G.H.",
"x.x.x.x.J.x.x.x.x.I.x.x.x.J.x.I.x.G.x.G.x.x.",
"x.L.L.x.x.x.x.L.L.x.M.N.O.t.x.x.M.x.M.L.x.x.",
"N.L.P.t.M.O.Q.O.N.M.t.t.Q.M.P.M.Q.O.N.O.N.t."};
