/* XPM */
static char * hide_pressed_xpm[] = {
"22 25 175 2",
"  	c None",
". 	c #666666",
"+ 	c #454444",
"@ 	c #454545",
"# 	c #444545",
"$ 	c #454544",
"% 	c #444544",
"& 	c #444444",
"* 	c #454445",
"= 	c #444445",
"- 	c #434444",
"; 	c #444443",
"> 	c #434343",
", 	c #444344",
"' 	c #434443",
") 	c #434344",
"! 	c #444343",
"~ 	c #434342",
"{ 	c #424343",
"] 	c #434243",
"^ 	c #434242",
"/ 	c #424242",
"( 	c #424243",
"_ 	c #424342",
": 	c #373737",
"< 	c #272727",
"[ 	c #1A1A1A",
"} 	c #292929",
"| 	c #2D2D2D",
"1 	c #1C1C1C",
"2 	c #2A2A2A",
"3 	c #2B2A2A",
"4 	c #3F3F3F",
"5 	c #727272",
"6 	c #9B9B9B",
"7 	c #6A6A6A",
"8 	c #949494",
"9 	c #474747",
"0 	c #585858",
"a 	c #999999",
"b 	c #979797",
"c 	c #616161",
"d 	c #9C9C9C",
"e 	c #2F2F2F",
"f 	c #272626",
"g 	c #656565",
"h 	c #7C7C7C",
"i 	c #7B7B7B",
"j 	c #3A3939",
"k 	c #818181",
"l 	c #7D7D7D",
"m 	c #414142",
"n 	c #29292A",
"o 	c #414242",
"p 	c #505050",
"q 	c #838383",
"r 	c #515151",
"s 	c #2E2F2F",
"t 	c #262627",
"u 	c #626262",
"v 	c #717171",
"w 	c #6F6F6F",
"x 	c #5B5B5B",
"y 	c #696969",
"z 	c #757575",
"A 	c #414141",
"B 	c #343333",
"C 	c #212121",
"D 	c #676767",
"E 	c #737373",
"F 	c #333333",
"G 	c #6E6E6E",
"H 	c #5E5E5E",
"I 	c #4D4D4D",
"J 	c #4F4F4F",
"K 	c #2E2E2E",
"L 	c #252626",
"M 	c #686767",
"N 	c #7B7A7A",
"O 	c #6A6969",
"P 	c #7E7D7D",
"Q 	c #626161",
"R 	c #807F7F",
"S 	c #333332",
"T 	c #212020",
"U 	c #747373",
"V 	c #838282",
"W 	c #1C1C1B",
"X 	c #323333",
"Y 	c #626162",
"Z 	c #848383",
"` 	c #4E4E4E",
" .	c #858484",
"..	c #535353",
"+.	c #2E2D2E",
"@.	c #252525",
"#.	c #6E6D6D",
"$.	c #878787",
"%.	c #545454",
"&.	c #8A8A8A",
"*.	c #555555",
"=.	c #8D8D8D",
"-.	c #323232",
";.	c #202020",
">.	c #1B1B1C",
",.	c #333233",
"'.	c #8C8C8C",
").	c #7E7E7E",
"!.	c #575757",
"~.	c #2D2D2E",
"{.	c #747474",
"].	c #959595",
"^.	c #222222",
"/.	c #191919",
"(.	c #989898",
"_.	c #4A4A4A",
":.	c #939393",
"<.	c #1B1B1B",
"[.	c #5C5C5C",
"}.	c #5D5D5D",
"|.	c #8B8B8B",
"1.	c #797979",
"2.	c #A3A2A2",
"3.	c #232323",
"4.	c #2C2C2D",
"5.	c #5D5C5D",
"6.	c #4C4C4C",
"7.	c #292928",
"8.	c #8A8989",
"9.	c #9C9B9B",
"0.	c #292828",
"a.	c #A2A1A1",
"b.	c #646464",
"c.	c #3F3E3E",
"d.	c #5F5E5E",
"e.	c #2C2D2C",
"f.	c #ACABAB",
"g.	c #242424",
"h.	c #ABAAAA",
"i.	c #4E4D4D",
"j.	c #BBBBBB",
"k.	c #AAA9A9",
"l.	c #A8A8A8",
"m.	c #BAB9B9",
"n.	c #1D1D1E",
"o.	c #2C2C2C",
"p.	c #353535",
"q.	c #252524",
"r.	c #272828",
"s.	c #3C3C3B",
"t.	c #282828",
"u.	c #181919",
"v.	c #191819",
"w.	c #1D1D1D",
"x.	c #272728",
"y.	c #3C3C3C",
"z.	c #3F3E3F",
"A.	c #3E3F3F",
"B.	c #3F3F3E",
"C.	c #3E3F3E",
"D.	c #3E3E3F",
"E.	c #3E3E3E",
"F.	c #3E3E3D",
"G.	c #3D3D3D",
"H.	c #3D3D3E",
"I.	c #3E3D3E",
"J.	c #3D3E3D",
"K.	c #3E3D3D",
"L.	c #3D3E3E",
"M.	c #3D3C3D",
"N.	c #3C3D3D",
"O.	c #3C3D3C",
"P.	c #3D3D3C",
"Q.	c #3C3C3D",
"R.	c #3D3C3C",
". . . . . . . . . . . . . . . . . . . . . . ",
"+ @ # $ @ $ $ $ % @ % & @ @ $ * * $ * * * = ",
"# $ & $ + & @ = # $ & & # $ $ + & * & = & & ",
"& & & & & & & & - & & & & & & & & & & ; & & ",
"> , ; - ' & ) , & ; ! , > > ; ; ; ! , ; & ' ",
"> ; ! - > ! > ; > ' ! ! ) ; > > > > ' > ) > ",
"~ > { { { > > > > > > > > > ~ { > > ] ] ~ > ",
"^ ] / ^ ( ( ~ / ( > ^ _ _ { ] / ^ ^ { > ( _ ",
": < [ } | 1 [ 2 2 [ [ [ [ 3 2 [ 1 | 2 [ 3 4 ",
"< 5 6 7 1 8 6 9 0 a b b a c 9 6 8 1 0 d 0 e ",
"f g h i j k l m n [ . 5 [ 2 o l k > p q r s ",
"t u v w x y z A B C D E 1 F A z G H I i J K ",
"L M N O P Q R @ S T U V W X @ R Y Z `  ...+.",
"@.#.$.%.&.*.=.9 -.;.i &.>.,.9 '.*.).w =.!.~.",
"@.{.].^./.*.(._.-.;.q :.<.-._.(.[.}.|.8 x | ",
"@.1.2.3.4.5.2.6.7./.8.9./.0.6.a.b.c.9.6 d.e.",
"@.P f.g.| Q h.i.M j.k.l.m.E I k.7 n.:.2.Q o.",
"p.q./.r.s.t.u.t.t././././.t.t.v.t.| w./.x.y.",
"z.4 A.4 B.C.4 z.c.D.B.4 D.c.E.C.D.z.E.E.E.A.",
"E.z.E.E.E.E.E.E.D.E.D.E.C.D.c.E.E.E.E.B.E.c.",
"F.F.F.G.F.E.E.H.E.E.E.E.E.E.I.E.E.F.E.F.F.H.",
"J.I.E.I.G.H.E.K.F.H.G.L.G.K.F.E.G.L.F.L.H.I.",
"G.G.G.G.K.G.G.G.G.J.G.G.G.K.G.J.G.H.G.H.G.G.",
"G.M.M.G.G.G.G.M.M.G.N.O.y.P.G.G.N.G.N.M.G.G.",
"O.M.Q.P.N.y.R.y.O.N.P.P.R.N.Q.N.R.y.O.y.O.P."};
