/* XPM */
static char * hide_inactive_xpm[] = {
"22 25 177 2",
"  	c None",
". 	c #666666",
"+ 	c #454444",
"@ 	c #454545",
"# 	c #444545",
"$ 	c #454544",
"% 	c #444544",
"& 	c #444444",
"* 	c #454445",
"= 	c #444445",
"- 	c #434444",
"; 	c #444443",
"> 	c #434343",
", 	c #444344",
"' 	c #434443",
") 	c #434344",
"! 	c #444343",
"~ 	c #434342",
"{ 	c #424343",
"] 	c #434243",
"^ 	c #434242",
"/ 	c #424242",
"( 	c #424243",
"_ 	c #424342",
": 	c #393939",
"< 	c #2B2B2B",
"[ 	c #202020",
"} 	c #2D2D2D",
"| 	c #303030",
"1 	c #222222",
"2 	c #212120",
"3 	c #2E2E2E",
"4 	c #202021",
"5 	c #202120",
"6 	c #2F2E2E",
"7 	c #212121",
"8 	c #3F3F3F",
"9 	c #AAAAAA",
"0 	c #ECECEC",
"a 	c #9C9C9C",
"b 	c #DFDFDF",
"c 	c #818181",
"d 	c #EBEBEB",
"e 	c #EAEAEA",
"f 	c #8E8E8E",
"g 	c #818180",
"h 	c #EDEDED",
"i 	c #323232",
"j 	c #2B2A2A",
"k 	c #9E9E9E",
"l 	c #D2D2D2",
"m 	c #C2C2C2",
"n 	c #545454",
"o 	c #D6D6D6",
"p 	c #606060",
"q 	c #2D2D2E",
"r 	c #ACACAC",
"s 	c #C4C4C4",
"t 	c #D5D5D5",
"u 	c #626261",
"v 	c #797979",
"w 	c #7A7A7A",
"x 	c #313232",
"y 	c #2A2A2B",
"z 	c #939393",
"A 	c #BBBBBB",
"B 	c #AEAEAE",
"C 	c #888888",
"D 	c #BEBEBE",
"E 	c #5D5D5D",
"F 	c #363535",
"G 	c #262626",
"H 	c #A3A3A3",
"I 	c #B7B7B7",
"J 	c #353535",
"K 	c #BDBDBD",
"L 	c #B3B3B3",
"M 	c #8A8A8A",
"N 	c #727272",
"O 	c #747474",
"P 	c #313131",
"Q 	c #2A2A2A",
"R 	c #AFAFAF",
"S 	c #959595",
"T 	c #B0B0B0",
"U 	c #8C8C8C",
"V 	c #B5B5B5",
"W 	c #5B5B5B",
"X 	c #353534",
"Y 	c #262525",
"Z 	c #A1A1A1",
"` 	c #B4B4B4",
" .	c #222221",
"..	c #343535",
"+.	c #B6B6B6",
"@.	c #6B6B6B",
"#.	c #BABABA",
"$.	c #707070",
"%.	c #313031",
"&.	c #888787",
"*.	c #A5A5A5",
"=.	c #676767",
"-.	c #A9A9A9",
";.	c #ADADAD",
">.	c #595959",
",.	c #343434",
"'.	c #252525",
").	c #999999",
"!.	c #ABABAB",
"~.	c #212122",
"{.	c #353435",
"].	c #676867",
"^.	c #898989",
"/.	c #6C6C6D",
"(.	c #303031",
"_.	c #828282",
":.	c #A0A0A0",
"<.	c #292929",
"[.	c #1F1F1F",
"}.	c #5E5E5E",
"|.	c #A6A6A6",
"1.	c #575757",
"2.	c #929292",
"3.	c #A2A2A2",
"4.	c #9F9F9F",
"5.	c #696969",
"6.	c #2A292A",
"7.	c #7D7D7D",
"8.	c #2F2F30",
"9.	c #636263",
"0.	c #555555",
"a.	c #2C2C2C",
"b.	c #8B8B8B",
"c.	c #9A9A9A",
"d.	c #666767",
"e.	c #919191",
"f.	c #909090",
"g.	c #656665",
"h.	c #2F302F",
"i.	c #292A2A",
"j.	c #787878",
"k.	c #626263",
"l.	c #989898",
"m.	c #515252",
"n.	c #BFBFBF",
"o.	c #7E7E7E",
"p.	c #515151",
"q.	c #232323",
"r.	c #858585",
"s.	c #2F2F2F",
"t.	c #363636",
"u.	c #292928",
"v.	c #2B2C2C",
"w.	c #3D3D3C",
"x.	c #1E1F1F",
"y.	c #1F1E1F",
"z.	c #2B2B2C",
"A.	c #3D3D3D",
"B.	c #3F3E3F",
"C.	c #3E3F3F",
"D.	c #3F3F3E",
"E.	c #3E3F3E",
"F.	c #3F3E3E",
"G.	c #3E3E3F",
"H.	c #3E3E3E",
"I.	c #3E3E3D",
"J.	c #3D3D3E",
"K.	c #3E3D3E",
"L.	c #3D3E3D",
"M.	c #3E3D3D",
"N.	c #3D3E3E",
"O.	c #3D3C3D",
"P.	c #3C3D3D",
"Q.	c #3C3D3C",
"R.	c #3C3C3C",
"S.	c #3C3C3D",
"T.	c #3D3C3C",
". . . . . . . . . . . . . . . . . . . . . . ",
"+ @ # $ @ $ $ $ % @ % & @ @ $ * * $ * * * = ",
"# $ & $ + & @ = # $ & & # $ $ + & * & = & & ",
"& & & & & & & & - & & & & & & & & & & ; & & ",
"> , ; - ' & ) , & ; ! , > > ; ; ; ! , ; & ' ",
"> ; ! - > ! > ; > ' ! ! ) ; > > > > ' > ) > ",
"~ > { { { > > > > > > > > > ~ { > > ] ] ~ > ",
"^ ] / ^ ( ( ~ / ( > ^ _ _ { ] / ^ ^ { > ( _ ",
": < [ } | 1 2 3 3 [ [ 4 5 6 3 [ 1 | 3 7 6 8 ",
"< 9 0 a 1 b 0 . c d e e d f . 0 b 1 g h c i ",
"j k l m n o l p q [ r s [ 3 p l t u v o w x ",
"y z A B C 9 D E F G H I 1 J E K L M N s O P ",
"Q f R S T U V W X Y Z `  ...W V M +.@.#.$.%.",
"Q &.*.=.-.=.;.>.,.'.).!.~.{.>.;.].a ^.B /.(.",
"Q _.:.<.[.}.|.1.,.'.2.3.7 ,.1.|.. =.S 4.5.| ",
"6.7.k Q 8.9.4.0.a.[.b.c.[.a.0.k d.> e.f.g.h.",
"i.j.c.Q | k.l.m.N n.S e.A o.p.S . q.o.r.k.s.",
"t.u.[.v.w.a.x.a.a.[.[.[.[.a.a.y.a.| q.[.z.A.",
"B.8 C.8 D.E.8 B.F.G.D.8 G.F.H.E.G.B.H.H.H.C.",
"H.B.H.H.H.H.H.H.G.H.G.H.E.G.F.H.H.H.H.D.H.F.",
"I.I.I.A.I.H.H.J.H.H.H.H.H.H.K.H.H.I.H.I.I.J.",
"L.K.H.K.A.J.H.M.I.J.A.N.A.M.I.H.A.N.I.N.J.K.",
"A.A.A.A.M.A.A.A.A.L.A.A.A.M.A.L.A.J.A.J.A.A.",
"A.O.O.A.A.A.A.O.O.A.P.Q.R.w.A.A.P.A.P.O.A.A.",
"Q.O.S.w.P.R.T.R.Q.P.w.w.T.P.S.P.T.R.Q.R.Q.w."};
