/* XPM */
static char * maximize_pressed_xpm[] = {
"22 25 181 2",
"  	c None",
". 	c #666666",
"+ 	c #454444",
"@ 	c #454545",
"# 	c #444545",
"$ 	c #454544",
"% 	c #444544",
"& 	c #444444",
"* 	c #454445",
"= 	c #444445",
"- 	c #434444",
"; 	c #444443",
"> 	c #434343",
", 	c #444344",
"' 	c #434443",
") 	c #434344",
"! 	c #444343",
"~ 	c #434342",
"{ 	c #424343",
"] 	c #434243",
"^ 	c #434242",
"/ 	c #424242",
"( 	c #424243",
"_ 	c #424342",
": 	c #3F3F3F",
"< 	c #2A2A2A",
"[ 	c #1A1A1A",
"} 	c #1F1F1F",
"| 	c #2F2F2F",
"1 	c #242424",
"2 	c #3C3C3C",
"3 	c #2A2B2A",
"4 	c #2D2D2D",
"5 	c #1C1C1C",
"6 	c #353535",
"7 	c #252424",
"8 	c #585858",
"9 	c #9A9A9A",
"0 	c #8B8B8B",
"a 	c #1E1F1F",
"b 	c #7B7B7B",
"c 	c #9B9B9B",
"d 	c #626262",
"e 	c #2C2C2C",
"f 	c #3E3F3F",
"g 	c #363636",
"h 	c #949494",
"i 	c #9C9C9C",
"j 	c #2F2E2E",
"k 	c #515151",
"l 	c #7C7C7C",
"m 	c #838383",
"n 	c #808080",
"o 	c #2B2B2C",
"p 	c #4C4C4C",
"q 	c #7E7E7E",
"r 	c #767676",
"s 	c #535354",
"t 	c #2C2D2D",
"u 	c #4E4E4E",
"v 	c #888888",
"w 	c #6B6B6B",
"x 	c #7D7D7D",
"y 	c #292929",
"z 	c #343535",
"A 	c #2E2E2F",
"B 	c #4F4F4F",
"C 	c #727272",
"D 	c #5C5C5C",
"E 	c #6E6E6E",
"F 	c #565656",
"G 	c #686868",
"H 	c #676767",
"I 	c #6F6F6F",
"J 	c #3E3E3E",
"K 	c #1E1E1E",
"L 	c #737373",
"M 	c #848484",
"N 	c #525252",
"O 	c #2B2B2B",
"P 	c #414141",
"Q 	c #2D2E2E",
"R 	c #535353",
"S 	c #7E7D7D",
"T 	c #696868",
"U 	c #7F7E7E",
"V 	c #636262",
"W 	c #7D7C7C",
"X 	c #5B5B5B",
"Y 	c #1C1C1B",
"Z 	c #8A8989",
"` 	c #646363",
" .	c #888787",
"..	c #232323",
"+.	c #3E3E3D",
"@.	c #414040",
"#.	c #747474",
"$.	c #3B3A3B",
"%.	c #414041",
"&.	c #575757",
"*.	c #8A8A8A",
"=.	c #545454",
"-.	c #555555",
";.	c #898989",
">.	c #5F5F5F",
",.	c #959595",
"'.	c #505050",
").	c #494949",
"!.	c #545354",
"~.	c #303030",
"{.	c #878787",
"].	c #868686",
"^.	c #383839",
"/.	c #404041",
"(.	c #979797",
"_.	c #191919",
":.	c #333333",
"<.	c #969696",
"[.	c #626162",
"}.	c #5A5A5A",
"|.	c #999999",
"1.	c #989898",
"2.	c #282828",
"3.	c #929292",
"4.	c #818181",
"5.	c #404040",
"6.	c #2D2C2D",
"7.	c #5F5E5E",
"8.	c #A3A2A2",
"9.	c #4B4B4A",
"0.	c #323232",
"a.	c #373737",
"b.	c #646464",
"c.	c #828181",
"d.	c #979696",
"e.	c #8C8C8C",
"f.	c #989797",
"g.	c #1E1E1D",
"h.	c #6F6F6E",
"i.	c #A7A7A7",
"j.	c #727171",
"k.	c #ADACAC",
"l.	c #3A3A3A",
"m.	c #2F302F",
"n.	c #626161",
"o.	c #ABAAAA",
"p.	c #393939",
"q.	c #ACABAB",
"r.	c #676666",
"s.	c #A09F9F",
"t.	c #848383",
"u.	c #717070",
"v.	c #AEADAD",
"w.	c #B5B4B4",
"x.	c #7B7A7A",
"y.	c #252525",
"z.	c #9A9999",
"A.	c #202020",
"B.	c #282827",
"C.	c #272828",
"D.	c #3F3F3E",
"E.	c #181919",
"F.	c #1B1B1B",
"G.	c #191819",
"H.	c #1F1F20",
"I.	c #3F3E3F",
"J.	c #3E3F3E",
"K.	c #3F3E3E",
"L.	c #3E3E3F",
"M.	c #3D3D3D",
"N.	c #3D3D3E",
"O.	c #3E3D3E",
"P.	c #3D3E3D",
"Q.	c #3E3D3D",
"R.	c #3D3E3E",
"S.	c #3D3C3D",
"T.	c #3C3D3D",
"U.	c #3C3D3C",
"V.	c #3D3D3C",
"W.	c #3C3C3D",
"X.	c #3D3C3C",
". . . . . . . . . . . . . . . . . . . . . . ",
"+ @ # $ @ $ $ $ % @ % & @ @ $ * * $ * * * = ",
"# $ & $ + & @ = # $ & & # $ $ + & * & = & & ",
"& & & & & & & & - & & & & & & & & & & ; & & ",
"> , ; - ' & ) , & ; ! , > > ; ; ; ! , ; & ' ",
"> ; ! - > ! > ; > ' ! ! ) ; > > > > ' > ) > ",
"~ > { { { > > > > > > > > > ~ { > > ] ] ~ > ",
"^ ] / ^ ( ( ~ / ( > ^ _ _ { ] / ^ ^ { > ( _ ",
": < [ } | 1 [ < 2 < [ [ 3 ^ 4 5 1 6 < [ 7 6 ",
"| 8 9 0 a b c d e 4 c c f g 4 h b 1 g i b 1 ",
"j k l m < n l 8 o p q r s | t u v & w x y z ",
"A B C w D E C F y d G H I 1 J K L n M N O P ",
"Q R S T U V W X Y Z ` F  ...+.| @.U #.K $.%.",
"4 &.*.=.*.-.;.>.J ,.'.).h !.~.4 &.{.]...^./.",
"4 X (.& _.:.<.[.}.|.1.|.1.I 2.1 3.4.(.#.2.5.",
"6.7.8.9.0.a.8.b.c.d._._.e.f.g.h.i.2 j.k.l.m.",
"t n.o.u 0.p.q.r.s.t...2.u.v.p.w.x.y...8.z.A.",
"2 B._.C.D.2.E.2.F...0.a.2._.2.G.y.6 < F.H.| ",
"I.: f : D.J.: I.K.L.D.: L.K.J J.L.I.J J J f ",
"J I.J J J J J J L.J L.J J.L.K.J J J J D.J K.",
"+.+.+.M.+.J J N.J J J J J J O.J J +.J +.+.N.",
"P.O.J O.M.N.J Q.+.N.M.R.M.Q.+.J M.R.+.R.N.O.",
"M.M.M.M.Q.M.M.M.M.P.M.M.M.Q.M.P.M.N.M.N.M.M.",
"M.S.S.M.M.M.M.S.S.M.T.U.2 V.M.M.T.M.T.S.M.M.",
"U.S.W.V.T.2 X.2 U.T.V.V.X.T.W.T.X.2 U.2 U.V."};
