/* XPM */
static char * maximize_toggled_prelight_xpm[] = {
"22 25 169 2",
"  	c None",
". 	c #666666",
"+ 	c #454444",
"@ 	c #454545",
"# 	c #444545",
"$ 	c #454544",
"% 	c #444544",
"& 	c #444444",
"* 	c #454445",
"= 	c #444445",
"- 	c #434444",
"; 	c #444443",
"> 	c #434343",
", 	c #444344",
"' 	c #434443",
") 	c #434344",
"! 	c #444343",
"~ 	c #434342",
"{ 	c #424343",
"] 	c #434243",
"^ 	c #434242",
"/ 	c #424242",
"( 	c #424243",
"_ 	c #424342",
": 	c #2E2E2E",
"< 	c #202020",
"[ 	c #292929",
"} 	c #373737",
"| 	c #393939",
"1 	c #2B2B2B",
"2 	c #202021",
"3 	c #272727",
"4 	c #353434",
"5 	c #212121",
"6 	c #2F2E2E",
"7 	c #3F3F3F",
"8 	c #3B3B3B",
"9 	c #4D4D4D",
"0 	c #FFFFFF",
"a 	c #C4C4C4",
"b 	c #3E3E3E",
"c 	c #343434",
"d 	c #B5B5B5",
"e 	c #D2D2D2",
"f 	c #979797",
"g 	c #888888",
"h 	c #323232",
"i 	c #3B3A3A",
"j 	c #4C4C4C",
"k 	c #FAFAFA",
"l 	c #F8F8F8",
"m 	c #F9F9F9",
"n 	c #CFCFCF",
"o 	c #262627",
"p 	c #878787",
"q 	c #949595",
"r 	c #868686",
"s 	c #313232",
"t 	c #3A3A3B",
"u 	c #4B4B4B",
"v 	c #EEEEEE",
"w 	c #8D8D8D",
"x 	c #C3C3C3",
"y 	c #F3F3F3",
"z 	c #AFAFAF",
"A 	c #717171",
"B 	c #2D2D2D",
"C 	c #7F7F7F",
"D 	c #EBEBEB",
"E 	c #646464",
"F 	c #393A3A",
"G 	c #4A4A4A",
"H 	c #E5E5E5",
"I 	c #8A8A8A",
"J 	c #BCBCBC",
"K 	c #7E7E7E",
"L 	c #E1E1E1",
"M 	c #E4E4E4",
"N 	c #ACACAC",
"O 	c #2A2A2A",
"P 	c #3C3C3B",
"Q 	c #313131",
"R 	c #7D7C7D",
"S 	c #E2E2E2",
"T 	c #636363",
"U 	c #343534",
"V 	c #414041",
"W 	c #494949",
"X 	c #D9D9D9",
"Y 	c #DDDDDD",
"Z 	c #D8D8D8",
"` 	c #C0C0C0",
" .	c #232323",
"..	c #2C2C2C",
"+.	c #757575",
"@.	c #909090",
"#.	c #2E2F2E",
"$.	c #303030",
"%.	c #7B7B7B",
"&.	c #DADADA",
"*.	c #404041",
"=.	c #474747",
"-.	c #CACACA",
";.	c #C2C2C2",
">.	c #C6C6C6",
",.	c #4F4F4F",
"'.	c #302F30",
").	c #6A6A6A",
"!.	c #1F1F1F",
"~.	c #363636",
"{.	c #B8B8B8",
"].	c #252525",
"^.	c #787878",
"/.	c #606060",
"(.	c #404040",
"_.	c #393839",
":.	c #464646",
"<.	c #BEBEBE",
"[.	c #6E6E6E",
"}.	c #3D3D3E",
"|.	c #8C8C8C",
"1.	c #29292A",
"2.	c #A1A1A1",
"3.	c #D5D5D5",
"4.	c #D4D4D4",
"5.	c #C8C8C8",
"6.	c #BBBBBB",
"7.	c #888787",
"8.	c #2C2C2B",
"9.	c #2F302F",
"0.	c #747474",
"a.	c #5E5E5E",
"b.	c #3F403F",
"c.	c #383939",
"d.	c #BABABA",
"e.	c #5F5F5F",
"f.	c #CBCBCB",
"g.	c #6B6B6B",
"h.	c #5A5A5A",
"i.	c #9A9A9A",
"j.	c #B4B4B4",
"k.	c #B0B0B0",
"l.	c #8B8B8B",
"m.	c #383838",
"n.	c #302F2F",
"o.	c #5D5D5D",
"p.	c #3F3F40",
"q.	c #2B2C2C",
"r.	c #3A3A39",
"s.	c #1E1F1F",
"t.	c #3D3C3D",
"u.	c #3E3E3F",
"v.	c #3F3E3F",
"w.	c #3E3F3F",
"x.	c #3F3F3E",
"y.	c #3E3F3E",
"z.	c #3F3E3E",
"A.	c #3E3E3D",
"B.	c #3D3D3D",
"C.	c #3E3D3E",
"D.	c #3D3E3D",
"E.	c #3E3D3D",
"F.	c #3D3E3E",
"G.	c #3C3D3D",
"H.	c #3C3D3C",
"I.	c #3C3C3C",
"J.	c #3D3D3C",
"K.	c #3C3C3D",
"L.	c #3D3C3C",
". . . . . . . . . . . . . . . . . . . . . . ",
"+ @ # $ @ $ $ $ % @ % & @ @ $ * * $ * * * = ",
"# $ & $ + & @ = # $ & & # $ $ + & * & = & & ",
"& & & & & & & & - & & & & & & & & & & ; & & ",
"> , ; - ' & ) , & ; ! , > > ; ; ; ! , ; & ' ",
"> ; ! - > ! > ; > ' ! ! ) ; > > > > ' > ) > ",
"~ > { { { > > > > > > > > > ~ { > > ] ] ~ > ",
"^ ] / ^ ( ( ~ / ( > ^ _ _ { ] / ^ ^ { > ( _ ",
"/ : < < < [ } / | 1 < 2 3 4 : < < < < 5 6 7 ",
"8 9 0 0 0 a b c 1 d 0 0 e b f 0 0 0 0 0 g h ",
"i j k l m k n o p k m l k b q m l l l m r s ",
"t u v w < x y : z v A < < B B < C D E < B b ",
"F G H I < J H : K L M D N O P Q R S T U V V ",
"| W X Y H Z `  ...+.J X M @.#.$.%.&.T c *.*.",
"| =.-.;.>.a ,.'.C ).!.~.-.{.].$.^.n /.c (.(.",
"_.:.<.[.}.z |.1.2.3.4.5.6.7.8.9.0.a a.c b.b.",
"c.@ d.0.: e.f.g.h.i.j.k.l.1 m.n.A 6.o.c p.7 ",
"7 8.!.q.r...s...h ].!.!.3 c 7 t...!...7 u.7 ",
"v.7 w.7 x.y.7 v.z.u.x.7 u.z.b y.u.v.b b b w.",
"b v.b b b b b b u.b u.b y.u.z.b b b b x.b z.",
"A.A.A.B.A.b b }.b b b b b b C.b b A.b A.A.}.",
"D.C.b C.B.}.b E.A.}.B.F.B.E.A.b B.F.A.F.}.C.",
"B.B.B.B.E.B.B.B.B.D.B.B.B.E.B.D.B.}.B.}.B.B.",
"B.t.t.B.B.B.B.t.t.B.G.H.I.J.B.B.G.B.G.t.B.B.",
"H.t.K.J.G.I.L.I.H.G.J.J.L.G.K.G.L.I.H.I.H.J."};
