/* XPM */
static char * maximize_prelight_xpm[] = {
"22 25 178 2",
"  	c None",
". 	c #666666",
"+ 	c #454444",
"@ 	c #454545",
"# 	c #444545",
"$ 	c #454544",
"% 	c #444544",
"& 	c #444444",
"* 	c #454445",
"= 	c #444445",
"- 	c #434444",
"; 	c #444443",
"> 	c #434343",
", 	c #444344",
"' 	c #434443",
") 	c #434344",
"! 	c #444343",
"~ 	c #434342",
"{ 	c #424343",
"] 	c #434243",
"^ 	c #434242",
"/ 	c #424242",
"( 	c #424243",
"_ 	c #424342",
": 	c #3F3F3F",
"< 	c #2E2E2E",
"[ 	c #202020",
"} 	c #252525",
"| 	c #323232",
"1 	c #292929",
"2 	c #212120",
"3 	c #3D3D3D",
"4 	c #202021",
"5 	c #2E2F2E",
"6 	c #303030",
"7 	c #222222",
"8 	c #373737",
"9 	c #212121",
"0 	c #2A2929",
"a 	c #888888",
"b 	c #FFFFFF",
"c 	c #E1E1E1",
"d 	c #242525",
"e 	c #C4C4C4",
"f 	c #979797",
"g 	c #2F2F2F",
"h 	c #3E3E3E",
"i 	c #5B5C5C",
"j 	c #383838",
"k 	c #F0F0F0",
"l 	c #C3C4C4",
"m 	c #4D4D4D",
"n 	c #323131",
"o 	c #868686",
"p 	c #F9F9F9",
"q 	c #FAFAFA",
"r 	c #3E3D3D",
"s 	c #ECECEC",
"t 	c #959595",
"u 	c #787878",
"v 	c #EAEAEA",
"w 	c #2F3030",
"x 	c #858586",
"y 	c #FBFBFB",
"z 	c #6A6A6A",
"A 	c #B3B3B3",
"B 	c #EBEBEB",
"C 	c #363737",
"D 	c #313132",
"E 	c #838383",
"F 	c #D2D2D2",
"G 	c #9E9E9E",
"H 	c #D3D3D3",
"I 	c #909090",
"J 	c #2D2D2D",
"K 	c #A0A0A0",
"L 	c #D1D1D1",
"M 	c #BDBCBC",
"N 	c #282828",
"O 	c #242424",
"P 	c #D4D4D4",
"Q 	c #E3E3E3",
"R 	c #F1F1F1",
"S 	c #8F8F8F",
"T 	c #414141",
"U 	c #303131",
"V 	c #807F7F",
"W 	c #E0E0E0",
"X 	c #B9B9B9",
"Y 	c #D7D7D7",
"Z 	c #AEAEAE",
"` 	c #8D8D8D",
" .	c #222221",
"..	c #DDDDDD",
"+.	c #949494",
"@.	c #DCDCDC",
"#.	c #3E3E3D",
"$.	c #313131",
"%.	c #636263",
"&.	c #C9C9C9",
"*.	c #232423",
"=.	c #3C3B3C",
"-.	c #414041",
";.	c #7B7B7B",
">.	c #7F7F7F",
",.	c #D5D5D5",
"'.	c #565656",
").	c #DEDEDE",
"!.	c #767676",
"~.	c #696969",
"{.	c #727272",
"].	c #323332",
"^.	c #CBCBCB",
"/.	c #39393A",
"(.	c #404041",
"_.	c #5A5A5A",
":.	c #1F1F1F",
"<.	c #818181",
"[.	c #777777",
"}.	c #CDCDCD",
"|.	c #CECECE",
"1.	c #CCCCCC",
"2.	c #2C2C2C",
"3.	c #C2C2C2",
"4.	c #989898",
"5.	c #404040",
"6.	c #302F30",
"7.	c #747474",
"8.	c #C3C3C3",
"9.	c #5C5C5C",
"0.	c #343434",
"a.	c #7A7A7A",
"b.	c #9D9D9D",
"c.	c #B4B4B4",
"d.	c #A8A8A8",
"e.	c #232323",
"f.	c #898989",
"g.	c #CACACA",
"h.	c #494949",
"i.	c #717171",
"j.	c #BBBBBB",
"k.	c #5D5D5D",
"l.	c #454546",
"m.	c #BDBDBD",
"n.	c #929292",
"o.	c #272727",
"p.	c #2B2C2B",
"q.	c #7D7D7D",
"r.	c #C1C1C1",
"s.	c #CFCFCF",
"t.	c #8A8A8A",
"u.	c #29292A",
"v.	c #2A2A2B",
"w.	c #B5B5B5",
"x.	c #2C2C2B",
"y.	c #2B2C2C",
"z.	c #3F3F3E",
"A.	c #1E1F1F",
"B.	c #2B2B2B",
"C.	c #1F1E1F",
"D.	c #363636",
"E.	c #242425",
"F.	c #3F3E3F",
"G.	c #3E3F3F",
"H.	c #3E3F3E",
"I.	c #3F3E3E",
"J.	c #3E3E3F",
"K.	c #3D3D3E",
"L.	c #3E3D3E",
"M.	c #3D3E3D",
"N.	c #3D3E3E",
"O.	c #3D3C3D",
"P.	c #3C3D3D",
"Q.	c #3C3D3C",
"R.	c #3C3C3C",
"S.	c #3D3D3C",
"T.	c #3C3C3D",
"U.	c #3D3C3C",
". . . . . . . . . . . . . . . . . . . . . . ",
"+ @ # $ @ $ $ $ % @ % & @ @ $ * * $ * * * = ",
"# $ & $ + & @ = # $ & & # $ $ + & * & = & & ",
"& & & & & & & & - & & & & & & & & & & ; & & ",
"> , ; - ' & ) , & ; ! , > > ; ; ; ! , ; & ' ",
"> ; ! - > ! > ; > ' ! ! ) ; > > > > ' > ) > ",
"~ > { { { > > > > > > > > > ~ { > > ] ] ~ > ",
"^ ] / ^ ( ( ~ / ( > ^ _ _ { ] / ^ ^ { > ( _ ",
": < [ } | 1 2 < 3 < [ 4 5 ^ 6 7 1 8 < 9 0 8 ",
"| a b c d e b f g h b b i j h k l 1 m b e 1 ",
"n o p q r s p t g u q v o | w x y z A B r C ",
"D E s F G H s I J K L L M N h O P Q R S g T ",
"U V W X Y Z W `  ...Z +.@.< #.$.%.c &.*.=.-.",
"6 ;.P >.,.>.P a '.).!.~...{.].6 ;.F ^.J /.(.",
"6 u ^._.:.> ^.<.[.}.}.|.1.+.2.< 3.Z ^.4.2.5.",
"6.7.8.9.0.& e a.b.c.:.:.d.X e.f.g.h.a H h.].",
"w i.j.k.0.l.m.{.Z n.o.p.q.r.@ s.t.u.v.A w.} ",
"3 x.:.y.z.2.A.2.9 o.0.j B.:.2.C.1 D.< 9 E.| ",
"F.: G.: z.H.: F.I.J.z.: J.I.h H.J.F.h h h G.",
"h F.h h h h h h J.h J.h H.J.I.h h h h z.h I.",
"#.#.#.3 #.h h K.h h h h h h L.h h #.h #.#.K.",
"M.L.h L.3 K.h r #.K.3 N.3 r #.h 3 N.#.N.K.L.",
"3 3 3 3 r 3 3 3 3 M.3 3 3 r 3 M.3 K.3 K.3 3 ",
"3 O.O.3 3 3 3 O.O.3 P.Q.R.S.3 3 P.3 P.O.3 3 ",
"Q.O.T.S.P.R.U.R.Q.P.S.S.U.P.T.P.U.R.Q.R.Q.S."};
