/* XPM */
static char * maximize_toggled_pressed_xpm[] = {
"22 25 170 2",
"  	c None",
". 	c #666666",
"+ 	c #454444",
"@ 	c #454545",
"# 	c #444545",
"$ 	c #454544",
"% 	c #444544",
"& 	c #444444",
"* 	c #454445",
"= 	c #444445",
"- 	c #434444",
"; 	c #444443",
"> 	c #434343",
", 	c #444344",
"' 	c #434443",
") 	c #434344",
"! 	c #444343",
"~ 	c #434342",
"{ 	c #424343",
"] 	c #434243",
"^ 	c #434242",
"/ 	c #424242",
"( 	c #424243",
"_ 	c #424342",
": 	c #2A2A2A",
"< 	c #1A1A1A",
"[ 	c #242424",
"} 	c #353535",
"| 	c #373737",
"1 	c #272727",
"2 	c #212221",
"3 	c #323232",
"4 	c #2B2A2A",
"5 	c #3F3F3F",
"6 	c #393939",
"7 	c #363636",
"8 	c #9B9B9B",
"9 	c #979797",
"0 	c #989898",
"a 	c #7A7A7A",
"b 	c #2D2C2D",
"c 	c #727272",
"d 	c #999999",
"e 	c #828282",
"f 	c #2C2C2C",
"g 	c #616161",
"h 	c #585858",
"i 	c #2F2F2F",
"j 	c #393838",
"k 	c #333333",
"l 	c #7E7E7E",
"m 	c #757575",
"n 	c #818181",
"o 	c #7D7D7D",
"p 	c #212121",
"q 	c #575758",
"r 	c #868686",
"s 	c #747474",
"t 	c #838383",
"u 	c #2B2B2B",
"v 	c #575757",
"w 	c #797979",
"x 	c #515151",
"y 	c #2E2F2F",
"z 	c #383839",
"A 	c #787878",
"B 	c #484848",
"C 	c #636363",
"D 	c #888888",
"E 	c #222222",
"F 	c #6A6A6A",
"G 	c #3D3D3D",
"H 	c #292929",
"I 	c #6D6D6D",
"J 	c #3E3E3E",
"K 	c #373838",
"L 	c #343434",
"M 	c #565656",
"N 	c #6F6E6E",
"O 	c #888787",
"P 	c #7F7E7E",
"Q 	c #858484",
"R 	c #939292",
"S 	c #737373",
"T 	c #252626",
"U 	c #3B3B3A",
"V 	c #2E2E2E",
"W 	c #4F4E4F",
"X 	c #828181",
"Y 	c #414141",
"Z 	c #323332",
"` 	c #414041",
" .	c #363535",
"..	c #909090",
"+.	c #949494",
"@.	c #9E9E9E",
"#.	c #8F8F8F",
"$.	c #808080",
"%.	c #1E1E1E",
"&.	c #4F4F4F",
"*.	c #9D9D9D",
"=.	c #2D2D2D",
"-.	c #919191",
";.	c #474747",
">.	c #404041",
",.	c #969696",
"'.	c #929292",
").	c #505050",
"!.	c #191919",
"~.	c #8B8B8B",
"{.	c #202020",
"].	c #5B5B5B",
"^.	c #9A9A9A",
"/.	c #4A4A4A",
"(.	c #404040",
"_.	c #9F9E9E",
":.	c #5E5D5D",
"<.	c #323233",
"[.	c #949393",
"}.	c #737272",
"|.	c #252525",
"1.	c #AEADAD",
"2.	c #ADADAD",
"3.	c #A6A5A5",
"4.	c #9D9C9C",
"5.	c #282828",
"6.	c #2C2D2C",
"7.	c #5F5E5E",
"8.	c #A4A3A3",
"9.	c #4C4C4C",
"0.	c #3F403F",
"a.	c #AAAAAA",
"b.	c #686767",
"c.	c #545454",
"d.	c #B3B2B2",
"e.	c #5A5A5A",
"f.	c #4D4C4C",
"g.	c #8C8B8B",
"h.	c #A7A6A6",
"i.	c #A5A4A4",
"j.	c #232323",
"k.	c #2D2C2C",
"l.	c #626161",
"m.	c #ABAAAA",
"n.	c #4E4E4E",
"o.	c #3F3F40",
"p.	c #282827",
"q.	c #272828",
"r.	c #3A3A39",
"s.	c #181919",
"t.	c #3C3B3C",
"u.	c #3E3E3F",
"v.	c #3F3E3F",
"w.	c #3E3F3F",
"x.	c #3F3F3E",
"y.	c #3E3F3E",
"z.	c #3F3E3E",
"A.	c #3E3E3D",
"B.	c #3D3D3E",
"C.	c #3E3D3E",
"D.	c #3D3E3D",
"E.	c #3E3D3D",
"F.	c #3D3E3E",
"G.	c #3D3C3D",
"H.	c #3C3D3D",
"I.	c #3C3D3C",
"J.	c #3C3C3C",
"K.	c #3D3D3C",
"L.	c #3C3C3D",
"M.	c #3D3C3C",
". . . . . . . . . . . . . . . . . . . . . . ",
"+ @ # $ @ $ $ $ % @ % & @ @ $ * * $ * * * = ",
"# $ & $ + & @ = # $ & & # $ $ + & * & = & & ",
"& & & & & & & & - & & & & & & & & & & ; & & ",
"> , ; - ' & ) , & ; ! , > > ; ; ; ! , ; & ' ",
"> ; ! - > ! > ; > ' ! ! ) ; > > > > ' > ) > ",
"~ > { { { > > > > > > > > > ~ { > > ] ] ~ > ",
"^ ] / ^ ( ( ~ / ( > ^ _ _ { ] / ^ ^ { > ( _ ",
"/ : < < < [ } / | 1 < < 2 3 : < < < < < 4 5 ",
"6 7 8 9 0 a b 3 1 c d 0 e f g d 9 9 9 d h i ",
"j k l c m n o p q r m s t u v w c c c a x y ",
"z k A B < C D E F A G < < H H < / I | < H J ",
"K L r M < N O E x P Q R S T U V W X Y Z ` ` ",
"|  ...+.@.#.$.%.H &.a #.*.F u =.v -.;.3 >.>.",
"| | ,.#.'.-.G b g ).!.H ,.~.{.=.].^./.3 (.(.",
"| j _.:.<.[.}.|.X 1.2.3.4.N 5.6.7.8.9.3 0.0.",
"| 6 a.b.u c.d.e.f.g.h.i.$.j.| k.l.m.n.3 o.5 ",
"5 p.!.q.r.5.s.5.i {.!.!.j.3 5 t.5.!.5.5 u.5 ",
"v.5 w.5 x.y.5 v.z.u.x.5 u.z.J y.u.v.J J J w.",
"J v.J J J J J J u.J u.J y.u.z.J J J J x.J z.",
"A.A.A.G A.J J B.J J J J J J C.J J A.J A.A.B.",
"D.C.J C.G B.J E.A.B.G F.G E.A.J G F.A.F.B.C.",
"G G G G E.G G G G D.G G G E.G D.G B.G B.G G ",
"G G.G.G G G G G.G.G H.I.J.K.G G H.G H.G.G G ",
"I.G.L.K.H.J.M.J.I.H.K.K.M.H.L.H.M.J.I.J.I.K."};
