/* XPM */
static char * maximize_inactive_xpm[] = {
"22 25 178 2",
"  	c None",
". 	c #666666",
"+ 	c #454444",
"@ 	c #454545",
"# 	c #444545",
"$ 	c #454544",
"% 	c #444544",
"& 	c #444444",
"* 	c #454445",
"= 	c #444445",
"- 	c #434444",
"; 	c #444443",
"> 	c #434343",
", 	c #444344",
"' 	c #434443",
") 	c #434344",
"! 	c #444343",
"~ 	c #434342",
"{ 	c #424343",
"] 	c #434243",
"^ 	c #434242",
"/ 	c #424242",
"( 	c #424243",
"_ 	c #424342",
": 	c #3F3F3F",
"< 	c #2E2E2E",
"[ 	c #202020",
"} 	c #252525",
"| 	c #323232",
"1 	c #292929",
"2 	c #212120",
"3 	c #3D3D3D",
"4 	c #202021",
"5 	c #2E2F2E",
"6 	c #303030",
"7 	c #222222",
"8 	c #373737",
"9 	c #212121",
"0 	c #2A2929",
"a 	c #808080",
"b 	c #ECECEC",
"c 	c #D2D2D2",
"d 	c #242525",
"e 	c #B7B7B7",
"f 	c #8F8F8F",
"g 	c #2F2F2F",
"h 	c #3C3C3C",
"i 	c #585858",
"j 	c #383838",
"k 	c #E0E0E0",
"l 	c #4B4B4A",
"m 	c #EDEDED",
"n 	c #323131",
"o 	c #7A7A7A",
"p 	c #D7D7D7",
"q 	c #3A3A3A",
"r 	c #CCCCCC",
"s 	c #868686",
"t 	c #6F6F6F",
"u 	c #D4D4D4",
"v 	c #C6C6C6",
"w 	c #7B7B7B",
"x 	c #2F3030",
"y 	c #777777",
"z 	c #DBDBDB",
"A 	c #626262",
"B 	c #A2A1A1",
"C 	c #CACACA",
"D 	c #363737",
"E 	c #313132",
"F 	c #747474",
"G 	c #BCBCBC",
"H 	c #ABABAB",
"I 	c #898989",
"J 	c #ADADAD",
"K 	c #7F7F7F",
"L 	c #2D2D2D",
"M 	c #8D8D8D",
"N 	c #A9A9A9",
"O 	c #A8A8A8",
"P 	c #A4A4A4",
"Q 	c #282828",
"R 	c #3E3E3E",
"S 	c #242424",
"T 	c #B1B1B1",
"U 	c #C1C1C1",
"V 	c #414141",
"W 	c #303131",
"X 	c #707070",
"Y 	c #B2B2B2",
"Z 	c #959595",
"` 	c #B0B0B0",
" .	c #8C8C8C",
"..	c #222221",
"+.	c #BDBDBD",
"@.	c #797979",
"#.	c #BCBCBB",
"$.	c #2C2D2D",
"%.	c #3E3E3D",
"&.	c #313131",
"*.	c #575657",
"=.	c #B4B4B4",
"-.	c #A3A3A3",
";.	c #232423",
">.	c #3C3B3C",
",.	c #414041",
"'.	c #6D6C6C",
").	c #676767",
"!.	c #757575",
"~.	c #4D4D4D",
"{.	c #B9B9B9",
"].	c #636363",
"^.	c #595A59",
"/.	c #B8B8B8",
"(.	c #696869",
"_.	c #323332",
":.	c #6C6D6C",
"<.	c #A5A5A5",
"[.	c #2C2C2C",
"}.	c #39393A",
"|.	c #404041",
"1.	c #696969",
"2.	c #1F1F1F",
"3.	c #3B3B3B",
"4.	c #6E6E6E",
"5.	c #686868",
"6.	c #A6A6A6",
"7.	c #A7A7A7",
"8.	c #818181",
"9.	c #888888",
"0.	c #404040",
"a.	c #302F30",
"b.	c #9E9E9E",
"c.	c #525251",
"d.	c #343434",
"e.	c #9F9F9F",
"f.	c #666667",
"g.	c #848484",
"h.	c #919191",
"i.	c #858685",
"j.	c #9D9D9D",
"k.	c #232323",
"l.	c #B3B3B3",
"m.	c #989898",
"n.	c #535353",
"o.	c #3F3F40",
"p.	c #9A9A9A",
"q.	c #606060",
"r.	c #272727",
"s.	c #2B2C2B",
"t.	c #AFAFAF",
"u.	c #727272",
"v.	c #29292A",
"w.	c #939393",
"x.	c #2C2C2B",
"y.	c #2B2C2C",
"z.	c #3F3F3E",
"A.	c #1E1F1F",
"B.	c #2B2B2B",
"C.	c #1F1E1F",
"D.	c #363636",
"E.	c #242425",
"F.	c #3F3E3F",
"G.	c #3E3F3F",
"H.	c #3E3F3E",
"I.	c #3F3E3E",
"J.	c #3E3E3F",
"K.	c #3D3D3E",
"L.	c #3E3D3E",
"M.	c #3D3E3D",
"N.	c #3E3D3D",
"O.	c #3D3E3E",
"P.	c #3D3C3D",
"Q.	c #3C3D3D",
"R.	c #3C3D3C",
"S.	c #3D3D3C",
"T.	c #3C3C3D",
"U.	c #3D3C3C",
". . . . . . . . . . . . . . . . . . . . . . ",
"+ @ # $ @ $ $ $ % @ % & @ @ $ * * $ * * * = ",
"# $ & $ + & @ = # $ & & # $ $ + & * & = & & ",
"& & & & & & & & - & & & & & & & & & & ; & & ",
"> , ; - ' & ) , & ; ! , > > ; ; ; ! , ; & ' ",
"> ; ! - > ! > ; > ' ! ! ) ; > > > > ' > ) > ",
"~ > { { { > > > > > > > > > ~ { > > ] ] ~ > ",
"^ ] / ^ ( ( ~ / ( > ^ _ _ { ] / ^ ^ { > ( _ ",
": < [ } | 1 2 < 3 < [ 4 5 ^ 6 7 1 8 < 9 0 8 ",
"| a b c d e b f g h b b i j h k e 1 l m e 1 ",
"n o c p q r c s g t u v w | x y z A B C q D ",
"E F G H I J G K L M N O P Q R S T U C o g V ",
"W X Y Z `  .Y w ..+.M @.#.$.%.&.*.=.-.;.>.,.",
"6 '.N ).N ).N !.~.{.].^./.(._.6 :.<.<.[.}.|.",
"6 1.P ~.2.3.-.4.5.6.6.7.<.8.[.[.6.I P 9.[.0.",
"a.. b.c.d.R e.f.g.h.2.2.i.j.k.w O : t l.@ _.",
"x A m.n.d.o.p.q.M @.r.s.5.e.: t.u.v.Q w.j.} ",
"3 x.2.y.z.[.A.[.9 r.d.j B.2.[.C.1 D.< 9 E.| ",
"F.: G.: z.H.: F.I.J.z.: J.I.R H.J.F.R R R G.",
"R F.R R R R R R J.R J.R H.J.I.R R R R z.R I.",
"%.%.%.3 %.R R K.R R R R R R L.R R %.R %.%.K.",
"M.L.R L.3 K.R N.%.K.3 O.3 N.%.R 3 O.%.O.K.L.",
"3 3 3 3 N.3 3 3 3 M.3 3 3 N.3 M.3 K.3 K.3 3 ",
"3 P.P.3 3 3 3 P.P.3 Q.R.h S.3 3 Q.3 Q.P.3 3 ",
"R.P.T.S.Q.h U.h R.Q.S.S.U.Q.T.Q.U.h R.h R.S."};
