/* XPM */
static char * maximize_toggled_active_xpm[] = {
"22 25 173 2",
"  	c None",
". 	c #666666",
"+ 	c #454444",
"@ 	c #454545",
"# 	c #444545",
"$ 	c #454544",
"% 	c #444544",
"& 	c #444444",
"* 	c #454445",
"= 	c #444445",
"- 	c #434444",
"; 	c #444443",
"> 	c #434343",
", 	c #444344",
"' 	c #434443",
") 	c #434344",
"! 	c #444343",
"~ 	c #434342",
"{ 	c #424343",
"] 	c #434243",
"^ 	c #434242",
"/ 	c #424242",
"( 	c #424243",
"_ 	c #424342",
": 	c #2E2E2E",
"< 	c #202020",
"[ 	c #292929",
"} 	c #373737",
"| 	c #393939",
"1 	c #2B2B2B",
"2 	c #202021",
"3 	c #272727",
"4 	c #353434",
"5 	c #212121",
"6 	c #2F2E2E",
"7 	c #3F3F3F",
"8 	c #3B3B3B",
"9 	c #4A4A4A",
"0 	c #ECECEC",
"a 	c #EAEAEA",
"b 	c #EBEBEB",
"c 	c #B7B7B7",
"d 	c #3C3C3C",
"e 	c #343434",
"f 	c #AAAAAA",
"g 	c #C4C4C4",
"h 	c #8E8E8E",
"i 	c #818181",
"j 	c #323232",
"k 	c #3B3A3A",
"l 	c #484848",
"m 	c #D4D4D4",
"n 	c #CBCBCB",
"o 	c #CDCDCD",
"p 	c #D6D6D6",
"q 	c #BDBDBD",
"r 	c #262627",
"s 	c #7E7E7E",
"t 	c #D8D8D8",
"u 	c #D7D7D7",
"v 	c #858585",
"w 	c #D0D0D0",
"x 	c #D1D1D1",
"y 	c #7A7A7A",
"z 	c #313232",
"A 	c #3A3A3B",
"B 	c #464646",
"C 	c #C1C1C1",
"D 	c #727272",
"E 	c #9E9E9E",
"F 	c #CECECE",
"G 	c #2D2D2D",
"H 	c #9A9A9A",
"I 	c #5E5E5E",
"J 	c #676767",
"K 	c #545454",
"L 	c #3E3E3E",
"M 	c #393A3A",
"N 	c #BCBCBC",
"O 	c #767676",
"P 	c #9C9C9C",
"Q 	c #2C2C2C",
"R 	c #6F6F6E",
"S 	c #B4B4B4",
"T 	c #BBBBBB",
"U 	c #CACACA",
"V 	c #9B9B9B",
"W 	c #2A2A2A",
"X 	c #3C3C3B",
"Y 	c #313131",
"Z 	c #6C6C6C",
"` 	c #585858",
" .	c #343534",
"..	c #414041",
"+.	c #B1B1B1",
"@.	c #B8B8B8",
"#.	c #B0B0B0",
"$.	c #232323",
"%.	c #626262",
"&.	c #969696",
"*.	c #C3C3C3",
"=.	c #848484",
"-.	c #2E2F2E",
";.	c #303030",
">.	c #6C6D6C",
",.	c #B3B3B3",
"'.	c #595959",
").	c #404041",
"!.	c #A1A1A1",
"~.	c #979797",
"{.	c #302F30",
"].	c #737373",
"^.	c #5D5D5D",
"/.	c #1F1F1F",
"(.	c #9F9F9F",
"_.	c #252525",
":.	c #696969",
"<.	c #A9A9A9",
"[.	c #575757",
"}.	c #404040",
"|.	c #393839",
"1.	c #414141",
"2.	c #989898",
"3.	c #353535",
"4.	c #8B8B8B",
"5.	c #797979",
"6.	c #29292A",
"7.	c #8F8F8F",
"8.	c #B6B6B6",
"9.	c #A5A5A5",
"0.	c #949494",
"a.	c #747373",
"b.	c #2C2C2B",
"c.	c #2F302F",
"d.	c #656666",
"e.	c #A0A0A0",
"f.	c #555555",
"g.	c #3F403F",
"h.	c #383939",
"i.	c #616161",
"j.	c #515151",
"k.	c #ABABAB",
"l.	c #5F6060",
"m.	c #505050",
"n.	c #7D7D7D",
"o.	c #8A8A8A",
"p.	c #6F6F6F",
"q.	c #383838",
"r.	c #302F2F",
"s.	c #535353",
"t.	c #3F3F40",
"u.	c #2B2C2C",
"v.	c #3A3A39",
"w.	c #1E1F1F",
"x.	c #3D3C3D",
"y.	c #3E3E3F",
"z.	c #3F3E3F",
"A.	c #3E3F3F",
"B.	c #3F3F3E",
"C.	c #3E3F3E",
"D.	c #3F3E3E",
"E.	c #3E3E3D",
"F.	c #3D3D3D",
"G.	c #3D3D3E",
"H.	c #3E3D3E",
"I.	c #3D3E3D",
"J.	c #3E3D3D",
"K.	c #3D3E3E",
"L.	c #3C3D3D",
"M.	c #3C3D3C",
"N.	c #3D3D3C",
"O.	c #3C3C3D",
"P.	c #3D3C3C",
". . . . . . . . . . . . . . . . . . . . . . ",
"+ @ # $ @ $ $ $ % @ % & @ @ $ * * $ * * * = ",
"# $ & $ + & @ = # $ & & # $ $ + & * & = & & ",
"& & & & & & & & - & & & & & & & & & & ; & & ",
"> , ; - ' & ) , & ; ! , > > ; ; ; ! , ; & ' ",
"> ; ! - > ! > ; > ' ! ! ) ; > > > > ' > ) > ",
"~ > { { { > > > > > > > > > ~ { > > ] ] ~ > ",
"^ ] / ^ ( ( ~ / ( > ^ _ _ { ] / ^ ^ { > ( _ ",
"/ : < < < [ } / | 1 < 2 3 4 : < < < < 5 6 7 ",
"8 9 0 a b c d e 1 f b a g d h b a a a b i j ",
"k l m n o p q r s t o o u 8 v w n n n x y z ",
"A B C D < E F G H C I < < G G < J c K < G L ",
"M + N O < P q Q R S T U V W X Y Z c `  .....",
"| ! +.@.g #.E $.Q %.&.#.*.=.-.;.>.,.'.e ).).",
"| / !.~.P H B {.].^./.;.!.(._.;.:.<.[.e }.}.",
"|.1.2.` 3.4.5.6.7.8.S 9.0.a.b.c.d.e.f.e g.g.",
"h.7 &.i.: j.k.l.m.n.7.o.p.[ q.r.%.2.s.e t.7 ",
"7 b./.u.v.Q w.Q j _././.3 e 7 x.Q /.Q 7 y.7 ",
"z.7 A.7 B.C.7 z.D.y.B.7 y.D.L C.y.z.L L L A.",
"L z.L L L L L L y.L y.L C.y.D.L L L L B.L D.",
"E.E.E.F.E.L L G.L L L L L L H.L L E.L E.E.G.",
"I.H.L H.F.G.L J.E.G.F.K.F.J.E.L F.K.E.K.G.H.",
"F.F.F.F.J.F.F.F.F.I.F.F.F.J.F.I.F.G.F.G.F.F.",
"F.x.x.F.F.F.F.x.x.F.L.M.d N.F.F.L.F.L.x.F.F.",
"M.x.O.N.L.d P.d M.L.N.N.P.L.O.L.P.d M.d M.N."};
