/* XPM */
static char * menu_prelight_xpm[] = {
"22 25 172 2",
"  	c None",
". 	c #666666",
"+ 	c #454444",
"@ 	c #454545",
"# 	c #444545",
"$ 	c #454544",
"% 	c #444544",
"& 	c #444444",
"* 	c #454445",
"= 	c #444445",
"- 	c #434444",
"; 	c #444443",
"> 	c #434343",
", 	c #444344",
"' 	c #434443",
") 	c #434344",
"! 	c #444343",
"~ 	c #434342",
"{ 	c #424343",
"] 	c #434243",
"^ 	c #434242",
"/ 	c #424242",
"( 	c #424243",
"_ 	c #424342",
": 	c #303030",
"< 	c #222222",
"[ 	c #202020",
"} 	c #2E2E2E",
"| 	c #212120",
"1 	c #2E2E2F",
"2 	c #202120",
"3 	c #2C2B2B",
"4 	c #3D3D3D",
"5 	c #212121",
"6 	c #2F2E2E",
"7 	c #F0F0F0",
"8 	c #FFFFFF",
"9 	c #797979",
"0 	c #5B5C5C",
"a 	c #5C5B5C",
"b 	c #4D4D4D",
"c 	c #B5B5B5",
"d 	c #888888",
"e 	c #2F2F2F",
"f 	c #979797",
"g 	c #3F3F3F",
"h 	c #EBEBEB",
"i 	c #F9F9F9",
"j 	c #A3A3A3",
"k 	c #868585",
"l 	c #FAFAFA",
"m 	c #3C3C3C",
"n 	c #959595",
"o 	c #4C4C4C",
"p 	c #B1B1B1",
"q 	c #858686",
"r 	c #FBFBFB",
"s 	c #3E3F3F",
"t 	c #E1E1E1",
"u 	c #D0D0D0",
"v 	c #D4D4D4",
"w 	c #B9B9B9",
"x 	c #EEEEEE",
"y 	c #3B3B3B",
"z 	c #DEDEDE",
"A 	c #D6D6D6",
"B 	c #4B4A4A",
"C 	c #EFEFEF",
"D 	c #ABABAB",
"E 	c #818181",
"F 	c #4B4B4B",
"G 	c #909090",
"H 	c #F1F1F1",
"I 	c #3E3E3E",
"J 	c #212222",
"K 	c #D9D9D9",
"L 	c #B7B7B7",
"M 	c #D5D5D5",
"N 	c #ACACAC",
"O 	c #E3E3E3",
"P 	c #3A3A3A",
"Q 	c #CCCCCC",
"R 	c #7E7E7E",
"S 	c #E4E4E4",
"T 	c #7D7D7C",
"U 	c #E6E6E6",
"V 	c #4A4A4A",
"W 	c #8D8D8D",
"X 	c #E7E7E7",
"Y 	c #3E3D3E",
"Z 	c #CECECE",
"` 	c #ADADAD",
" .	c #A2A2A2",
"..	c #BBBBBB",
"+.	c #969696",
"@.	c #383838",
"#.	c #D8D8D8",
"$.	c #8F8F8F",
"%.	c #A9A9A9",
"&.	c #9C9B9C",
"*.	c #777877",
"=.	c #DCDCDC",
"-.	c #494949",
";.	c #2D2D2E",
">.	c #3D3D3E",
",.	c #C5C5C5",
"'.	c #A6A6A6",
").	c #252525",
"!.	c #232323",
"~.	c #919191",
"{.	c #CFCFCF",
"].	c #373737",
"^.	c #A5A5A5",
"/.	c #5A5A5A",
"(.	c #BFBFBF",
"_.	c #727272",
":.	c #D1D1D1",
"<.	c #474747",
"[.	c #838383",
"}.	c #D2D2D2",
"|.	c #2D2D2D",
"1.	c #A4A4A4",
"2.	c #29292A",
"3.	c #919091",
"4.	c #C4C4C4",
"5.	c #353536",
"6.	c #C1C1C1",
"7.	c #A1A1A1",
"8.	c #B3B3B3",
"9.	c #8E8E8E",
"0.	c #585858",
"a.	c #C6C6C6",
"b.	c #787979",
"c.	c #1F1F1F",
"d.	c #AEAEAE",
"e.	c #B2B2B2",
"f.	c #3F403F",
"g.	c #2A2A2A",
"h.	c #343535",
"i.	c #B8B8B8",
"j.	c #9D9D9D",
"k.	c #7D7D7D",
"l.	c #AAAAAA",
"m.	c #8A8A8A",
"n.	c #292929",
"o.	c #757474",
"p.	c #CACACA",
"q.	c #575757",
"r.	c #303031",
"s.	c #313232",
"t.	c #363635",
"u.	c #1E1F1F",
"v.	c #2C2C2C",
"w.	c #323232",
"x.	c #2B2B2B",
"y.	c #363636",
"z.	c #2C2B2C",
"A.	c #3E3E3F",
"B.	c #3F3E3F",
"C.	c #3F3F3E",
"D.	c #3E3F3E",
"E.	c #3F3E3E",
"F.	c #3E3E3D",
"G.	c #3D3E3D",
"H.	c #3E3D3D",
"I.	c #3D3E3E",
"J.	c #3D3C3D",
"K.	c #3C3D3D",
"L.	c #3C3D3C",
"M.	c #3D3D3C",
"N.	c #3C3C3D",
"O.	c #3D3C3C",
". . . . . . . . . . . . . . . . . . . . . . ",
"+ @ # $ @ $ $ $ % @ % & @ @ $ * * $ * * * = ",
"# $ & $ + & @ = # $ & & # $ $ + & * & = & & ",
"& & & & & & & & - & & & & & & & & & & ; & & ",
"> , ; - ' & ) , & ; ! , > > ; ; ; ! , ; & ' ",
"> ; ! - > ! > ; > ' ! ! ) ; > > > > ' > ) > ",
"~ > { { { > > > > > > > > > ~ { > > ] ] ~ > ",
"^ ] / ^ ( ( ~ / ( > ^ _ _ { ] / ^ ^ { > ( _ ",
": < [ } } [ | } [ [ } 1 2 3 } [ } 4 } 5 6 / ",
"< 7 8 9 0 8 8 4 8 8 a b 8 c d 8 b e f 8 e g ",
"< h i j k i l m l i n o l p q r o e n r e s ",
"< t u v w u x y x z A B C D E 7 F e G H } I ",
"J K L v M N O P O L Q R S j T U V e W X } Y ",
"5 Z `  ...+.K @.#.` $.%.M &.*.=.-.} d =.;.>.",
"5 ,.'.).!.~.{.].Q ^./.(.,.n _.:.<.} [.}.|.4 ",
"5 ..1.).2.3.4.5.6.7.5 8.c 9.0.a.b.c.d.e.!.f.",
"5 8.7.).g.9...h.i.j.).k.l.m.n.o.p.v N q.r.g ",
"} | ).s.t.n.u.v.c.).w.x.c.n.y.z.c.c.!.: A.g ",
"B.g s g C.D.g B.E.A.C.g A.E.I D.A.B.I I I s ",
"I B.I I I I I I A.I A.I D.A.E.I I I I C.I E.",
"F.F.F.4 F.I I >.I I I I I I Y I I F.I F.F.>.",
"G.Y I Y 4 >.I H.F.>.4 I.4 H.F.I 4 I.F.I.>.Y ",
"4 4 4 4 H.4 4 4 4 G.4 4 4 H.4 G.4 >.4 >.4 4 ",
"4 J.J.4 4 4 4 J.J.4 K.L.m M.4 4 K.4 K.J.4 4 ",
"L.J.N.M.K.m O.m L.K.M.M.O.K.N.K.O.m L.m L.M."};
