/* XPM */
static char * menu_pressed_xpm[] = {
"22 25 173 2",
"  	c None",
". 	c #666666",
"+ 	c #454444",
"@ 	c #454545",
"# 	c #444545",
"$ 	c #454544",
"% 	c #444544",
"& 	c #444444",
"* 	c #454445",
"= 	c #444445",
"- 	c #434444",
"; 	c #444443",
"> 	c #434343",
", 	c #444344",
"' 	c #434443",
") 	c #434344",
"! 	c #444343",
"~ 	c #434342",
"{ 	c #424343",
"] 	c #434243",
"^ 	c #434242",
"/ 	c #424242",
"( 	c #424243",
"_ 	c #424342",
": 	c #2D2D2D",
"< 	c #1C1C1C",
"[ 	c #1A1A1A",
"} 	c #2A2A2A",
"| 	c #2A2A2B",
"1 	c #272727",
"2 	c #3C3C3C",
"3 	c #2B2A2A",
"4 	c #949494",
"5 	c #9A9A9A",
"6 	c #505050",
"7 	c #3E3E3E",
"8 	c #9B9B9B",
"9 	c #2B2B2B",
"0 	c #353535",
"a 	c #9D9D9D",
"b 	c #717171",
"c 	c #585858",
"d 	c #9E9E9E",
"e 	c #363636",
"f 	c #2C2C2C",
"g 	c #626262",
"h 	c #232323",
"i 	c #3F3F3F",
"j 	c #7C7C7C",
"k 	c #7B7B7B",
"l 	c #5F5F5F",
"m 	c #7F7F7F",
"n 	c #282829",
"o 	c #5A5A5A",
"p 	c #323333",
"q 	c #838383",
"r 	c #616161",
"s 	c #4D4D4D",
"t 	c #868686",
"u 	c #333333",
"v 	c #2C2C2B",
"w 	c #888888",
"x 	c #232222",
"y 	c #3E3F3F",
"z 	c #767676",
"A 	c #656565",
"B 	c #727272",
"C 	c #787878",
"D 	c #282828",
"E 	c #6B6B6B",
"F 	c #797979",
"G 	c #313131",
"H 	c #5C5C5C",
"I 	c #4A4A4A",
"J 	c #818181",
"K 	c #565656",
"L 	c #828282",
"M 	c #222222",
"N 	c #1B1C1C",
"O 	c #818080",
"P 	c #676666",
"Q 	c #797878",
"R 	c #7A7A7A",
"S 	c #626161",
"T 	c #848383",
"U 	c #292929",
"V 	c #838282",
"W 	c #656464",
"X 	c #858484",
"Y 	c #636262",
"Z 	c #4E4E4E",
"` 	c #8A8989",
" .	c #343434",
"..	c #5B5B5B",
"+.	c #8B8A8A",
"@.	c #3E3D3E",
"#.	c #1B1B1B",
"$.	c #898989",
"%.	c #70706F",
"&.	c #6A6A6A",
"*.	c #8F8F8F",
"=.	c #8E8E8E",
"-.	c #6F6F6F",
";.	c #5F605F",
">.	c #8B8B8B",
",.	c #686868",
"'.	c #525352",
").	c #939393",
"!.	c #353635",
"~.	c #3D3D3E",
"{.	c #202020",
"].	c #1E1E1E",
"^.	c #6C6C6C",
"/.	c #2B2A2B",
"(.	c #989898",
"_.	c #8D8D8D",
":.	c #919191",
"<.	c #6E6E6E",
"[.	c #9C9C9C",
"}.	c #373737",
"|.	c #646464",
"1.	c #3D3D3D",
"2.	c #9C9B9B",
"3.	c #878787",
"4.	c #252525",
"5.	c #777777",
"6.	c #A4A3A3",
"7.	c #A1A1A1",
"8.	c #858685",
"9.	c #969595",
"0.	c #999898",
"a.	c #757474",
"b.	c #484848",
"c.	c #A5A4A4",
"d.	c #191919",
"e.	c #8E8D8D",
"f.	c #939292",
"g.	c #1D1E1D",
"h.	c #3F403F",
"i.	c #A3A2A2",
"j.	c #908F8F",
"k.	c #7E7D7D",
"l.	c #ABAAAA",
"m.	c #A9A8A8",
"n.	c #706F6F",
"o.	c #A2A1A1",
"p.	c #7B7A7A",
"q.	c #B3B2B2",
"r.	c #B8B7B7",
"s.	c #9B9A9A",
"t.	c #4C4B4B",
"u.	c #2D2D2E",
"v.	c #1B1B1A",
"w.	c #2F2F2F",
"x.	c #353534",
"y.	c #181919",
"z.	c #282728",
"A.	c #1D1D1D",
"B.	c #3E3E3F",
"C.	c #3F3E3F",
"D.	c #3F3F3E",
"E.	c #3E3F3E",
"F.	c #3F3E3E",
"G.	c #3E3E3D",
"H.	c #3D3E3D",
"I.	c #3E3D3D",
"J.	c #3D3E3E",
"K.	c #3D3C3D",
"L.	c #3C3D3D",
"M.	c #3C3D3C",
"N.	c #3D3D3C",
"O.	c #3C3C3D",
"P.	c #3D3C3C",
". . . . . . . . . . . . . . . . . . . . . . ",
"+ @ # $ @ $ $ $ % @ % & @ @ $ * * $ * * * = ",
"# $ & $ + & @ = # $ & & # $ $ + & * & = & & ",
"& & & & & & & & - & & & & & & & & & & ; & & ",
"> , ; - ' & ) , & ; ! , > > ; ; ; ! , ; & ' ",
"> ; ! - > ! > ; > ' ! ! ) ; > > > > ' > ) > ",
"~ > { { { > > > > > > > > > ~ { > > ] ] ~ > ",
"^ ] / ^ ( ( ~ / ( > ^ _ _ { ] / ^ ^ { > ( _ ",
": < [ } } [ [ } [ [ } | [ 1 } [ } 2 } [ 3 / ",
"< 4 5 6 7 8 8 9 8 8 7 0 a b c d e f g d h i ",
"< j k l 6 j m n m j o p q r s t u v c w x y ",
"< z A B . . C D C E F G j H I J u 9 K L M 7 ",
"N O P Q R S T U V W Q 6 X Y Z `  .9 ..+.M @.",
"#.$.%.&.F g *.} =.-.;.B >.,.'.).!.9 l 4 h ~.",
"#.).k {.].^.5 /.(.R @ _.:.<.K [.}.9 |.a h 1.",
"#.2.3.{.4.5.6.f 7.8.#.9.0.a.b.c.r d.e.f.g.h.",
"#.i.j.{.4.k.l.: m.e.{.n.o.p.4.,.q.r.s.t.u.i ",
"} v.{.w.x.4.y.D d.{.w.D d.4.0 z.d.d.A.: B.i ",
"C.i y i D.E.i C.F.B.D.i B.F.7 E.B.C.7 7 7 y ",
"7 C.7 7 7 7 7 7 B.7 B.7 E.B.F.7 7 7 7 D.7 F.",
"G.G.G.1.G.7 7 ~.7 7 7 7 7 7 @.7 7 G.7 G.G.~.",
"H.@.7 @.1.~.7 I.G.~.1.J.1.I.G.7 1.J.G.J.~.@.",
"1.1.1.1.I.1.1.1.1.H.1.1.1.I.1.H.1.~.1.~.1.1.",
"1.K.K.1.1.1.1.K.K.1.L.M.2 N.1.1.L.1.L.K.1.1.",
"M.K.O.N.L.2 P.2 M.L.N.N.P.L.O.L.P.2 M.2 M.N."};
