/* XPM */
static char * menu_active_xpm[] = {
"22 25 169 2",
"  	c None",
". 	c #666666",
"+ 	c #454444",
"@ 	c #454545",
"# 	c #444545",
"$ 	c #454544",
"% 	c #444544",
"& 	c #444444",
"* 	c #454445",
"= 	c #444445",
"- 	c #434444",
"; 	c #444443",
"> 	c #434343",
", 	c #444344",
"' 	c #434443",
") 	c #434344",
"! 	c #444343",
"~ 	c #434342",
"{ 	c #424343",
"] 	c #434243",
"^ 	c #434242",
"/ 	c #424242",
"( 	c #424243",
"_ 	c #424342",
": 	c #303030",
"< 	c #222222",
"[ 	c #202020",
"} 	c #2E2E2E",
"| 	c #212120",
"1 	c #2E2E2F",
"2 	c #202120",
"3 	c #2C2B2B",
"4 	c #3D3D3D",
"5 	c #212121",
"6 	c #2F2E2E",
"7 	c #DFDFDF",
"8 	c #ECECEC",
"9 	c #737272",
"0 	c #575858",
"a 	c #3B3B3B",
"b 	c #585758",
"c 	c #4A4A4A",
"d 	c #EDEDED",
"e 	c #A9A9A9",
"f 	c #808080",
"g 	c #EEEEEE",
"h 	c #4A4B4B",
"i 	c #2F2F2F",
"j 	c #8F8F8F",
"k 	c #3F3F3F",
"l 	c #CACACA",
"m 	c #D1D1D1",
"n 	c #929291",
"o 	c #797979",
"p 	c #D2D2D2",
"q 	c #D4D4D4",
"r 	c #383838",
"s 	c #878687",
"t 	c #474848",
"u 	c #D7D7D7",
"v 	c #9B9B9B",
"w 	c #767676",
"x 	c #D9D9D9",
"y 	c #484848",
"z 	c #868686",
"A 	c #DADADA",
"B 	c #2E2D2D",
"C 	c #3E3F3F",
"D 	c #BABABA",
"E 	c #A5A5A5",
"F 	c #B1B1B1",
"G 	c #9C9C9C",
"H 	c #A6A6A6",
"I 	c #C1C1C1",
"J 	c #363636",
"K 	c #AFAFAF",
"L 	c #B6B6B6",
"M 	c #C4C4C4",
"N 	c #8E8E8E",
"O 	c #6F6F6F",
"P 	c #C8C8C8",
"Q 	c #464646",
"R 	c #7F7F7F",
"S 	c #C9C9C9",
"T 	c #2D2D2D",
"U 	c #3E3E3E",
"V 	c #212222",
"W 	c #B3B3B3",
"X 	c #929292",
"Y 	c #ABABAB",
"Z 	c #ADADAD",
"` 	c #898989",
" .	c #B9B9B9",
"..	c #353535",
"+.	c #B8B8B8",
"@.	c #909090",
"#.	c #6D6D6D",
"$.	c #888888",
"%.	c #6B6B6B",
"&.	c #BFBFBF",
"*.	c #7B7B7B",
"=.	c #2D2C2D",
"-.	c #3E3D3E",
";.	c #8A8A89",
">.	c #828181",
",.	c #949494",
"'.	c #B0B0B0",
").	c #343434",
"!.	c #8C8C8C",
"~.	c #828182",
"{.	c #B5B5B5",
"].	c #B7B7B7",
"^.	c #2C2C2C",
"/.	c #3D3D3E",
"(.	c #A2A2A2",
"_.	c #252525",
":.	c #232323",
"<.	c #777777",
"[.	c #333233",
"}.	c #858585",
"|.	c #4E4E4E",
"1.	c #9A9A9A",
"2.	c #626262",
"3.	c #ACACAC",
"4.	c #727272",
"5.	c #AEAEAE",
"6.	c #2B2B2B",
"7.	c #29292A",
"8.	c #A0A0A0",
"9.	c #323232",
"0.	c #838383",
"a.	c #4D4D4D",
"b.	c #A3A3A3",
"c.	c #1F1F1F",
"d.	c #939393",
"e.	c #949393",
"f.	c #3F403F",
"g.	c #2A2A2A",
"h.	c #787878",
"i.	c #989898",
"j.	c #303131",
"k.	c #818181",
"l.	c #676867",
"m.	c #828282",
"n.	c #737373",
"o.	c #292929",
"p.	c #636363",
"q.	c #4C4C4C",
"r.	c #303031",
"s.	c #313232",
"t.	c #363635",
"u.	c #1E1F1F",
"v.	c #2C2B2C",
"w.	c #3E3E3F",
"x.	c #3F3E3F",
"y.	c #3F3F3E",
"z.	c #3E3F3E",
"A.	c #3F3E3E",
"B.	c #3E3E3D",
"C.	c #3D3E3D",
"D.	c #3E3D3D",
"E.	c #3D3E3E",
"F.	c #3D3C3D",
"G.	c #3C3D3D",
"H.	c #3C3D3C",
"I.	c #3C3C3C",
"J.	c #3D3D3C",
"K.	c #3C3C3D",
"L.	c #3D3C3C",
". . . . . . . . . . . . . . . . . . . . . . ",
"+ @ # $ @ $ $ $ % @ % & @ @ $ * * $ * * * = ",
"# $ & $ + & @ = # $ & & # $ $ + & * & = & & ",
"& & & & & & & & - & & & & & & & & & & ; & & ",
"> , ; - ' & ) , & ; ! , > > ; ; ; ! , ; & ' ",
"> ; ! - > ! > ; > ' ! ! ) ; > > > > ' > ) > ",
"~ > { { { > > > > > > > > > ~ { > > ] ] ~ > ",
"^ ] / ^ ( ( ~ / ( > ^ _ _ { ] / ^ ^ { > ( _ ",
": < [ } } [ | } [ [ } 1 2 3 } [ } 4 } 5 6 / ",
"< 7 8 9 0 8 8 a 8 8 b c d e f g h i j g } k ",
"< l m n o p q r q p s t u v w x y i z A B C ",
"< D E F G H I J I K L + M N O P Q i R S T U ",
"V W X Y Z `  ...+.@.e #.D $.%.&.* i *.I =.-.",
"5 Y ;.>.,.o '.).K ` w !.Y ~.. {.' } w ].^./.",
"5 (.z _.:.<.e [.E }.|.1.1.*.2.3./ } 4.5.6.4 ",
"5 1.$._.7.o 8.9.G 0.5 @.!.w a.b.%.c.d.e.:.f.",
"5 d.z _.g.h.i.j.,.k._.l.m.n.o.p.e {.j q.r.k ",
"} | _.s.t.o.u.^.c._.9.6.c.o.J v.c.c.:.: w.k ",
"x.k C k y.z.k x.A.w.y.k w.A.U z.w.x.U U U C ",
"U x.U U U U U U w.U w.U z.w.A.U U U U y.U A.",
"B.B.B.4 B.U U /.U U U U U U -.U U B.U B.B./.",
"C.-.U -.4 /.U D.B./.4 E.4 D.B.U 4 E.B.E./.-.",
"4 4 4 4 D.4 4 4 4 C.4 4 4 D.4 C.4 /.4 /.4 4 ",
"4 F.F.4 4 4 4 F.F.4 G.H.I.J.4 4 G.4 G.F.4 4 ",
"H.F.K.J.G.I.L.I.H.G.J.J.L.G.K.G.L.I.H.I.H.J."};
