/* XPM */
static char * title_4_active_xpm[] = {
"3 25 38 1",
" 	c #666666",
".	c #454444",
"+	c #454545",
"@	c #444545",
"#	c #454544",
"$	c #444444",
"%	c #434343",
"&	c #444344",
"*	c #444443",
"=	c #444343",
"-	c #434342",
";	c #424343",
">	c #434242",
",	c #434243",
"'	c #424242",
")	c #414141",
"!	c #414242",
"~	c #424141",
"{	c #414142",
"]	c #404141",
"^	c #414040",
"/	c #404040",
"(	c #414140",
"_	c #403F40",
":	c #3F4040",
"<	c #3F3F3F",
"[	c #3F403F",
"}	c #3F3F3E",
"|	c #3F3E3F",
"1	c #3E3F3F",
"2	c #3E3E3E",
"3	c #3E3E3D",
"4	c #3D3E3D",
"5	c #3E3D3E",
"6	c #3D3D3D",
"7	c #3D3C3D",
"8	c #3C3D3C",
"9	c #3C3C3D",
"   ",
".+@",
"@#$",
"$$$",
"%&*",
"%*=",
"-%;",
">,'",
"'''",
"')!",
"~~)",
"{))",
"]^/",
"/^(",
"///",
"_/_",
":<[",
"<}<",
"|<1",
"2|2",
"333",
"452",
"666",
"677",
"879"};
