/* XPM */
static char *desktop[] = {
/* columns rows colors chars-per-pixel */
"16 16 149 2",
"   c #56305A",
".  c #593C59",
"X  c #5D2C71",
"o  c #5E2C73",
"O  c #5F2C74",
"+  c #653661",
"@  c #612D75",
"#  c #633370",
"$  c #6B307D",
"%  c #6D307E",
"&  c #7F3E7D",
"*  c #474448",
"=  c #4F4D4F",
"-  c #4F4F4F",
";  c #50404E",
":  c #595859",
">  c #674563",
",  c #6C4464",
"<  c #6A4A6D",
"1  c #625A65",
"2  c #606060",
"3  c #666266",
"4  c #6A6A6A",
"5  c #747474",
"6  c #787278",
"7  c #797979",
"8  c #7B7B7B",
"9  c #7D7D7D",
"0  c #806C7F",
"q  c #D1A85F",
"w  c #D9B97D",
"e  c #713181",
"r  c #753385",
"t  c #773386",
"y  c #783484",
"u  c #7C358B",
"i  c #7D358B",
"p  c #7E358C",
"a  c #833B84",
"s  c #80368E",
"d  c #81368E",
"f  c #8A3F8A",
"g  c #853690",
"h  c #8B3890",
"j  c #893894",
"k  c #8A3996",
"l  c #8C3997",
"z  c #913A9A",
"x  c #913B9B",
"c  c #943E99",
"v  c #963F9B",
"b  c #933B9C",
"n  c #943B9D",
"m  c #953C9E",
"M  c #973CA0",
"N  c #983DA0",
"B  c #9E3FA5",
"V  c #824A82",
"C  c #8C5781",
"Z  c #A65B9D",
"A  c #A041A6",
"S  c #A344A8",
"D  c #A445A9",
"F  c #A546A9",
"G  c #A647AA",
"H  c #A747AA",
"J  c #A949AC",
"K  c #A757A3",
"L  c #A659A2",
"P  c #B459AF",
"I  c #AF4FB0",
"U  c #B252B1",
"Y  c #B252B2",
"T  c #B253B2",
"R  c #B353B2",
"E  c #B353B3",
"W  c #BA59B7",
"Q  c #BA5AB7",
"!  c #BE5EBA",
"~  c #9770A7",
"^  c #9870A8",
"/  c #9971A8",
"(  c #9C72AB",
")  c #9E72AC",
"_  c #A861A3",
"`  c #B679BE",
"'  c #C05FBB",
"]  c #C96DBF",
"[  c #CA6FBF",
"{  c #B879C0",
"}  c #BE7BC4",
"|  c #BE7CC5",
" . c #C17FC7",
".. c #D07FC0",
"X. c #818181",
"o. c #868686",
"O. c #898989",
"+. c #8A8A8A",
"@. c #8D8D8D",
"#. c #8F8F8F",
"$. c #919191",
"%. c #939393",
"&. c #949494",
"*. c #979797",
"=. c #989898",
"-. c #9C9C9C",
";. c #A788B3",
":. c #B080B7",
">. c #B280B9",
",. c #A1A1A1",
"<. c #A5A5A5",
"1. c #A9A9A9",
"2. c #AEAEAE",
"3. c #B2B2B2",
"4. c #B3B3B3",
"5. c #B6B6B6",
"6. c #B7B7B7",
"7. c #BDBDBD",
"8. c #BA95C7",
"9. c #C482C9",
"0. c #C582C9",
"q. c #C986CC",
"w. c #CA87CD",
"e. c #CA88CD",
"r. c #D181C0",
"t. c #CF8CD0",
"y. c #CF8DD0",
"u. c #D28ED2",
"i. c #D28FD2",
"p. c #D591D3",
"a. c #D097D8",
"s. c #D59CDA",
"d. c #DAA1DE",
"f. c #DFA5E1",
"g. c #E1AAE2",
"h. c #C1C1C1",
"j. c #C4C4C4",
"k. c #C8C8C8",
"l. c #CBCBCB",
"z. c #CFCFCF",
"x. c #D2D2D2",
"c. c #D6D6D6",
"v. c #D9D9D9",
"b. c #DFDFDF",
"n. c #E1E1E1",
"m. c #EFEFEF",
"M. c #FDFDFD",
"N. c #FFFFFF",
"B. c None",
/* pixels */
"B.6.6.6.6.6.6.6.6.6.6.6.6.6.6.B.",
"3.n.N.N.N.N.N.N.N.N.N.N.N.N.n.3.",
"2.m.;.8.8.~ ~ ^ ~ ^ ^ ~ ~ ;.m.2.",
"1.b.~ 8.8.~ ) ) ) ^ ^ ^ ~ ~ b.1.",
"<.v.o O $ r i p d i r % @ X @.$.",
",.c.@ w w k b M m n l d # 1 2 - ",
"-.x.e q q B S G H G c < 4 * 8 *.",
"*.z.i x A J I R U V 6 =   r z.-.",
"%.l.j 2.2.U Q L 0 : . a h h k.%.",
"#.k.x O.O.Q _ 4 . + & f c c k.#.",
"O.j.m G U L , , 0 Z P R J m j.O.",
"o.h.c F U ' [ [ [ [ ' R J m h.o.",
"X.7.` a.s.d.p.g.g.f.y.q. .` 7.X.",
"9 6.` } 0.q.y.i.i.y.e.0. .` 5.8 ",
"7 %.3.5.5.5.5.5.5.5.5.5.5.4.&.7 ",
"B.5 5 5 5 5 5 5 5 5 5 5 5 5 5 B."
};
