/* XPM */
static char *gnome_term[] = {
/* columns rows colors chars-per-pixel */
"32 32 54 1",
"  c #000000",
". c #070608",
"X c #080709",
"o c #0D0C0E",
"O c #0E0D10",
"+ c #110F13",
"@ c #121014",
"# c #161419",
"$ c #19161C",
"% c #1B181F",
"& c #1E1A21",
"* c #211D25",
"= c #241F28",
"- c #242027",
"; c #26212B",
": c #28232E",
"> c #2F2F2F",
", c #2C2631",
"< c #2F2835",
"1 c #302936",
"2 c #342D3B",
"3 c #313032",
"4 c #37303F",
"5 c #38303F",
"6 c #3A3242",
"7 c #4B4A4C",
"8 c #545454",
"9 c #5B5B5B",
"0 c #656565",
"q c #6B6B6B",
"w c #6D6B70",
"e c #706E71",
"r c #7E7E7E",
"t c #848484",
"y c #878788",
"u c #8B8B8B",
"i c #949494",
"p c #979798",
"a c #9B9B9B",
"s c #A5A5A5",
"d c #ABABAB",
"f c #B0AFB0",
"g c #B4B3B4",
"h c #B9B9B9",
"j c #C3C3C3",
"k c #CCCCCC",
"l c #CFCFD0",
"z c #D3D3D3",
"x c #DBDBDB",
"c c #E3E3E3",
"v c #E9E9E9",
"b c #F1F1F1",
"n c #FEFEFE",
"m c None",
/* pixels */
"mmmmmmmmmmmmmmmmmmmmmmmmmmmmmmmm",
"mmmmmmmmmmmmmmmmmmmmmmmmmmmmmmmm",
"mmmxvvvvvvvvvvvvvvvvvvvvvvvvxmmm",
"mmzcccccccccccccccvcccccccccczmm",
"mmvchyrrrrrrrrrrrrrrrrrrrrthcvmm",
"mmccyXooooooooooooooooooooXyccmm",
"mmcxto@@o@@@@@@o@@@@@@@@@@otxcmm",
"mmxxyo@@r&@@@@@@@@@@@@@@@@oyxcmm",
"mmxxyo@@xbp3@@@@@@@@@@@@@@oyxxmm",
"mmxxuo@@@7zn@@@@@@@@o@@o@@ouxxmm",
"mmxxu@@@txbp#########@@@@@ouxxmm",
"mmxzuo@@le-##$$%$$######@ooizxmm",
"mmxzio####%%nnnn&&%%&$###@oizxmm",
"mmzziO#%%%&&qqww**&%#@@OoX.izzmm",
"mmzza@$%&&----*&$#@@O+ooXX.izzmm",
"mmzka#&&----&%$$$$$##@+@oo.plzmm",
"mmkka$****&$$&&&&%%####++Ooaklmm",
"mmlks$*&$$$&&*&***&*&&###+Oaklmm",
"mmlks$$#&&***===---*&&&&#+Oaklmm",
"mmkjsO$$&&===;=,::;-&&&&$#Osjlmm",
"mmljs+&&&==::,,,,,::;-&&$$+sjkmm",
"mmkjd+&&*=::,<<1<<<,:;==&&+djkmm",
"mmjjd#&*=::<122222<<,:-&*$@djjmm",
"mmjjf#&=;:,12226622<<::-*&#djjmm",
"mmjhh@*==,<222666622<,:=*&+ghjmm",
"mmjhj&+@#+$&&**==*&$&##+++&jhjmm",
"mmhhjjkkkkkkkklllkkkkkkkkkjjhhmm",
"mmahhhhhhhhhhhhghhhhhhhhhghhhpmm",
"mm8usssdddddddgddfddddddssssi8mm",
"mm389900000qqqqqqqqqq00000098>mm",
"mmmm                        mmmm",
"mmmmmmmmmmmmmmmmmmmmmmmmmmmmmmmm"
};
