/* XPM */
static char *desktop[] = {
/* columns rows colors chars-per-pixel */
"48 48 247 2",
"   c #000000",
".  c #0A0A0A",
"X  c #0F161F",
"o  c #131414",
"O  c #11171E",
"+  c #1C1C1C",
"@  c #151E2A",
"#  c #1D222B",
"$  c #142235",
"%  c #1F2835",
"&  c #11253E",
"*  c #242424",
"=  c #25272C",
"-  c #26282C",
";  c #2B2B2B",
":  c #2E343D",
">  c #333333",
",  c #3C3C3C",
"<  c #152640",
"1  c #132945",
"2  c #192943",
"3  c #153155",
"4  c #1F3451",
"5  c #1B365B",
"6  c #2C394B",
"7  c #363D46",
"8  c #2A3B52",
"9  c #0B2C66",
"0  c #0C2D69",
"q  c #0F3067",
"w  c #0E316B",
"e  c #193A64",
"r  c #11336C",
"t  c #1B3E6B",
"y  c #0E357D",
"u  c #123573",
"i  c #143A75",
"p  c #1D3E70",
"a  c #163D7B",
"s  c #3F4142",
"d  c #394049",
"f  c #354254",
"g  c #3D4652",
"h  c #32445C",
"j  c #1D4374",
"k  c #17407D",
"l  c #18407D",
"z  c #1F487C",
"x  c #2D4465",
"c  c #294873",
"v  c #20497D",
"b  c #334C70",
"n  c #34517B",
"m  c #434345",
"M  c #4C4C4D",
"N  c #535353",
"B  c #545659",
"V  c #5D5D5D",
"C  c #5E5F60",
"Z  c #515D6F",
"A  c #646464",
"S  c #6D6D6D",
"D  c #6D7074",
"F  c #747474",
"G  c #7A7A7A",
"H  c #877F6D",
"J  c #A18045",
"K  c #B28D4C",
"L  c #A69574",
"P  c #C19B54",
"I  c #CCA96B",
"U  c #C2A570",
"Y  c #D6B477",
"T  c #D1B279",
"R  c #0F3781",
"E  c #0F3986",
"W  c #0F3B89",
"Q  c #123C83",
"!  c #103D8F",
"~  c #103E90",
"^  c #154085",
"/  c #154088",
"(  c #19458D",
")  c #144395",
"_  c #1B4B94",
"`  c #164799",
"'  c #17499B",
"]  c #1A4C9E",
"[  c #214C84",
"{  c #214E89",
"}  c #235087",
"|  c #23518D",
" . c #2A5188",
".. c #3E5885",
"X. c #3F5D89",
"o. c #245491",
"O. c #25569B",
"+. c #26599E",
"@. c #2A5C9D",
"#. c #325A92",
"$. c #325D99",
"%. c #3B649C",
"&. c #1B4FA1",
"*. c #1D52A5",
"=. c #1F55A8",
"-. c #2155A4",
";. c #265BA3",
":. c #2A5CA2",
">. c #2057A9",
",. c #225AAC",
"<. c #2A5EAB",
"1. c #255EB2",
"2. c #2B61AB",
"3. c #3C66A2",
"4. c #3C68A6",
"5. c #3365AF",
"6. c #3A67A9",
"7. c #3D6AAB",
"8. c #2761B5",
"9. c #2963B5",
"0. c #2E68B1",
"q. c #2A65B9",
"w. c #2D6ABE",
"e. c #3066B7",
"r. c #306AB2",
"t. c #3A69B0",
"y. c #336CBB",
"u. c #3A6EB9",
"i. c #3C72BC",
"p. c #405A86",
"a. c #4C638B",
"s. c #476592",
"d. c #496A96",
"f. c #416498",
"g. c #456A9E",
"h. c #4C6D9A",
"j. c #4F729E",
"k. c #57739B",
"l. c #4067A2",
"z. c #426AA3",
"x. c #456EA9",
"c. c #4772AD",
"v. c #4872AE",
"b. c #5175A2",
"n. c #5379A5",
"m. c #5072A8",
"M. c #4471B4",
"N. c #4975B4",
"B. c #4073BB",
"V. c #4A79BA",
"C. c #5577B1",
"Z. c #5A7BB4",
"A. c #5179B8",
"S. c #587CB8",
"D. c #2E6DC1",
"F. c #306FC3",
"G. c #3372C5",
"H. c #3B75C3",
"J. c #3E78C6",
"K. c #3375CA",
"L. c #3679CE",
"P. c #3D7AC8",
"I. c #377BD0",
"U. c #387DD2",
"Y. c #4276C0",
"T. c #447BC4",
"R. c #477FC9",
"E. c #7F858E",
"W. c #7F8899",
"Q. c #5680BE",
"!. c #5B83BC",
"~. c #6183B6",
"^. c #6487B8",
"/. c #718EB6",
"(. c #3A81D6",
"). c #3D85DA",
"_. c #3F88DE",
"`. c #4E80C6",
"'. c #4780C9",
"]. c #5685C5",
"[. c #5987C6",
"{. c #5787C8",
"}. c #5A8ACB",
"|. c #408ADF",
" X c #6089C4",
".X c #638ECA",
"XX c #6591CD",
"oX c #6C95CC",
"OX c #7593C4",
"+X c #7996C6",
"@X c #7697CA",
"#X c #7099CF",
"$X c #6793D1",
"%X c #6896D2",
"&X c #6A99D5",
"*X c #6C9CDA",
"=X c #729CD4",
"-X c #789FD2",
";X c #6EA0DD",
":X c #73A4DD",
">X c #78A5DB",
",X c #418CE2",
"<X c #71A4E2",
"1X c #78A7E0",
"2X c #74A9E7",
"3X c #7AA9E1",
"4X c #75ABEA",
"5X c #828282",
"6X c #8C8C8C",
"7X c #929393",
"8X c #90959E",
"9X c #9E9E9E",
"0X c #989EA5",
"qX c #8095B2",
"wX c #8D9DB2",
"eX c #9FA0A5",
"rX c #9AA2AE",
"tX c #A4A4A5",
"yX c #ACACAC",
"uX c #A3AAB5",
"iX c #AFB0B2",
"pX c #B3B3B3",
"aX c #B3B7BC",
"sX c #B5B8BC",
"dX c #BABABA",
"fX c #809BC9",
"gX c #92A8CD",
"hX c #85A8DA",
"jX c #8BAEDD",
"kX c #94ABD2",
"lX c #8CB0DF",
"zX c #82ADE1",
"xX c #89AFE0",
"cX c #8CB2E2",
"vX c #8FB8EA",
"bX c #90B6E6",
"nX c #91B8E7",
"mX c #93BCED",
"MX c #B7C0CC",
"NX c #C4C4C4",
"BX c #C5C6C8",
"VX c #CBCBCB",
"CX c #D3D3D3",
"ZX c #DBDBDB",
"AX c #E3E3E3",
"SX c #ECECEC",
"DX c None",
/* pixels */
"DXDXDXDXDXDXDXDXDXDXDXDXDXDXDXDXDXDXDXDXDXDXDXDXDXDXDXDXDXDXDXDXDXDXDXDXDXDXDXDXDXDXDXDXDXDXDXDX",
"DXDXDXDXDXDXDXDXDXDXDXDXDXDXDXDXDXDXDXDXDXDXDXDXDXDXDXDXDXDXDXDXDXDXDXDXDXDXDXDXDXDXDXDXDXDXDXDX",
"DXDXDXDXDXDXDXDXDXDXDXDXDXDXDXDXDXDXDXDXDXDXDXDXDXDXDXDXDXDXDXDXDXDXDXDXDXDXDXDXDXDXDXDXDXDXDXDX",
"DXDXDXDXBXZXSXSXSXSXSXSXSXSXSXSXSXSXSXSXSXSXSXSXSXSXSXSXSXSXSXSXSXSXSXSXSXSXSXSXSXSXAXBXDXDXDXDX",
"DXDXDXdXAXAXAXAXAXAXAXAXAXAXAXAXAXAXAXAXAXAXSXSXSXSXSXSXSXSXSXSXSXSXSXSXSXSXSXSXSXSXSXSXpXDXDXDX",
"DXDXDXCXAXAXAXAXAXAXAXAXAXAXAXAXAXAXAXAXAXAXAXSXSXSXSXSXSXSXSXSXSXSXSXSXSXSXSXSXSXSXSXSXZXDXDXDX",
"DXDXDXSXAXAXZXNXyXyXyXyXyXyXyXyXyXyXyXyXyXyXyXyXpXyXyXyXyXyXpXyXyXyXyXyXpXyXyXyXVXSXSXSXSXDXDXDX",
"DXDXDXAXAXZXNXrXa.p...p.p.p.p.p...p.p.p.p.p...p.p.p.p.p.p.p.p.p.X.........a.X.a.rXVXSXSXAXDXDXDX",
"DXDXDXAXZXAXyXa.m.m.kXgXC.Z.Z.Z.Z.Z.Z.Z.Z.C.C.Z.cX:X;X;X;X;X;X:X:X;X;X;X:X;X:X%Xa.iXSXSXAXDXDXDX",
"DXDXDXAXZXAXpXp.C.S.kXkXS.+XfXfX+XOXOXOXOXOXS.S.lX:X1X1X>X:X:X:X:X<X:X>X:X:X:X;Xp.yXSXAXAXDXDXDX",
"DXDXDXAXZXZXpX..C.S.S.S.S.S.S.S.S.S.S.S.S.S.S.S.@XhX:X>X:X3X:X:X1X1X:X1X>X1X:X:Xp.pXAXVXCXDXDXDX",
"DXDXDXAXZXZXpX9 W ! ! ~ ~ ! ! ! ~ ~ ! ~ ~ ~ ! ! ! >X}.}.}.}.}.}.}.}.}.}.}.}.}.{.0 yXdXCXdXSX, > ",
"DXDXDXAXZXZXpX9 W ~ ! ! ! W ! ! ~ ! ! ~ ~ ! ! ! ! [.}.[.}.}.}.}.{.{.}.{.}.}.}.!.W.BXZXVXCXdXtXDX",
"DXDXDXAXCXZXdX0 W ! R y W W ! ~ ! ! ! ! ~ ~ ! ~ / @.#X[.}.}.[.].[.[.[.[.[.[.qXNXyXyXZXpX7XS 6XDX",
"DXDXDXZXZXCXdX0 W E H U L D W ~ ~ ~ ~ ~ ~ ) ) ) ) ) oX].}.[.].].].].].]./.sXaX0XCXNX9XF M * DXDX",
"DXDXDXAXCXZXdX0 W y T Y Y T y ~ ~ ) ) ` ) ` ) ) ` ) A.[.].].].].].].^.uXNX9XNXVXtXH V B pXDXDXDX",
"DXDXDXZXZXCXdXq W y Y K P I a ) ` ` ` ` ` ` ` ` ` ` *.oX]. XR. X!.wXBXtXpXCXyX6XA M 7XZXZXDXDXDX",
"DXDXDXZXCXCXdX9 W i J K K J W ` ` ] ' ] &.&.&.&.&.&.&. X].R.].S.aXpXtXZXdX7XS M & iXZXCXZXDXDXDX",
"DXDXDXZXCXCXMXq W / R E ^ Q ` ' ] &.&.&.*.&.*.&.&.&.*.B. X].~.0XtXCXNX9XG N f f.9 dXZXZXZXDXDXDX",
"DXDXDXZXCXCXdXq ) / a Q Q ^ ` *.&.&.*.*.*.*.=.=.*.=.*.>.XXg.C ZXVXyX5XV d X.N.x.9 dXZXZXZXDXDXDX",
"DXDXDXZXCXCXNXw ) E yX7X7XtX( *.-.=.=.>.>.,.=.,.,.>.,.-.6 o m 5X6XA m b v.v.N.M.q NXZXCXZXDXDXDX",
"DXDXDXCXVXCXNXw ) E NXBXdXaX( =.>.>.,.,.,.,.1.1.,.1.p ; ; o . > M h x.c.N.V.A.M.r dXCXCXCXDXDXDX",
"DXDXDXCXCXVXBXw _ / dXBXdXiX_ =.,.,.,.1.1.1.1.1.O.6 > + ; . @ b z.c.M.A.N.x.x.l.q dXVXVXCXDXDXDX",
"DXDXDXCXVXCXBXu ' ( 8XeXeXE._ =.1.1.1.1.1.q.1.x m , > o @ b x.N.V.V.V.l.l.l.z.%.r dXVXCXCXDXDXDX",
"DXDXDXCXVXVXVXu ] ] _ | _ _ =.8.8.9.9.9.q. .: m , ; = 5 O.2.[.`.V.%.f.%.3.4.6.%.r dXVXVXCXDXDXDX",
"DXDXDXCXVXVXVXi ] *.*.>.=.8.8.8.9.q.q.2.6 m s + = 8 O.<.8.;.x.%.$.%.3.3.3.4.6.3.r NXVXVXCXDXDXDX",
"DXDXDXCXVXVXVXi *.=.=.=.8.8.8.q.q.q.c m , - ; 2 o.@.+.| [ [ #.%.%.%.%.3.3.3.4.6.i VXCXCXCXDXDXDX",
"DXDXDXCXBXVXCXi =.=.=.8.8.8.9.q.+.g m > + $ j v ^ v [ { { } | %.3.7.4.7.M.i.B.7.i CXVXVXCXDXDXDX",
"DXDXDXCXBXVXVXa -.>.8.,.8.q.q.n B , - @ 3 j j z v } ( } o.;.2.T.R.T.T.Y.B.B.u.6.a VXVXCXCXDXDXDX",
"DXDXDXVXNXBXCXj *.,.2.8.9.2.Z M > # & e j j j v } @.r.F.K.K.G.J.'.Y.J.H.H.i.u.5.a CXVXVXVXDXDXDX",
"DXDXDXVXNXNXCXa >.8.8.8.%.N , # & e j j } @.r.G.(.L.I.L.K.K.K.D.R.J.Y.i.u.u.u.5.l CXVXBXVXDXDXDX",
"DXDXDXVXNXBXCXa =.=.8.;.7 % & j } @.0.G.(.(.(.(.(.(.(.U.I.L.K.K.P.P.H.F.H.y.r.5.l CXBXBXVXDXDXDX",
"DXDXDXVXNXNXCXl ;.1.9.q.1.9.F.G.K.K.I.U.(.(.).).).).).U.U.I.K.K.K.J.G.F.F.y.e.<.a ZXNXBXVXDXDXDX",
"DXDXDXVXNXNXCXl ,.1.9.q.w.D.F.G.K.I.I.U.).).).,X).).).).U.U.I.K.G.K.F.y.y.e.9.<.a ZXNXNXVXDXDXDX",
"DXDXDXVXNXNXZXl >.1.9.q.w.D.G.K.I.I.U.U.).).,X,X,X,X).).U.U.I.L.K.F.F.y.e.q.9.,.a ZXNXNXVXDXDXDX",
"DXDXDXBXdXNXZXs. XXX$X$X%X%X*X*X*X*X<X:X<X2X2X4X4X2X2X<X<X<X;X*X*X*X&X%X$XXXXX[.d.ZXNXdXBXDXDXDX",
"DXDXDXBXdXNXZXs.[.oXhXjXxXjXjX*XcXvXvXbXvX2XmXmXmXmXmX<X<X<X;X*X*X*X*X%X$X$XXX Xs.AXNXdXNXDXDXDX",
"DXDXDXNXdXdXZXk.Z.[.oX#X&X=X=X%X=X:X>X>X:X:X3X>X3X3X>X*X*X*X&X%X$X$XXXXX.X X XS.k.ZXdXNXNXDXDXDX",
"DXDXDXNXdXNXCXMXk.d.d.d.h.h.h.j.j.k.b.b.n.n.n.n.n.n.n.n.b.b.k.j.h.h.h.h.h.d.d.k.MXCXdXdXNXDXDXDX",
"DXDXDXNXdXdXNXCXAXAXAXAXAXAXAXAXAXAXAXAXAXAXAXAXAXAXAXAXAXAXAXAXAXAXAXAXAXAXAXAXCXdXdXdXNXDXDXDX",
"DXDXDXyXdXdXdXdXdXdXdXdXdXdXdXdXdXdXdXdXdXdXdXdXdXdXdXdXpXdXdXdXdXdXdXdXdXdXdXdXdXdXaXaXtXDXDXDX",
"DXDXDXG dXdXpXdXdXdXpXdXdXpXpXdXdXdXpXdXdXpXpXdXdXpXdXdXdXdXdXdXdXdXpXdXpXdXpXdXdXdXaXaXG DXDXDX",
"DXDXDXM H iXNXNXNXNXNXNXNXNXNXNXBXBXNXBXNXVXNXVXNXNXBXNXNXNXBXNXNXNXNXNXNXNXNXNXNXNXyXL M DXDXDX",
"DXDXDX, N C A S S S S F F F F F F F G G G G G G G G G G G G G F F S F F F S F S S A V N 7 DXDXDX",
"DXDXDX. , M N V V V C C C C C A A A A A S A A A A A S A A A A A A A V V C V V V V N M , . DXDXDX",
"DXDXDXDXDX                                                                            DXDXDXDXDX",
"DXDXDXDXDXDXDXDXDXDXDXDXDXDXDXDXDXDXDXDXDXDXDXDXDXDXDXDXDXDXDXDXDXDXDXDXDXDXDXDXDXDXDXDXDXDXDXDX",
"DXDXDXDXDXDXDXDXDXDXDXDXDXDXDXDXDXDXDXDXDXDXDXDXDXDXDXDXDXDXDXDXDXDXDXDXDXDXDXDXDXDXDXDXDXDXDXDX"
};
