/* XPM */
static char *desktop[] = {
/* columns rows colors chars-per-pixel */
"24 24 243 2",
"   c #000000",
".  c #232323",
"X  c #163147",
"o  c #373F46",
"O  c #374047",
"+  c #384148",
"@  c #1C4667",
"#  c #1C4768",
"$  c #1C4769",
"%  c #1D496A",
"&  c #1E496A",
"*  c #1E4A6C",
"=  c #1F4B6D",
"-  c #1F4B6E",
";  c #1F4C6E",
":  c #2D4A61",
">  c #2B4D68",
",  c #364F62",
"<  c #394F61",
"1  c #2A506E",
"2  c #245379",
"3  c #24567D",
"4  c #25577E",
"5  c #25577F",
"6  c #395972",
"7  c #325979",
"8  c #365A78",
"9  c #385D7B",
"0  c #385D7C",
"q  c #385E7D",
"w  c #3F607B",
"e  c #39607F",
"r  c #464646",
"t  c #454B4F",
"y  c #464B4E",
"u  c #4F5559",
"i  c #5A5A5A",
"p  c #5E5E5E",
"a  c #485A68",
"s  c #45657D",
"d  c #636364",
"f  c #676A6C",
"g  c #697279",
"h  c #747474",
"j  c #757A7D",
"k  c #D1A85F",
"l  c #D9B97D",
"z  c #255880",
"x  c #275982",
"c  c #275C86",
"v  c #285C84",
"b  c #285E88",
"n  c #29618D",
"m  c #2B628D",
"M  c #346183",
"N  c #3A6281",
"B  c #3B6383",
"V  c #3A6484",
"C  c #3C6484",
"Z  c #3D6686",
"A  c #3E6687",
"S  c #2E6691",
"D  c #2F6592",
"F  c #2D6692",
"G  c #2C6693",
"H  c #2F6792",
"J  c #2D6896",
"K  c #2E6997",
"L  c #326A97",
"P  c #326B98",
"I  c #316C99",
"U  c #316D9B",
"Y  c #366E99",
"T  c #316D9D",
"R  c #326F9F",
"E  c #336F9F",
"W  c #33709F",
"Q  c #3370A1",
"!  c #3371A1",
"~  c #3471A1",
"^  c #3574A5",
"/  c #3A74A1",
"(  c #3776A8",
")  c #3777A8",
"_  c #3877A8",
"`  c #3879AB",
"'  c #397AAD",
"]  c #3B7BAE",
"[  c #3C7CAD",
"{  c #3D7FAF",
"}  c #466783",
"|  c #476884",
" . c #476885",
".. c #5C7182",
"X. c #52728E",
"o. c #4D7594",
"O. c #4C7696",
"+. c #4378A3",
"@. c #4A7BA3",
"#. c #407DAC",
"$. c #517EA3",
"%. c #3C80B4",
"&. c #3D81B5",
"*. c #3E82B6",
"=. c #3F84B9",
"-. c #4981AC",
";. c #5484A8",
":. c #5083AC",
">. c #5B86A9",
",. c #4483B4",
"<. c #4C86B3",
"1. c #4288BF",
"2. c #4689BE",
"3. c #4F8AB9",
"4. c #4D8BBD",
"5. c #5388B1",
"6. c #5489B4",
"7. c #668AAA",
"8. c #628AAC",
"9. c #6A8CAA",
"0. c #728FA7",
"q. c #608FB2",
"w. c #668EB0",
"e. c #6A92B3",
"r. c #6D92B3",
"t. c #6991B4",
"y. c #6994B8",
"u. c #6D98BE",
"i. c #7096B7",
"p. c #759ABA",
"a. c #7A9FBD",
"s. c #7E9FBE",
"d. c #4289C0",
"f. c #448AC2",
"g. c #448CC3",
"h. c #458DC4",
"j. c #458DC5",
"k. c #468EC7",
"l. c #4A8DC0",
"z. c #4790C8",
"x. c #4790C9",
"c. c #4892CB",
"v. c #5993C0",
"b. c #4A95D0",
"n. c #4A96D0",
"m. c #4B96D1",
"M. c #4B97D1",
"N. c #4F9CD8",
"B. c #4F9CD9",
"V. c #6F9CC3",
"C. c #73A0C7",
"Z. c #73A1C8",
"A. c #76A5CD",
"S. c #76A8D1",
"D. c #78A9D3",
"F. c #79A9D3",
"G. c #79ACD7",
"H. c #7BAED8",
"J. c #7BAED9",
"K. c #7EB2DE",
"L. c #898989",
"P. c #8D8D8D",
"I. c #8A9095",
"U. c #87939D",
"Y. c #939393",
"T. c #959595",
"R. c #959596",
"E. c #979797",
"W. c #999A9B",
"Q. c #9F9F9F",
"!. c #969EA4",
"~. c #82A1BC",
"^. c #A0A0A0",
"/. c #A3A3A3",
"(. c #A4A5A5",
"). c #A5A5A5",
"_. c #A6A6A6",
"`. c #A4A6A8",
"'. c #AAAAAA",
"]. c #AEAEAE",
"[. c #AFAFAF",
"{. c #B1B1B1",
"}. c #B2B2B2",
"|. c #B4B4B4",
" X c #B9B9B9",
".X c #BABABA",
"XX c #BDBDBD",
"oX c #BEBEBE",
"OX c #BFBFBF",
"+X c #81A2C0",
"@X c #85A5C3",
"#X c #86A5C3",
"$X c #86A6C3",
"%X c #87A6C4",
"&X c #8AAAC3",
"*X c #8FACC5",
"=X c #84ABCC",
"-X c #86AFCF",
";X c #8EADCA",
":X c #8FADCA",
">X c #8DB3D2",
",X c #88B2D5",
"<X c #8BB5D9",
"1X c #8DB8DC",
"2X c #90B7D7",
"3X c #A5BDD4",
"4X c #A9BFD4",
"5X c #80B7E3",
"6X c #80B7E4",
"7X c #8FBAE0",
"8X c #95BEE1",
"9X c #C2C2C2",
"0X c #C3C3C3",
"qX c #C3C3C4",
"wX c #C3C4C4",
"eX c #C4C4C4",
"rX c #C5C5C5",
"tX c #C7C7C7",
"yX c #C9C9C9",
"uX c #CACACA",
"iX c #CBCBCB",
"pX c #CBCBCC",
"aX c #CCCCCC",
"sX c #CECECE",
"dX c #CFCFCF",
"fX c #D3D3D3",
"gX c #D4D4D4",
"hX c #D7D7D7",
"jX c #D9D9D9",
"kX c #DBDBDB",
"lX c #DCDCDC",
"zX c #DEDEDE",
"xX c #E2E2E2",
"cX c #E2E3E3",
"vX c #E3E3E3",
"bX c #E4E4E4",
"nX c #E6E6E6",
"mX c #E7E7E7",
"MX c #E8E8E8",
"NX c #EAEAEA",
"BX c #EDEDED",
"VX c #F2F2F2",
"CX c None",
/* pixels */
"CXCXCXCXCXCXCXCXCXCXCXCXCXCXCXCXCXCXCXCXCXCXCXCX",
"CXCXCXCXCXCXCXCXCXCXCXCXCXCXCXCXCXCXCXCXCXCXCXCX",
"CXCXCXBXVXVXVXVXVXVXVXVXVXVXVXVXVXVXVXVXBXCXCXCX",
"CXCXnXqXT.T.T.T.T.T.T.T.T.T.T.T.T.T.T.T.wXnXCXCX",
"CXCXBXW.s 7 } } 8 8 8 8 8 8 8 8 8 8 8 w W.BXCXCX",
"CXCXMXQ.8 8.*X*Xw.w.w.w.4X%X#X%X#X#Xs.8 E.mXCXCX",
"CXCXMX(.8 8.p.p.t.t.t.t.3X:X:X:X:X:X~...tX}.. CX",
"CXCXnX'.@ c z z b n n n >.+Xi.i.r.0.!.(.Y.i CXCX",
"CXCXxX[.@ 3 l l 5 n n n D &Xe.9.U.`.(.d r _.CXCX",
"CXCXzX|.# 3 k k z G J K K a.7.I.[.h o X (.lXCXCX",
"CXCXkX X# 5 2 5 m T W ~ ~ X.j P.t < o.@  XzXCXCX",
"CXCXhXoX# 5 ].].G ^ _ Y a p o , O.;.$.$ oXgXCXCX",
"CXCXgXwX@ z L.L.P _ 6 f + > q.6.5.:.@.$ eXgXCXCX",
"CXCXdXyX% G L L M g t > [ =.v.4.<.-.+.- uXdXCXCX",
"CXCXaXsX- U ~ s u : { h.h.h.l.4.,.{ / $ dXuXCXCX",
"CXCXtXfX- P V 7 [ f.c.m.m.c.h.f.{ ` T 1 gXtXCXCX",
"CXCX0XjX1 R ( &.d.z.m.N.N.m.x.d.*.' ~ - jXeXCXCX",
"CXCXOXzX7 u.Z.A.F.J.K.5X6XK.J.F.A.Z.u.0 zX4XCXCX",
"CXCXoXcX9 y.=X>X,XS.1X8X7XH.<X2X-XV.y.0 bXoXCXCX",
"CXCX XcX} 0 N N N C Z Z A Z V N N N 0 } bXoXCXCX",
"CXCX^.pXcXnXnXnXnXnXnXnXnXnXnXnXmXmXmXbXiX^.CXCX",
"CXCXr /.9XqXrXtXyXyXsXsXsXsXyXyXtXeXeXeX/.r CXCX",
"CXCXCXCX                                CXCXCXCX",
"CXCXCXCXCXCXCXCXCXCXCXCXCXCXCXCXCXCXCXCXCXCXCXCX"
};
