/* XPM */
static char *desktop[] = {
/* columns rows colors chars-per-pixel */
"32 32 198 2",
"   c #000000",
".  c #171717",
"X  c #171718",
"o  c #181819",
"O  c #1E242C",
"+  c #142237",
"@  c #12243B",
"#  c #1C2939",
"$  c #2B2C2D",
"%  c #202833",
"&  c #2D2E30",
"*  c #222C39",
"=  c #2F3339",
"-  c #313131",
";  c #34393E",
":  c #3A3A3A",
">  c #142E50",
",  c #1E3657",
"<  c #3A3F47",
"1  c #193A64",
"2  c #314158",
"3  c #3B4759",
"4  c #1F4474",
"5  c #364964",
"6  c #3F4D66",
"7  c #264673",
"8  c #20497D",
"9  c #2C4A7C",
"0  c #324D78",
"q  c #3C5173",
"w  c #46484C",
"e  c #4C4C4D",
"r  c #424C5B",
"t  c #4D5055",
"y  c #545454",
"u  c #5C5C5C",
"i  c #404B60",
"p  c #4B566C",
"a  c #50596B",
"s  c #475A73",
"d  c #42587B",
"f  c #646464",
"g  c #6B6B6B",
"h  c #696D74",
"j  c #797979",
"k  c #7F807F",
"l  c #B7934F",
"z  c #B89450",
"x  c #9D927E",
"c  c #D1AE6D",
"v  c #D3AF70",
"b  c #0F3884",
"n  c #143D84",
"m  c #103D8E",
"M  c #123F91",
"N  c #14408C",
"B  c #144293",
"V  c #1A4996",
"C  c #164698",
"Z  c #17489B",
"A  c #1A4C9D",
"S  c #1E509C",
"D  c #214B82",
"F  c #224E8A",
"G  c #24518A",
"H  c #325282",
"J  c #385682",
"K  c #3D5B87",
"L  c #264D90",
"P  c #2D5795",
"I  c #245699",
"U  c #29539D",
"Y  c #25589E",
"T  c #2C5C9B",
"R  c #345B95",
"E  c #345D9E",
"W  c #3C649C",
"Q  c #1A4EA1",
"!  c #1D52A4",
"~  c #1F56A9",
"^  c #2254A1",
"/  c #275AA3",
"(  c #2B5CA3",
")  c #2057AA",
"_  c #235AAD",
"`  c #285EA9",
"'  c #245EB1",
"]  c #3D66A3",
"[  c #3663AA",
"{  c #2661B5",
"}  c #2B64B3",
"|  c #2965B8",
" . c #2D69BD",
".. c #306AB6",
"X. c #3F6EB0",
"o. c #336DBC",
"O. c #3B6FBA",
"+. c #3B72BE",
"@. c #486597",
"#. c #42659A",
"$. c #6D798A",
"%. c #797E86",
"&. c #4169A4",
"*. c #406DAB",
"=. c #4671AE",
"-. c #5274A5",
";. c #5374AB",
":. c #557BAC",
">. c #4672B1",
",. c #4975B6",
"<. c #4C79B7",
"1. c #4070B8",
"2. c #4C7ABD",
"3. c #587FB1",
"4. c #567EBA",
"5. c #587CB8",
"6. c #607CA2",
"7. c #2F6FC3",
"8. c #316DC0",
"9. c #3472C5",
"0. c #3D75C3",
"q. c #3E79C6",
"w. c #3375CA",
"e. c #3679CD",
"r. c #3D79C9",
"t. c #377BD0",
"y. c #397ED3",
"u. c #427AC6",
"i. c #5A83B5",
"p. c #5E80BA",
"a. c #7587A2",
"s. c #7B8EAA",
"d. c #6F8BB2",
"f. c #6486BD",
"g. c #728DBA",
"h. c #3B82D7",
"j. c #3D85DA",
"k. c #4F80C6",
"l. c #4980C9",
"z. c #5684C5",
"x. c #5285CB",
"c. c #5488CE",
"v. c #5989CA",
"b. c #4089DF",
"n. c #568CD2",
"m. c #598FD5",
"M. c #5C94DB",
"N. c #628DC7",
"B. c #6D8CC1",
"V. c #648FC9",
"C. c #6490C9",
"Z. c #6A94CD",
"A. c #7895C6",
"S. c #729ACE",
"D. c #6595D2",
"F. c #6B97D2",
"G. c #6C9CD9",
"H. c #6EA0DE",
"J. c #74A4DF",
"K. c #5F9AE1",
"L. c #619DE5",
"P. c #64A1E8",
"I. c #71A5E3",
"U. c #7CADE8",
"Y. c #868686",
"T. c #8B8B8B",
"R. c #969696",
"E. c #9C9C9C",
"W. c #959BA5",
"Q. c #9CA2AF",
"!. c #9EA5B1",
"~. c #A5A5A5",
"^. c #A5A6A9",
"/. c #AAAAAA",
"(. c #A1A7B0",
"). c #A3A9B5",
"_. c #AAAEB5",
"`. c #A6ADBA",
"'. c #ABB1BC",
"]. c #B4B4B5",
"[. c #B6B9BD",
"{. c #B9B9B9",
"}. c #84AADC",
"|. c #ADB5C2",
" X c #B1B9C6",
".X c #8AB3E6",
"XX c #8BB6E9",
"oX c #8CB8EB",
"OX c #90BAED",
"+X c #BCC2CC",
"@X c #C3C3C3",
"#X c #CCCCCC",
"$X c #CFD2D6",
"%X c #D4D4D4",
"&X c #DADADA",
"*X c #E3E3E3",
"=X c #EBEBEB",
"-X c None",
/* pixels */
"-X-X-X-X-X-X-X-X-X-X-X-X-X-X-X-X-X-X-X-X-X-X-X-X-X-X-X-X-X-X-X-X",
"-X-X-X-X-X-X-X-X-X-X-X-X-X-X-X-X-X-X-X-X-X-X-X-X-X-X-X-X-X-X-X-X",
"-X-X-X&X=X*X=X=X=X=X=X=X=X=X*X=X=X=X=X=X=X=X=X=X=X=X=X=X*X-X-X-X",
"-X-X%X*X*X*X*X*X*X*X*X*X*X*X*X=X=X=X=X=X=X=X=X=X=X=X=X=X=X*X-X-X",
"-X-X*X*X#X_.(.(.).).^.).!.^.(.(.`.(.(.(.(.(.!.(.(.(.'.%X=X=X-X-X",
"-X-X*X*X_.@.;.g.;.;.;.;.;.;.;.;.S.C.C.C.C.C.C.C.V.V.:.].=X=X-X-X",
"-X-X*X&X).;.p.A.5.B.B.B.B.B.f.5.}.J.J.J.J.J.J.J.J.J.V.(.*X*X-X-X",
"-X-X*X&XQ.F U U U U U U U ^ U U 4.F.D.D.D.D.D.D.D.D.<.W.{.@XE.e ",
"-X-X*X&XQ.b M m m M M m m m M m M F.v.v.v.v.v.v.v.z.a.{.#X@X/.-X",
"-X-X&X&X(.b n x j n M m M M M M M 4.z.z.z.z.z.z.d.'.].@XE.g $ -X",
"-X-X&X&X(.b s v v p M M C C C C C [ v.z.z.z.i.(.{.@X/.j u /.-X-X",
"-X-X&X%X).m i z z i C Z Z A Z A A Q N.z.z.s.[.{.].Y.t h &X&X-X-X",
"-X-X%X%X).b n 1 m B A Q Q Q ! ! Q Q 2.z.$.{.@XR.a 5 R Q.&X&X-X-X",
"-X-X%X%X).m 7 a.%.H Q ) ) ) ) ) _ ) P % u ^.g 3 @.>.E ).&X&X-X-X",
"-X-X%X%X`.N q &X{.d ) ) _ ' _ ' _ , & o . - K =.<.<.E !.#X%X-X-X",
"-X-X%X#X`.B 0 {./.J _ ' ' ' { G < : o # #.,.<.=.&.&.P !.#X%X-X-X",
"-X-X#X#X`.V S S S ~ { | | ` 2 : - * D ` i.X.W ] ] ] P !.#X#X-X-X",
"-X-X#X#X|.V ~ ~ ' { |  .7 w - O 7 ^ I F R W W W ] ] T `.#X%X-X-X",
"-X-X#X#X|.A ~ { { } / 3 : O > F N D F F P X.X.X.O.1.[ '.#X%X-X-X",
"-X-X#X#X'.S _ { | 0 e $ @ 1 4 4 G T } 7.9.l.u.0.+.+.T |.#X#X-X-X",
"-X-X#X@X|.! ' { s ; + , D T ..e.h.h.e.w.9.r.q.0.O.o./  X#X#X-X-X",
"-X-X#X@X|.S ' { G ` | e.e.h.h.j.h.h.h.h.e.w.0.9.o.../  X@X#X-X-X",
"-X-X@X@X+XS { |  .7.w.e.h.h.j.j.b.j.h.h.e.9.w.7. .} ^  X@X@X-X-X",
"-X-X@X@X+X>.l.x.c.n.n.M.M.M.P.P.H.K.M.M.m.m.n.x.z.u.>.+X@X@X-X-X",
"-X-X@X{.+Xi.Z.}.}.}.J..X.X.X.XoXoXXXI.I.H.G.G.F.F.Z.5.@X@X@X-X-X",
"-X-X@X@X$X6.-.-.-.:.:.i.i.i.i.i.i.i.i.i.:.:.:.-.-.-.-.$X{.@X-X-X",
"-X-X@X{.@X%X%X%X%X%X%X%X%X%X%X%X%X%X%X%X%X&X%X%X%X%X%X@X{.{.-X-X",
"-X-XR.].].{.].{.{.{.{.{.].{.{.{.{.{.{.{.].{.{.{.{.{.{.{.{.R.-X-X",
"-X-Xy T.~.~.~.~.~.~./.~././././././././.~./.~./.~.~.~.~.T.y -X-X",
"-X-X- y u f f f g g g g g g h h g g g g g g f f f f f u y - -X-X",
"-X-X-X-X                                                -X-X-X-X",
"-X-X-X-X-X-X-X-X-X-X-X-X-X-X-X-X-X-X-X-X-X-X-X-X-X-X-X-X-X-X-X-X"
};
