/* XPM */
static char *desktop[] = {
/* columns rows colors chars-per-pixel */
"32 32 189 2",
"   c #000000",
".  c #171717",
"X  c #171718",
"o  c #181819",
"O  c #1E2428",
"+  c #172835",
"@  c #172B3A",
"#  c #212A2F",
"$  c #2B2C2D",
"%  c #222C34",
"&  c #2D2F30",
"*  c #253039",
"=  c #313131",
"-  c #303438",
";  c #363B3E",
":  c #3A3A3A",
">  c #1B384E",
",  c #3B4247",
"<  c #284256",
"1  c #21445F",
"2  c #364957",
"3  c #234864",
"4  c #2A516F",
"5  c #295375",
"6  c #2C5A7D",
"7  c #305471",
"8  c #3E5E77",
"9  c #3B5F7B",
"0  c #46494C",
"q  c #4C4D4D",
"w  c #414D56",
"e  c #4E5254",
"r  c #43515C",
"t  c #4C5E5F",
"y  c #545454",
"u  c #5C5C5C",
"i  c #4C5F64",
"p  c #465F72",
"a  c #56676B",
"s  c #5B6A6A",
"d  c #4E6272",
"f  c #4B667A",
"g  c #646464",
"h  c #6B6B6B",
"j  c #6B6F74",
"k  c #797979",
"l  c #B8934F",
"z  c #B99450",
"x  c #888C7E",
"c  c #A29A7E",
"v  c #D1AE6D",
"b  c #D3AF70",
"n  c #265982",
"m  c #2C5D82",
"M  c #295E8A",
"N  c #2A618D",
"B  c #326185",
"V  c #3F6481",
"C  c #39698E",
"Z  c #2C6592",
"A  c #2E6896",
"S  c #2F6B99",
"D  c #316A97",
"F  c #3C6D94",
"G  c #326D9B",
"H  c #37719E",
"J  c #3E729B",
"K  c #3573A4",
"L  c #3B75A2",
"P  c #3C78A7",
"I  c #3777A9",
"U  c #3778AA",
"Y  c #3A7AAD",
"T  c #3C7DB1",
"R  c #456681",
"E  c #4A6982",
"W  c #446E8F",
"Q  c #486D8D",
"!  c #436E90",
"~  c #417196",
"^  c #4A7494",
"/  c #4B7699",
"(  c #4D7A9C",
")  c #547793",
"_  c #527C9E",
"`  c #727E87",
"'  c #4176A1",
"]  c #4378A0",
"[  c #4E7EA4",
"{  c #5A7FA1",
"}  c #3D80B4",
"|  c #7C8186",
" . c #7F8F9D",
".. c #5C84A6",
"X. c #5385AD",
"o. c #5E86A8",
"O. c #5D8AAE",
"+. c #4383B6",
"@. c #4A87B6",
"#. c #4F88B4",
"$. c #4286BB",
"%. c #4887B8",
"&. c #4289BF",
"*. c #4C8BBC",
"=. c #5489B4",
"-. c #528DBA",
";. c #5591BF",
":. c #6686A4",
">. c #6A88A1",
",. c #6187A9",
"<. c #6389AB",
"1. c #718FA8",
"2. c #7F95A9",
"3. c #638DB1",
"4. c #6490B5",
"5. c #6C94B5",
"6. c #6393BA",
"7. c #6D96B9",
"8. c #7095B6",
"9. c #7096B8",
"0. c #7399BB",
"q. c #7A9CBB",
"w. c #458CC4",
"e. c #4B8EC2",
"r. c #468FC8",
"t. c #4790C9",
"y. c #4994CD",
"u. c #5090C3",
"i. c #5E95C3",
"p. c #4D99D4",
"a. c #4F9DDA",
"s. c #6298C6",
"d. c #649CCC",
"f. c #7EA0C0",
"g. c #73A3CC",
"h. c #7AA6CD",
"j. c #67A1D1",
"k. c #69A4D5",
"l. c #6BA7D9",
"z. c #6DAADC",
"x. c #75A7D1",
"c. c #77A9D4",
"v. c #78ACD7",
"b. c #7AAEDA",
"n. c #7DB0DB",
"m. c #6EADE0",
"M. c #70B0E4",
"N. c #7DB2E0",
"B. c #868686",
"V. c #8B8B8B",
"C. c #969696",
"Z. c #9C9C9C",
"A. c #8597A5",
"S. c #99A0A4",
"D. c #9FA8AF",
"F. c #80A2BF",
"G. c #A5A5A5",
"H. c #A5A7A9",
"J. c #A1A9AF",
"K. c #AAAAAA",
"L. c #A4AAB1",
"P. c #ABAFB3",
"I. c #A7B0B7",
"U. c #AEB2B6",
"Y. c #ABB4BB",
"T. c #B4B4B5",
"R. c #B1B5B8",
"E. c #B9B9B9",
"W. c #84A4C2",
"Q. c #8CABCA",
"!. c #95B3CE",
"~. c #8FB5D7",
"^. c #90B8DB",
"/. c #AFB8C0",
"(. c #B3BCC4",
"). c #85B9E5",
"_. c #94BFE2",
"`. c #BBC3CA",
"'. c #94C0E6",
"]. c #95C2E8",
"[. c #98C4EA",
"{. c #C3C3C3",
"}. c #C1C8CE",
"|. c #CCCCCC",
" X c #D4D4D4",
".X c #DADADA",
"XX c #E3E3E3",
"oX c #EBEBEB",
"OX c None",
/* pixels */
"OXOXOXOXOXOXOXOXOXOXOXOXOXOXOXOXOXOXOXOXOXOXOXOXOXOXOXOXOXOXOXOX",
"OXOXOXOXOXOXOXOXOXOXOXOXOXOXOXOXOXOXOXOXOXOXOXOXOXOXOXOXOXOXOXOX",
"OXOXOX.XoXXXoXoXoXXXoXoXoXoXoXoXoXoXoXoXoXoXoXoXoXoXoXoX.XOXOXOX",
"OXOX XXXXXXXXXXXXXXXXXXXXXXXXXoXoXoXoXoXoXoXoXoXoXoXoXoXoXXXOXOX",
"OXOXXXXX|.P.L.L.L.L.L.L.L.L.L.L.P.L.J.L.J.L.J.L.L.L.U. XoXoXOXOX",
"OXOXXXXXU.) <.q.,.,.<.<.<.,.,.,.W.q.q.q.q.q.q.q.q.q.:.T.oXoXOXOX",
"OXOXXX.XL.o.5.W.7.f.f.q.q.f.0.5.!.Q.Q.Q.Q.Q.Q.Q.Q.Q.q.L.oXXXOXOX",
"OXOXXX.XL.F ~ ~ J J J J J J H H 5.W.f.f.q.W.f.f.W.q.<.S.T.{.Z.q ",
"OXOXXX.XD.n N N N N N N N N N N Z f.0.0.0.0.9.9.9.8. .E.|.{.K.OX",
"OXOX.X.XD.n m c x m N N N N N Z N 5.9.9.7.9.9.5.2.T.T.{.Z.h $ OX",
"OXOX.X.XL.n s b v a N Z A S A A A X.0.9.7.7.1.L.E.{.H.k u K.OXOX",
"OXOX.X XL.n i z l i A S S S S S G A q.7.5.A.E.E.T.B.e j .X.XOXOX",
"OXOX X XP.n M n M Z S S K K K H H K O.7.` E.{.C.s r W D..X.XOXOX",
"OXOX X XI.M 9 | | V K K K K I U K K F * u H.h w ) ../ I..X.XOXOX",
"OXOX X XI.N d .XE.f K U U U U U U < & . X - E ..,.<.^ L.|. XOXOX",
"OXOX X|.Y.N 8 E.J.R U Y Y T } B , ; o % ^ O.O..._ _ W L.|. XOXOX",
"OXOX X|.Y.Z G D D I T Y } P 2 ; = * 6 P O.=.( ( ( ..~ J.|. XOXOX",
"OXOX|.|./.A K U Y T } +.5 0 = O 4 H F N W ^ / / / ( ~ I.|. XOXOX",
"OXOX|.|.(.A U Y T T H r : # > n 6 6 B N H X.X.X.#.=.] Y.|. XOXOX",
"OXOX|.{.(.D U Y } V q $ @ 1 5 6 B H } } } i.;.;.#.#.L `.|.|.OXOX",
"OXOX|.{.(.G Y } d ; + 1 m D [ r.y.y.y.t.w.u.u.*.*.@.' (.|.|.OXOX",
"OXOX|.{.(.G T Y B H T r.y.y.p.p.p.p.y.t.t.w.e.*.%.+.J (.{.|.OXOX",
"OXOX{.{.`.G T } $.w.w.t.y.p.a.a.a.a.p.y.t.w.&.%.+.} H (.{.{.OXOX",
"OXOX{.E.`.X.i.s.s.d.j.k.l.z.m.M.M.m.z.l.k.j.j.s.s.s.=.`.{.{.OXOX",
"OXOX{.E.}.6.h.~.^.^.n._._._.).[.[.].N.n.b.v.c.x.g.g.3.}.{.{.OXOX",
"OXOX{.E. X>.{ ....:.:.O.<.3.3.3.3.3.3.3.<.,.,....._ >. XE.{.OXOX",
"OXOXE.E.{. X X X X X X X X X X X X X X X X X X X X X X{.E.E.OXOX",
"OXOXZ.E.E.E.E.E.E.E.E.E.E.E.E.E.E.E.T.E.E.E.E.E.E.E.E.T.E.C.OXOX",
"OXOXy V.Z.G.G.G.K.G.K.G.K.K.K.K.K.K.K.K.G.K.G.K.G.G.G.G.V.y OXOX",
"OXOX= y u g g g g h h h h h j j h h h h h h g g g g g u y = OXOX",
"OXOXOXOX                                                OXOXOXOX",
"OXOXOXOXOXOXOXOXOXOXOXOXOXOXOXOXOXOXOXOXOXOXOXOXOXOXOXOXOXOXOXOX"
};
